<?xml version="1.0" encoding="utf-8"?>
<!-- Generator: Adobe Illustrator 27.2.0, SVG Export Plug-In . SVG Version: 6.00 Build 0)  -->
<svg version="1.1" id="Layer_1" xmlns="http://www.w3.org/2000/svg" xmlns:xlink="http://www.w3.org/1999/xlink" x="0px" y="0px"
	 viewBox="0 0 660 510" style="enable-background:new 0 0 660 510;" xml:space="preserve">
<style type="text/css">
	.st0{fill:#FFFFFF;stroke:#000000;stroke-miterlimit:10;}
	.st1{fill:#D5E8D4;stroke:#82B366;}
	.st2{fill:#DAE8FC;stroke:#6C8EBF;}
	.st3{fill:#F5F5F5;stroke:#666666;}
	.st4{fill:none;stroke:#67AB9F;stroke-miterlimit:10;}
	.st5{fill:#67AB9F;stroke:#67AB9F;stroke-miterlimit:10;}
	.st6{fill:none;stroke:#FFB570;stroke-miterlimit:10;stroke-dasharray:3,3;}
	.st7{fill:#FFB570;stroke:#FFB570;stroke-miterlimit:10;}
	.st8{fill:none;}
	.st9{font-family:'Helvetica';}
	.st10{font-size:12px;}
	.st11{font-family:'ArialMT';}
	.st12{font-size:10px;}
</style>
<g>
	<path pointer-events="all" class="st0" d="M130,135c-80,0-100,75-36,90c-64,33,8,105,60,75c36,60,156,60,196,0c80,0,80-60,30-90
		c50-60-30-120-100-90C230,75,150,75,130,135z"/>
	<ellipse pointer-events="all" class="st1" cx="545" cy="370" rx="105" ry="110"/>
	<ellipse pointer-events="all" class="st2" cx="535" cy="140" rx="105" ry="110"/>
	<rect x="180" y="60" pointer-events="all" class="st3" width="146" height="300"/>
	<path pointer-events="stroke" class="st4" d="M50,280l413.74,78.81"/>
	<path pointer-events="all" class="st5" d="M468.9,359.79l-7.53,2.13l2.37-3.11l-1.06-3.77L468.9,359.79z"/>
	<path pointer-events="stroke" class="st6" d="M50,280l413.78-118.23"/>
	<path pointer-events="all" class="st7" d="M468.83,160.33l-5.77,5.29l0.72-3.85l-2.65-2.88L468.83,160.33z"/>
	<path pointer-events="stroke" class="st6" d="M50,200l417.15,144.5"/>
	<path pointer-events="all" class="st7" d="M472.11,346.22l-7.76,1.01l2.8-2.73l-0.51-3.88L472.11,346.22z"/>
	<path pointer-events="stroke" class="st4" d="M50,200l413.68-49.25"/>
	<path pointer-events="all" class="st5" d="M468.89,150.13l-6.54,4.31l1.33-3.69l-2.15-3.27L468.89,150.13z"/>
	<rect x="185" y="135" pointer-events="all" class="st8" width="130" height="20"/>
	<g transform="translate(-0.5 -0.5)">
		<text transform="matrix(1 0 0 1 192.291 149)" class="st9 st10">Global load balancing</text>
	</g>
	<rect y="140" pointer-events="all" class="st8" width="40" height="20"/>
	<g transform="translate(-0.5 -0.5)">
		<text transform="matrix(1 0 0 1 1.6602 154)" class="st9 st10">Clients</text>
	</g>
	<rect x="520" pointer-events="all" class="st8" width="140" height="20"/>
	<g transform="translate(-0.5 -0.5)">
		<text transform="matrix(1 0 0 1 532.4199 14)" class="st9 st10">West coast resources</text>
	</g>
	<rect x="520" y="490" pointer-events="all" class="st8" width="140" height="20"/>
	<g transform="translate(-0.5 -0.5)">
		<text transform="matrix(1 0 0 1 533.9756 504)" class="st9 st10">East coast resources</text>
	</g>
	<rect x="480" y="90" pointer-events="all" class="st8" width="40" height="20"/>
	<g transform="translate(-0.5 -0.5)">
		<text transform="matrix(1 0 0 1 476.6475 104)" class="st9 st10">Load b...</text>
	</g>
	<rect x="480" y="400" pointer-events="all" class="st8" width="40" height="20"/>
	<g transform="translate(-0.5 -0.5)">
		<text transform="matrix(1 0 0 1 476.6475 414)" class="st9 st10">Load b...</text>
	</g>
	<rect x="177.5" pointer-events="all" class="st8" width="145" height="20"/>
	<g transform="translate(-0.5 -0.5)">
		<text transform="matrix(1 0 0 1 179.6377 14)" class="st9 st10">IBM Cloud Internet Servi...</text>
	</g>
</g>
<a xlink:href="https://desk.draw.io/support/solutions/articles/16000042487"  transform="translate(0,-5)">
	<text transform="matrix(1 0 0 1 243.6006 511)" class="st11 st12">Viewer does not support full SVG 1.1</text>
</a>
</svg>
