<?xml version="1.0" encoding="UTF-8"?>
<!-- Do not edit this file with editors other than draw.io -->
<!DOCTYPE svg PUBLIC "-//W3C//DTD SVG 1.1//EN" "http://www.w3.org/Graphics/SVG/1.1/DTD/svg11.dtd">
<svg xmlns="http://www.w3.org/2000/svg" style="background: #ffffff; background-color: #ffffff; color-scheme: light;" xmlns:xlink="http://www.w3.org/1999/xlink" version="1.1" width="840px" height="220px" viewBox="-0.5 -0.5 840 220" content="&lt;mxfile host=&quot;app.diagrams.net&quot; agent=&quot;Mozilla/5.0 (Macintosh; Intel Mac OS X 10_15_7) AppleWebKit/537.36 (KHTML, like Gecko) Chrome/138.0.0.0 Safari/537.36 Edg/138.0.0.0&quot; version=&quot;27.2.0&quot; scale=&quot;1&quot; border=&quot;0&quot;&gt;&#10;  &lt;diagram name=&quot;Page-1&quot; id=&quot;R-NlqNktbIgzH56rc4e2&quot;&gt;&#10;    &lt;mxGraphModel dx=&quot;1226&quot; dy=&quot;698&quot; grid=&quot;1&quot; gridSize=&quot;10&quot; guides=&quot;1&quot; tooltips=&quot;1&quot; connect=&quot;1&quot; arrows=&quot;1&quot; fold=&quot;1&quot; page=&quot;1&quot; pageScale=&quot;1&quot; pageWidth=&quot;850&quot; pageHeight=&quot;1100&quot; math=&quot;0&quot; shadow=&quot;0&quot;&gt;&#10;      &lt;root&gt;&#10;        &lt;mxCell id=&quot;0&quot; /&gt;&#10;        &lt;mxCell id=&quot;1&quot; parent=&quot;0&quot; /&gt;&#10;        &lt;mxCell id=&quot;wvHCSMqCh3a_h-5n7Jq_-1&quot; value=&quot;&quot; style=&quot;rounded=0;whiteSpace=wrap;html=1;fillColor=default;strokeColor=none;&quot; vertex=&quot;1&quot; parent=&quot;1&quot;&gt;&#10;          &lt;mxGeometry x=&quot;110&quot; y=&quot;180&quot; width=&quot;610&quot; height=&quot;220&quot; as=&quot;geometry&quot; /&gt;&#10;        &lt;/mxCell&gt;&#10;        &lt;mxCell id=&quot;wvHCSMqCh3a_h-5n7Jq_-2&quot; value=&quot;&quot; style=&quot;endArrow=none;html=1;rounded=0;&quot; edge=&quot;1&quot; parent=&quot;1&quot;&gt;&#10;          &lt;mxGeometry width=&quot;50&quot; height=&quot;50&quot; relative=&quot;1&quot; as=&quot;geometry&quot;&gt;&#10;            &lt;mxPoint x=&quot;210.5&quot; y=&quot;291.5&quot; as=&quot;sourcePoint&quot; /&gt;&#10;            &lt;mxPoint x=&quot;620.5&quot; y=&quot;292.5&quot; as=&quot;targetPoint&quot; /&gt;&#10;          &lt;/mxGeometry&gt;&#10;        &lt;/mxCell&gt;&#10;        &lt;mxCell id=&quot;wvHCSMqCh3a_h-5n7Jq_-3&quot; value=&quot;Visitor&quot; style=&quot;shape=ellipse;fillColor=#000000;aspect=fixed;resizable=0;labelPosition=center;verticalLabelPosition=bottom;align=center;verticalAlign=top;strokeColor=none;fontSize=14;&quot; vertex=&quot;1&quot; parent=&quot;1&quot;&gt;&#10;          &lt;mxGeometry x=&quot;193.5&quot; y=&quot;266&quot; width=&quot;48&quot; height=&quot;48&quot; as=&quot;geometry&quot; /&gt;&#10;        &lt;/mxCell&gt;&#10;        &lt;mxCell id=&quot;wvHCSMqCh3a_h-5n7Jq_-4&quot; value=&quot;&quot; style=&quot;fillColor=#ffffff;strokeColor=none;dashed=0;outlineConnect=0;html=1;labelPosition=center;verticalLabelPosition=bottom;verticalAlign=top;part=1;movable=0;resizable=0;rotatable=0;shape=mxgraph.ibm_cloud.user&quot; vertex=&quot;1&quot; parent=&quot;wvHCSMqCh3a_h-5n7Jq_-3&quot;&gt;&#10;          &lt;mxGeometry width=&quot;24&quot; height=&quot;24&quot; relative=&quot;1&quot; as=&quot;geometry&quot;&gt;&#10;            &lt;mxPoint x=&quot;12&quot; y=&quot;12&quot; as=&quot;offset&quot; /&gt;&#10;          &lt;/mxGeometry&gt;&#10;        &lt;/mxCell&gt;&#10;        &lt;mxCell id=&quot;wvHCSMqCh3a_h-5n7Jq_-5&quot; value=&quot;Cloud &amp;#xa;Internet &amp;#xa;Services&quot; style=&quot;shape=rect;fillColor=#1192E8;aspect=fixed;resizable=0;labelPosition=center;verticalLabelPosition=bottom;align=center;verticalAlign=top;strokeColor=none;fontSize=14;&quot; vertex=&quot;1&quot; parent=&quot;1&quot;&gt;&#10;          &lt;mxGeometry x=&quot;391.5&quot; y=&quot;266&quot; width=&quot;48&quot; height=&quot;48&quot; as=&quot;geometry&quot; /&gt;&#10;        &lt;/mxCell&gt;&#10;        &lt;mxCell id=&quot;wvHCSMqCh3a_h-5n7Jq_-6&quot; value=&quot;&quot; style=&quot;fillColor=#ffffff;strokeColor=none;dashed=0;outlineConnect=0;html=1;labelPosition=center;verticalLabelPosition=bottom;verticalAlign=top;part=1;movable=0;resizable=0;rotatable=0;shape=mxgraph.ibm_cloud.ibm-cloud--internet-services&quot; vertex=&quot;1&quot; parent=&quot;wvHCSMqCh3a_h-5n7Jq_-5&quot;&gt;&#10;          &lt;mxGeometry width=&quot;24&quot; height=&quot;24&quot; relative=&quot;1&quot; as=&quot;geometry&quot;&gt;&#10;            &lt;mxPoint x=&quot;12&quot; y=&quot;12&quot; as=&quot;offset&quot; /&gt;&#10;          &lt;/mxGeometry&gt;&#10;        &lt;/mxCell&gt;&#10;        &lt;mxCell id=&quot;wvHCSMqCh3a_h-5n7Jq_-7&quot; value=&quot;&quot; style=&quot;shape=rect;fillColor=#FA4D56;aspect=fixed;resizable=0;labelPosition=center;verticalLabelPosition=bottom;align=center;verticalAlign=top;strokeColor=none;fontSize=14;&quot; vertex=&quot;1&quot; parent=&quot;1&quot;&gt;&#10;          &lt;mxGeometry x=&quot;291.5&quot; y=&quot;266&quot; width=&quot;48&quot; height=&quot;48&quot; as=&quot;geometry&quot; /&gt;&#10;        &lt;/mxCell&gt;&#10;        &lt;mxCell id=&quot;wvHCSMqCh3a_h-5n7Jq_-8&quot; value=&quot;&quot; style=&quot;fillColor=#ffffff;strokeColor=none;dashed=0;outlineConnect=0;html=1;labelPosition=center;verticalLabelPosition=bottom;verticalAlign=top;part=1;movable=0;resizable=0;rotatable=0;shape=mxgraph.ibm_cloud.vpn--connection&quot; vertex=&quot;1&quot; parent=&quot;wvHCSMqCh3a_h-5n7Jq_-7&quot;&gt;&#10;          &lt;mxGeometry width=&quot;24&quot; height=&quot;24&quot; relative=&quot;1&quot; as=&quot;geometry&quot;&gt;&#10;            &lt;mxPoint x=&quot;12&quot; y=&quot;12&quot; as=&quot;offset&quot; /&gt;&#10;          &lt;/mxGeometry&gt;&#10;        &lt;/mxCell&gt;&#10;        &lt;mxCell id=&quot;wvHCSMqCh3a_h-5n7Jq_-9&quot; value=&quot;Origin Server&amp;#xa;&quot; style=&quot;shape=rect;fillColor=#198038;aspect=fixed;resizable=0;labelPosition=center;verticalLabelPosition=bottom;align=center;verticalAlign=top;strokeColor=none;fontSize=14;&quot; vertex=&quot;1&quot; parent=&quot;1&quot;&gt;&#10;          &lt;mxGeometry x=&quot;588.5&quot; y=&quot;266&quot; width=&quot;48&quot; height=&quot;48&quot; as=&quot;geometry&quot; /&gt;&#10;        &lt;/mxCell&gt;&#10;        &lt;mxCell id=&quot;wvHCSMqCh3a_h-5n7Jq_-10&quot; value=&quot;&quot; style=&quot;fillColor=#ffffff;strokeColor=none;dashed=0;outlineConnect=0;html=1;labelPosition=center;verticalLabelPosition=bottom;verticalAlign=top;part=1;movable=0;resizable=0;rotatable=0;shape=mxgraph.ibm_cloud.ibm-cloud--virtual-server-classic&quot; vertex=&quot;1&quot; parent=&quot;wvHCSMqCh3a_h-5n7Jq_-9&quot;&gt;&#10;          &lt;mxGeometry width=&quot;24&quot; height=&quot;24&quot; relative=&quot;1&quot; as=&quot;geometry&quot;&gt;&#10;            &lt;mxPoint x=&quot;12&quot; y=&quot;12&quot; as=&quot;offset&quot; /&gt;&#10;          &lt;/mxGeometry&gt;&#10;        &lt;/mxCell&gt;&#10;        &lt;mxCell id=&quot;wvHCSMqCh3a_h-5n7Jq_-11&quot; value=&quot;&quot; style=&quot;rounded=0;whiteSpace=wrap;html=1;fillColor=default;strokeColor=none;&quot; vertex=&quot;1&quot; parent=&quot;1&quot;&gt;&#10;          &lt;mxGeometry x=&quot;720&quot; y=&quot;180&quot; width=&quot;120&quot; height=&quot;220&quot; as=&quot;geometry&quot; /&gt;&#10;        &lt;/mxCell&gt;&#10;        &lt;mxCell id=&quot;wvHCSMqCh3a_h-5n7Jq_-12&quot; value=&quot;&quot; style=&quot;rounded=0;whiteSpace=wrap;html=1;fillColor=default;strokeColor=none;&quot; vertex=&quot;1&quot; parent=&quot;1&quot;&gt;&#10;          &lt;mxGeometry y=&quot;180&quot; width=&quot;110&quot; height=&quot;220&quot; as=&quot;geometry&quot; /&gt;&#10;        &lt;/mxCell&gt;&#10;      &lt;/root&gt;&#10;    &lt;/mxGraphModel&gt;&#10;  &lt;/diagram&gt;&#10;&lt;/mxfile&gt;&#10;"><defs/><rect fill="#ffffff" width="100%" height="100%" x="0" y="0" style="fill: rgb(255, 255, 255);"/><g><g data-cell-id="0"><g data-cell-id="1"><g data-cell-id="wvHCSMqCh3a_h-5n7Jq_-1"><g><rect x="110" y="0" width="610" height="220" fill="#ffffff" stroke="none" pointer-events="all" style="fill: rgb(255, 255, 255);"/></g></g><g data-cell-id="wvHCSMqCh3a_h-5n7Jq_-2"><g><path d="M 210.5 111.5 L 620.5 112.5" fill="none" stroke="#000000" stroke-miterlimit="10" pointer-events="stroke" style="stroke: rgb(0, 0, 0);"/></g></g><g data-cell-id="wvHCSMqCh3a_h-5n7Jq_-3"><g><ellipse cx="217.5" cy="110" rx="24" ry="24" fill="#000000" stroke="none" pointer-events="all" style="fill: rgb(0, 0, 0);"/></g><g><g fill="#000000" font-family="Helvetica" text-anchor="middle" font-size="14px" style="fill: rgb(0, 0, 0);"><text x="217.5" y="154">Visitor</text></g></g><g data-cell-id="wvHCSMqCh3a_h-5n7Jq_-4"><g><rect x="205.5" y="98" width="24" height="24" fill="none" stroke="none" pointer-events="all"/><rect x="205.5" y="98" width="0" height="0" fill="none" stroke="none" pointer-events="all"/><path d="M 217.5 101 C 219.57 101 221.25 102.68 221.25 104.75 C 221.25 106.82 219.57 108.5 217.5 108.5 C 215.43 108.5 213.75 106.82 213.75 104.75 C 213.75 102.68 215.43 101 217.5 101 M 217.5 99.5 C 214.6 99.5 212.25 101.85 212.25 104.75 C 212.25 107.65 214.6 110 217.5 110 C 220.4 110 222.75 107.65 222.75 104.75 C 222.75 101.85 220.4 99.5 217.5 99.5 Z M 225 120.5 L 223.5 120.5 L 223.5 116.75 C 223.5 114.68 221.82 113 219.75 113 L 215.25 113 C 213.18 113 211.5 114.68 211.5 116.75 L 211.5 120.5 L 210 120.5 L 210 116.75 C 210 113.85 212.35 111.5 215.25 111.5 L 219.75 111.5 C 222.65 111.5 225 113.85 225 116.75 Z" fill="#ffffff" stroke="none" pointer-events="all" style="fill: rgb(255, 255, 255);"/></g></g></g><g data-cell-id="wvHCSMqCh3a_h-5n7Jq_-5"><g><rect x="391.5" y="86" width="48" height="48" fill="#1192e8" stroke="none" pointer-events="all" style="fill: rgb(17, 146, 232);"/></g><g><g fill="#000000" font-family="Helvetica" text-anchor="middle" font-size="14px" style="fill: rgb(0, 0, 0);"><text x="415.5" y="154">Cloud </text><text x="415.5" y="171">Internet </text><text x="415.5" y="188">Services</text></g></g><g data-cell-id="wvHCSMqCh3a_h-5n7Jq_-6"><g><rect x="403.5" y="98" width="24" height="24" fill="none" stroke="none" pointer-events="all"/><rect x="403.5" y="98" width="0" height="0" fill="none" stroke="none" pointer-events="all"/><path d="M 423.75 114.5 C 423.22 114.5 422.7 114.73 422.33 115.02 L 418.42 112.7 C 418.42 112.55 418.5 112.4 418.5 112.25 C 418.5 112.1 418.5 111.95 418.42 111.8 L 422.33 109.48 C 422.7 109.77 423.22 110 423.75 110 C 425.03 110 426 109.02 426 107.75 C 426 106.48 425.03 105.5 423.75 105.5 C 422.47 105.5 421.5 106.48 421.5 107.75 C 421.5 107.9 421.5 108.05 421.58 108.2 L 417.67 110.52 C 417.3 110.23 416.78 110 416.25 110 C 414.97 110 414 110.98 414 112.25 C 414 113.52 414.97 114.5 416.25 114.5 C 416.78 114.5 417.3 114.27 417.67 113.98 L 421.58 116.3 C 421.58 116.45 421.5 116.6 421.5 116.75 C 421.5 118.02 422.47 119 423.75 119 C 425.03 119 426 118.02 426 116.75 C 426 115.48 425.03 114.5 423.75 114.5 Z M 423.75 107 C 424.2 107 424.5 107.3 424.5 107.75 C 424.5 108.2 424.2 108.5 423.75 108.5 C 423.3 108.5 423 108.2 423 107.75 C 423 107.3 423.3 107 423.75 107 Z M 416.25 113 C 415.8 113 415.5 112.7 415.5 112.25 C 415.5 111.8 415.8 111.5 416.25 111.5 C 416.7 111.5 417 111.8 417 112.25 C 417 112.7 416.7 113 416.25 113 Z M 423.75 117.5 C 423.3 117.5 423 117.2 423 116.75 C 423 116.3 423.3 116 423.75 116 C 424.2 116 424.5 116.3 424.5 116.75 C 424.5 117.2 424.2 117.5 423.75 117.5 Z" fill="#ffffff" stroke="none" pointer-events="all" style="fill: rgb(255, 255, 255);"/><path d="M 417.75 116.75 L 409.88 116.75 C 407.63 116.75 405.75 114.88 405.75 112.63 C 405.75 110.6 407.17 108.95 409.13 108.58 L 410.1 108.42 L 410.33 107.45 C 410.92 104.52 413.4 102.5 416.25 102.5 C 416.63 102.5 417 102.5 417.38 102.58 C 418.58 102.8 419.63 103.4 420.53 104.23 L 421.58 103.17 C 420.53 102.13 419.17 101.38 417.67 101.15 C 417.22 101.08 416.7 101 416.25 101 C 412.72 101 409.58 103.48 408.9 107.08 C 406.2 107.6 404.25 109.92 404.25 112.63 C 404.25 115.7 406.72 118.25 409.88 118.25 L 417.75 118.25 L 417.75 116.75 Z" fill="#ffffff" stroke="none" pointer-events="all" style="fill: rgb(255, 255, 255);"/></g></g></g><g data-cell-id="wvHCSMqCh3a_h-5n7Jq_-7"><g><rect x="291.5" y="86" width="48" height="48" fill="#fa4d56" stroke="none" pointer-events="all" style="fill: rgb(250, 77, 86);"/></g><g data-cell-id="wvHCSMqCh3a_h-5n7Jq_-8"><g><rect x="303.5" y="98" width="24" height="24" fill="none" stroke="none" pointer-events="all"/><rect x="303.5" y="98" width="0" height="0" fill="none" stroke="none" pointer-events="all"/><path d="M 324.5 103.25 C 323.97 103.25 323.47 103.54 323.21 104 L 320 104 C 320 101.51 317.99 99.5 315.5 99.5 C 313.01 99.5 311 101.51 311 104 L 307.79 104 C 307.45 103.41 306.76 103.13 306.1 103.3 C 305.45 103.48 304.99 104.07 304.99 104.75 C 304.99 105.43 305.45 106.02 306.1 106.2 C 306.76 106.37 307.45 106.09 307.79 105.5 L 311 105.5 L 311 108.5 L 309.5 108.5 C 308.67 108.5 308 109.17 308 110 L 308 119 C 308 119.83 308.67 120.5 309.5 120.5 L 321.5 120.5 C 322.33 120.5 323 119.83 323 119 L 323 110 C 323 109.17 322.33 108.5 321.5 108.5 L 320 108.5 L 320 105.5 L 323.21 105.5 C 323.57 106.13 324.34 106.4 325.02 106.15 C 325.7 105.9 326.11 105.2 325.98 104.48 C 325.85 103.77 325.23 103.25 324.5 103.25 M 312.5 104 C 312.5 102.34 313.84 101 315.5 101 C 317.16 101 318.5 102.34 318.5 104 L 318.5 108.5 L 312.5 108.5 L 312.5 105.5 L 316.25 105.5 L 316.25 104 Z M 321.5 110 L 321.5 119 L 309.5 119 L 309.5 110 Z" fill="#ffffff" stroke="none" pointer-events="all" style="fill: rgb(255, 255, 255);"/></g></g></g><g data-cell-id="wvHCSMqCh3a_h-5n7Jq_-9"><g><rect x="588.5" y="86" width="48" height="48" fill="#198038" stroke="none" pointer-events="all" style="fill: rgb(25, 128, 56);"/></g><g><g fill="#000000" font-family="Helvetica" text-anchor="middle" font-size="14px" style="fill: rgb(0, 0, 0);"><text x="612.5" y="154">Origin Server</text></g></g><g data-cell-id="wvHCSMqCh3a_h-5n7Jq_-10"><g><rect x="600.5" y="98" width="24" height="24" fill="none" stroke="none" pointer-events="all"/><rect x="600.5" y="98" width="0" height="0" fill="none" stroke="none" pointer-events="all"/><ellipse cx="607.25" cy="117.5" rx="0.75" ry="0.75" fill="#ffffff" stroke="none" pointer-events="all" style="fill: rgb(255, 255, 255);"/><path d="M 620 114.5 L 616.25 114.5 L 616.25 116 L 620 116 L 620 119 L 605 119 L 605 116 L 611.75 116 C 612.58 116 613.25 115.33 613.25 114.5 L 613.25 107.62 L 615.19 109.57 L 616.25 108.5 L 612.5 104.75 L 608.75 108.5 L 609.81 109.56 L 611.75 107.62 L 611.75 114.5 L 605 114.5 C 604.17 114.5 603.5 115.17 603.5 116 L 603.5 119 C 603.5 119.83 604.17 120.5 605 120.5 L 620 120.5 C 620.83 120.5 621.5 119.83 621.5 119 L 621.5 116 C 621.5 115.17 620.83 114.5 620 114.5 Z" fill="#ffffff" stroke="none" pointer-events="all" style="fill: rgb(255, 255, 255);"/><path d="M 618.31 104.04 C 617.65 101.41 615.25 99.5 612.5 99.5 C 609.75 99.5 607.35 101.41 606.69 104.04 C 604.47 104.32 602.75 106.21 602.75 108.5 C 602.75 110.98 604.77 113 607.25 113 L 608.75 113 L 608.75 111.5 L 607.25 111.5 C 605.59 111.5 604.25 110.16 604.25 108.5 C 604.25 106.86 605.58 105.52 607.21 105.5 L 607.95 105.51 L 608.05 104.86 C 608.37 102.66 610.28 101 612.5 101 C 614.72 101 616.63 102.66 616.95 104.86 L 617.04 105.52 L 617.7 105.51 L 617.8 105.5 C 619.43 105.52 620.75 106.86 620.75 108.5 C 620.75 110.16 619.41 111.5 617.75 111.5 L 616.25 111.5 L 616.25 113 L 617.75 113 C 620.23 113 622.25 110.98 622.25 108.5 C 622.25 106.21 620.53 104.32 618.31 104.04 Z" fill="#ffffff" stroke="none" pointer-events="all" style="fill: rgb(255, 255, 255);"/></g></g></g><g data-cell-id="wvHCSMqCh3a_h-5n7Jq_-11"><g><rect x="720" y="0" width="120" height="220" fill="#ffffff" stroke="none" pointer-events="all" style="fill: rgb(255, 255, 255);"/></g></g><g data-cell-id="wvHCSMqCh3a_h-5n7Jq_-12"><g><rect x="0" y="0" width="110" height="220" fill="#ffffff" stroke="none" pointer-events="all" style="fill: rgb(255, 255, 255);"/></g></g></g></g></g></svg>