<?xml version="1.0" encoding="UTF-8"?>
<!-- Do not edit this file with editors other than draw.io -->
<!DOCTYPE svg PUBLIC "-//W3C//DTD SVG 1.1//EN" "http://www.w3.org/Graphics/SVG/1.1/DTD/svg11.dtd">
<svg xmlns="http://www.w3.org/2000/svg" style="background: #ffffff; background-color: #ffffff; color-scheme: light;" xmlns:xlink="http://www.w3.org/1999/xlink" version="1.1" width="670px" height="291px" viewBox="-0.5 -0.5 670 291" content="&lt;mxfile host=&quot;app.diagrams.net&quot; agent=&quot;Mozilla/5.0 (Macintosh; Intel Mac OS X 10_15_7) AppleWebKit/537.36 (KHTML, like Gecko) Chrome/138.0.0.0 Safari/537.36 Edg/138.0.0.0&quot; version=&quot;27.2.0&quot; scale=&quot;1&quot; border=&quot;0&quot;&gt;&#10;  &lt;diagram name=&quot;Page-1&quot; id=&quot;VMQzMJBvYHzRfyUvyS4v&quot;&gt;&#10;    &lt;mxGraphModel dx=&quot;1226&quot; dy=&quot;698&quot; grid=&quot;1&quot; gridSize=&quot;10&quot; guides=&quot;1&quot; tooltips=&quot;1&quot; connect=&quot;1&quot; arrows=&quot;1&quot; fold=&quot;1&quot; page=&quot;1&quot; pageScale=&quot;1&quot; pageWidth=&quot;850&quot; pageHeight=&quot;1100&quot; math=&quot;0&quot; shadow=&quot;0&quot;&gt;&#10;      &lt;root&gt;&#10;        &lt;mxCell id=&quot;0&quot; /&gt;&#10;        &lt;mxCell id=&quot;1&quot; parent=&quot;0&quot; /&gt;&#10;        &lt;mxCell id=&quot;dlb-fHAUYnm78_AOpvT9-1&quot; value=&quot;&quot; style=&quot;rounded=0;whiteSpace=wrap;html=1;fillColor=default;strokeColor=none;&quot; vertex=&quot;1&quot; parent=&quot;1&quot;&gt;&#10;          &lt;mxGeometry x=&quot;90&quot; y=&quot;149&quot; width=&quot;670&quot; height=&quot;291&quot; as=&quot;geometry&quot; /&gt;&#10;        &lt;/mxCell&gt;&#10;        &lt;mxCell id=&quot;dlb-fHAUYnm78_AOpvT9-2&quot; value=&quot;&quot; style=&quot;endArrow=none;html=1;rounded=0;&quot; edge=&quot;1&quot; parent=&quot;1&quot;&gt;&#10;          &lt;mxGeometry width=&quot;50&quot; height=&quot;50&quot; relative=&quot;1&quot; as=&quot;geometry&quot;&gt;&#10;            &lt;mxPoint x=&quot;221&quot; y=&quot;296&quot; as=&quot;sourcePoint&quot; /&gt;&#10;            &lt;mxPoint x=&quot;631&quot; y=&quot;297&quot; as=&quot;targetPoint&quot; /&gt;&#10;          &lt;/mxGeometry&gt;&#10;        &lt;/mxCell&gt;&#10;        &lt;mxCell id=&quot;dlb-fHAUYnm78_AOpvT9-3&quot; value=&quot;Visitor&quot; style=&quot;shape=ellipse;fillColor=#000000;aspect=fixed;resizable=0;labelPosition=center;verticalLabelPosition=bottom;align=center;verticalAlign=top;strokeColor=none;fontSize=14;&quot; vertex=&quot;1&quot; parent=&quot;1&quot;&gt;&#10;          &lt;mxGeometry x=&quot;204&quot; y=&quot;270.5&quot; width=&quot;48&quot; height=&quot;48&quot; as=&quot;geometry&quot; /&gt;&#10;        &lt;/mxCell&gt;&#10;        &lt;mxCell id=&quot;dlb-fHAUYnm78_AOpvT9-4&quot; value=&quot;&quot; style=&quot;fillColor=#ffffff;strokeColor=none;dashed=0;outlineConnect=0;html=1;labelPosition=center;verticalLabelPosition=bottom;verticalAlign=top;part=1;movable=0;resizable=0;rotatable=0;shape=mxgraph.ibm_cloud.user&quot; vertex=&quot;1&quot; parent=&quot;dlb-fHAUYnm78_AOpvT9-3&quot;&gt;&#10;          &lt;mxGeometry width=&quot;24&quot; height=&quot;24&quot; relative=&quot;1&quot; as=&quot;geometry&quot;&gt;&#10;            &lt;mxPoint x=&quot;12&quot; y=&quot;12&quot; as=&quot;offset&quot; /&gt;&#10;          &lt;/mxGeometry&gt;&#10;        &lt;/mxCell&gt;&#10;        &lt;mxCell id=&quot;dlb-fHAUYnm78_AOpvT9-5&quot; value=&quot;Cloud &amp;#xa;Internet &amp;#xa;Services&quot; style=&quot;shape=rect;fillColor=#1192E8;aspect=fixed;resizable=0;labelPosition=center;verticalLabelPosition=bottom;align=center;verticalAlign=top;strokeColor=none;fontSize=14;&quot; vertex=&quot;1&quot; parent=&quot;1&quot;&gt;&#10;          &lt;mxGeometry x=&quot;402&quot; y=&quot;270.5&quot; width=&quot;48&quot; height=&quot;48&quot; as=&quot;geometry&quot; /&gt;&#10;        &lt;/mxCell&gt;&#10;        &lt;mxCell id=&quot;dlb-fHAUYnm78_AOpvT9-6&quot; value=&quot;&quot; style=&quot;fillColor=#ffffff;strokeColor=none;dashed=0;outlineConnect=0;html=1;labelPosition=center;verticalLabelPosition=bottom;verticalAlign=top;part=1;movable=0;resizable=0;rotatable=0;shape=mxgraph.ibm_cloud.ibm-cloud--internet-services&quot; vertex=&quot;1&quot; parent=&quot;dlb-fHAUYnm78_AOpvT9-5&quot;&gt;&#10;          &lt;mxGeometry width=&quot;24&quot; height=&quot;24&quot; relative=&quot;1&quot; as=&quot;geometry&quot;&gt;&#10;            &lt;mxPoint x=&quot;12&quot; y=&quot;12&quot; as=&quot;offset&quot; /&gt;&#10;          &lt;/mxGeometry&gt;&#10;        &lt;/mxCell&gt;&#10;        &lt;mxCell id=&quot;dlb-fHAUYnm78_AOpvT9-7&quot; value=&quot;&quot; style=&quot;shape=rect;fillColor=#FA4D56;aspect=fixed;resizable=0;labelPosition=center;verticalLabelPosition=bottom;align=center;verticalAlign=top;strokeColor=none;fontSize=14;&quot; vertex=&quot;1&quot; parent=&quot;1&quot;&gt;&#10;          &lt;mxGeometry x=&quot;302&quot; y=&quot;270.5&quot; width=&quot;48&quot; height=&quot;48&quot; as=&quot;geometry&quot; /&gt;&#10;        &lt;/mxCell&gt;&#10;        &lt;mxCell id=&quot;dlb-fHAUYnm78_AOpvT9-8&quot; value=&quot;&quot; style=&quot;fillColor=#ffffff;strokeColor=none;dashed=0;outlineConnect=0;html=1;labelPosition=center;verticalLabelPosition=bottom;verticalAlign=top;part=1;movable=0;resizable=0;rotatable=0;shape=mxgraph.ibm_cloud.vpn--connection&quot; vertex=&quot;1&quot; parent=&quot;dlb-fHAUYnm78_AOpvT9-7&quot;&gt;&#10;          &lt;mxGeometry width=&quot;24&quot; height=&quot;24&quot; relative=&quot;1&quot; as=&quot;geometry&quot;&gt;&#10;            &lt;mxPoint x=&quot;12&quot; y=&quot;12&quot; as=&quot;offset&quot; /&gt;&#10;          &lt;/mxGeometry&gt;&#10;        &lt;/mxCell&gt;&#10;        &lt;mxCell id=&quot;dlb-fHAUYnm78_AOpvT9-9&quot; value=&quot;Origin Server&amp;#xa;&quot; style=&quot;shape=rect;fillColor=#198038;aspect=fixed;resizable=0;labelPosition=center;verticalLabelPosition=bottom;align=center;verticalAlign=top;strokeColor=none;fontSize=14;&quot; vertex=&quot;1&quot; parent=&quot;1&quot;&gt;&#10;          &lt;mxGeometry x=&quot;599&quot; y=&quot;270.5&quot; width=&quot;48&quot; height=&quot;48&quot; as=&quot;geometry&quot; /&gt;&#10;        &lt;/mxCell&gt;&#10;        &lt;mxCell id=&quot;dlb-fHAUYnm78_AOpvT9-10&quot; value=&quot;&quot; style=&quot;fillColor=#ffffff;strokeColor=none;dashed=0;outlineConnect=0;html=1;labelPosition=center;verticalLabelPosition=bottom;verticalAlign=top;part=1;movable=0;resizable=0;rotatable=0;shape=mxgraph.ibm_cloud.ibm-cloud--virtual-server-classic&quot; vertex=&quot;1&quot; parent=&quot;dlb-fHAUYnm78_AOpvT9-9&quot;&gt;&#10;          &lt;mxGeometry width=&quot;24&quot; height=&quot;24&quot; relative=&quot;1&quot; as=&quot;geometry&quot;&gt;&#10;            &lt;mxPoint x=&quot;12&quot; y=&quot;12&quot; as=&quot;offset&quot; /&gt;&#10;          &lt;/mxGeometry&gt;&#10;        &lt;/mxCell&gt;&#10;      &lt;/root&gt;&#10;    &lt;/mxGraphModel&gt;&#10;  &lt;/diagram&gt;&#10;&lt;/mxfile&gt;&#10;"><defs/><rect fill="#ffffff" width="100%" height="100%" x="0" y="0" style="fill: rgb(255, 255, 255);"/><g><g data-cell-id="0"><g data-cell-id="1"><g data-cell-id="dlb-fHAUYnm78_AOpvT9-1"><g><rect x="0" y="0" width="670" height="291" fill="#ffffff" stroke="none" pointer-events="all" style="fill: rgb(255, 255, 255);"/></g></g><g data-cell-id="dlb-fHAUYnm78_AOpvT9-2"><g><path d="M 131 147 L 541 148" fill="none" stroke="#000000" stroke-miterlimit="10" pointer-events="stroke" style="stroke: rgb(0, 0, 0);"/></g></g><g data-cell-id="dlb-fHAUYnm78_AOpvT9-3"><g><ellipse cx="138" cy="145.5" rx="24" ry="24" fill="#000000" stroke="none" pointer-events="all" style="fill: rgb(0, 0, 0);"/></g><g><g fill="#000000" font-family="Helvetica" text-anchor="middle" font-size="14px" style="fill: rgb(0, 0, 0);"><text x="138" y="189.5">Visitor</text></g></g><g data-cell-id="dlb-fHAUYnm78_AOpvT9-4"><g><rect x="126" y="133.5" width="24" height="24" fill="none" stroke="none" pointer-events="all"/><rect x="126" y="133.5" width="0" height="0" fill="none" stroke="none" pointer-events="all"/><path d="M 138 136.5 C 140.07 136.5 141.75 138.18 141.75 140.25 C 141.75 142.32 140.07 144 138 144 C 135.93 144 134.25 142.32 134.25 140.25 C 134.25 138.18 135.93 136.5 138 136.5 M 138 135 C 135.1 135 132.75 137.35 132.75 140.25 C 132.75 143.15 135.1 145.5 138 145.5 C 140.9 145.5 143.25 143.15 143.25 140.25 C 143.25 137.35 140.9 135 138 135 Z M 145.5 156 L 144 156 L 144 152.25 C 144 150.18 142.32 148.5 140.25 148.5 L 135.75 148.5 C 133.68 148.5 132 150.18 132 152.25 L 132 156 L 130.5 156 L 130.5 152.25 C 130.5 149.35 132.85 147 135.75 147 L 140.25 147 C 143.15 147 145.5 149.35 145.5 152.25 Z" fill="#ffffff" stroke="none" pointer-events="all" style="fill: rgb(255, 255, 255);"/></g></g></g><g data-cell-id="dlb-fHAUYnm78_AOpvT9-5"><g><rect x="312" y="121.5" width="48" height="48" fill="#1192e8" stroke="none" pointer-events="all" style="fill: rgb(17, 146, 232);"/></g><g><g fill="#000000" font-family="Helvetica" text-anchor="middle" font-size="14px" style="fill: rgb(0, 0, 0);"><text x="336" y="189.5">Cloud </text><text x="336" y="206.5">Internet </text><text x="336" y="223.5">Services</text></g></g><g data-cell-id="dlb-fHAUYnm78_AOpvT9-6"><g><rect x="324" y="133.5" width="24" height="24" fill="none" stroke="none" pointer-events="all"/><rect x="324" y="133.5" width="0" height="0" fill="none" stroke="none" pointer-events="all"/><path d="M 344.25 150 C 343.72 150 343.2 150.23 342.83 150.52 L 338.92 148.2 C 338.92 148.05 339 147.9 339 147.75 C 339 147.6 339 147.45 338.92 147.3 L 342.83 144.98 C 343.2 145.27 343.72 145.5 344.25 145.5 C 345.53 145.5 346.5 144.52 346.5 143.25 C 346.5 141.98 345.53 141 344.25 141 C 342.97 141 342 141.98 342 143.25 C 342 143.4 342 143.55 342.08 143.7 L 338.17 146.02 C 337.8 145.73 337.28 145.5 336.75 145.5 C 335.47 145.5 334.5 146.48 334.5 147.75 C 334.5 149.02 335.47 150 336.75 150 C 337.28 150 337.8 149.77 338.17 149.48 L 342.08 151.8 C 342.08 151.95 342 152.1 342 152.25 C 342 153.52 342.97 154.5 344.25 154.5 C 345.53 154.5 346.5 153.52 346.5 152.25 C 346.5 150.98 345.53 150 344.25 150 Z M 344.25 142.5 C 344.7 142.5 345 142.8 345 143.25 C 345 143.7 344.7 144 344.25 144 C 343.8 144 343.5 143.7 343.5 143.25 C 343.5 142.8 343.8 142.5 344.25 142.5 Z M 336.75 148.5 C 336.3 148.5 336 148.2 336 147.75 C 336 147.3 336.3 147 336.75 147 C 337.2 147 337.5 147.3 337.5 147.75 C 337.5 148.2 337.2 148.5 336.75 148.5 Z M 344.25 153 C 343.8 153 343.5 152.7 343.5 152.25 C 343.5 151.8 343.8 151.5 344.25 151.5 C 344.7 151.5 345 151.8 345 152.25 C 345 152.7 344.7 153 344.25 153 Z" fill="#ffffff" stroke="none" pointer-events="all" style="fill: rgb(255, 255, 255);"/><path d="M 338.25 152.25 L 330.38 152.25 C 328.13 152.25 326.25 150.38 326.25 148.13 C 326.25 146.1 327.67 144.45 329.63 144.08 L 330.6 143.92 L 330.83 142.95 C 331.42 140.02 333.9 138 336.75 138 C 337.13 138 337.5 138 337.88 138.08 C 339.08 138.3 340.13 138.9 341.03 139.73 L 342.08 138.67 C 341.03 137.63 339.67 136.88 338.17 136.65 C 337.72 136.58 337.2 136.5 336.75 136.5 C 333.22 136.5 330.08 138.98 329.4 142.58 C 326.7 143.1 324.75 145.42 324.75 148.13 C 324.75 151.2 327.22 153.75 330.38 153.75 L 338.25 153.75 L 338.25 152.25 Z" fill="#ffffff" stroke="none" pointer-events="all" style="fill: rgb(255, 255, 255);"/></g></g></g><g data-cell-id="dlb-fHAUYnm78_AOpvT9-7"><g><rect x="212" y="121.5" width="48" height="48" fill="#fa4d56" stroke="none" pointer-events="all" style="fill: rgb(250, 77, 86);"/></g><g data-cell-id="dlb-fHAUYnm78_AOpvT9-8"><g><rect x="224" y="133.5" width="24" height="24" fill="none" stroke="none" pointer-events="all"/><rect x="224" y="133.5" width="0" height="0" fill="none" stroke="none" pointer-events="all"/><path d="M 245 138.75 C 244.47 138.75 243.97 139.04 243.71 139.5 L 240.5 139.5 C 240.5 137.01 238.49 135 236 135 C 233.51 135 231.5 137.01 231.5 139.5 L 228.29 139.5 C 227.95 138.91 227.26 138.63 226.6 138.8 C 225.95 138.98 225.49 139.57 225.49 140.25 C 225.49 140.93 225.95 141.52 226.6 141.7 C 227.26 141.87 227.95 141.59 228.29 141 L 231.5 141 L 231.5 144 L 230 144 C 229.17 144 228.5 144.67 228.5 145.5 L 228.5 154.5 C 228.5 155.33 229.17 156 230 156 L 242 156 C 242.83 156 243.5 155.33 243.5 154.5 L 243.5 145.5 C 243.5 144.67 242.83 144 242 144 L 240.5 144 L 240.5 141 L 243.71 141 C 244.07 141.63 244.84 141.9 245.52 141.65 C 246.2 141.4 246.61 140.7 246.48 139.98 C 246.35 139.27 245.73 138.75 245 138.75 M 233 139.5 C 233 137.84 234.34 136.5 236 136.5 C 237.66 136.5 239 137.84 239 139.5 L 239 144 L 233 144 L 233 141 L 236.75 141 L 236.75 139.5 Z M 242 145.5 L 242 154.5 L 230 154.5 L 230 145.5 Z" fill="#ffffff" stroke="none" pointer-events="all" style="fill: rgb(255, 255, 255);"/></g></g></g><g data-cell-id="dlb-fHAUYnm78_AOpvT9-9"><g><rect x="509" y="121.5" width="48" height="48" fill="#198038" stroke="none" pointer-events="all" style="fill: rgb(25, 128, 56);"/></g><g><g fill="#000000" font-family="Helvetica" text-anchor="middle" font-size="14px" style="fill: rgb(0, 0, 0);"><text x="533" y="189.5">Origin Server</text></g></g><g data-cell-id="dlb-fHAUYnm78_AOpvT9-10"><g><rect x="521" y="133.5" width="24" height="24" fill="none" stroke="none" pointer-events="all"/><rect x="521" y="133.5" width="0" height="0" fill="none" stroke="none" pointer-events="all"/><ellipse cx="527.75" cy="153" rx="0.75" ry="0.75" fill="#ffffff" stroke="none" pointer-events="all" style="fill: rgb(255, 255, 255);"/><path d="M 540.5 150 L 536.75 150 L 536.75 151.5 L 540.5 151.5 L 540.5 154.5 L 525.5 154.5 L 525.5 151.5 L 532.25 151.5 C 533.08 151.5 533.75 150.83 533.75 150 L 533.75 143.12 L 535.69 145.07 L 536.75 144 L 533 140.25 L 529.25 144 L 530.31 145.06 L 532.25 143.12 L 532.25 150 L 525.5 150 C 524.67 150 524 150.67 524 151.5 L 524 154.5 C 524 155.33 524.67 156 525.5 156 L 540.5 156 C 541.33 156 542 155.33 542 154.5 L 542 151.5 C 542 150.67 541.33 150 540.5 150 Z" fill="#ffffff" stroke="none" pointer-events="all" style="fill: rgb(255, 255, 255);"/><path d="M 538.81 139.54 C 538.15 136.91 535.75 135 533 135 C 530.25 135 527.85 136.91 527.19 139.54 C 524.97 139.82 523.25 141.71 523.25 144 C 523.25 146.48 525.27 148.5 527.75 148.5 L 529.25 148.5 L 529.25 147 L 527.75 147 C 526.09 147 524.75 145.66 524.75 144 C 524.75 142.36 526.08 141.02 527.71 141 L 528.45 141.01 L 528.55 140.36 C 528.87 138.16 530.78 136.5 533 136.5 C 535.22 136.5 537.13 138.16 537.45 140.36 L 537.54 141.02 L 538.2 141.01 L 538.3 141 C 539.93 141.02 541.25 142.36 541.25 144 C 541.25 145.66 539.91 147 538.25 147 L 536.75 147 L 536.75 148.5 L 538.25 148.5 C 540.73 148.5 542.75 146.48 542.75 144 C 542.75 141.71 541.03 139.82 538.81 139.54 Z" fill="#ffffff" stroke="none" pointer-events="all" style="fill: rgb(255, 255, 255);"/></g></g></g></g></g></g></svg>