<?xml version="1.0" encoding="UTF-8"?>
<!-- Do not edit this file with editors other than draw.io -->
<!DOCTYPE svg PUBLIC "-//W3C//DTD SVG 1.1//EN" "http://www.w3.org/Graphics/SVG/1.1/DTD/svg11.dtd">
<svg xmlns="http://www.w3.org/2000/svg" xmlns:xlink="http://www.w3.org/1999/xlink" version="1.1" width="610px" height="280px" viewBox="-0.5 -0.5 610 280" content="&lt;mxfile host=&quot;Electron&quot; agent=&quot;Mozilla/5.0 (Macintosh; Intel Mac OS X 10_15_7) AppleWebKit/537.36 (KHTML, like Gecko) draw.io/25.0.2 Chrome/128.0.6613.186 Electron/32.2.5 Safari/537.36&quot; version=&quot;25.0.2&quot; scale=&quot;1&quot; border=&quot;0&quot;&gt;&#10;  &lt;diagram name=&quot;Page-1&quot; id=&quot;8wTxipBLSAse1nOkmh9F&quot;&gt;&#10;    &lt;mxGraphModel dx=&quot;1578&quot; dy=&quot;1638&quot; grid=&quot;1&quot; gridSize=&quot;10&quot; guides=&quot;1&quot; tooltips=&quot;1&quot; connect=&quot;1&quot; arrows=&quot;1&quot; fold=&quot;1&quot; page=&quot;1&quot; pageScale=&quot;1&quot; pageWidth=&quot;850&quot; pageHeight=&quot;1100&quot; math=&quot;0&quot; shadow=&quot;0&quot;&gt;&#10;      &lt;root&gt;&#10;        &lt;mxCell id=&quot;0&quot; /&gt;&#10;        &lt;mxCell id=&quot;1&quot; parent=&quot;0&quot; /&gt;&#10;        &lt;mxCell id=&quot;s4TLBKT3WQaBaCJXcjlO-1&quot; value=&quot;&quot; style=&quot;rounded=0;whiteSpace=wrap;html=1;strokeColor=none;&quot; vertex=&quot;1&quot; parent=&quot;1&quot;&gt;&#10;          &lt;mxGeometry x=&quot;-60&quot; y=&quot;-60&quot; width=&quot;610&quot; height=&quot;280&quot; as=&quot;geometry&quot; /&gt;&#10;        &lt;/mxCell&gt;&#10;        &lt;mxCell id=&quot;hN0CreysbBGn29C-ZNiO-8&quot; value=&quot;&quot; style=&quot;endArrow=none;html=1;rounded=0;&quot; parent=&quot;1&quot; edge=&quot;1&quot;&gt;&#10;          &lt;mxGeometry width=&quot;50&quot; height=&quot;50&quot; relative=&quot;1&quot; as=&quot;geometry&quot;&gt;&#10;            &lt;mxPoint x=&quot;47&quot; y=&quot;53.5&quot; as=&quot;sourcePoint&quot; /&gt;&#10;            &lt;mxPoint x=&quot;457&quot; y=&quot;54.5&quot; as=&quot;targetPoint&quot; /&gt;&#10;          &lt;/mxGeometry&gt;&#10;        &lt;/mxCell&gt;&#10;        &lt;mxCell id=&quot;hN0CreysbBGn29C-ZNiO-1&quot; value=&quot;Visitor&quot; style=&quot;shape=ellipse;fillColor=#000000;aspect=fixed;resizable=0;labelPosition=center;verticalLabelPosition=bottom;align=center;verticalAlign=top;strokeColor=none;fontSize=14;&quot; parent=&quot;1&quot; vertex=&quot;1&quot;&gt;&#10;          &lt;mxGeometry x=&quot;30&quot; y=&quot;28&quot; width=&quot;48&quot; height=&quot;48&quot; as=&quot;geometry&quot; /&gt;&#10;        &lt;/mxCell&gt;&#10;        &lt;mxCell id=&quot;hN0CreysbBGn29C-ZNiO-2&quot; value=&quot;&quot; style=&quot;fillColor=#ffffff;strokeColor=none;dashed=0;outlineConnect=0;html=1;labelPosition=center;verticalLabelPosition=bottom;verticalAlign=top;part=1;movable=0;resizable=0;rotatable=0;shape=mxgraph.ibm_cloud.user&quot; parent=&quot;hN0CreysbBGn29C-ZNiO-1&quot; vertex=&quot;1&quot;&gt;&#10;          &lt;mxGeometry width=&quot;24&quot; height=&quot;24&quot; relative=&quot;1&quot; as=&quot;geometry&quot;&gt;&#10;            &lt;mxPoint x=&quot;12&quot; y=&quot;12&quot; as=&quot;offset&quot; /&gt;&#10;          &lt;/mxGeometry&gt;&#10;        &lt;/mxCell&gt;&#10;        &lt;mxCell id=&quot;hN0CreysbBGn29C-ZNiO-3&quot; value=&quot;Cloud &amp;#xa;Internet &amp;#xa;Services&quot; style=&quot;shape=rect;fillColor=#1192E8;aspect=fixed;resizable=0;labelPosition=center;verticalLabelPosition=bottom;align=center;verticalAlign=top;strokeColor=none;fontSize=14;&quot; parent=&quot;1&quot; vertex=&quot;1&quot;&gt;&#10;          &lt;mxGeometry x=&quot;228&quot; y=&quot;30&quot; width=&quot;48&quot; height=&quot;48&quot; as=&quot;geometry&quot; /&gt;&#10;        &lt;/mxCell&gt;&#10;        &lt;mxCell id=&quot;hN0CreysbBGn29C-ZNiO-4&quot; value=&quot;&quot; style=&quot;fillColor=#ffffff;strokeColor=none;dashed=0;outlineConnect=0;html=1;labelPosition=center;verticalLabelPosition=bottom;verticalAlign=top;part=1;movable=0;resizable=0;rotatable=0;shape=mxgraph.ibm_cloud.ibm-cloud--internet-services&quot; parent=&quot;hN0CreysbBGn29C-ZNiO-3&quot; vertex=&quot;1&quot;&gt;&#10;          &lt;mxGeometry width=&quot;24&quot; height=&quot;24&quot; relative=&quot;1&quot; as=&quot;geometry&quot;&gt;&#10;            &lt;mxPoint x=&quot;12&quot; y=&quot;12&quot; as=&quot;offset&quot; /&gt;&#10;          &lt;/mxGeometry&gt;&#10;        &lt;/mxCell&gt;&#10;        &lt;mxCell id=&quot;hN0CreysbBGn29C-ZNiO-25&quot; value=&quot;&quot; style=&quot;shape=rect;fillColor=#FA4D56;aspect=fixed;resizable=0;labelPosition=center;verticalLabelPosition=bottom;align=center;verticalAlign=top;strokeColor=none;fontSize=14;&quot; parent=&quot;1&quot; vertex=&quot;1&quot;&gt;&#10;          &lt;mxGeometry x=&quot;128&quot; y=&quot;30&quot; width=&quot;48&quot; height=&quot;48&quot; as=&quot;geometry&quot; /&gt;&#10;        &lt;/mxCell&gt;&#10;        &lt;mxCell id=&quot;hN0CreysbBGn29C-ZNiO-26&quot; value=&quot;&quot; style=&quot;fillColor=#ffffff;strokeColor=none;dashed=0;outlineConnect=0;html=1;labelPosition=center;verticalLabelPosition=bottom;verticalAlign=top;part=1;movable=0;resizable=0;rotatable=0;shape=mxgraph.ibm_cloud.vpn--connection&quot; parent=&quot;hN0CreysbBGn29C-ZNiO-25&quot; vertex=&quot;1&quot;&gt;&#10;          &lt;mxGeometry width=&quot;24&quot; height=&quot;24&quot; relative=&quot;1&quot; as=&quot;geometry&quot;&gt;&#10;            &lt;mxPoint x=&quot;12&quot; y=&quot;12&quot; as=&quot;offset&quot; /&gt;&#10;          &lt;/mxGeometry&gt;&#10;        &lt;/mxCell&gt;&#10;        &lt;mxCell id=&quot;hN0CreysbBGn29C-ZNiO-30&quot; value=&quot;Origin Server&amp;#xa;&quot; style=&quot;shape=rect;fillColor=#198038;aspect=fixed;resizable=0;labelPosition=center;verticalLabelPosition=bottom;align=center;verticalAlign=top;strokeColor=none;fontSize=14;&quot; parent=&quot;1&quot; vertex=&quot;1&quot;&gt;&#10;          &lt;mxGeometry x=&quot;425&quot; y=&quot;30&quot; width=&quot;48&quot; height=&quot;48&quot; as=&quot;geometry&quot; /&gt;&#10;        &lt;/mxCell&gt;&#10;        &lt;mxCell id=&quot;hN0CreysbBGn29C-ZNiO-31&quot; value=&quot;&quot; style=&quot;fillColor=#ffffff;strokeColor=none;dashed=0;outlineConnect=0;html=1;labelPosition=center;verticalLabelPosition=bottom;verticalAlign=top;part=1;movable=0;resizable=0;rotatable=0;shape=mxgraph.ibm_cloud.ibm-cloud--virtual-server-classic&quot; parent=&quot;hN0CreysbBGn29C-ZNiO-30&quot; vertex=&quot;1&quot;&gt;&#10;          &lt;mxGeometry width=&quot;24&quot; height=&quot;24&quot; relative=&quot;1&quot; as=&quot;geometry&quot;&gt;&#10;            &lt;mxPoint x=&quot;12&quot; y=&quot;12&quot; as=&quot;offset&quot; /&gt;&#10;          &lt;/mxGeometry&gt;&#10;        &lt;/mxCell&gt;&#10;      &lt;/root&gt;&#10;    &lt;/mxGraphModel&gt;&#10;  &lt;/diagram&gt;&#10;&lt;/mxfile&gt;&#10;" style="background-color: rgb(255, 255, 255);"><defs/><rect fill="#ffffff" width="100%" height="100%" x="0" y="0"/><g><g data-cell-id="0"><g data-cell-id="1"><g data-cell-id="s4TLBKT3WQaBaCJXcjlO-1"><g><rect x="0" y="0" width="610" height="280" fill="rgb(255, 255, 255)" stroke="none" pointer-events="all"/></g></g><g data-cell-id="hN0CreysbBGn29C-ZNiO-8"><g><path d="M 107 113.5 L 517 114.5" fill="none" stroke="rgb(0, 0, 0)" stroke-miterlimit="10" pointer-events="stroke"/></g></g><g data-cell-id="hN0CreysbBGn29C-ZNiO-1"><g><ellipse cx="114" cy="112" rx="24" ry="24" fill="#000000" stroke="none" pointer-events="all"/></g><g><g fill="rgb(0, 0, 0)" font-family="&quot;Helvetica&quot;" text-anchor="middle" font-size="14px"><text x="113.5" y="155.5">Visitor</text></g></g><g data-cell-id="hN0CreysbBGn29C-ZNiO-2"><g><rect x="102" y="100" width="24" height="24" fill="none" stroke="none" pointer-events="all"/><rect x="102" y="100" width="0" height="0" fill="none" stroke="none" pointer-events="all"/><path d="M 114 103 C 116.07 103 117.75 104.68 117.75 106.75 C 117.75 108.82 116.07 110.5 114 110.5 C 111.93 110.5 110.25 108.82 110.25 106.75 C 110.25 104.68 111.93 103 114 103 M 114 101.5 C 111.1 101.5 108.75 103.85 108.75 106.75 C 108.75 109.65 111.1 112 114 112 C 116.9 112 119.25 109.65 119.25 106.75 C 119.25 103.85 116.9 101.5 114 101.5 Z M 121.5 122.5 L 120 122.5 L 120 118.75 C 120 116.68 118.32 115 116.25 115 L 111.75 115 C 109.68 115 108 116.68 108 118.75 L 108 122.5 L 106.5 122.5 L 106.5 118.75 C 106.5 115.85 108.85 113.5 111.75 113.5 L 116.25 113.5 C 119.15 113.5 121.5 115.85 121.5 118.75 Z" fill="#ffffff" stroke="none" pointer-events="all"/></g></g></g><g data-cell-id="hN0CreysbBGn29C-ZNiO-3"><g><rect x="288" y="90" width="48" height="48" fill="#1192e8" stroke="none" pointer-events="all"/></g><g><g fill="rgb(0, 0, 0)" font-family="&quot;Helvetica&quot;" text-anchor="middle" font-size="14px"><text x="311.5" y="157.5">Cloud </text><text x="311.5" y="174.5">Internet </text><text x="311.5" y="191.5">Services</text></g></g><g data-cell-id="hN0CreysbBGn29C-ZNiO-4"><g><rect x="300" y="102" width="24" height="24" fill="none" stroke="none" pointer-events="all"/><rect x="300" y="102" width="0" height="0" fill="none" stroke="none" pointer-events="all"/><path d="M 320.25 118.5 C 319.72 118.5 319.2 118.72 318.83 119.03 L 314.92 116.7 C 314.92 116.55 315 116.4 315 116.25 C 315 116.1 315 115.95 314.92 115.8 L 318.83 113.47 C 319.2 113.78 319.72 114 320.25 114 C 321.53 114 322.5 113.03 322.5 111.75 C 322.5 110.47 321.53 109.5 320.25 109.5 C 318.97 109.5 318 110.47 318 111.75 C 318 111.9 318 112.05 318.08 112.2 L 314.17 114.53 C 313.8 114.22 313.28 114 312.75 114 C 311.47 114 310.5 114.97 310.5 116.25 C 310.5 117.53 311.47 118.5 312.75 118.5 C 313.28 118.5 313.8 118.28 314.17 117.97 L 318.08 120.3 C 318.08 120.45 318 120.6 318 120.75 C 318 122.03 318.97 123 320.25 123 C 321.53 123 322.5 122.03 322.5 120.75 C 322.5 119.47 321.53 118.5 320.25 118.5 Z M 320.25 111 C 320.7 111 321 111.3 321 111.75 C 321 112.2 320.7 112.5 320.25 112.5 C 319.8 112.5 319.5 112.2 319.5 111.75 C 319.5 111.3 319.8 111 320.25 111 Z M 312.75 117 C 312.3 117 312 116.7 312 116.25 C 312 115.8 312.3 115.5 312.75 115.5 C 313.2 115.5 313.5 115.8 313.5 116.25 C 313.5 116.7 313.2 117 312.75 117 Z M 320.25 121.5 C 319.8 121.5 319.5 121.2 319.5 120.75 C 319.5 120.3 319.8 120 320.25 120 C 320.7 120 321 120.3 321 120.75 C 321 121.2 320.7 121.5 320.25 121.5 Z" fill="#ffffff" stroke="none" pointer-events="all"/><path d="M 314.25 120.75 L 306.38 120.75 C 304.13 120.75 302.25 118.88 302.25 116.63 C 302.25 114.6 303.67 112.95 305.63 112.58 L 306.6 112.42 L 306.83 111.45 C 307.42 108.53 309.9 106.5 312.75 106.5 C 313.13 106.5 313.5 106.5 313.88 106.58 C 315.08 106.8 316.13 107.4 317.03 108.22 L 318.08 107.17 C 317.03 106.13 315.67 105.38 314.17 105.15 C 313.72 105.08 313.2 105 312.75 105 C 309.22 105 306.08 107.47 305.4 111.08 C 302.7 111.6 300.75 113.92 300.75 116.63 C 300.75 119.7 303.22 122.25 306.38 122.25 L 314.25 122.25 L 314.25 120.75 Z" fill="#ffffff" stroke="none" pointer-events="all"/></g></g></g><g data-cell-id="hN0CreysbBGn29C-ZNiO-25"><g><rect x="188" y="90" width="48" height="48" fill="#fa4d56" stroke="none" pointer-events="all"/></g><g data-cell-id="hN0CreysbBGn29C-ZNiO-26"><g><rect x="200" y="102" width="24" height="24" fill="none" stroke="none" pointer-events="all"/><rect x="200" y="102" width="0" height="0" fill="none" stroke="none" pointer-events="all"/><path d="M 221 107.25 C 220.47 107.25 219.97 107.54 219.71 108 L 216.5 108 C 216.5 105.51 214.49 103.5 212 103.5 C 209.51 103.5 207.5 105.51 207.5 108 L 204.29 108 C 203.95 107.41 203.26 107.13 202.6 107.3 C 201.95 107.48 201.49 108.07 201.49 108.75 C 201.49 109.43 201.95 110.02 202.6 110.2 C 203.26 110.37 203.95 110.09 204.29 109.5 L 207.5 109.5 L 207.5 112.5 L 206 112.5 C 205.17 112.5 204.5 113.17 204.5 114 L 204.5 123 C 204.5 123.83 205.17 124.5 206 124.5 L 218 124.5 C 218.83 124.5 219.5 123.83 219.5 123 L 219.5 114 C 219.5 113.17 218.83 112.5 218 112.5 L 216.5 112.5 L 216.5 109.5 L 219.71 109.5 C 220.07 110.13 220.84 110.4 221.52 110.15 C 222.2 109.9 222.61 109.2 222.48 108.48 C 222.35 107.77 221.73 107.25 221 107.25 M 209 108 C 209 106.34 210.34 105 212 105 C 213.66 105 215 106.34 215 108 L 215 112.5 L 209 112.5 L 209 109.5 L 212.75 109.5 L 212.75 108 Z M 218 114 L 218 123 L 206 123 L 206 114 Z" fill="#ffffff" stroke="none" pointer-events="all"/></g></g></g><g data-cell-id="hN0CreysbBGn29C-ZNiO-30"><g><rect x="485" y="90" width="48" height="48" fill="#198038" stroke="none" pointer-events="all"/></g><g><g fill="rgb(0, 0, 0)" font-family="&quot;Helvetica&quot;" text-anchor="middle" font-size="14px"><text x="508.5" y="157.5">Origin Server</text></g></g><g data-cell-id="hN0CreysbBGn29C-ZNiO-31"><g><rect x="497" y="102" width="24" height="24" fill="none" stroke="none" pointer-events="all"/><rect x="497" y="102" width="0" height="0" fill="none" stroke="none" pointer-events="all"/><ellipse cx="503.75" cy="121.5" rx="0.75" ry="0.75" fill="#ffffff" stroke="none" pointer-events="all"/><path d="M 516.5 118.5 L 512.75 118.5 L 512.75 120 L 516.5 120 L 516.5 123 L 501.5 123 L 501.5 120 L 508.25 120 C 509.08 120 509.75 119.33 509.75 118.5 L 509.75 111.62 L 511.69 113.57 L 512.75 112.5 L 509 108.75 L 505.25 112.5 L 506.31 113.56 L 508.25 111.62 L 508.25 118.5 L 501.5 118.5 C 500.67 118.5 500 119.17 500 120 L 500 123 C 500 123.83 500.67 124.5 501.5 124.5 L 516.5 124.5 C 517.33 124.5 518 123.83 518 123 L 518 120 C 518 119.17 517.33 118.5 516.5 118.5 Z" fill="#ffffff" stroke="none" pointer-events="all"/><path d="M 514.81 108.04 C 514.15 105.41 511.75 103.5 509 103.5 C 506.25 103.5 503.85 105.41 503.19 108.04 C 500.97 108.32 499.25 110.21 499.25 112.5 C 499.25 114.98 501.27 117 503.75 117 L 505.25 117 L 505.25 115.5 L 503.75 115.5 C 502.09 115.5 500.75 114.16 500.75 112.5 C 500.75 110.86 502.08 109.52 503.71 109.5 L 504.45 109.52 L 504.55 108.86 C 504.87 106.66 506.78 105 509 105 C 511.22 105 513.13 106.66 513.45 108.86 L 513.54 109.52 L 514.2 109.51 L 514.3 109.5 C 515.93 109.52 517.25 110.86 517.25 112.5 C 517.25 114.16 515.91 115.5 514.25 115.5 L 512.75 115.5 L 512.75 117 L 514.25 117 C 516.73 117 518.75 114.98 518.75 112.5 C 518.75 110.21 517.03 108.32 514.81 108.04 Z" fill="#ffffff" stroke="none" pointer-events="all"/></g></g></g></g></g></g></svg>