<?xml version="1.0" encoding="UTF-8"?>
<!-- Do not edit this file with editors other than draw.io -->
<!DOCTYPE svg PUBLIC "-//W3C//DTD SVG 1.1//EN" "http://www.w3.org/Graphics/SVG/1.1/DTD/svg11.dtd">
<svg xmlns="http://www.w3.org/2000/svg" style="background: #ffffff; background-color: #ffffff; color-scheme: light;" xmlns:xlink="http://www.w3.org/1999/xlink" version="1.1" width="840px" height="220px" viewBox="-0.5 -0.5 840 220" content="&lt;mxfile host=&quot;app.diagrams.net&quot; agent=&quot;Mozilla/5.0 (Macintosh; Intel Mac OS X 10_15_7) AppleWebKit/537.36 (KHTML, like Gecko) Chrome/138.0.0.0 Safari/537.36 Edg/138.0.0.0&quot; version=&quot;27.2.0&quot; scale=&quot;1&quot; border=&quot;0&quot;&gt;&#10;  &lt;diagram name=&quot;Page-1&quot; id=&quot;R-NlqNktbIgzH56rc4e2&quot;&gt;&#10;    &lt;mxGraphModel dx=&quot;1226&quot; dy=&quot;698&quot; grid=&quot;1&quot; gridSize=&quot;10&quot; guides=&quot;1&quot; tooltips=&quot;1&quot; connect=&quot;1&quot; arrows=&quot;1&quot; fold=&quot;1&quot; page=&quot;1&quot; pageScale=&quot;1&quot; pageWidth=&quot;850&quot; pageHeight=&quot;1100&quot; math=&quot;0&quot; shadow=&quot;0&quot;&gt;&#10;      &lt;root&gt;&#10;        &lt;mxCell id=&quot;0&quot; /&gt;&#10;        &lt;mxCell id=&quot;1&quot; parent=&quot;0&quot; /&gt;&#10;        &lt;mxCell id=&quot;wvHCSMqCh3a_h-5n7Jq_-1&quot; value=&quot;&quot; style=&quot;rounded=0;whiteSpace=wrap;html=1;fillColor=default;strokeColor=none;&quot; vertex=&quot;1&quot; parent=&quot;1&quot;&gt;&#10;          &lt;mxGeometry x=&quot;140&quot; y=&quot;180&quot; width=&quot;570&quot; height=&quot;220&quot; as=&quot;geometry&quot; /&gt;&#10;        &lt;/mxCell&gt;&#10;        &lt;mxCell id=&quot;wvHCSMqCh3a_h-5n7Jq_-2&quot; value=&quot;&quot; style=&quot;endArrow=none;html=1;rounded=0;&quot; edge=&quot;1&quot; parent=&quot;1&quot;&gt;&#10;          &lt;mxGeometry width=&quot;50&quot; height=&quot;50&quot; relative=&quot;1&quot; as=&quot;geometry&quot;&gt;&#10;            &lt;mxPoint x=&quot;220&quot; y=&quot;291.5&quot; as=&quot;sourcePoint&quot; /&gt;&#10;            &lt;mxPoint x=&quot;630&quot; y=&quot;292.5&quot; as=&quot;targetPoint&quot; /&gt;&#10;          &lt;/mxGeometry&gt;&#10;        &lt;/mxCell&gt;&#10;        &lt;mxCell id=&quot;wvHCSMqCh3a_h-5n7Jq_-3&quot; value=&quot;Visitor&quot; style=&quot;shape=ellipse;fillColor=#000000;aspect=fixed;resizable=0;labelPosition=center;verticalLabelPosition=bottom;align=center;verticalAlign=top;strokeColor=none;fontSize=14;&quot; vertex=&quot;1&quot; parent=&quot;1&quot;&gt;&#10;          &lt;mxGeometry x=&quot;203&quot; y=&quot;266&quot; width=&quot;48&quot; height=&quot;48&quot; as=&quot;geometry&quot; /&gt;&#10;        &lt;/mxCell&gt;&#10;        &lt;mxCell id=&quot;wvHCSMqCh3a_h-5n7Jq_-4&quot; value=&quot;&quot; style=&quot;fillColor=#ffffff;strokeColor=none;dashed=0;outlineConnect=0;html=1;labelPosition=center;verticalLabelPosition=bottom;verticalAlign=top;part=1;movable=0;resizable=0;rotatable=0;shape=mxgraph.ibm_cloud.user&quot; vertex=&quot;1&quot; parent=&quot;wvHCSMqCh3a_h-5n7Jq_-3&quot;&gt;&#10;          &lt;mxGeometry width=&quot;24&quot; height=&quot;24&quot; relative=&quot;1&quot; as=&quot;geometry&quot;&gt;&#10;            &lt;mxPoint x=&quot;12&quot; y=&quot;12&quot; as=&quot;offset&quot; /&gt;&#10;          &lt;/mxGeometry&gt;&#10;        &lt;/mxCell&gt;&#10;        &lt;mxCell id=&quot;wvHCSMqCh3a_h-5n7Jq_-5&quot; value=&quot;Cloud &amp;#xa;Internet &amp;#xa;Services&quot; style=&quot;shape=rect;fillColor=#1192E8;aspect=fixed;resizable=0;labelPosition=center;verticalLabelPosition=bottom;align=center;verticalAlign=top;strokeColor=none;fontSize=14;&quot; vertex=&quot;1&quot; parent=&quot;1&quot;&gt;&#10;          &lt;mxGeometry x=&quot;401&quot; y=&quot;266&quot; width=&quot;48&quot; height=&quot;48&quot; as=&quot;geometry&quot; /&gt;&#10;        &lt;/mxCell&gt;&#10;        &lt;mxCell id=&quot;wvHCSMqCh3a_h-5n7Jq_-6&quot; value=&quot;&quot; style=&quot;fillColor=#ffffff;strokeColor=none;dashed=0;outlineConnect=0;html=1;labelPosition=center;verticalLabelPosition=bottom;verticalAlign=top;part=1;movable=0;resizable=0;rotatable=0;shape=mxgraph.ibm_cloud.ibm-cloud--internet-services&quot; vertex=&quot;1&quot; parent=&quot;wvHCSMqCh3a_h-5n7Jq_-5&quot;&gt;&#10;          &lt;mxGeometry width=&quot;24&quot; height=&quot;24&quot; relative=&quot;1&quot; as=&quot;geometry&quot;&gt;&#10;            &lt;mxPoint x=&quot;12&quot; y=&quot;12&quot; as=&quot;offset&quot; /&gt;&#10;          &lt;/mxGeometry&gt;&#10;        &lt;/mxCell&gt;&#10;        &lt;mxCell id=&quot;wvHCSMqCh3a_h-5n7Jq_-7&quot; value=&quot;&quot; style=&quot;shape=rect;fillColor=#FA4D56;aspect=fixed;resizable=0;labelPosition=center;verticalLabelPosition=bottom;align=center;verticalAlign=top;strokeColor=none;fontSize=14;&quot; vertex=&quot;1&quot; parent=&quot;1&quot;&gt;&#10;          &lt;mxGeometry x=&quot;301&quot; y=&quot;266&quot; width=&quot;48&quot; height=&quot;48&quot; as=&quot;geometry&quot; /&gt;&#10;        &lt;/mxCell&gt;&#10;        &lt;mxCell id=&quot;wvHCSMqCh3a_h-5n7Jq_-8&quot; value=&quot;&quot; style=&quot;fillColor=#ffffff;strokeColor=none;dashed=0;outlineConnect=0;html=1;labelPosition=center;verticalLabelPosition=bottom;verticalAlign=top;part=1;movable=0;resizable=0;rotatable=0;shape=mxgraph.ibm_cloud.vpn--connection&quot; vertex=&quot;1&quot; parent=&quot;wvHCSMqCh3a_h-5n7Jq_-7&quot;&gt;&#10;          &lt;mxGeometry width=&quot;24&quot; height=&quot;24&quot; relative=&quot;1&quot; as=&quot;geometry&quot;&gt;&#10;            &lt;mxPoint x=&quot;12&quot; y=&quot;12&quot; as=&quot;offset&quot; /&gt;&#10;          &lt;/mxGeometry&gt;&#10;        &lt;/mxCell&gt;&#10;        &lt;mxCell id=&quot;wvHCSMqCh3a_h-5n7Jq_-9&quot; value=&quot;Origin Server&amp;#xa;&quot; style=&quot;shape=rect;fillColor=#198038;aspect=fixed;resizable=0;labelPosition=center;verticalLabelPosition=bottom;align=center;verticalAlign=top;strokeColor=none;fontSize=14;&quot; vertex=&quot;1&quot; parent=&quot;1&quot;&gt;&#10;          &lt;mxGeometry x=&quot;598&quot; y=&quot;266&quot; width=&quot;48&quot; height=&quot;48&quot; as=&quot;geometry&quot; /&gt;&#10;        &lt;/mxCell&gt;&#10;        &lt;mxCell id=&quot;wvHCSMqCh3a_h-5n7Jq_-10&quot; value=&quot;&quot; style=&quot;fillColor=#ffffff;strokeColor=none;dashed=0;outlineConnect=0;html=1;labelPosition=center;verticalLabelPosition=bottom;verticalAlign=top;part=1;movable=0;resizable=0;rotatable=0;shape=mxgraph.ibm_cloud.ibm-cloud--virtual-server-classic&quot; vertex=&quot;1&quot; parent=&quot;wvHCSMqCh3a_h-5n7Jq_-9&quot;&gt;&#10;          &lt;mxGeometry width=&quot;24&quot; height=&quot;24&quot; relative=&quot;1&quot; as=&quot;geometry&quot;&gt;&#10;            &lt;mxPoint x=&quot;12&quot; y=&quot;12&quot; as=&quot;offset&quot; /&gt;&#10;          &lt;/mxGeometry&gt;&#10;        &lt;/mxCell&gt;&#10;        &lt;mxCell id=&quot;wvHCSMqCh3a_h-5n7Jq_-11&quot; value=&quot;&quot; style=&quot;rounded=0;whiteSpace=wrap;html=1;fillColor=default;strokeColor=none;&quot; vertex=&quot;1&quot; parent=&quot;1&quot;&gt;&#10;          &lt;mxGeometry x=&quot;710&quot; y=&quot;180&quot; width=&quot;130&quot; height=&quot;220&quot; as=&quot;geometry&quot; /&gt;&#10;        &lt;/mxCell&gt;&#10;        &lt;mxCell id=&quot;wvHCSMqCh3a_h-5n7Jq_-12&quot; value=&quot;&quot; style=&quot;rounded=0;whiteSpace=wrap;html=1;fillColor=default;strokeColor=none;&quot; vertex=&quot;1&quot; parent=&quot;1&quot;&gt;&#10;          &lt;mxGeometry y=&quot;180&quot; width=&quot;140&quot; height=&quot;220&quot; as=&quot;geometry&quot; /&gt;&#10;        &lt;/mxCell&gt;&#10;      &lt;/root&gt;&#10;    &lt;/mxGraphModel&gt;&#10;  &lt;/diagram&gt;&#10;&lt;/mxfile&gt;&#10;"><defs/><rect fill="#ffffff" width="100%" height="100%" x="0" y="0" style="fill: rgb(255, 255, 255);"/><g><g data-cell-id="0"><g data-cell-id="1"><g data-cell-id="wvHCSMqCh3a_h-5n7Jq_-1"><g><rect x="140" y="0" width="570" height="220" fill="#ffffff" stroke="none" pointer-events="all" style="fill: rgb(255, 255, 255);"/></g></g><g data-cell-id="wvHCSMqCh3a_h-5n7Jq_-2"><g><path d="M 220 111.5 L 630 112.5" fill="none" stroke="#000000" stroke-miterlimit="10" pointer-events="stroke" style="stroke: rgb(0, 0, 0);"/></g></g><g data-cell-id="wvHCSMqCh3a_h-5n7Jq_-3"><g><ellipse cx="227" cy="110" rx="24" ry="24" fill="#000000" stroke="none" pointer-events="all" style="fill: rgb(0, 0, 0);"/></g><g><g fill="#000000" font-family="Helvetica" text-anchor="middle" font-size="14px" style="fill: rgb(0, 0, 0);"><text x="227" y="154">Visitor</text></g></g><g data-cell-id="wvHCSMqCh3a_h-5n7Jq_-4"><g><rect x="215" y="98" width="24" height="24" fill="none" stroke="none" pointer-events="all"/><rect x="215" y="98" width="0" height="0" fill="none" stroke="none" pointer-events="all"/><path d="M 227 101 C 229.07 101 230.75 102.68 230.75 104.75 C 230.75 106.82 229.07 108.5 227 108.5 C 224.93 108.5 223.25 106.82 223.25 104.75 C 223.25 102.68 224.93 101 227 101 M 227 99.5 C 224.1 99.5 221.75 101.85 221.75 104.75 C 221.75 107.65 224.1 110 227 110 C 229.9 110 232.25 107.65 232.25 104.75 C 232.25 101.85 229.9 99.5 227 99.5 Z M 234.5 120.5 L 233 120.5 L 233 116.75 C 233 114.68 231.32 113 229.25 113 L 224.75 113 C 222.68 113 221 114.68 221 116.75 L 221 120.5 L 219.5 120.5 L 219.5 116.75 C 219.5 113.85 221.85 111.5 224.75 111.5 L 229.25 111.5 C 232.15 111.5 234.5 113.85 234.5 116.75 Z" fill="#ffffff" stroke="none" pointer-events="all" style="fill: rgb(255, 255, 255);"/></g></g></g><g data-cell-id="wvHCSMqCh3a_h-5n7Jq_-5"><g><rect x="401" y="86" width="48" height="48" fill="#1192e8" stroke="none" pointer-events="all" style="fill: rgb(17, 146, 232);"/></g><g><g fill="#000000" font-family="Helvetica" text-anchor="middle" font-size="14px" style="fill: rgb(0, 0, 0);"><text x="425" y="154">Cloud </text><text x="425" y="171">Internet </text><text x="425" y="188">Services</text></g></g><g data-cell-id="wvHCSMqCh3a_h-5n7Jq_-6"><g><rect x="413" y="98" width="24" height="24" fill="none" stroke="none" pointer-events="all"/><rect x="413" y="98" width="0" height="0" fill="none" stroke="none" pointer-events="all"/><path d="M 433.25 114.5 C 432.72 114.5 432.2 114.73 431.83 115.02 L 427.92 112.7 C 427.92 112.55 428 112.4 428 112.25 C 428 112.1 428 111.95 427.92 111.8 L 431.83 109.48 C 432.2 109.77 432.72 110 433.25 110 C 434.53 110 435.5 109.02 435.5 107.75 C 435.5 106.48 434.53 105.5 433.25 105.5 C 431.97 105.5 431 106.48 431 107.75 C 431 107.9 431 108.05 431.08 108.2 L 427.17 110.52 C 426.8 110.23 426.28 110 425.75 110 C 424.47 110 423.5 110.98 423.5 112.25 C 423.5 113.52 424.47 114.5 425.75 114.5 C 426.28 114.5 426.8 114.27 427.17 113.98 L 431.08 116.3 C 431.08 116.45 431 116.6 431 116.75 C 431 118.02 431.97 119 433.25 119 C 434.53 119 435.5 118.02 435.5 116.75 C 435.5 115.48 434.53 114.5 433.25 114.5 Z M 433.25 107 C 433.7 107 434 107.3 434 107.75 C 434 108.2 433.7 108.5 433.25 108.5 C 432.8 108.5 432.5 108.2 432.5 107.75 C 432.5 107.3 432.8 107 433.25 107 Z M 425.75 113 C 425.3 113 425 112.7 425 112.25 C 425 111.8 425.3 111.5 425.75 111.5 C 426.2 111.5 426.5 111.8 426.5 112.25 C 426.5 112.7 426.2 113 425.75 113 Z M 433.25 117.5 C 432.8 117.5 432.5 117.2 432.5 116.75 C 432.5 116.3 432.8 116 433.25 116 C 433.7 116 434 116.3 434 116.75 C 434 117.2 433.7 117.5 433.25 117.5 Z" fill="#ffffff" stroke="none" pointer-events="all" style="fill: rgb(255, 255, 255);"/><path d="M 427.25 116.75 L 419.38 116.75 C 417.13 116.75 415.25 114.88 415.25 112.63 C 415.25 110.6 416.67 108.95 418.63 108.58 L 419.6 108.42 L 419.83 107.45 C 420.42 104.52 422.9 102.5 425.75 102.5 C 426.13 102.5 426.5 102.5 426.88 102.58 C 428.08 102.8 429.13 103.4 430.03 104.23 L 431.08 103.17 C 430.03 102.13 428.67 101.38 427.17 101.15 C 426.72 101.08 426.2 101 425.75 101 C 422.22 101 419.08 103.48 418.4 107.08 C 415.7 107.6 413.75 109.92 413.75 112.63 C 413.75 115.7 416.22 118.25 419.38 118.25 L 427.25 118.25 L 427.25 116.75 Z" fill="#ffffff" stroke="none" pointer-events="all" style="fill: rgb(255, 255, 255);"/></g></g></g><g data-cell-id="wvHCSMqCh3a_h-5n7Jq_-7"><g><rect x="301" y="86" width="48" height="48" fill="#fa4d56" stroke="none" pointer-events="all" style="fill: rgb(250, 77, 86);"/></g><g data-cell-id="wvHCSMqCh3a_h-5n7Jq_-8"><g><rect x="313" y="98" width="24" height="24" fill="none" stroke="none" pointer-events="all"/><rect x="313" y="98" width="0" height="0" fill="none" stroke="none" pointer-events="all"/><path d="M 334 103.25 C 333.47 103.25 332.97 103.54 332.71 104 L 329.5 104 C 329.5 101.51 327.49 99.5 325 99.5 C 322.51 99.5 320.5 101.51 320.5 104 L 317.29 104 C 316.95 103.41 316.26 103.13 315.6 103.3 C 314.95 103.48 314.49 104.07 314.49 104.75 C 314.49 105.43 314.95 106.02 315.6 106.2 C 316.26 106.37 316.95 106.09 317.29 105.5 L 320.5 105.5 L 320.5 108.5 L 319 108.5 C 318.17 108.5 317.5 109.17 317.5 110 L 317.5 119 C 317.5 119.83 318.17 120.5 319 120.5 L 331 120.5 C 331.83 120.5 332.5 119.83 332.5 119 L 332.5 110 C 332.5 109.17 331.83 108.5 331 108.5 L 329.5 108.5 L 329.5 105.5 L 332.71 105.5 C 333.07 106.13 333.84 106.4 334.52 106.15 C 335.2 105.9 335.61 105.2 335.48 104.48 C 335.35 103.77 334.73 103.25 334 103.25 M 322 104 C 322 102.34 323.34 101 325 101 C 326.66 101 328 102.34 328 104 L 328 108.5 L 322 108.5 L 322 105.5 L 325.75 105.5 L 325.75 104 Z M 331 110 L 331 119 L 319 119 L 319 110 Z" fill="#ffffff" stroke="none" pointer-events="all" style="fill: rgb(255, 255, 255);"/></g></g></g><g data-cell-id="wvHCSMqCh3a_h-5n7Jq_-9"><g><rect x="598" y="86" width="48" height="48" fill="#198038" stroke="none" pointer-events="all" style="fill: rgb(25, 128, 56);"/></g><g><g fill="#000000" font-family="Helvetica" text-anchor="middle" font-size="14px" style="fill: rgb(0, 0, 0);"><text x="622" y="154">Origin Server</text></g></g><g data-cell-id="wvHCSMqCh3a_h-5n7Jq_-10"><g><rect x="610" y="98" width="24" height="24" fill="none" stroke="none" pointer-events="all"/><rect x="610" y="98" width="0" height="0" fill="none" stroke="none" pointer-events="all"/><ellipse cx="616.75" cy="117.5" rx="0.75" ry="0.75" fill="#ffffff" stroke="none" pointer-events="all" style="fill: rgb(255, 255, 255);"/><path d="M 629.5 114.5 L 625.75 114.5 L 625.75 116 L 629.5 116 L 629.5 119 L 614.5 119 L 614.5 116 L 621.25 116 C 622.08 116 622.75 115.33 622.75 114.5 L 622.75 107.62 L 624.69 109.57 L 625.75 108.5 L 622 104.75 L 618.25 108.5 L 619.31 109.56 L 621.25 107.62 L 621.25 114.5 L 614.5 114.5 C 613.67 114.5 613 115.17 613 116 L 613 119 C 613 119.83 613.67 120.5 614.5 120.5 L 629.5 120.5 C 630.33 120.5 631 119.83 631 119 L 631 116 C 631 115.17 630.33 114.5 629.5 114.5 Z" fill="#ffffff" stroke="none" pointer-events="all" style="fill: rgb(255, 255, 255);"/><path d="M 627.81 104.04 C 627.15 101.41 624.75 99.5 622 99.5 C 619.25 99.5 616.85 101.41 616.19 104.04 C 613.97 104.32 612.25 106.21 612.25 108.5 C 612.25 110.98 614.27 113 616.75 113 L 618.25 113 L 618.25 111.5 L 616.75 111.5 C 615.09 111.5 613.75 110.16 613.75 108.5 C 613.75 106.86 615.08 105.52 616.71 105.5 L 617.45 105.51 L 617.55 104.86 C 617.87 102.66 619.78 101 622 101 C 624.22 101 626.13 102.66 626.45 104.86 L 626.54 105.52 L 627.2 105.51 L 627.3 105.5 C 628.93 105.52 630.25 106.86 630.25 108.5 C 630.25 110.16 628.91 111.5 627.25 111.5 L 625.75 111.5 L 625.75 113 L 627.25 113 C 629.73 113 631.75 110.98 631.75 108.5 C 631.75 106.21 630.03 104.32 627.81 104.04 Z" fill="#ffffff" stroke="none" pointer-events="all" style="fill: rgb(255, 255, 255);"/></g></g></g><g data-cell-id="wvHCSMqCh3a_h-5n7Jq_-11"><g><rect x="710" y="0" width="130" height="220" fill="#ffffff" stroke="none" pointer-events="all" style="fill: rgb(255, 255, 255);"/></g></g><g data-cell-id="wvHCSMqCh3a_h-5n7Jq_-12"><g><rect x="0" y="0" width="140" height="220" fill="#ffffff" stroke="none" pointer-events="all" style="fill: rgb(255, 255, 255);"/></g></g></g></g></g></svg>