<?xml version="1.0" encoding="UTF-8"?>
<!-- Do not edit this file with editors other than draw.io -->
<!DOCTYPE svg PUBLIC "-//W3C//DTD SVG 1.1//EN" "http://www.w3.org/Graphics/SVG/1.1/DTD/svg11.dtd">
<svg xmlns="http://www.w3.org/2000/svg" style="background: #ffffff; background-color: #ffffff; color-scheme: light;" xmlns:xlink="http://www.w3.org/1999/xlink" version="1.1" width="570px" height="220px" viewBox="-0.5 -0.5 570 220" content="&lt;mxfile host=&quot;app.diagrams.net&quot; agent=&quot;Mozilla/5.0 (Macintosh; Intel Mac OS X 10_15_7) AppleWebKit/537.36 (KHTML, like Gecko) Chrome/138.0.0.0 Safari/537.36 Edg/138.0.0.0&quot; version=&quot;27.2.0&quot; scale=&quot;1&quot; border=&quot;0&quot;&gt;&#10;  &lt;diagram name=&quot;Page-1&quot; id=&quot;R-NlqNktbIgzH56rc4e2&quot;&gt;&#10;    &lt;mxGraphModel dx=&quot;1226&quot; dy=&quot;698&quot; grid=&quot;1&quot; gridSize=&quot;10&quot; guides=&quot;1&quot; tooltips=&quot;1&quot; connect=&quot;1&quot; arrows=&quot;1&quot; fold=&quot;1&quot; page=&quot;1&quot; pageScale=&quot;1&quot; pageWidth=&quot;850&quot; pageHeight=&quot;1100&quot; math=&quot;0&quot; shadow=&quot;0&quot;&gt;&#10;      &lt;root&gt;&#10;        &lt;mxCell id=&quot;0&quot; /&gt;&#10;        &lt;mxCell id=&quot;1&quot; parent=&quot;0&quot; /&gt;&#10;        &lt;mxCell id=&quot;wvHCSMqCh3a_h-5n7Jq_-1&quot; value=&quot;&quot; style=&quot;rounded=0;whiteSpace=wrap;html=1;fillColor=default;strokeColor=none;&quot; vertex=&quot;1&quot; parent=&quot;1&quot;&gt;&#10;          &lt;mxGeometry x=&quot;121&quot; y=&quot;184.5&quot; width=&quot;570&quot; height=&quot;220&quot; as=&quot;geometry&quot; /&gt;&#10;        &lt;/mxCell&gt;&#10;        &lt;mxCell id=&quot;wvHCSMqCh3a_h-5n7Jq_-2&quot; value=&quot;&quot; style=&quot;endArrow=none;html=1;rounded=0;&quot; edge=&quot;1&quot; parent=&quot;1&quot;&gt;&#10;          &lt;mxGeometry width=&quot;50&quot; height=&quot;50&quot; relative=&quot;1&quot; as=&quot;geometry&quot;&gt;&#10;            &lt;mxPoint x=&quot;201&quot; y=&quot;296&quot; as=&quot;sourcePoint&quot; /&gt;&#10;            &lt;mxPoint x=&quot;611&quot; y=&quot;297&quot; as=&quot;targetPoint&quot; /&gt;&#10;          &lt;/mxGeometry&gt;&#10;        &lt;/mxCell&gt;&#10;        &lt;mxCell id=&quot;wvHCSMqCh3a_h-5n7Jq_-3&quot; value=&quot;Visitor&quot; style=&quot;shape=ellipse;fillColor=#000000;aspect=fixed;resizable=0;labelPosition=center;verticalLabelPosition=bottom;align=center;verticalAlign=top;strokeColor=none;fontSize=14;&quot; vertex=&quot;1&quot; parent=&quot;1&quot;&gt;&#10;          &lt;mxGeometry x=&quot;184&quot; y=&quot;270.5&quot; width=&quot;48&quot; height=&quot;48&quot; as=&quot;geometry&quot; /&gt;&#10;        &lt;/mxCell&gt;&#10;        &lt;mxCell id=&quot;wvHCSMqCh3a_h-5n7Jq_-4&quot; value=&quot;&quot; style=&quot;fillColor=#ffffff;strokeColor=none;dashed=0;outlineConnect=0;html=1;labelPosition=center;verticalLabelPosition=bottom;verticalAlign=top;part=1;movable=0;resizable=0;rotatable=0;shape=mxgraph.ibm_cloud.user&quot; vertex=&quot;1&quot; parent=&quot;wvHCSMqCh3a_h-5n7Jq_-3&quot;&gt;&#10;          &lt;mxGeometry width=&quot;24&quot; height=&quot;24&quot; relative=&quot;1&quot; as=&quot;geometry&quot;&gt;&#10;            &lt;mxPoint x=&quot;12&quot; y=&quot;12&quot; as=&quot;offset&quot; /&gt;&#10;          &lt;/mxGeometry&gt;&#10;        &lt;/mxCell&gt;&#10;        &lt;mxCell id=&quot;wvHCSMqCh3a_h-5n7Jq_-5&quot; value=&quot;Cloud &amp;#xa;Internet &amp;#xa;Services&quot; style=&quot;shape=rect;fillColor=#1192E8;aspect=fixed;resizable=0;labelPosition=center;verticalLabelPosition=bottom;align=center;verticalAlign=top;strokeColor=none;fontSize=14;&quot; vertex=&quot;1&quot; parent=&quot;1&quot;&gt;&#10;          &lt;mxGeometry x=&quot;382&quot; y=&quot;270.5&quot; width=&quot;48&quot; height=&quot;48&quot; as=&quot;geometry&quot; /&gt;&#10;        &lt;/mxCell&gt;&#10;        &lt;mxCell id=&quot;wvHCSMqCh3a_h-5n7Jq_-6&quot; value=&quot;&quot; style=&quot;fillColor=#ffffff;strokeColor=none;dashed=0;outlineConnect=0;html=1;labelPosition=center;verticalLabelPosition=bottom;verticalAlign=top;part=1;movable=0;resizable=0;rotatable=0;shape=mxgraph.ibm_cloud.ibm-cloud--internet-services&quot; vertex=&quot;1&quot; parent=&quot;wvHCSMqCh3a_h-5n7Jq_-5&quot;&gt;&#10;          &lt;mxGeometry width=&quot;24&quot; height=&quot;24&quot; relative=&quot;1&quot; as=&quot;geometry&quot;&gt;&#10;            &lt;mxPoint x=&quot;12&quot; y=&quot;12&quot; as=&quot;offset&quot; /&gt;&#10;          &lt;/mxGeometry&gt;&#10;        &lt;/mxCell&gt;&#10;        &lt;mxCell id=&quot;wvHCSMqCh3a_h-5n7Jq_-7&quot; value=&quot;&quot; style=&quot;shape=rect;fillColor=#FA4D56;aspect=fixed;resizable=0;labelPosition=center;verticalLabelPosition=bottom;align=center;verticalAlign=top;strokeColor=none;fontSize=14;&quot; vertex=&quot;1&quot; parent=&quot;1&quot;&gt;&#10;          &lt;mxGeometry x=&quot;282&quot; y=&quot;270.5&quot; width=&quot;48&quot; height=&quot;48&quot; as=&quot;geometry&quot; /&gt;&#10;        &lt;/mxCell&gt;&#10;        &lt;mxCell id=&quot;wvHCSMqCh3a_h-5n7Jq_-8&quot; value=&quot;&quot; style=&quot;fillColor=#ffffff;strokeColor=none;dashed=0;outlineConnect=0;html=1;labelPosition=center;verticalLabelPosition=bottom;verticalAlign=top;part=1;movable=0;resizable=0;rotatable=0;shape=mxgraph.ibm_cloud.vpn--connection&quot; vertex=&quot;1&quot; parent=&quot;wvHCSMqCh3a_h-5n7Jq_-7&quot;&gt;&#10;          &lt;mxGeometry width=&quot;24&quot; height=&quot;24&quot; relative=&quot;1&quot; as=&quot;geometry&quot;&gt;&#10;            &lt;mxPoint x=&quot;12&quot; y=&quot;12&quot; as=&quot;offset&quot; /&gt;&#10;          &lt;/mxGeometry&gt;&#10;        &lt;/mxCell&gt;&#10;        &lt;mxCell id=&quot;wvHCSMqCh3a_h-5n7Jq_-9&quot; value=&quot;Origin Server&amp;#xa;&quot; style=&quot;shape=rect;fillColor=#198038;aspect=fixed;resizable=0;labelPosition=center;verticalLabelPosition=bottom;align=center;verticalAlign=top;strokeColor=none;fontSize=14;&quot; vertex=&quot;1&quot; parent=&quot;1&quot;&gt;&#10;          &lt;mxGeometry x=&quot;579&quot; y=&quot;270.5&quot; width=&quot;48&quot; height=&quot;48&quot; as=&quot;geometry&quot; /&gt;&#10;        &lt;/mxCell&gt;&#10;        &lt;mxCell id=&quot;wvHCSMqCh3a_h-5n7Jq_-10&quot; value=&quot;&quot; style=&quot;fillColor=#ffffff;strokeColor=none;dashed=0;outlineConnect=0;html=1;labelPosition=center;verticalLabelPosition=bottom;verticalAlign=top;part=1;movable=0;resizable=0;rotatable=0;shape=mxgraph.ibm_cloud.ibm-cloud--virtual-server-classic&quot; vertex=&quot;1&quot; parent=&quot;wvHCSMqCh3a_h-5n7Jq_-9&quot;&gt;&#10;          &lt;mxGeometry width=&quot;24&quot; height=&quot;24&quot; relative=&quot;1&quot; as=&quot;geometry&quot;&gt;&#10;            &lt;mxPoint x=&quot;12&quot; y=&quot;12&quot; as=&quot;offset&quot; /&gt;&#10;          &lt;/mxGeometry&gt;&#10;        &lt;/mxCell&gt;&#10;      &lt;/root&gt;&#10;    &lt;/mxGraphModel&gt;&#10;  &lt;/diagram&gt;&#10;&lt;/mxfile&gt;&#10;"><defs/><rect fill="#ffffff" width="100%" height="100%" x="0" y="0" style="fill: rgb(255, 255, 255);"/><g><g data-cell-id="0"><g data-cell-id="1"><g data-cell-id="wvHCSMqCh3a_h-5n7Jq_-1"><g><rect x="0" y="-0.5" width="570" height="220" fill="#ffffff" stroke="none" pointer-events="all" style="fill: rgb(255, 255, 255);"/></g></g><g data-cell-id="wvHCSMqCh3a_h-5n7Jq_-2"><g><path d="M 80 111 L 490 112" fill="none" stroke="#000000" stroke-miterlimit="10" pointer-events="stroke" style="stroke: rgb(0, 0, 0);"/></g></g><g data-cell-id="wvHCSMqCh3a_h-5n7Jq_-3"><g><ellipse cx="87" cy="109.5" rx="24" ry="24" fill="#000000" stroke="none" pointer-events="all" style="fill: rgb(0, 0, 0);"/></g><g><g fill="#000000" font-family="Helvetica" text-anchor="middle" font-size="14px" style="fill: rgb(0, 0, 0);"><text x="87" y="153.5">Visitor</text></g></g><g data-cell-id="wvHCSMqCh3a_h-5n7Jq_-4"><g><rect x="75" y="97.5" width="24" height="24" fill="none" stroke="none" pointer-events="all"/><rect x="75" y="97.5" width="0" height="0" fill="none" stroke="none" pointer-events="all"/><path d="M 87 100.5 C 89.07 100.5 90.75 102.18 90.75 104.25 C 90.75 106.32 89.07 108 87 108 C 84.93 108 83.25 106.32 83.25 104.25 C 83.25 102.18 84.93 100.5 87 100.5 M 87 99 C 84.1 99 81.75 101.35 81.75 104.25 C 81.75 107.15 84.1 109.5 87 109.5 C 89.9 109.5 92.25 107.15 92.25 104.25 C 92.25 101.35 89.9 99 87 99 Z M 94.5 120 L 93 120 L 93 116.25 C 93 114.18 91.32 112.5 89.25 112.5 L 84.75 112.5 C 82.68 112.5 81 114.18 81 116.25 L 81 120 L 79.5 120 L 79.5 116.25 C 79.5 113.35 81.85 111 84.75 111 L 89.25 111 C 92.15 111 94.5 113.35 94.5 116.25 Z" fill="#ffffff" stroke="none" pointer-events="all" style="fill: rgb(255, 255, 255);"/></g></g></g><g data-cell-id="wvHCSMqCh3a_h-5n7Jq_-5"><g><rect x="261" y="85.5" width="48" height="48" fill="#1192e8" stroke="none" pointer-events="all" style="fill: rgb(17, 146, 232);"/></g><g><g fill="#000000" font-family="Helvetica" text-anchor="middle" font-size="14px" style="fill: rgb(0, 0, 0);"><text x="285" y="153.5">Cloud </text><text x="285" y="170.5">Internet </text><text x="285" y="187.5">Services</text></g></g><g data-cell-id="wvHCSMqCh3a_h-5n7Jq_-6"><g><rect x="273" y="97.5" width="24" height="24" fill="none" stroke="none" pointer-events="all"/><rect x="273" y="97.5" width="0" height="0" fill="none" stroke="none" pointer-events="all"/><path d="M 293.25 114 C 292.72 114 292.2 114.23 291.83 114.52 L 287.92 112.2 C 287.92 112.05 288 111.9 288 111.75 C 288 111.6 288 111.45 287.92 111.3 L 291.83 108.98 C 292.2 109.27 292.72 109.5 293.25 109.5 C 294.53 109.5 295.5 108.52 295.5 107.25 C 295.5 105.98 294.53 105 293.25 105 C 291.97 105 291 105.98 291 107.25 C 291 107.4 291 107.55 291.08 107.7 L 287.17 110.02 C 286.8 109.73 286.28 109.5 285.75 109.5 C 284.47 109.5 283.5 110.48 283.5 111.75 C 283.5 113.02 284.47 114 285.75 114 C 286.28 114 286.8 113.77 287.17 113.48 L 291.08 115.8 C 291.08 115.95 291 116.1 291 116.25 C 291 117.52 291.97 118.5 293.25 118.5 C 294.53 118.5 295.5 117.52 295.5 116.25 C 295.5 114.98 294.53 114 293.25 114 Z M 293.25 106.5 C 293.7 106.5 294 106.8 294 107.25 C 294 107.7 293.7 108 293.25 108 C 292.8 108 292.5 107.7 292.5 107.25 C 292.5 106.8 292.8 106.5 293.25 106.5 Z M 285.75 112.5 C 285.3 112.5 285 112.2 285 111.75 C 285 111.3 285.3 111 285.75 111 C 286.2 111 286.5 111.3 286.5 111.75 C 286.5 112.2 286.2 112.5 285.75 112.5 Z M 293.25 117 C 292.8 117 292.5 116.7 292.5 116.25 C 292.5 115.8 292.8 115.5 293.25 115.5 C 293.7 115.5 294 115.8 294 116.25 C 294 116.7 293.7 117 293.25 117 Z" fill="#ffffff" stroke="none" pointer-events="all" style="fill: rgb(255, 255, 255);"/><path d="M 287.25 116.25 L 279.38 116.25 C 277.13 116.25 275.25 114.38 275.25 112.13 C 275.25 110.1 276.67 108.45 278.63 108.08 L 279.6 107.92 L 279.83 106.95 C 280.42 104.02 282.9 102 285.75 102 C 286.13 102 286.5 102 286.88 102.08 C 288.08 102.3 289.13 102.9 290.03 103.73 L 291.08 102.67 C 290.03 101.63 288.67 100.88 287.17 100.65 C 286.72 100.58 286.2 100.5 285.75 100.5 C 282.22 100.5 279.08 102.98 278.4 106.58 C 275.7 107.1 273.75 109.42 273.75 112.13 C 273.75 115.2 276.22 117.75 279.38 117.75 L 287.25 117.75 L 287.25 116.25 Z" fill="#ffffff" stroke="none" pointer-events="all" style="fill: rgb(255, 255, 255);"/></g></g></g><g data-cell-id="wvHCSMqCh3a_h-5n7Jq_-7"><g><rect x="161" y="85.5" width="48" height="48" fill="#fa4d56" stroke="none" pointer-events="all" style="fill: rgb(250, 77, 86);"/></g><g data-cell-id="wvHCSMqCh3a_h-5n7Jq_-8"><g><rect x="173" y="97.5" width="24" height="24" fill="none" stroke="none" pointer-events="all"/><rect x="173" y="97.5" width="0" height="0" fill="none" stroke="none" pointer-events="all"/><path d="M 194 102.75 C 193.47 102.75 192.97 103.04 192.71 103.5 L 189.5 103.5 C 189.5 101.01 187.49 99 185 99 C 182.51 99 180.5 101.01 180.5 103.5 L 177.29 103.5 C 176.95 102.91 176.26 102.63 175.6 102.8 C 174.95 102.98 174.49 103.57 174.49 104.25 C 174.49 104.93 174.95 105.52 175.6 105.7 C 176.26 105.87 176.95 105.59 177.29 105 L 180.5 105 L 180.5 108 L 179 108 C 178.17 108 177.5 108.67 177.5 109.5 L 177.5 118.5 C 177.5 119.33 178.17 120 179 120 L 191 120 C 191.83 120 192.5 119.33 192.5 118.5 L 192.5 109.5 C 192.5 108.67 191.83 108 191 108 L 189.5 108 L 189.5 105 L 192.71 105 C 193.07 105.63 193.84 105.9 194.52 105.65 C 195.2 105.4 195.61 104.7 195.48 103.98 C 195.35 103.27 194.73 102.75 194 102.75 M 182 103.5 C 182 101.84 183.34 100.5 185 100.5 C 186.66 100.5 188 101.84 188 103.5 L 188 108 L 182 108 L 182 105 L 185.75 105 L 185.75 103.5 Z M 191 109.5 L 191 118.5 L 179 118.5 L 179 109.5 Z" fill="#ffffff" stroke="none" pointer-events="all" style="fill: rgb(255, 255, 255);"/></g></g></g><g data-cell-id="wvHCSMqCh3a_h-5n7Jq_-9"><g><rect x="458" y="85.5" width="48" height="48" fill="#198038" stroke="none" pointer-events="all" style="fill: rgb(25, 128, 56);"/></g><g><g fill="#000000" font-family="Helvetica" text-anchor="middle" font-size="14px" style="fill: rgb(0, 0, 0);"><text x="482" y="153.5">Origin Server</text></g></g><g data-cell-id="wvHCSMqCh3a_h-5n7Jq_-10"><g><rect x="470" y="97.5" width="24" height="24" fill="none" stroke="none" pointer-events="all"/><rect x="470" y="97.5" width="0" height="0" fill="none" stroke="none" pointer-events="all"/><ellipse cx="476.75" cy="117" rx="0.75" ry="0.75" fill="#ffffff" stroke="none" pointer-events="all" style="fill: rgb(255, 255, 255);"/><path d="M 489.5 114 L 485.75 114 L 485.75 115.5 L 489.5 115.5 L 489.5 118.5 L 474.5 118.5 L 474.5 115.5 L 481.25 115.5 C 482.08 115.5 482.75 114.83 482.75 114 L 482.75 107.12 L 484.69 109.07 L 485.75 108 L 482 104.25 L 478.25 108 L 479.31 109.06 L 481.25 107.12 L 481.25 114 L 474.5 114 C 473.67 114 473 114.67 473 115.5 L 473 118.5 C 473 119.33 473.67 120 474.5 120 L 489.5 120 C 490.33 120 491 119.33 491 118.5 L 491 115.5 C 491 114.67 490.33 114 489.5 114 Z" fill="#ffffff" stroke="none" pointer-events="all" style="fill: rgb(255, 255, 255);"/><path d="M 487.81 103.54 C 487.15 100.91 484.75 99 482 99 C 479.25 99 476.85 100.91 476.19 103.54 C 473.97 103.82 472.25 105.71 472.25 108 C 472.25 110.48 474.27 112.5 476.75 112.5 L 478.25 112.5 L 478.25 111 L 476.75 111 C 475.09 111 473.75 109.66 473.75 108 C 473.75 106.36 475.08 105.02 476.71 105 L 477.45 105.01 L 477.55 104.36 C 477.87 102.16 479.78 100.5 482 100.5 C 484.22 100.5 486.13 102.16 486.45 104.36 L 486.54 105.02 L 487.2 105.01 L 487.3 105 C 488.93 105.02 490.25 106.36 490.25 108 C 490.25 109.66 488.91 111 487.25 111 L 485.75 111 L 485.75 112.5 L 487.25 112.5 C 489.73 112.5 491.75 110.48 491.75 108 C 491.75 105.71 490.03 103.82 487.81 103.54 Z" fill="#ffffff" stroke="none" pointer-events="all" style="fill: rgb(255, 255, 255);"/></g></g></g></g></g></g></svg>