<?xml version="1.0" encoding="UTF-8"?>
<!-- Do not edit this file with editors other than draw.io -->
<!DOCTYPE svg PUBLIC "-//W3C//DTD SVG 1.1//EN" "http://www.w3.org/Graphics/SVG/1.1/DTD/svg11.dtd">
<svg xmlns="http://www.w3.org/2000/svg" xmlns:xlink="http://www.w3.org/1999/xlink" version="1.1" width="690px" height="280px" viewBox="-0.5 -0.5 690 280" content="&lt;mxfile host=&quot;Electron&quot; agent=&quot;Mozilla/5.0 (Macintosh; Intel Mac OS X 10_15_7) AppleWebKit/537.36 (KHTML, like Gecko) draw.io/25.0.2 Chrome/128.0.6613.186 Electron/32.2.5 Safari/537.36&quot; version=&quot;25.0.2&quot; scale=&quot;1&quot; border=&quot;0&quot;&gt;&#10;  &lt;diagram name=&quot;Page-1&quot; id=&quot;8wTxipBLSAse1nOkmh9F&quot;&gt;&#10;    &lt;mxGraphModel dx=&quot;1578&quot; dy=&quot;1795&quot; grid=&quot;1&quot; gridSize=&quot;10&quot; guides=&quot;1&quot; tooltips=&quot;1&quot; connect=&quot;1&quot; arrows=&quot;1&quot; fold=&quot;1&quot; page=&quot;1&quot; pageScale=&quot;1&quot; pageWidth=&quot;850&quot; pageHeight=&quot;1100&quot; math=&quot;0&quot; shadow=&quot;0&quot;&gt;&#10;      &lt;root&gt;&#10;        &lt;mxCell id=&quot;0&quot; /&gt;&#10;        &lt;mxCell id=&quot;1&quot; parent=&quot;0&quot; /&gt;&#10;        &lt;mxCell id=&quot;GYZtjotkttZgbJ_qAHdR-1&quot; value=&quot;&quot; style=&quot;rounded=0;whiteSpace=wrap;html=1;strokeColor=none;&quot; vertex=&quot;1&quot; parent=&quot;1&quot;&gt;&#10;          &lt;mxGeometry x=&quot;-140&quot; y=&quot;-60&quot; width=&quot;690&quot; height=&quot;280&quot; as=&quot;geometry&quot; /&gt;&#10;        &lt;/mxCell&gt;&#10;        &lt;mxCell id=&quot;hN0CreysbBGn29C-ZNiO-8&quot; value=&quot;&quot; style=&quot;endArrow=none;html=1;rounded=0;&quot; parent=&quot;1&quot; edge=&quot;1&quot;&gt;&#10;          &lt;mxGeometry width=&quot;50&quot; height=&quot;50&quot; relative=&quot;1&quot; as=&quot;geometry&quot;&gt;&#10;            &lt;mxPoint x=&quot;47&quot; y=&quot;53.5&quot; as=&quot;sourcePoint&quot; /&gt;&#10;            &lt;mxPoint x=&quot;457&quot; y=&quot;54.5&quot; as=&quot;targetPoint&quot; /&gt;&#10;          &lt;/mxGeometry&gt;&#10;        &lt;/mxCell&gt;&#10;        &lt;mxCell id=&quot;hN0CreysbBGn29C-ZNiO-1&quot; value=&quot;Visitor&quot; style=&quot;shape=ellipse;fillColor=#000000;aspect=fixed;resizable=0;labelPosition=center;verticalLabelPosition=bottom;align=center;verticalAlign=top;strokeColor=none;fontSize=14;&quot; parent=&quot;1&quot; vertex=&quot;1&quot;&gt;&#10;          &lt;mxGeometry x=&quot;30&quot; y=&quot;28&quot; width=&quot;48&quot; height=&quot;48&quot; as=&quot;geometry&quot; /&gt;&#10;        &lt;/mxCell&gt;&#10;        &lt;mxCell id=&quot;hN0CreysbBGn29C-ZNiO-2&quot; value=&quot;&quot; style=&quot;fillColor=#ffffff;strokeColor=none;dashed=0;outlineConnect=0;html=1;labelPosition=center;verticalLabelPosition=bottom;verticalAlign=top;part=1;movable=0;resizable=0;rotatable=0;shape=mxgraph.ibm_cloud.user&quot; parent=&quot;hN0CreysbBGn29C-ZNiO-1&quot; vertex=&quot;1&quot;&gt;&#10;          &lt;mxGeometry width=&quot;24&quot; height=&quot;24&quot; relative=&quot;1&quot; as=&quot;geometry&quot;&gt;&#10;            &lt;mxPoint x=&quot;12&quot; y=&quot;12&quot; as=&quot;offset&quot; /&gt;&#10;          &lt;/mxGeometry&gt;&#10;        &lt;/mxCell&gt;&#10;        &lt;mxCell id=&quot;hN0CreysbBGn29C-ZNiO-3&quot; value=&quot;Cloud &amp;#xa;Internet &amp;#xa;Services&quot; style=&quot;shape=rect;fillColor=#1192E8;aspect=fixed;resizable=0;labelPosition=center;verticalLabelPosition=bottom;align=center;verticalAlign=top;strokeColor=none;fontSize=14;&quot; parent=&quot;1&quot; vertex=&quot;1&quot;&gt;&#10;          &lt;mxGeometry x=&quot;228&quot; y=&quot;30&quot; width=&quot;48&quot; height=&quot;48&quot; as=&quot;geometry&quot; /&gt;&#10;        &lt;/mxCell&gt;&#10;        &lt;mxCell id=&quot;hN0CreysbBGn29C-ZNiO-4&quot; value=&quot;&quot; style=&quot;fillColor=#ffffff;strokeColor=none;dashed=0;outlineConnect=0;html=1;labelPosition=center;verticalLabelPosition=bottom;verticalAlign=top;part=1;movable=0;resizable=0;rotatable=0;shape=mxgraph.ibm_cloud.ibm-cloud--internet-services&quot; parent=&quot;hN0CreysbBGn29C-ZNiO-3&quot; vertex=&quot;1&quot;&gt;&#10;          &lt;mxGeometry width=&quot;24&quot; height=&quot;24&quot; relative=&quot;1&quot; as=&quot;geometry&quot;&gt;&#10;            &lt;mxPoint x=&quot;12&quot; y=&quot;12&quot; as=&quot;offset&quot; /&gt;&#10;          &lt;/mxGeometry&gt;&#10;        &lt;/mxCell&gt;&#10;        &lt;mxCell id=&quot;hN0CreysbBGn29C-ZNiO-25&quot; value=&quot;&quot; style=&quot;shape=rect;fillColor=#FA4D56;aspect=fixed;resizable=0;labelPosition=center;verticalLabelPosition=bottom;align=center;verticalAlign=top;strokeColor=none;fontSize=14;&quot; parent=&quot;1&quot; vertex=&quot;1&quot;&gt;&#10;          &lt;mxGeometry x=&quot;130&quot; y=&quot;30&quot; width=&quot;48&quot; height=&quot;48&quot; as=&quot;geometry&quot; /&gt;&#10;        &lt;/mxCell&gt;&#10;        &lt;mxCell id=&quot;hN0CreysbBGn29C-ZNiO-26&quot; value=&quot;&quot; style=&quot;fillColor=#ffffff;strokeColor=none;dashed=0;outlineConnect=0;html=1;labelPosition=center;verticalLabelPosition=bottom;verticalAlign=top;part=1;movable=0;resizable=0;rotatable=0;shape=mxgraph.ibm_cloud.vpn--connection&quot; parent=&quot;hN0CreysbBGn29C-ZNiO-25&quot; vertex=&quot;1&quot;&gt;&#10;          &lt;mxGeometry width=&quot;24&quot; height=&quot;24&quot; relative=&quot;1&quot; as=&quot;geometry&quot;&gt;&#10;            &lt;mxPoint x=&quot;12&quot; y=&quot;12&quot; as=&quot;offset&quot; /&gt;&#10;          &lt;/mxGeometry&gt;&#10;        &lt;/mxCell&gt;&#10;        &lt;mxCell id=&quot;hN0CreysbBGn29C-ZNiO-27&quot; value=&quot;&quot; style=&quot;shape=rect;fillColor=#FA4D56;aspect=fixed;resizable=0;labelPosition=center;verticalLabelPosition=bottom;align=center;verticalAlign=top;strokeColor=none;fontSize=14;&quot; parent=&quot;1&quot; vertex=&quot;1&quot;&gt;&#10;          &lt;mxGeometry x=&quot;326&quot; y=&quot;30&quot; width=&quot;48&quot; height=&quot;48&quot; as=&quot;geometry&quot; /&gt;&#10;        &lt;/mxCell&gt;&#10;        &lt;mxCell id=&quot;hN0CreysbBGn29C-ZNiO-28&quot; value=&quot;&quot; style=&quot;fillColor=#ffffff;strokeColor=none;dashed=0;outlineConnect=0;html=1;labelPosition=center;verticalLabelPosition=bottom;verticalAlign=top;part=1;movable=0;resizable=0;rotatable=0;shape=mxgraph.ibm_cloud.vpn--connection&quot; parent=&quot;hN0CreysbBGn29C-ZNiO-27&quot; vertex=&quot;1&quot;&gt;&#10;          &lt;mxGeometry width=&quot;24&quot; height=&quot;24&quot; relative=&quot;1&quot; as=&quot;geometry&quot;&gt;&#10;            &lt;mxPoint x=&quot;12&quot; y=&quot;12&quot; as=&quot;offset&quot; /&gt;&#10;          &lt;/mxGeometry&gt;&#10;        &lt;/mxCell&gt;&#10;        &lt;mxCell id=&quot;hN0CreysbBGn29C-ZNiO-30&quot; value=&quot;Origin Server&amp;#xa;with TLS mode&quot; style=&quot;shape=rect;fillColor=#198038;aspect=fixed;resizable=0;labelPosition=center;verticalLabelPosition=bottom;align=center;verticalAlign=top;strokeColor=none;fontSize=14;&quot; parent=&quot;1&quot; vertex=&quot;1&quot;&gt;&#10;          &lt;mxGeometry x=&quot;425&quot; y=&quot;30&quot; width=&quot;48&quot; height=&quot;48&quot; as=&quot;geometry&quot; /&gt;&#10;        &lt;/mxCell&gt;&#10;        &lt;mxCell id=&quot;hN0CreysbBGn29C-ZNiO-31&quot; value=&quot;&quot; style=&quot;fillColor=#ffffff;strokeColor=none;dashed=0;outlineConnect=0;html=1;labelPosition=center;verticalLabelPosition=bottom;verticalAlign=top;part=1;movable=0;resizable=0;rotatable=0;shape=mxgraph.ibm_cloud.ibm-cloud--virtual-server-classic&quot; parent=&quot;hN0CreysbBGn29C-ZNiO-30&quot; vertex=&quot;1&quot;&gt;&#10;          &lt;mxGeometry width=&quot;24&quot; height=&quot;24&quot; relative=&quot;1&quot; as=&quot;geometry&quot;&gt;&#10;            &lt;mxPoint x=&quot;12&quot; y=&quot;12&quot; as=&quot;offset&quot; /&gt;&#10;          &lt;/mxGeometry&gt;&#10;        &lt;/mxCell&gt;&#10;      &lt;/root&gt;&#10;    &lt;/mxGraphModel&gt;&#10;  &lt;/diagram&gt;&#10;&lt;/mxfile&gt;&#10;" style="background-color: rgb(255, 255, 255);"><defs/><rect fill="#ffffff" width="100%" height="100%" x="0" y="0"/><g><g data-cell-id="0"><g data-cell-id="1"><g data-cell-id="GYZtjotkttZgbJ_qAHdR-1"><g><rect x="0" y="0" width="690" height="280" fill="rgb(255, 255, 255)" stroke="none" pointer-events="all"/></g></g><g data-cell-id="hN0CreysbBGn29C-ZNiO-8"><g><path d="M 187 113.5 L 597 114.5" fill="none" stroke="rgb(0, 0, 0)" stroke-miterlimit="10" pointer-events="stroke"/></g></g><g data-cell-id="hN0CreysbBGn29C-ZNiO-1"><g><ellipse cx="194" cy="112" rx="24" ry="24" fill="#000000" stroke="none" pointer-events="all"/></g><g><g fill="rgb(0, 0, 0)" font-family="&quot;Helvetica&quot;" text-anchor="middle" font-size="14px"><text x="193.5" y="155.5">Visitor</text></g></g><g data-cell-id="hN0CreysbBGn29C-ZNiO-2"><g><rect x="182" y="100" width="24" height="24" fill="none" stroke="none" pointer-events="all"/><rect x="182" y="100" width="0" height="0" fill="none" stroke="none" pointer-events="all"/><path d="M 194 103 C 196.07 103 197.75 104.68 197.75 106.75 C 197.75 108.82 196.07 110.5 194 110.5 C 191.93 110.5 190.25 108.82 190.25 106.75 C 190.25 104.68 191.93 103 194 103 M 194 101.5 C 191.1 101.5 188.75 103.85 188.75 106.75 C 188.75 109.65 191.1 112 194 112 C 196.9 112 199.25 109.65 199.25 106.75 C 199.25 103.85 196.9 101.5 194 101.5 Z M 201.5 122.5 L 200 122.5 L 200 118.75 C 200 116.68 198.32 115 196.25 115 L 191.75 115 C 189.68 115 188 116.68 188 118.75 L 188 122.5 L 186.5 122.5 L 186.5 118.75 C 186.5 115.85 188.85 113.5 191.75 113.5 L 196.25 113.5 C 199.15 113.5 201.5 115.85 201.5 118.75 Z" fill="#ffffff" stroke="none" pointer-events="all"/></g></g></g><g data-cell-id="hN0CreysbBGn29C-ZNiO-3"><g><rect x="368" y="90" width="48" height="48" fill="#1192e8" stroke="none" pointer-events="all"/></g><g><g fill="rgb(0, 0, 0)" font-family="&quot;Helvetica&quot;" text-anchor="middle" font-size="14px"><text x="391.5" y="157.5">Cloud </text><text x="391.5" y="174.5">Internet </text><text x="391.5" y="191.5">Services</text></g></g><g data-cell-id="hN0CreysbBGn29C-ZNiO-4"><g><rect x="380" y="102" width="24" height="24" fill="none" stroke="none" pointer-events="all"/><rect x="380" y="102" width="0" height="0" fill="none" stroke="none" pointer-events="all"/><path d="M 400.25 118.5 C 399.72 118.5 399.2 118.72 398.83 119.03 L 394.92 116.7 C 394.92 116.55 395 116.4 395 116.25 C 395 116.1 395 115.95 394.92 115.8 L 398.83 113.47 C 399.2 113.78 399.72 114 400.25 114 C 401.53 114 402.5 113.03 402.5 111.75 C 402.5 110.47 401.53 109.5 400.25 109.5 C 398.97 109.5 398 110.47 398 111.75 C 398 111.9 398 112.05 398.08 112.2 L 394.17 114.53 C 393.8 114.22 393.28 114 392.75 114 C 391.47 114 390.5 114.97 390.5 116.25 C 390.5 117.53 391.47 118.5 392.75 118.5 C 393.28 118.5 393.8 118.28 394.17 117.97 L 398.08 120.3 C 398.08 120.45 398 120.6 398 120.75 C 398 122.03 398.97 123 400.25 123 C 401.53 123 402.5 122.03 402.5 120.75 C 402.5 119.47 401.53 118.5 400.25 118.5 Z M 400.25 111 C 400.7 111 401 111.3 401 111.75 C 401 112.2 400.7 112.5 400.25 112.5 C 399.8 112.5 399.5 112.2 399.5 111.75 C 399.5 111.3 399.8 111 400.25 111 Z M 392.75 117 C 392.3 117 392 116.7 392 116.25 C 392 115.8 392.3 115.5 392.75 115.5 C 393.2 115.5 393.5 115.8 393.5 116.25 C 393.5 116.7 393.2 117 392.75 117 Z M 400.25 121.5 C 399.8 121.5 399.5 121.2 399.5 120.75 C 399.5 120.3 399.8 120 400.25 120 C 400.7 120 401 120.3 401 120.75 C 401 121.2 400.7 121.5 400.25 121.5 Z" fill="#ffffff" stroke="none" pointer-events="all"/><path d="M 394.25 120.75 L 386.38 120.75 C 384.13 120.75 382.25 118.88 382.25 116.63 C 382.25 114.6 383.67 112.95 385.63 112.58 L 386.6 112.42 L 386.83 111.45 C 387.42 108.53 389.9 106.5 392.75 106.5 C 393.13 106.5 393.5 106.5 393.88 106.58 C 395.08 106.8 396.13 107.4 397.03 108.22 L 398.08 107.17 C 397.03 106.13 395.67 105.38 394.17 105.15 C 393.72 105.08 393.2 105 392.75 105 C 389.22 105 386.08 107.47 385.4 111.08 C 382.7 111.6 380.75 113.92 380.75 116.63 C 380.75 119.7 383.22 122.25 386.38 122.25 L 394.25 122.25 L 394.25 120.75 Z" fill="#ffffff" stroke="none" pointer-events="all"/></g></g></g><g data-cell-id="hN0CreysbBGn29C-ZNiO-25"><g><rect x="270" y="90" width="48" height="48" fill="#fa4d56" stroke="none" pointer-events="all"/></g><g data-cell-id="hN0CreysbBGn29C-ZNiO-26"><g><rect x="282" y="102" width="24" height="24" fill="none" stroke="none" pointer-events="all"/><rect x="282" y="102" width="0" height="0" fill="none" stroke="none" pointer-events="all"/><path d="M 303 107.25 C 302.47 107.25 301.97 107.54 301.71 108 L 298.5 108 C 298.5 105.51 296.49 103.5 294 103.5 C 291.51 103.5 289.5 105.51 289.5 108 L 286.29 108 C 285.95 107.41 285.26 107.13 284.6 107.3 C 283.95 107.48 283.49 108.07 283.49 108.75 C 283.49 109.43 283.95 110.02 284.6 110.2 C 285.26 110.37 285.95 110.09 286.29 109.5 L 289.5 109.5 L 289.5 112.5 L 288 112.5 C 287.17 112.5 286.5 113.17 286.5 114 L 286.5 123 C 286.5 123.83 287.17 124.5 288 124.5 L 300 124.5 C 300.83 124.5 301.5 123.83 301.5 123 L 301.5 114 C 301.5 113.17 300.83 112.5 300 112.5 L 298.5 112.5 L 298.5 109.5 L 301.71 109.5 C 302.07 110.13 302.84 110.4 303.52 110.15 C 304.2 109.9 304.61 109.2 304.48 108.48 C 304.35 107.77 303.73 107.25 303 107.25 M 291 108 C 291 106.34 292.34 105 294 105 C 295.66 105 297 106.34 297 108 L 297 112.5 L 291 112.5 L 291 109.5 L 294.75 109.5 L 294.75 108 Z M 300 114 L 300 123 L 288 123 L 288 114 Z" fill="#ffffff" stroke="none" pointer-events="all"/></g></g></g><g data-cell-id="hN0CreysbBGn29C-ZNiO-27"><g><rect x="466" y="90" width="48" height="48" fill="#fa4d56" stroke="none" pointer-events="all"/></g><g data-cell-id="hN0CreysbBGn29C-ZNiO-28"><g><rect x="478" y="102" width="24" height="24" fill="none" stroke="none" pointer-events="all"/><rect x="478" y="102" width="0" height="0" fill="none" stroke="none" pointer-events="all"/><path d="M 499 107.25 C 498.47 107.25 497.97 107.54 497.71 108 L 494.5 108 C 494.5 105.51 492.49 103.5 490 103.5 C 487.51 103.5 485.5 105.51 485.5 108 L 482.29 108 C 481.95 107.41 481.26 107.13 480.6 107.3 C 479.95 107.48 479.49 108.07 479.49 108.75 C 479.49 109.43 479.95 110.02 480.6 110.2 C 481.26 110.37 481.95 110.09 482.29 109.5 L 485.5 109.5 L 485.5 112.5 L 484 112.5 C 483.17 112.5 482.5 113.17 482.5 114 L 482.5 123 C 482.5 123.83 483.17 124.5 484 124.5 L 496 124.5 C 496.83 124.5 497.5 123.83 497.5 123 L 497.5 114 C 497.5 113.17 496.83 112.5 496 112.5 L 494.5 112.5 L 494.5 109.5 L 497.71 109.5 C 498.07 110.13 498.84 110.4 499.52 110.15 C 500.2 109.9 500.61 109.2 500.48 108.48 C 500.35 107.77 499.73 107.25 499 107.25 M 487 108 C 487 106.34 488.34 105 490 105 C 491.66 105 493 106.34 493 108 L 493 112.5 L 487 112.5 L 487 109.5 L 490.75 109.5 L 490.75 108 Z M 496 114 L 496 123 L 484 123 L 484 114 Z" fill="#ffffff" stroke="none" pointer-events="all"/></g></g></g><g data-cell-id="hN0CreysbBGn29C-ZNiO-30"><g><rect x="565" y="90" width="48" height="48" fill="#198038" stroke="none" pointer-events="all"/></g><g><g fill="rgb(0, 0, 0)" font-family="&quot;Helvetica&quot;" text-anchor="middle" font-size="14px"><text x="588.5" y="157.5">Origin Server</text><text x="588.5" y="174.5">with TLS mode</text></g></g><g data-cell-id="hN0CreysbBGn29C-ZNiO-31"><g><rect x="577" y="102" width="24" height="24" fill="none" stroke="none" pointer-events="all"/><rect x="577" y="102" width="0" height="0" fill="none" stroke="none" pointer-events="all"/><ellipse cx="583.75" cy="121.5" rx="0.75" ry="0.75" fill="#ffffff" stroke="none" pointer-events="all"/><path d="M 596.5 118.5 L 592.75 118.5 L 592.75 120 L 596.5 120 L 596.5 123 L 581.5 123 L 581.5 120 L 588.25 120 C 589.08 120 589.75 119.33 589.75 118.5 L 589.75 111.62 L 591.69 113.57 L 592.75 112.5 L 589 108.75 L 585.25 112.5 L 586.31 113.56 L 588.25 111.62 L 588.25 118.5 L 581.5 118.5 C 580.67 118.5 580 119.17 580 120 L 580 123 C 580 123.83 580.67 124.5 581.5 124.5 L 596.5 124.5 C 597.33 124.5 598 123.83 598 123 L 598 120 C 598 119.17 597.33 118.5 596.5 118.5 Z" fill="#ffffff" stroke="none" pointer-events="all"/><path d="M 594.81 108.04 C 594.15 105.41 591.75 103.5 589 103.5 C 586.25 103.5 583.85 105.41 583.19 108.04 C 580.97 108.32 579.25 110.21 579.25 112.5 C 579.25 114.98 581.27 117 583.75 117 L 585.25 117 L 585.25 115.5 L 583.75 115.5 C 582.09 115.5 580.75 114.16 580.75 112.5 C 580.75 110.86 582.08 109.52 583.71 109.5 L 584.45 109.52 L 584.55 108.86 C 584.87 106.66 586.78 105 589 105 C 591.22 105 593.13 106.66 593.45 108.86 L 593.54 109.52 L 594.2 109.51 L 594.3 109.5 C 595.93 109.52 597.25 110.86 597.25 112.5 C 597.25 114.16 595.91 115.5 594.25 115.5 L 592.75 115.5 L 592.75 117 L 594.25 117 C 596.73 117 598.75 114.98 598.75 112.5 C 598.75 110.21 597.03 108.32 594.81 108.04 Z" fill="#ffffff" stroke="none" pointer-events="all"/></g></g></g></g></g></g></svg>