<?xml version="1.0" encoding="UTF-8"?>
<!-- Do not edit this file with editors other than draw.io -->
<!DOCTYPE svg PUBLIC "-//W3C//DTD SVG 1.1//EN" "http://www.w3.org/Graphics/SVG/1.1/DTD/svg11.dtd">
<svg xmlns="http://www.w3.org/2000/svg" style="background: #ffffff; background-color: #ffffff; color-scheme: light;" xmlns:xlink="http://www.w3.org/1999/xlink" version="1.1" width="550px" height="220px" viewBox="-0.5 -0.5 550 220" content="&lt;mxfile host=&quot;app.diagrams.net&quot; agent=&quot;Mozilla/5.0 (Macintosh; Intel Mac OS X 10_15_7) AppleWebKit/537.36 (KHTML, like Gecko) Chrome/138.0.0.0 Safari/537.36 Edg/138.0.0.0&quot; version=&quot;27.2.0&quot; scale=&quot;1&quot; border=&quot;0&quot;&gt;&#10;  &lt;diagram name=&quot;Page-1&quot; id=&quot;t2ISW02FXIW0Eo_bIoR7&quot;&gt;&#10;    &lt;mxGraphModel dx=&quot;1226&quot; dy=&quot;698&quot; grid=&quot;1&quot; gridSize=&quot;10&quot; guides=&quot;1&quot; tooltips=&quot;1&quot; connect=&quot;1&quot; arrows=&quot;1&quot; fold=&quot;1&quot; page=&quot;1&quot; pageScale=&quot;1&quot; pageWidth=&quot;850&quot; pageHeight=&quot;1100&quot; math=&quot;0&quot; shadow=&quot;0&quot;&gt;&#10;      &lt;root&gt;&#10;        &lt;mxCell id=&quot;0&quot; /&gt;&#10;        &lt;mxCell id=&quot;1&quot; parent=&quot;0&quot; /&gt;&#10;        &lt;mxCell id=&quot;56ggsOPZfVLVSNzoqqUM-1&quot; value=&quot;&quot; style=&quot;rounded=0;whiteSpace=wrap;html=1;fillColor=default;strokeColor=none;&quot; vertex=&quot;1&quot; parent=&quot;1&quot;&gt;&#10;          &lt;mxGeometry x=&quot;151&quot; y=&quot;185.5&quot; width=&quot;550&quot; height=&quot;220&quot; as=&quot;geometry&quot; /&gt;&#10;        &lt;/mxCell&gt;&#10;        &lt;mxCell id=&quot;56ggsOPZfVLVSNzoqqUM-2&quot; value=&quot;&quot; style=&quot;endArrow=none;html=1;rounded=0;&quot; edge=&quot;1&quot; parent=&quot;1&quot;&gt;&#10;          &lt;mxGeometry width=&quot;50&quot; height=&quot;50&quot; relative=&quot;1&quot; as=&quot;geometry&quot;&gt;&#10;            &lt;mxPoint x=&quot;221&quot; y=&quot;295&quot; as=&quot;sourcePoint&quot; /&gt;&#10;            &lt;mxPoint x=&quot;631&quot; y=&quot;296&quot; as=&quot;targetPoint&quot; /&gt;&#10;          &lt;/mxGeometry&gt;&#10;        &lt;/mxCell&gt;&#10;        &lt;mxCell id=&quot;56ggsOPZfVLVSNzoqqUM-3&quot; value=&quot;Visitor&quot; style=&quot;shape=ellipse;fillColor=#000000;aspect=fixed;resizable=0;labelPosition=center;verticalLabelPosition=bottom;align=center;verticalAlign=top;strokeColor=none;fontSize=14;&quot; vertex=&quot;1&quot; parent=&quot;1&quot;&gt;&#10;          &lt;mxGeometry x=&quot;204&quot; y=&quot;269.5&quot; width=&quot;48&quot; height=&quot;48&quot; as=&quot;geometry&quot; /&gt;&#10;        &lt;/mxCell&gt;&#10;        &lt;mxCell id=&quot;56ggsOPZfVLVSNzoqqUM-4&quot; value=&quot;&quot; style=&quot;fillColor=#ffffff;strokeColor=none;dashed=0;outlineConnect=0;html=1;labelPosition=center;verticalLabelPosition=bottom;verticalAlign=top;part=1;movable=0;resizable=0;rotatable=0;shape=mxgraph.ibm_cloud.user&quot; vertex=&quot;1&quot; parent=&quot;56ggsOPZfVLVSNzoqqUM-3&quot;&gt;&#10;          &lt;mxGeometry width=&quot;24&quot; height=&quot;24&quot; relative=&quot;1&quot; as=&quot;geometry&quot;&gt;&#10;            &lt;mxPoint x=&quot;12&quot; y=&quot;12&quot; as=&quot;offset&quot; /&gt;&#10;          &lt;/mxGeometry&gt;&#10;        &lt;/mxCell&gt;&#10;        &lt;mxCell id=&quot;56ggsOPZfVLVSNzoqqUM-5&quot; value=&quot;Cloud &amp;#xa;Internet &amp;#xa;Services&quot; style=&quot;shape=rect;fillColor=#1192E8;aspect=fixed;resizable=0;labelPosition=center;verticalLabelPosition=bottom;align=center;verticalAlign=top;strokeColor=none;fontSize=14;&quot; vertex=&quot;1&quot; parent=&quot;1&quot;&gt;&#10;          &lt;mxGeometry x=&quot;402&quot; y=&quot;271.5&quot; width=&quot;48&quot; height=&quot;48&quot; as=&quot;geometry&quot; /&gt;&#10;        &lt;/mxCell&gt;&#10;        &lt;mxCell id=&quot;56ggsOPZfVLVSNzoqqUM-6&quot; value=&quot;&quot; style=&quot;fillColor=#ffffff;strokeColor=none;dashed=0;outlineConnect=0;html=1;labelPosition=center;verticalLabelPosition=bottom;verticalAlign=top;part=1;movable=0;resizable=0;rotatable=0;shape=mxgraph.ibm_cloud.ibm-cloud--internet-services&quot; vertex=&quot;1&quot; parent=&quot;56ggsOPZfVLVSNzoqqUM-5&quot;&gt;&#10;          &lt;mxGeometry width=&quot;24&quot; height=&quot;24&quot; relative=&quot;1&quot; as=&quot;geometry&quot;&gt;&#10;            &lt;mxPoint x=&quot;12&quot; y=&quot;12&quot; as=&quot;offset&quot; /&gt;&#10;          &lt;/mxGeometry&gt;&#10;        &lt;/mxCell&gt;&#10;        &lt;mxCell id=&quot;56ggsOPZfVLVSNzoqqUM-7&quot; value=&quot;&quot; style=&quot;shape=rect;fillColor=#FA4D56;aspect=fixed;resizable=0;labelPosition=center;verticalLabelPosition=bottom;align=center;verticalAlign=top;strokeColor=none;fontSize=14;&quot; vertex=&quot;1&quot; parent=&quot;1&quot;&gt;&#10;          &lt;mxGeometry x=&quot;304&quot; y=&quot;271.5&quot; width=&quot;48&quot; height=&quot;48&quot; as=&quot;geometry&quot; /&gt;&#10;        &lt;/mxCell&gt;&#10;        &lt;mxCell id=&quot;56ggsOPZfVLVSNzoqqUM-8&quot; value=&quot;&quot; style=&quot;fillColor=#ffffff;strokeColor=none;dashed=0;outlineConnect=0;html=1;labelPosition=center;verticalLabelPosition=bottom;verticalAlign=top;part=1;movable=0;resizable=0;rotatable=0;shape=mxgraph.ibm_cloud.vpn--connection&quot; vertex=&quot;1&quot; parent=&quot;56ggsOPZfVLVSNzoqqUM-7&quot;&gt;&#10;          &lt;mxGeometry width=&quot;24&quot; height=&quot;24&quot; relative=&quot;1&quot; as=&quot;geometry&quot;&gt;&#10;            &lt;mxPoint x=&quot;12&quot; y=&quot;12&quot; as=&quot;offset&quot; /&gt;&#10;          &lt;/mxGeometry&gt;&#10;        &lt;/mxCell&gt;&#10;        &lt;mxCell id=&quot;56ggsOPZfVLVSNzoqqUM-9&quot; value=&quot;&quot; style=&quot;shape=rect;fillColor=#FA4D56;aspect=fixed;resizable=0;labelPosition=center;verticalLabelPosition=bottom;align=center;verticalAlign=top;strokeColor=none;fontSize=14;&quot; vertex=&quot;1&quot; parent=&quot;1&quot;&gt;&#10;          &lt;mxGeometry x=&quot;500&quot; y=&quot;271.5&quot; width=&quot;48&quot; height=&quot;48&quot; as=&quot;geometry&quot; /&gt;&#10;        &lt;/mxCell&gt;&#10;        &lt;mxCell id=&quot;56ggsOPZfVLVSNzoqqUM-10&quot; value=&quot;&quot; style=&quot;fillColor=#ffffff;strokeColor=none;dashed=0;outlineConnect=0;html=1;labelPosition=center;verticalLabelPosition=bottom;verticalAlign=top;part=1;movable=0;resizable=0;rotatable=0;shape=mxgraph.ibm_cloud.vpn--connection&quot; vertex=&quot;1&quot; parent=&quot;56ggsOPZfVLVSNzoqqUM-9&quot;&gt;&#10;          &lt;mxGeometry width=&quot;24&quot; height=&quot;24&quot; relative=&quot;1&quot; as=&quot;geometry&quot;&gt;&#10;            &lt;mxPoint x=&quot;12&quot; y=&quot;12&quot; as=&quot;offset&quot; /&gt;&#10;          &lt;/mxGeometry&gt;&#10;        &lt;/mxCell&gt;&#10;        &lt;mxCell id=&quot;56ggsOPZfVLVSNzoqqUM-11&quot; value=&quot;Origin Server&amp;#xa;&quot; style=&quot;shape=rect;fillColor=#198038;aspect=fixed;resizable=0;labelPosition=center;verticalLabelPosition=bottom;align=center;verticalAlign=top;strokeColor=none;fontSize=14;&quot; vertex=&quot;1&quot; parent=&quot;1&quot;&gt;&#10;          &lt;mxGeometry x=&quot;599&quot; y=&quot;271.5&quot; width=&quot;48&quot; height=&quot;48&quot; as=&quot;geometry&quot; /&gt;&#10;        &lt;/mxCell&gt;&#10;        &lt;mxCell id=&quot;56ggsOPZfVLVSNzoqqUM-12&quot; value=&quot;&quot; style=&quot;fillColor=#ffffff;strokeColor=none;dashed=0;outlineConnect=0;html=1;labelPosition=center;verticalLabelPosition=bottom;verticalAlign=top;part=1;movable=0;resizable=0;rotatable=0;shape=mxgraph.ibm_cloud.ibm-cloud--virtual-server-classic&quot; vertex=&quot;1&quot; parent=&quot;56ggsOPZfVLVSNzoqqUM-11&quot;&gt;&#10;          &lt;mxGeometry width=&quot;24&quot; height=&quot;24&quot; relative=&quot;1&quot; as=&quot;geometry&quot;&gt;&#10;            &lt;mxPoint x=&quot;12&quot; y=&quot;12&quot; as=&quot;offset&quot; /&gt;&#10;          &lt;/mxGeometry&gt;&#10;        &lt;/mxCell&gt;&#10;      &lt;/root&gt;&#10;    &lt;/mxGraphModel&gt;&#10;  &lt;/diagram&gt;&#10;&lt;/mxfile&gt;&#10;"><defs/><rect fill="#ffffff" width="100%" height="100%" x="0" y="0" style="fill: rgb(255, 255, 255);"/><g><g data-cell-id="0"><g data-cell-id="1"><g data-cell-id="56ggsOPZfVLVSNzoqqUM-1"><g><rect x="0" y="-0.5" width="550" height="220" fill="#ffffff" stroke="none" pointer-events="all" style="fill: rgb(255, 255, 255);"/></g></g><g data-cell-id="56ggsOPZfVLVSNzoqqUM-2"><g><path d="M 70 109 L 480 110" fill="none" stroke="#000000" stroke-miterlimit="10" pointer-events="stroke" style="stroke: rgb(0, 0, 0);"/></g></g><g data-cell-id="56ggsOPZfVLVSNzoqqUM-3"><g><ellipse cx="77" cy="107.5" rx="24" ry="24" fill="#000000" stroke="none" pointer-events="all" style="fill: rgb(0, 0, 0);"/></g><g><g fill="#000000" font-family="Helvetica" text-anchor="middle" font-size="14px" style="fill: rgb(0, 0, 0);"><text x="77" y="151.5">Visitor</text></g></g><g data-cell-id="56ggsOPZfVLVSNzoqqUM-4"><g><rect x="65" y="95.5" width="24" height="24" fill="none" stroke="none" pointer-events="all"/><rect x="65" y="95.5" width="0" height="0" fill="none" stroke="none" pointer-events="all"/><path d="M 77 98.5 C 79.07 98.5 80.75 100.18 80.75 102.25 C 80.75 104.32 79.07 106 77 106 C 74.93 106 73.25 104.32 73.25 102.25 C 73.25 100.18 74.93 98.5 77 98.5 M 77 97 C 74.1 97 71.75 99.35 71.75 102.25 C 71.75 105.15 74.1 107.5 77 107.5 C 79.9 107.5 82.25 105.15 82.25 102.25 C 82.25 99.35 79.9 97 77 97 Z M 84.5 118 L 83 118 L 83 114.25 C 83 112.18 81.32 110.5 79.25 110.5 L 74.75 110.5 C 72.68 110.5 71 112.18 71 114.25 L 71 118 L 69.5 118 L 69.5 114.25 C 69.5 111.35 71.85 109 74.75 109 L 79.25 109 C 82.15 109 84.5 111.35 84.5 114.25 Z" fill="#ffffff" stroke="none" pointer-events="all" style="fill: rgb(255, 255, 255);"/></g></g></g><g data-cell-id="56ggsOPZfVLVSNzoqqUM-5"><g><rect x="251" y="85.5" width="48" height="48" fill="#1192e8" stroke="none" pointer-events="all" style="fill: rgb(17, 146, 232);"/></g><g><g fill="#000000" font-family="Helvetica" text-anchor="middle" font-size="14px" style="fill: rgb(0, 0, 0);"><text x="275" y="153.5">Cloud </text><text x="275" y="170.5">Internet </text><text x="275" y="187.5">Services</text></g></g><g data-cell-id="56ggsOPZfVLVSNzoqqUM-6"><g><rect x="263" y="97.5" width="24" height="24" fill="none" stroke="none" pointer-events="all"/><rect x="263" y="97.5" width="0" height="0" fill="none" stroke="none" pointer-events="all"/><path d="M 283.25 114 C 282.72 114 282.2 114.23 281.83 114.52 L 277.92 112.2 C 277.92 112.05 278 111.9 278 111.75 C 278 111.6 278 111.45 277.92 111.3 L 281.83 108.98 C 282.2 109.27 282.72 109.5 283.25 109.5 C 284.53 109.5 285.5 108.52 285.5 107.25 C 285.5 105.98 284.53 105 283.25 105 C 281.97 105 281 105.98 281 107.25 C 281 107.4 281 107.55 281.08 107.7 L 277.17 110.02 C 276.8 109.73 276.28 109.5 275.75 109.5 C 274.47 109.5 273.5 110.48 273.5 111.75 C 273.5 113.02 274.47 114 275.75 114 C 276.28 114 276.8 113.77 277.17 113.48 L 281.08 115.8 C 281.08 115.95 281 116.1 281 116.25 C 281 117.52 281.97 118.5 283.25 118.5 C 284.53 118.5 285.5 117.52 285.5 116.25 C 285.5 114.98 284.53 114 283.25 114 Z M 283.25 106.5 C 283.7 106.5 284 106.8 284 107.25 C 284 107.7 283.7 108 283.25 108 C 282.8 108 282.5 107.7 282.5 107.25 C 282.5 106.8 282.8 106.5 283.25 106.5 Z M 275.75 112.5 C 275.3 112.5 275 112.2 275 111.75 C 275 111.3 275.3 111 275.75 111 C 276.2 111 276.5 111.3 276.5 111.75 C 276.5 112.2 276.2 112.5 275.75 112.5 Z M 283.25 117 C 282.8 117 282.5 116.7 282.5 116.25 C 282.5 115.8 282.8 115.5 283.25 115.5 C 283.7 115.5 284 115.8 284 116.25 C 284 116.7 283.7 117 283.25 117 Z" fill="#ffffff" stroke="none" pointer-events="all" style="fill: rgb(255, 255, 255);"/><path d="M 277.25 116.25 L 269.38 116.25 C 267.13 116.25 265.25 114.38 265.25 112.13 C 265.25 110.1 266.67 108.45 268.63 108.08 L 269.6 107.92 L 269.83 106.95 C 270.42 104.02 272.9 102 275.75 102 C 276.13 102 276.5 102 276.88 102.08 C 278.08 102.3 279.13 102.9 280.03 103.73 L 281.08 102.67 C 280.03 101.63 278.67 100.88 277.17 100.65 C 276.72 100.58 276.2 100.5 275.75 100.5 C 272.22 100.5 269.08 102.98 268.4 106.58 C 265.7 107.1 263.75 109.42 263.75 112.13 C 263.75 115.2 266.22 117.75 269.38 117.75 L 277.25 117.75 L 277.25 116.25 Z" fill="#ffffff" stroke="none" pointer-events="all" style="fill: rgb(255, 255, 255);"/></g></g></g><g data-cell-id="56ggsOPZfVLVSNzoqqUM-7"><g><rect x="153" y="85.5" width="48" height="48" fill="#fa4d56" stroke="none" pointer-events="all" style="fill: rgb(250, 77, 86);"/></g><g data-cell-id="56ggsOPZfVLVSNzoqqUM-8"><g><rect x="165" y="97.5" width="24" height="24" fill="none" stroke="none" pointer-events="all"/><rect x="165" y="97.5" width="0" height="0" fill="none" stroke="none" pointer-events="all"/><path d="M 186 102.75 C 185.47 102.75 184.97 103.04 184.71 103.5 L 181.5 103.5 C 181.5 101.01 179.49 99 177 99 C 174.51 99 172.5 101.01 172.5 103.5 L 169.29 103.5 C 168.95 102.91 168.26 102.63 167.6 102.8 C 166.95 102.98 166.49 103.57 166.49 104.25 C 166.49 104.93 166.95 105.52 167.6 105.7 C 168.26 105.87 168.95 105.59 169.29 105 L 172.5 105 L 172.5 108 L 171 108 C 170.17 108 169.5 108.67 169.5 109.5 L 169.5 118.5 C 169.5 119.33 170.17 120 171 120 L 183 120 C 183.83 120 184.5 119.33 184.5 118.5 L 184.5 109.5 C 184.5 108.67 183.83 108 183 108 L 181.5 108 L 181.5 105 L 184.71 105 C 185.07 105.63 185.84 105.9 186.52 105.65 C 187.2 105.4 187.61 104.7 187.48 103.98 C 187.35 103.27 186.73 102.75 186 102.75 M 174 103.5 C 174 101.84 175.34 100.5 177 100.5 C 178.66 100.5 180 101.84 180 103.5 L 180 108 L 174 108 L 174 105 L 177.75 105 L 177.75 103.5 Z M 183 109.5 L 183 118.5 L 171 118.5 L 171 109.5 Z" fill="#ffffff" stroke="none" pointer-events="all" style="fill: rgb(255, 255, 255);"/></g></g></g><g data-cell-id="56ggsOPZfVLVSNzoqqUM-9"><g><rect x="349" y="85.5" width="48" height="48" fill="#fa4d56" stroke="none" pointer-events="all" style="fill: rgb(250, 77, 86);"/></g><g data-cell-id="56ggsOPZfVLVSNzoqqUM-10"><g><rect x="361" y="97.5" width="24" height="24" fill="none" stroke="none" pointer-events="all"/><rect x="361" y="97.5" width="0" height="0" fill="none" stroke="none" pointer-events="all"/><path d="M 382 102.75 C 381.47 102.75 380.97 103.04 380.71 103.5 L 377.5 103.5 C 377.5 101.01 375.49 99 373 99 C 370.51 99 368.5 101.01 368.5 103.5 L 365.29 103.5 C 364.95 102.91 364.26 102.63 363.6 102.8 C 362.95 102.98 362.49 103.57 362.49 104.25 C 362.49 104.93 362.95 105.52 363.6 105.7 C 364.26 105.87 364.95 105.59 365.29 105 L 368.5 105 L 368.5 108 L 367 108 C 366.17 108 365.5 108.67 365.5 109.5 L 365.5 118.5 C 365.5 119.33 366.17 120 367 120 L 379 120 C 379.83 120 380.5 119.33 380.5 118.5 L 380.5 109.5 C 380.5 108.67 379.83 108 379 108 L 377.5 108 L 377.5 105 L 380.71 105 C 381.07 105.63 381.84 105.9 382.52 105.65 C 383.2 105.4 383.61 104.7 383.48 103.98 C 383.35 103.27 382.73 102.75 382 102.75 M 370 103.5 C 370 101.84 371.34 100.5 373 100.5 C 374.66 100.5 376 101.84 376 103.5 L 376 108 L 370 108 L 370 105 L 373.75 105 L 373.75 103.5 Z M 379 109.5 L 379 118.5 L 367 118.5 L 367 109.5 Z" fill="#ffffff" stroke="none" pointer-events="all" style="fill: rgb(255, 255, 255);"/></g></g></g><g data-cell-id="56ggsOPZfVLVSNzoqqUM-11"><g><rect x="448" y="85.5" width="48" height="48" fill="#198038" stroke="none" pointer-events="all" style="fill: rgb(25, 128, 56);"/></g><g><g fill="#000000" font-family="Helvetica" text-anchor="middle" font-size="14px" style="fill: rgb(0, 0, 0);"><text x="472" y="153.5">Origin Server</text></g></g><g data-cell-id="56ggsOPZfVLVSNzoqqUM-12"><g><rect x="460" y="97.5" width="24" height="24" fill="none" stroke="none" pointer-events="all"/><rect x="460" y="97.5" width="0" height="0" fill="none" stroke="none" pointer-events="all"/><ellipse cx="466.75" cy="117" rx="0.75" ry="0.75" fill="#ffffff" stroke="none" pointer-events="all" style="fill: rgb(255, 255, 255);"/><path d="M 479.5 114 L 475.75 114 L 475.75 115.5 L 479.5 115.5 L 479.5 118.5 L 464.5 118.5 L 464.5 115.5 L 471.25 115.5 C 472.08 115.5 472.75 114.83 472.75 114 L 472.75 107.12 L 474.69 109.07 L 475.75 108 L 472 104.25 L 468.25 108 L 469.31 109.06 L 471.25 107.12 L 471.25 114 L 464.5 114 C 463.67 114 463 114.67 463 115.5 L 463 118.5 C 463 119.33 463.67 120 464.5 120 L 479.5 120 C 480.33 120 481 119.33 481 118.5 L 481 115.5 C 481 114.67 480.33 114 479.5 114 Z" fill="#ffffff" stroke="none" pointer-events="all" style="fill: rgb(255, 255, 255);"/><path d="M 477.81 103.54 C 477.15 100.91 474.75 99 472 99 C 469.25 99 466.85 100.91 466.19 103.54 C 463.97 103.82 462.25 105.71 462.25 108 C 462.25 110.48 464.27 112.5 466.75 112.5 L 468.25 112.5 L 468.25 111 L 466.75 111 C 465.09 111 463.75 109.66 463.75 108 C 463.75 106.36 465.08 105.02 466.71 105 L 467.45 105.01 L 467.55 104.36 C 467.87 102.16 469.78 100.5 472 100.5 C 474.22 100.5 476.13 102.16 476.45 104.36 L 476.54 105.02 L 477.2 105.01 L 477.3 105 C 478.93 105.02 480.25 106.36 480.25 108 C 480.25 109.66 478.91 111 477.25 111 L 475.75 111 L 475.75 112.5 L 477.25 112.5 C 479.73 112.5 481.75 110.48 481.75 108 C 481.75 105.71 480.03 103.82 477.81 103.54 Z" fill="#ffffff" stroke="none" pointer-events="all" style="fill: rgb(255, 255, 255);"/></g></g></g></g></g></g></svg>