<?xml version="1.0" encoding="UTF-8"?>
<!-- Do not edit this file with editors other than draw.io -->
<!DOCTYPE svg PUBLIC "-//W3C//DTD SVG 1.1//EN" "http://www.w3.org/Graphics/SVG/1.1/DTD/svg11.dtd">
<svg xmlns="http://www.w3.org/2000/svg" style="background: #ffffff; background-color: #ffffff; color-scheme: light;" xmlns:xlink="http://www.w3.org/1999/xlink" version="1.1" width="850px" height="225px" viewBox="-0.5 -0.5 850 225" content="&lt;mxfile host=&quot;app.diagrams.net&quot; agent=&quot;Mozilla/5.0 (Macintosh; Intel Mac OS X 10_15_7) AppleWebKit/537.36 (KHTML, like Gecko) Chrome/138.0.0.0 Safari/537.36 Edg/138.0.0.0&quot; version=&quot;27.2.0&quot; scale=&quot;1&quot; border=&quot;0&quot;&gt;&#10;  &lt;diagram name=&quot;Page-1&quot; id=&quot;t2ISW02FXIW0Eo_bIoR7&quot;&gt;&#10;    &lt;mxGraphModel dx=&quot;1226&quot; dy=&quot;698&quot; grid=&quot;1&quot; gridSize=&quot;10&quot; guides=&quot;1&quot; tooltips=&quot;1&quot; connect=&quot;1&quot; arrows=&quot;1&quot; fold=&quot;1&quot; page=&quot;1&quot; pageScale=&quot;1&quot; pageWidth=&quot;850&quot; pageHeight=&quot;1100&quot; math=&quot;0&quot; shadow=&quot;0&quot;&gt;&#10;      &lt;root&gt;&#10;        &lt;mxCell id=&quot;0&quot; /&gt;&#10;        &lt;mxCell id=&quot;1&quot; parent=&quot;0&quot; /&gt;&#10;        &lt;mxCell id=&quot;56ggsOPZfVLVSNzoqqUM-1&quot; value=&quot;&quot; style=&quot;rounded=0;whiteSpace=wrap;html=1;fillColor=default;strokeColor=none;&quot; vertex=&quot;1&quot; parent=&quot;1&quot;&gt;&#10;          &lt;mxGeometry x=&quot;151&quot; y=&quot;185.5&quot; width=&quot;550&quot; height=&quot;220&quot; as=&quot;geometry&quot; /&gt;&#10;        &lt;/mxCell&gt;&#10;        &lt;mxCell id=&quot;56ggsOPZfVLVSNzoqqUM-2&quot; value=&quot;&quot; style=&quot;endArrow=none;html=1;rounded=0;&quot; edge=&quot;1&quot; parent=&quot;1&quot;&gt;&#10;          &lt;mxGeometry width=&quot;50&quot; height=&quot;50&quot; relative=&quot;1&quot; as=&quot;geometry&quot;&gt;&#10;            &lt;mxPoint x=&quot;220.5&quot; y=&quot;296&quot; as=&quot;sourcePoint&quot; /&gt;&#10;            &lt;mxPoint x=&quot;630.5&quot; y=&quot;297&quot; as=&quot;targetPoint&quot; /&gt;&#10;          &lt;/mxGeometry&gt;&#10;        &lt;/mxCell&gt;&#10;        &lt;mxCell id=&quot;56ggsOPZfVLVSNzoqqUM-3&quot; value=&quot;Visitor&quot; style=&quot;shape=ellipse;fillColor=#000000;aspect=fixed;resizable=0;labelPosition=center;verticalLabelPosition=bottom;align=center;verticalAlign=top;strokeColor=none;fontSize=14;&quot; vertex=&quot;1&quot; parent=&quot;1&quot;&gt;&#10;          &lt;mxGeometry x=&quot;203.5&quot; y=&quot;270.5&quot; width=&quot;48&quot; height=&quot;48&quot; as=&quot;geometry&quot; /&gt;&#10;        &lt;/mxCell&gt;&#10;        &lt;mxCell id=&quot;56ggsOPZfVLVSNzoqqUM-4&quot; value=&quot;&quot; style=&quot;fillColor=#ffffff;strokeColor=none;dashed=0;outlineConnect=0;html=1;labelPosition=center;verticalLabelPosition=bottom;verticalAlign=top;part=1;movable=0;resizable=0;rotatable=0;shape=mxgraph.ibm_cloud.user&quot; vertex=&quot;1&quot; parent=&quot;56ggsOPZfVLVSNzoqqUM-3&quot;&gt;&#10;          &lt;mxGeometry width=&quot;24&quot; height=&quot;24&quot; relative=&quot;1&quot; as=&quot;geometry&quot;&gt;&#10;            &lt;mxPoint x=&quot;12&quot; y=&quot;12&quot; as=&quot;offset&quot; /&gt;&#10;          &lt;/mxGeometry&gt;&#10;        &lt;/mxCell&gt;&#10;        &lt;mxCell id=&quot;56ggsOPZfVLVSNzoqqUM-5&quot; value=&quot;Cloud &amp;#xa;Internet &amp;#xa;Services&quot; style=&quot;shape=rect;fillColor=#1192E8;aspect=fixed;resizable=0;labelPosition=center;verticalLabelPosition=bottom;align=center;verticalAlign=top;strokeColor=none;fontSize=14;&quot; vertex=&quot;1&quot; parent=&quot;1&quot;&gt;&#10;          &lt;mxGeometry x=&quot;401.5&quot; y=&quot;272.5&quot; width=&quot;48&quot; height=&quot;48&quot; as=&quot;geometry&quot; /&gt;&#10;        &lt;/mxCell&gt;&#10;        &lt;mxCell id=&quot;56ggsOPZfVLVSNzoqqUM-6&quot; value=&quot;&quot; style=&quot;fillColor=#ffffff;strokeColor=none;dashed=0;outlineConnect=0;html=1;labelPosition=center;verticalLabelPosition=bottom;verticalAlign=top;part=1;movable=0;resizable=0;rotatable=0;shape=mxgraph.ibm_cloud.ibm-cloud--internet-services&quot; vertex=&quot;1&quot; parent=&quot;56ggsOPZfVLVSNzoqqUM-5&quot;&gt;&#10;          &lt;mxGeometry width=&quot;24&quot; height=&quot;24&quot; relative=&quot;1&quot; as=&quot;geometry&quot;&gt;&#10;            &lt;mxPoint x=&quot;12&quot; y=&quot;12&quot; as=&quot;offset&quot; /&gt;&#10;          &lt;/mxGeometry&gt;&#10;        &lt;/mxCell&gt;&#10;        &lt;mxCell id=&quot;56ggsOPZfVLVSNzoqqUM-7&quot; value=&quot;&quot; style=&quot;shape=rect;fillColor=#FA4D56;aspect=fixed;resizable=0;labelPosition=center;verticalLabelPosition=bottom;align=center;verticalAlign=top;strokeColor=none;fontSize=14;&quot; vertex=&quot;1&quot; parent=&quot;1&quot;&gt;&#10;          &lt;mxGeometry x=&quot;303.5&quot; y=&quot;272.5&quot; width=&quot;48&quot; height=&quot;48&quot; as=&quot;geometry&quot; /&gt;&#10;        &lt;/mxCell&gt;&#10;        &lt;mxCell id=&quot;56ggsOPZfVLVSNzoqqUM-8&quot; value=&quot;&quot; style=&quot;fillColor=#ffffff;strokeColor=none;dashed=0;outlineConnect=0;html=1;labelPosition=center;verticalLabelPosition=bottom;verticalAlign=top;part=1;movable=0;resizable=0;rotatable=0;shape=mxgraph.ibm_cloud.vpn--connection&quot; vertex=&quot;1&quot; parent=&quot;56ggsOPZfVLVSNzoqqUM-7&quot;&gt;&#10;          &lt;mxGeometry width=&quot;24&quot; height=&quot;24&quot; relative=&quot;1&quot; as=&quot;geometry&quot;&gt;&#10;            &lt;mxPoint x=&quot;12&quot; y=&quot;12&quot; as=&quot;offset&quot; /&gt;&#10;          &lt;/mxGeometry&gt;&#10;        &lt;/mxCell&gt;&#10;        &lt;mxCell id=&quot;56ggsOPZfVLVSNzoqqUM-9&quot; value=&quot;&quot; style=&quot;shape=rect;fillColor=#FA4D56;aspect=fixed;resizable=0;labelPosition=center;verticalLabelPosition=bottom;align=center;verticalAlign=top;strokeColor=none;fontSize=14;&quot; vertex=&quot;1&quot; parent=&quot;1&quot;&gt;&#10;          &lt;mxGeometry x=&quot;499.5&quot; y=&quot;272.5&quot; width=&quot;48&quot; height=&quot;48&quot; as=&quot;geometry&quot; /&gt;&#10;        &lt;/mxCell&gt;&#10;        &lt;mxCell id=&quot;56ggsOPZfVLVSNzoqqUM-10&quot; value=&quot;&quot; style=&quot;fillColor=#ffffff;strokeColor=none;dashed=0;outlineConnect=0;html=1;labelPosition=center;verticalLabelPosition=bottom;verticalAlign=top;part=1;movable=0;resizable=0;rotatable=0;shape=mxgraph.ibm_cloud.vpn--connection&quot; vertex=&quot;1&quot; parent=&quot;56ggsOPZfVLVSNzoqqUM-9&quot;&gt;&#10;          &lt;mxGeometry width=&quot;24&quot; height=&quot;24&quot; relative=&quot;1&quot; as=&quot;geometry&quot;&gt;&#10;            &lt;mxPoint x=&quot;12&quot; y=&quot;12&quot; as=&quot;offset&quot; /&gt;&#10;          &lt;/mxGeometry&gt;&#10;        &lt;/mxCell&gt;&#10;        &lt;mxCell id=&quot;56ggsOPZfVLVSNzoqqUM-11&quot; value=&quot;Origin Server&amp;#xa;&quot; style=&quot;shape=rect;fillColor=#198038;aspect=fixed;resizable=0;labelPosition=center;verticalLabelPosition=bottom;align=center;verticalAlign=top;strokeColor=none;fontSize=14;&quot; vertex=&quot;1&quot; parent=&quot;1&quot;&gt;&#10;          &lt;mxGeometry x=&quot;598.5&quot; y=&quot;272.5&quot; width=&quot;48&quot; height=&quot;48&quot; as=&quot;geometry&quot; /&gt;&#10;        &lt;/mxCell&gt;&#10;        &lt;mxCell id=&quot;56ggsOPZfVLVSNzoqqUM-12&quot; value=&quot;&quot; style=&quot;fillColor=#ffffff;strokeColor=none;dashed=0;outlineConnect=0;html=1;labelPosition=center;verticalLabelPosition=bottom;verticalAlign=top;part=1;movable=0;resizable=0;rotatable=0;shape=mxgraph.ibm_cloud.ibm-cloud--virtual-server-classic&quot; vertex=&quot;1&quot; parent=&quot;56ggsOPZfVLVSNzoqqUM-11&quot;&gt;&#10;          &lt;mxGeometry width=&quot;24&quot; height=&quot;24&quot; relative=&quot;1&quot; as=&quot;geometry&quot;&gt;&#10;            &lt;mxPoint x=&quot;12&quot; y=&quot;12&quot; as=&quot;offset&quot; /&gt;&#10;          &lt;/mxGeometry&gt;&#10;        &lt;/mxCell&gt;&#10;        &lt;mxCell id=&quot;56ggsOPZfVLVSNzoqqUM-13&quot; value=&quot;&quot; style=&quot;rounded=0;whiteSpace=wrap;html=1;fillColor=default;strokeColor=none;&quot; vertex=&quot;1&quot; parent=&quot;1&quot;&gt;&#10;          &lt;mxGeometry y=&quot;185.5&quot; width=&quot;150&quot; height=&quot;224.5&quot; as=&quot;geometry&quot; /&gt;&#10;        &lt;/mxCell&gt;&#10;        &lt;mxCell id=&quot;56ggsOPZfVLVSNzoqqUM-14&quot; value=&quot;&quot; style=&quot;rounded=0;whiteSpace=wrap;html=1;fillColor=default;strokeColor=none;&quot; vertex=&quot;1&quot; parent=&quot;1&quot;&gt;&#10;          &lt;mxGeometry x=&quot;701&quot; y=&quot;185.5&quot; width=&quot;149&quot; height=&quot;224.5&quot; as=&quot;geometry&quot; /&gt;&#10;        &lt;/mxCell&gt;&#10;      &lt;/root&gt;&#10;    &lt;/mxGraphModel&gt;&#10;  &lt;/diagram&gt;&#10;&lt;/mxfile&gt;&#10;"><defs/><rect fill="#ffffff" width="100%" height="100%" x="0" y="0" style="fill: rgb(255, 255, 255);"/><g><g data-cell-id="0"><g data-cell-id="1"><g data-cell-id="56ggsOPZfVLVSNzoqqUM-1"><g><rect x="151" y="-0.5" width="550" height="220" fill="#ffffff" stroke="none" pointer-events="all" style="fill: rgb(255, 255, 255);"/></g></g><g data-cell-id="56ggsOPZfVLVSNzoqqUM-2"><g><path d="M 220.5 110 L 630.5 111" fill="none" stroke="#000000" stroke-miterlimit="10" pointer-events="stroke" style="stroke: rgb(0, 0, 0);"/></g></g><g data-cell-id="56ggsOPZfVLVSNzoqqUM-3"><g><ellipse cx="227.5" cy="108.5" rx="24" ry="24" fill="#000000" stroke="none" pointer-events="all" style="fill: rgb(0, 0, 0);"/></g><g><g fill="#000000" font-family="Helvetica" text-anchor="middle" font-size="14px" style="fill: rgb(0, 0, 0);"><text x="227.5" y="152.5">Visitor</text></g></g><g data-cell-id="56ggsOPZfVLVSNzoqqUM-4"><g><rect x="215.5" y="96.5" width="24" height="24" fill="none" stroke="none" pointer-events="all"/><rect x="215.5" y="96.5" width="0" height="0" fill="none" stroke="none" pointer-events="all"/><path d="M 227.5 99.5 C 229.57 99.5 231.25 101.18 231.25 103.25 C 231.25 105.32 229.57 107 227.5 107 C 225.43 107 223.75 105.32 223.75 103.25 C 223.75 101.18 225.43 99.5 227.5 99.5 M 227.5 98 C 224.6 98 222.25 100.35 222.25 103.25 C 222.25 106.15 224.6 108.5 227.5 108.5 C 230.4 108.5 232.75 106.15 232.75 103.25 C 232.75 100.35 230.4 98 227.5 98 Z M 235 119 L 233.5 119 L 233.5 115.25 C 233.5 113.18 231.82 111.5 229.75 111.5 L 225.25 111.5 C 223.18 111.5 221.5 113.18 221.5 115.25 L 221.5 119 L 220 119 L 220 115.25 C 220 112.35 222.35 110 225.25 110 L 229.75 110 C 232.65 110 235 112.35 235 115.25 Z" fill="#ffffff" stroke="none" pointer-events="all" style="fill: rgb(255, 255, 255);"/></g></g></g><g data-cell-id="56ggsOPZfVLVSNzoqqUM-5"><g><rect x="401.5" y="86.5" width="48" height="48" fill="#1192e8" stroke="none" pointer-events="all" style="fill: rgb(17, 146, 232);"/></g><g><g fill="#000000" font-family="Helvetica" text-anchor="middle" font-size="14px" style="fill: rgb(0, 0, 0);"><text x="425.5" y="154.5">Cloud </text><text x="425.5" y="171.5">Internet </text><text x="425.5" y="188.5">Services</text></g></g><g data-cell-id="56ggsOPZfVLVSNzoqqUM-6"><g><rect x="413.5" y="98.5" width="24" height="24" fill="none" stroke="none" pointer-events="all"/><rect x="413.5" y="98.5" width="0" height="0" fill="none" stroke="none" pointer-events="all"/><path d="M 433.75 115 C 433.22 115 432.7 115.23 432.33 115.52 L 428.42 113.2 C 428.42 113.05 428.5 112.9 428.5 112.75 C 428.5 112.6 428.5 112.45 428.42 112.3 L 432.33 109.98 C 432.7 110.27 433.22 110.5 433.75 110.5 C 435.03 110.5 436 109.52 436 108.25 C 436 106.98 435.03 106 433.75 106 C 432.47 106 431.5 106.98 431.5 108.25 C 431.5 108.4 431.5 108.55 431.58 108.7 L 427.67 111.02 C 427.3 110.73 426.78 110.5 426.25 110.5 C 424.97 110.5 424 111.48 424 112.75 C 424 114.02 424.97 115 426.25 115 C 426.78 115 427.3 114.77 427.67 114.48 L 431.58 116.8 C 431.58 116.95 431.5 117.1 431.5 117.25 C 431.5 118.52 432.47 119.5 433.75 119.5 C 435.03 119.5 436 118.52 436 117.25 C 436 115.98 435.03 115 433.75 115 Z M 433.75 107.5 C 434.2 107.5 434.5 107.8 434.5 108.25 C 434.5 108.7 434.2 109 433.75 109 C 433.3 109 433 108.7 433 108.25 C 433 107.8 433.3 107.5 433.75 107.5 Z M 426.25 113.5 C 425.8 113.5 425.5 113.2 425.5 112.75 C 425.5 112.3 425.8 112 426.25 112 C 426.7 112 427 112.3 427 112.75 C 427 113.2 426.7 113.5 426.25 113.5 Z M 433.75 118 C 433.3 118 433 117.7 433 117.25 C 433 116.8 433.3 116.5 433.75 116.5 C 434.2 116.5 434.5 116.8 434.5 117.25 C 434.5 117.7 434.2 118 433.75 118 Z" fill="#ffffff" stroke="none" pointer-events="all" style="fill: rgb(255, 255, 255);"/><path d="M 427.75 117.25 L 419.88 117.25 C 417.63 117.25 415.75 115.38 415.75 113.13 C 415.75 111.1 417.17 109.45 419.13 109.08 L 420.1 108.92 L 420.33 107.95 C 420.92 105.02 423.4 103 426.25 103 C 426.63 103 427 103 427.38 103.08 C 428.58 103.3 429.63 103.9 430.53 104.73 L 431.58 103.67 C 430.53 102.63 429.17 101.88 427.67 101.65 C 427.22 101.58 426.7 101.5 426.25 101.5 C 422.72 101.5 419.58 103.98 418.9 107.58 C 416.2 108.1 414.25 110.42 414.25 113.13 C 414.25 116.2 416.72 118.75 419.88 118.75 L 427.75 118.75 L 427.75 117.25 Z" fill="#ffffff" stroke="none" pointer-events="all" style="fill: rgb(255, 255, 255);"/></g></g></g><g data-cell-id="56ggsOPZfVLVSNzoqqUM-7"><g><rect x="303.5" y="86.5" width="48" height="48" fill="#fa4d56" stroke="none" pointer-events="all" style="fill: rgb(250, 77, 86);"/></g><g data-cell-id="56ggsOPZfVLVSNzoqqUM-8"><g><rect x="315.5" y="98.5" width="24" height="24" fill="none" stroke="none" pointer-events="all"/><rect x="315.5" y="98.5" width="0" height="0" fill="none" stroke="none" pointer-events="all"/><path d="M 336.5 103.75 C 335.97 103.75 335.47 104.04 335.21 104.5 L 332 104.5 C 332 102.01 329.99 100 327.5 100 C 325.01 100 323 102.01 323 104.5 L 319.79 104.5 C 319.45 103.91 318.76 103.63 318.1 103.8 C 317.45 103.98 316.99 104.57 316.99 105.25 C 316.99 105.93 317.45 106.52 318.1 106.7 C 318.76 106.87 319.45 106.59 319.79 106 L 323 106 L 323 109 L 321.5 109 C 320.67 109 320 109.67 320 110.5 L 320 119.5 C 320 120.33 320.67 121 321.5 121 L 333.5 121 C 334.33 121 335 120.33 335 119.5 L 335 110.5 C 335 109.67 334.33 109 333.5 109 L 332 109 L 332 106 L 335.21 106 C 335.57 106.63 336.34 106.9 337.02 106.65 C 337.7 106.4 338.11 105.7 337.98 104.98 C 337.85 104.27 337.23 103.75 336.5 103.75 M 324.5 104.5 C 324.5 102.84 325.84 101.5 327.5 101.5 C 329.16 101.5 330.5 102.84 330.5 104.5 L 330.5 109 L 324.5 109 L 324.5 106 L 328.25 106 L 328.25 104.5 Z M 333.5 110.5 L 333.5 119.5 L 321.5 119.5 L 321.5 110.5 Z" fill="#ffffff" stroke="none" pointer-events="all" style="fill: rgb(255, 255, 255);"/></g></g></g><g data-cell-id="56ggsOPZfVLVSNzoqqUM-9"><g><rect x="499.5" y="86.5" width="48" height="48" fill="#fa4d56" stroke="none" pointer-events="all" style="fill: rgb(250, 77, 86);"/></g><g data-cell-id="56ggsOPZfVLVSNzoqqUM-10"><g><rect x="511.5" y="98.5" width="24" height="24" fill="none" stroke="none" pointer-events="all"/><rect x="511.5" y="98.5" width="0" height="0" fill="none" stroke="none" pointer-events="all"/><path d="M 532.5 103.75 C 531.97 103.75 531.47 104.04 531.21 104.5 L 528 104.5 C 528 102.01 525.99 100 523.5 100 C 521.01 100 519 102.01 519 104.5 L 515.79 104.5 C 515.45 103.91 514.76 103.63 514.1 103.8 C 513.45 103.98 512.99 104.57 512.99 105.25 C 512.99 105.93 513.45 106.52 514.1 106.7 C 514.76 106.87 515.45 106.59 515.79 106 L 519 106 L 519 109 L 517.5 109 C 516.67 109 516 109.67 516 110.5 L 516 119.5 C 516 120.33 516.67 121 517.5 121 L 529.5 121 C 530.33 121 531 120.33 531 119.5 L 531 110.5 C 531 109.67 530.33 109 529.5 109 L 528 109 L 528 106 L 531.21 106 C 531.57 106.63 532.34 106.9 533.02 106.65 C 533.7 106.4 534.11 105.7 533.98 104.98 C 533.85 104.27 533.23 103.75 532.5 103.75 M 520.5 104.5 C 520.5 102.84 521.84 101.5 523.5 101.5 C 525.16 101.5 526.5 102.84 526.5 104.5 L 526.5 109 L 520.5 109 L 520.5 106 L 524.25 106 L 524.25 104.5 Z M 529.5 110.5 L 529.5 119.5 L 517.5 119.5 L 517.5 110.5 Z" fill="#ffffff" stroke="none" pointer-events="all" style="fill: rgb(255, 255, 255);"/></g></g></g><g data-cell-id="56ggsOPZfVLVSNzoqqUM-11"><g><rect x="598.5" y="86.5" width="48" height="48" fill="#198038" stroke="none" pointer-events="all" style="fill: rgb(25, 128, 56);"/></g><g><g fill="#000000" font-family="Helvetica" text-anchor="middle" font-size="14px" style="fill: rgb(0, 0, 0);"><text x="622.5" y="154.5">Origin Server</text></g></g><g data-cell-id="56ggsOPZfVLVSNzoqqUM-12"><g><rect x="610.5" y="98.5" width="24" height="24" fill="none" stroke="none" pointer-events="all"/><rect x="610.5" y="98.5" width="0" height="0" fill="none" stroke="none" pointer-events="all"/><ellipse cx="617.25" cy="118" rx="0.75" ry="0.75" fill="#ffffff" stroke="none" pointer-events="all" style="fill: rgb(255, 255, 255);"/><path d="M 630 115 L 626.25 115 L 626.25 116.5 L 630 116.5 L 630 119.5 L 615 119.5 L 615 116.5 L 621.75 116.5 C 622.58 116.5 623.25 115.83 623.25 115 L 623.25 108.12 L 625.19 110.07 L 626.25 109 L 622.5 105.25 L 618.75 109 L 619.81 110.06 L 621.75 108.12 L 621.75 115 L 615 115 C 614.17 115 613.5 115.67 613.5 116.5 L 613.5 119.5 C 613.5 120.33 614.17 121 615 121 L 630 121 C 630.83 121 631.5 120.33 631.5 119.5 L 631.5 116.5 C 631.5 115.67 630.83 115 630 115 Z" fill="#ffffff" stroke="none" pointer-events="all" style="fill: rgb(255, 255, 255);"/><path d="M 628.31 104.54 C 627.65 101.91 625.25 100 622.5 100 C 619.75 100 617.35 101.91 616.69 104.54 C 614.47 104.82 612.75 106.71 612.75 109 C 612.75 111.48 614.77 113.5 617.25 113.5 L 618.75 113.5 L 618.75 112 L 617.25 112 C 615.59 112 614.25 110.66 614.25 109 C 614.25 107.36 615.58 106.02 617.21 106 L 617.95 106.01 L 618.05 105.36 C 618.37 103.16 620.28 101.5 622.5 101.5 C 624.72 101.5 626.63 103.16 626.95 105.36 L 627.04 106.02 L 627.7 106.01 L 627.8 106 C 629.43 106.02 630.75 107.36 630.75 109 C 630.75 110.66 629.41 112 627.75 112 L 626.25 112 L 626.25 113.5 L 627.75 113.5 C 630.23 113.5 632.25 111.48 632.25 109 C 632.25 106.71 630.53 104.82 628.31 104.54 Z" fill="#ffffff" stroke="none" pointer-events="all" style="fill: rgb(255, 255, 255);"/></g></g></g><g data-cell-id="56ggsOPZfVLVSNzoqqUM-13"><g><rect x="0" y="-0.5" width="150" height="224.5" fill="#ffffff" stroke="none" pointer-events="all" style="fill: rgb(255, 255, 255);"/></g></g><g data-cell-id="56ggsOPZfVLVSNzoqqUM-14"><g><rect x="701" y="-0.5" width="149" height="224.5" fill="#ffffff" stroke="none" pointer-events="all" style="fill: rgb(255, 255, 255);"/></g></g></g></g></g></svg>