<?xml version="1.0" encoding="UTF-8"?>
<!-- Do not edit this file with editors other than draw.io -->
<!DOCTYPE svg PUBLIC "-//W3C//DTD SVG 1.1//EN" "http://www.w3.org/Graphics/SVG/1.1/DTD/svg11.dtd">
<svg xmlns="http://www.w3.org/2000/svg" style="background: #ffffff; background-color: #ffffff; color-scheme: light;" xmlns:xlink="http://www.w3.org/1999/xlink" version="1.1" width="850px" height="211px" viewBox="-0.5 -0.5 850 211" content="&lt;mxfile host=&quot;app.diagrams.net&quot; agent=&quot;Mozilla/5.0 (Macintosh; Intel Mac OS X 10_15_7) AppleWebKit/537.36 (KHTML, like Gecko) Chrome/138.0.0.0 Safari/537.36 Edg/138.0.0.0&quot; version=&quot;27.2.0&quot; scale=&quot;1&quot; border=&quot;0&quot;&gt;&#10;  &lt;diagram name=&quot;Page-1&quot; id=&quot;pApR3LaG8udPJI2VZ_sg&quot;&gt;&#10;    &lt;mxGraphModel dx=&quot;1066&quot; dy=&quot;607&quot; grid=&quot;1&quot; gridSize=&quot;10&quot; guides=&quot;1&quot; tooltips=&quot;1&quot; connect=&quot;1&quot; arrows=&quot;1&quot; fold=&quot;1&quot; page=&quot;1&quot; pageScale=&quot;1&quot; pageWidth=&quot;850&quot; pageHeight=&quot;1100&quot; math=&quot;0&quot; shadow=&quot;0&quot;&gt;&#10;      &lt;root&gt;&#10;        &lt;mxCell id=&quot;0&quot; /&gt;&#10;        &lt;mxCell id=&quot;1&quot; parent=&quot;0&quot; /&gt;&#10;        &lt;mxCell id=&quot;7pOWgZdMyRwZphAq9Xxv-1&quot; value=&quot;&quot; style=&quot;rounded=0;whiteSpace=wrap;html=1;fillColor=default;strokeColor=none;&quot; vertex=&quot;1&quot; parent=&quot;1&quot;&gt;&#10;          &lt;mxGeometry x=&quot;140&quot; y=&quot;170&quot; width=&quot;570&quot; height=&quot;210&quot; as=&quot;geometry&quot; /&gt;&#10;        &lt;/mxCell&gt;&#10;        &lt;mxCell id=&quot;7pOWgZdMyRwZphAq9Xxv-2&quot; value=&quot;&quot; style=&quot;endArrow=none;html=1;rounded=0;&quot; edge=&quot;1&quot; parent=&quot;1&quot;&gt;&#10;          &lt;mxGeometry width=&quot;50&quot; height=&quot;50&quot; relative=&quot;1&quot; as=&quot;geometry&quot;&gt;&#10;            &lt;mxPoint x=&quot;221&quot; y=&quot;275.5&quot; as=&quot;sourcePoint&quot; /&gt;&#10;            &lt;mxPoint x=&quot;631&quot; y=&quot;276.5&quot; as=&quot;targetPoint&quot; /&gt;&#10;          &lt;/mxGeometry&gt;&#10;        &lt;/mxCell&gt;&#10;        &lt;mxCell id=&quot;7pOWgZdMyRwZphAq9Xxv-3&quot; value=&quot;Visitor&quot; style=&quot;shape=ellipse;fillColor=#000000;aspect=fixed;resizable=0;labelPosition=center;verticalLabelPosition=bottom;align=center;verticalAlign=top;strokeColor=none;fontSize=14;&quot; vertex=&quot;1&quot; parent=&quot;1&quot;&gt;&#10;          &lt;mxGeometry x=&quot;204&quot; y=&quot;250&quot; width=&quot;48&quot; height=&quot;48&quot; as=&quot;geometry&quot; /&gt;&#10;        &lt;/mxCell&gt;&#10;        &lt;mxCell id=&quot;7pOWgZdMyRwZphAq9Xxv-4&quot; value=&quot;&quot; style=&quot;fillColor=#ffffff;strokeColor=none;dashed=0;outlineConnect=0;html=1;labelPosition=center;verticalLabelPosition=bottom;verticalAlign=top;part=1;movable=0;resizable=0;rotatable=0;shape=mxgraph.ibm_cloud.user&quot; vertex=&quot;1&quot; parent=&quot;7pOWgZdMyRwZphAq9Xxv-3&quot;&gt;&#10;          &lt;mxGeometry width=&quot;24&quot; height=&quot;24&quot; relative=&quot;1&quot; as=&quot;geometry&quot;&gt;&#10;            &lt;mxPoint x=&quot;12&quot; y=&quot;12&quot; as=&quot;offset&quot; /&gt;&#10;          &lt;/mxGeometry&gt;&#10;        &lt;/mxCell&gt;&#10;        &lt;mxCell id=&quot;7pOWgZdMyRwZphAq9Xxv-5&quot; value=&quot;Cloud &amp;#xa;Internet &amp;#xa;Services&quot; style=&quot;shape=rect;fillColor=#1192E8;aspect=fixed;resizable=0;labelPosition=center;verticalLabelPosition=bottom;align=center;verticalAlign=top;strokeColor=none;fontSize=14;&quot; vertex=&quot;1&quot; parent=&quot;1&quot;&gt;&#10;          &lt;mxGeometry x=&quot;402&quot; y=&quot;250&quot; width=&quot;48&quot; height=&quot;48&quot; as=&quot;geometry&quot; /&gt;&#10;        &lt;/mxCell&gt;&#10;        &lt;mxCell id=&quot;7pOWgZdMyRwZphAq9Xxv-6&quot; value=&quot;&quot; style=&quot;fillColor=#ffffff;strokeColor=none;dashed=0;outlineConnect=0;html=1;labelPosition=center;verticalLabelPosition=bottom;verticalAlign=top;part=1;movable=0;resizable=0;rotatable=0;shape=mxgraph.ibm_cloud.ibm-cloud--internet-services&quot; vertex=&quot;1&quot; parent=&quot;7pOWgZdMyRwZphAq9Xxv-5&quot;&gt;&#10;          &lt;mxGeometry width=&quot;24&quot; height=&quot;24&quot; relative=&quot;1&quot; as=&quot;geometry&quot;&gt;&#10;            &lt;mxPoint x=&quot;12&quot; y=&quot;12&quot; as=&quot;offset&quot; /&gt;&#10;          &lt;/mxGeometry&gt;&#10;        &lt;/mxCell&gt;&#10;        &lt;mxCell id=&quot;7pOWgZdMyRwZphAq9Xxv-7&quot; value=&quot;&quot; style=&quot;shape=rect;fillColor=#FA4D56;aspect=fixed;resizable=0;labelPosition=center;verticalLabelPosition=bottom;align=center;verticalAlign=top;strokeColor=none;fontSize=14;&quot; vertex=&quot;1&quot; parent=&quot;1&quot;&gt;&#10;          &lt;mxGeometry x=&quot;304&quot; y=&quot;250&quot; width=&quot;48&quot; height=&quot;48&quot; as=&quot;geometry&quot; /&gt;&#10;        &lt;/mxCell&gt;&#10;        &lt;mxCell id=&quot;7pOWgZdMyRwZphAq9Xxv-8&quot; value=&quot;&quot; style=&quot;fillColor=#ffffff;strokeColor=none;dashed=0;outlineConnect=0;html=1;labelPosition=center;verticalLabelPosition=bottom;verticalAlign=top;part=1;movable=0;resizable=0;rotatable=0;shape=mxgraph.ibm_cloud.vpn--connection&quot; vertex=&quot;1&quot; parent=&quot;7pOWgZdMyRwZphAq9Xxv-7&quot;&gt;&#10;          &lt;mxGeometry width=&quot;24&quot; height=&quot;24&quot; relative=&quot;1&quot; as=&quot;geometry&quot;&gt;&#10;            &lt;mxPoint x=&quot;12&quot; y=&quot;12&quot; as=&quot;offset&quot; /&gt;&#10;          &lt;/mxGeometry&gt;&#10;        &lt;/mxCell&gt;&#10;        &lt;mxCell id=&quot;7pOWgZdMyRwZphAq9Xxv-9&quot; value=&quot;&quot; style=&quot;shape=rect;fillColor=#FA4D56;aspect=fixed;resizable=0;labelPosition=center;verticalLabelPosition=bottom;align=center;verticalAlign=top;strokeColor=none;fontSize=14;&quot; vertex=&quot;1&quot; parent=&quot;1&quot;&gt;&#10;          &lt;mxGeometry x=&quot;500&quot; y=&quot;250&quot; width=&quot;48&quot; height=&quot;48&quot; as=&quot;geometry&quot; /&gt;&#10;        &lt;/mxCell&gt;&#10;        &lt;mxCell id=&quot;7pOWgZdMyRwZphAq9Xxv-10&quot; value=&quot;&quot; style=&quot;fillColor=#ffffff;strokeColor=none;dashed=0;outlineConnect=0;html=1;labelPosition=center;verticalLabelPosition=bottom;verticalAlign=top;part=1;movable=0;resizable=0;rotatable=0;shape=mxgraph.ibm_cloud.vpn--connection&quot; vertex=&quot;1&quot; parent=&quot;7pOWgZdMyRwZphAq9Xxv-9&quot;&gt;&#10;          &lt;mxGeometry width=&quot;24&quot; height=&quot;24&quot; relative=&quot;1&quot; as=&quot;geometry&quot;&gt;&#10;            &lt;mxPoint x=&quot;12&quot; y=&quot;12&quot; as=&quot;offset&quot; /&gt;&#10;          &lt;/mxGeometry&gt;&#10;        &lt;/mxCell&gt;&#10;        &lt;mxCell id=&quot;7pOWgZdMyRwZphAq9Xxv-11&quot; value=&quot;Origin Server&amp;#xa;with TLS mode&quot; style=&quot;shape=rect;fillColor=#198038;aspect=fixed;resizable=0;labelPosition=center;verticalLabelPosition=bottom;align=center;verticalAlign=top;strokeColor=none;fontSize=14;&quot; vertex=&quot;1&quot; parent=&quot;1&quot;&gt;&#10;          &lt;mxGeometry x=&quot;599&quot; y=&quot;250&quot; width=&quot;48&quot; height=&quot;48&quot; as=&quot;geometry&quot; /&gt;&#10;        &lt;/mxCell&gt;&#10;        &lt;mxCell id=&quot;7pOWgZdMyRwZphAq9Xxv-12&quot; value=&quot;&quot; style=&quot;fillColor=#ffffff;strokeColor=none;dashed=0;outlineConnect=0;html=1;labelPosition=center;verticalLabelPosition=bottom;verticalAlign=top;part=1;movable=0;resizable=0;rotatable=0;shape=mxgraph.ibm_cloud.ibm-cloud--virtual-server-classic&quot; vertex=&quot;1&quot; parent=&quot;7pOWgZdMyRwZphAq9Xxv-11&quot;&gt;&#10;          &lt;mxGeometry width=&quot;24&quot; height=&quot;24&quot; relative=&quot;1&quot; as=&quot;geometry&quot;&gt;&#10;            &lt;mxPoint x=&quot;12&quot; y=&quot;12&quot; as=&quot;offset&quot; /&gt;&#10;          &lt;/mxGeometry&gt;&#10;        &lt;/mxCell&gt;&#10;        &lt;mxCell id=&quot;7pOWgZdMyRwZphAq9Xxv-13&quot; value=&quot;&quot; style=&quot;rounded=0;whiteSpace=wrap;html=1;fillColor=default;strokeColor=none;&quot; vertex=&quot;1&quot; parent=&quot;1&quot;&gt;&#10;          &lt;mxGeometry y=&quot;170&quot; width=&quot;140&quot; height=&quot;210&quot; as=&quot;geometry&quot; /&gt;&#10;        &lt;/mxCell&gt;&#10;        &lt;mxCell id=&quot;7pOWgZdMyRwZphAq9Xxv-14&quot; value=&quot;&quot; style=&quot;rounded=0;whiteSpace=wrap;html=1;fillColor=default;strokeColor=none;&quot; vertex=&quot;1&quot; parent=&quot;1&quot;&gt;&#10;          &lt;mxGeometry x=&quot;710&quot; y=&quot;170&quot; width=&quot;140&quot; height=&quot;210&quot; as=&quot;geometry&quot; /&gt;&#10;        &lt;/mxCell&gt;&#10;      &lt;/root&gt;&#10;    &lt;/mxGraphModel&gt;&#10;  &lt;/diagram&gt;&#10;&lt;/mxfile&gt;&#10;"><defs/><rect fill="#ffffff" width="100%" height="100%" x="0" y="0" style="fill: rgb(255, 255, 255);"/><g><g data-cell-id="0"><g data-cell-id="1"><g data-cell-id="7pOWgZdMyRwZphAq9Xxv-1"><g><rect x="140" y="0" width="570" height="210" fill="#ffffff" stroke="none" pointer-events="all" style="fill: rgb(255, 255, 255);"/></g></g><g data-cell-id="7pOWgZdMyRwZphAq9Xxv-2"><g><path d="M 221 105.5 L 631 106.5" fill="none" stroke="#000000" stroke-miterlimit="10" pointer-events="stroke" style="stroke: rgb(0, 0, 0);"/></g></g><g data-cell-id="7pOWgZdMyRwZphAq9Xxv-3"><g><ellipse cx="228" cy="104" rx="24" ry="24" fill="#000000" stroke="none" pointer-events="all" style="fill: rgb(0, 0, 0);"/></g><g><g fill="#000000" font-family="Helvetica" text-anchor="middle" font-size="14px" style="fill: rgb(0, 0, 0);"><text x="228" y="148">Visitor</text></g></g><g data-cell-id="7pOWgZdMyRwZphAq9Xxv-4"><g><rect x="216" y="92" width="24" height="24" fill="none" stroke="none" pointer-events="all"/><rect x="216" y="92" width="0" height="0" fill="none" stroke="none" pointer-events="all"/><path d="M 228 95 C 230.07 95 231.75 96.68 231.75 98.75 C 231.75 100.82 230.07 102.5 228 102.5 C 225.93 102.5 224.25 100.82 224.25 98.75 C 224.25 96.68 225.93 95 228 95 M 228 93.5 C 225.1 93.5 222.75 95.85 222.75 98.75 C 222.75 101.65 225.1 104 228 104 C 230.9 104 233.25 101.65 233.25 98.75 C 233.25 95.85 230.9 93.5 228 93.5 Z M 235.5 114.5 L 234 114.5 L 234 110.75 C 234 108.68 232.32 107 230.25 107 L 225.75 107 C 223.68 107 222 108.68 222 110.75 L 222 114.5 L 220.5 114.5 L 220.5 110.75 C 220.5 107.85 222.85 105.5 225.75 105.5 L 230.25 105.5 C 233.15 105.5 235.5 107.85 235.5 110.75 Z" fill="#ffffff" stroke="none" pointer-events="all" style="fill: rgb(255, 255, 255);"/></g></g></g><g data-cell-id="7pOWgZdMyRwZphAq9Xxv-5"><g><rect x="402" y="80" width="48" height="48" fill="#1192e8" stroke="none" pointer-events="all" style="fill: rgb(17, 146, 232);"/></g><g><g fill="#000000" font-family="Helvetica" text-anchor="middle" font-size="14px" style="fill: rgb(0, 0, 0);"><text x="426" y="148">Cloud </text><text x="426" y="165">Internet </text><text x="426" y="182">Services</text></g></g><g data-cell-id="7pOWgZdMyRwZphAq9Xxv-6"><g><rect x="414" y="92" width="24" height="24" fill="none" stroke="none" pointer-events="all"/><rect x="414" y="92" width="0" height="0" fill="none" stroke="none" pointer-events="all"/><path d="M 434.25 108.5 C 433.72 108.5 433.2 108.73 432.83 109.02 L 428.92 106.7 C 428.92 106.55 429 106.4 429 106.25 C 429 106.1 429 105.95 428.92 105.8 L 432.83 103.48 C 433.2 103.77 433.72 104 434.25 104 C 435.53 104 436.5 103.02 436.5 101.75 C 436.5 100.48 435.53 99.5 434.25 99.5 C 432.97 99.5 432 100.48 432 101.75 C 432 101.9 432 102.05 432.08 102.2 L 428.17 104.52 C 427.8 104.23 427.28 104 426.75 104 C 425.47 104 424.5 104.98 424.5 106.25 C 424.5 107.52 425.47 108.5 426.75 108.5 C 427.28 108.5 427.8 108.27 428.17 107.98 L 432.08 110.3 C 432.08 110.45 432 110.6 432 110.75 C 432 112.02 432.97 113 434.25 113 C 435.53 113 436.5 112.02 436.5 110.75 C 436.5 109.48 435.53 108.5 434.25 108.5 Z M 434.25 101 C 434.7 101 435 101.3 435 101.75 C 435 102.2 434.7 102.5 434.25 102.5 C 433.8 102.5 433.5 102.2 433.5 101.75 C 433.5 101.3 433.8 101 434.25 101 Z M 426.75 107 C 426.3 107 426 106.7 426 106.25 C 426 105.8 426.3 105.5 426.75 105.5 C 427.2 105.5 427.5 105.8 427.5 106.25 C 427.5 106.7 427.2 107 426.75 107 Z M 434.25 111.5 C 433.8 111.5 433.5 111.2 433.5 110.75 C 433.5 110.3 433.8 110 434.25 110 C 434.7 110 435 110.3 435 110.75 C 435 111.2 434.7 111.5 434.25 111.5 Z" fill="#ffffff" stroke="none" pointer-events="all" style="fill: rgb(255, 255, 255);"/><path d="M 428.25 110.75 L 420.38 110.75 C 418.13 110.75 416.25 108.88 416.25 106.63 C 416.25 104.6 417.67 102.95 419.63 102.58 L 420.6 102.42 L 420.83 101.45 C 421.42 98.52 423.9 96.5 426.75 96.5 C 427.13 96.5 427.5 96.5 427.88 96.58 C 429.08 96.8 430.13 97.4 431.03 98.23 L 432.08 97.17 C 431.03 96.13 429.67 95.38 428.17 95.15 C 427.72 95.08 427.2 95 426.75 95 C 423.22 95 420.08 97.48 419.4 101.08 C 416.7 101.6 414.75 103.92 414.75 106.63 C 414.75 109.7 417.22 112.25 420.38 112.25 L 428.25 112.25 L 428.25 110.75 Z" fill="#ffffff" stroke="none" pointer-events="all" style="fill: rgb(255, 255, 255);"/></g></g></g><g data-cell-id="7pOWgZdMyRwZphAq9Xxv-7"><g><rect x="304" y="80" width="48" height="48" fill="#fa4d56" stroke="none" pointer-events="all" style="fill: rgb(250, 77, 86);"/></g><g data-cell-id="7pOWgZdMyRwZphAq9Xxv-8"><g><rect x="316" y="92" width="24" height="24" fill="none" stroke="none" pointer-events="all"/><rect x="316" y="92" width="0" height="0" fill="none" stroke="none" pointer-events="all"/><path d="M 337 97.25 C 336.47 97.25 335.97 97.54 335.71 98 L 332.5 98 C 332.5 95.51 330.49 93.5 328 93.5 C 325.51 93.5 323.5 95.51 323.5 98 L 320.29 98 C 319.95 97.41 319.26 97.13 318.6 97.3 C 317.95 97.48 317.49 98.07 317.49 98.75 C 317.49 99.43 317.95 100.02 318.6 100.2 C 319.26 100.37 319.95 100.09 320.29 99.5 L 323.5 99.5 L 323.5 102.5 L 322 102.5 C 321.17 102.5 320.5 103.17 320.5 104 L 320.5 113 C 320.5 113.83 321.17 114.5 322 114.5 L 334 114.5 C 334.83 114.5 335.5 113.83 335.5 113 L 335.5 104 C 335.5 103.17 334.83 102.5 334 102.5 L 332.5 102.5 L 332.5 99.5 L 335.71 99.5 C 336.07 100.13 336.84 100.4 337.52 100.15 C 338.2 99.9 338.61 99.2 338.48 98.48 C 338.35 97.77 337.73 97.25 337 97.25 M 325 98 C 325 96.34 326.34 95 328 95 C 329.66 95 331 96.34 331 98 L 331 102.5 L 325 102.5 L 325 99.5 L 328.75 99.5 L 328.75 98 Z M 334 104 L 334 113 L 322 113 L 322 104 Z" fill="#ffffff" stroke="none" pointer-events="all" style="fill: rgb(255, 255, 255);"/></g></g></g><g data-cell-id="7pOWgZdMyRwZphAq9Xxv-9"><g><rect x="500" y="80" width="48" height="48" fill="#fa4d56" stroke="none" pointer-events="all" style="fill: rgb(250, 77, 86);"/></g><g data-cell-id="7pOWgZdMyRwZphAq9Xxv-10"><g><rect x="512" y="92" width="24" height="24" fill="none" stroke="none" pointer-events="all"/><rect x="512" y="92" width="0" height="0" fill="none" stroke="none" pointer-events="all"/><path d="M 533 97.25 C 532.47 97.25 531.97 97.54 531.71 98 L 528.5 98 C 528.5 95.51 526.49 93.5 524 93.5 C 521.51 93.5 519.5 95.51 519.5 98 L 516.29 98 C 515.95 97.41 515.26 97.13 514.6 97.3 C 513.95 97.48 513.49 98.07 513.49 98.75 C 513.49 99.43 513.95 100.02 514.6 100.2 C 515.26 100.37 515.95 100.09 516.29 99.5 L 519.5 99.5 L 519.5 102.5 L 518 102.5 C 517.17 102.5 516.5 103.17 516.5 104 L 516.5 113 C 516.5 113.83 517.17 114.5 518 114.5 L 530 114.5 C 530.83 114.5 531.5 113.83 531.5 113 L 531.5 104 C 531.5 103.17 530.83 102.5 530 102.5 L 528.5 102.5 L 528.5 99.5 L 531.71 99.5 C 532.07 100.13 532.84 100.4 533.52 100.15 C 534.2 99.9 534.61 99.2 534.48 98.48 C 534.35 97.77 533.73 97.25 533 97.25 M 521 98 C 521 96.34 522.34 95 524 95 C 525.66 95 527 96.34 527 98 L 527 102.5 L 521 102.5 L 521 99.5 L 524.75 99.5 L 524.75 98 Z M 530 104 L 530 113 L 518 113 L 518 104 Z" fill="#ffffff" stroke="none" pointer-events="all" style="fill: rgb(255, 255, 255);"/></g></g></g><g data-cell-id="7pOWgZdMyRwZphAq9Xxv-11"><g><rect x="599" y="80" width="48" height="48" fill="#198038" stroke="none" pointer-events="all" style="fill: rgb(25, 128, 56);"/></g><g><g fill="#000000" font-family="Helvetica" text-anchor="middle" font-size="14px" style="fill: rgb(0, 0, 0);"><text x="623" y="148">Origin Server</text><text x="623" y="165">with TLS mode</text></g></g><g data-cell-id="7pOWgZdMyRwZphAq9Xxv-12"><g><rect x="611" y="92" width="24" height="24" fill="none" stroke="none" pointer-events="all"/><rect x="611" y="92" width="0" height="0" fill="none" stroke="none" pointer-events="all"/><ellipse cx="617.75" cy="111.5" rx="0.75" ry="0.75" fill="#ffffff" stroke="none" pointer-events="all" style="fill: rgb(255, 255, 255);"/><path d="M 630.5 108.5 L 626.75 108.5 L 626.75 110 L 630.5 110 L 630.5 113 L 615.5 113 L 615.5 110 L 622.25 110 C 623.08 110 623.75 109.33 623.75 108.5 L 623.75 101.62 L 625.69 103.57 L 626.75 102.5 L 623 98.75 L 619.25 102.5 L 620.31 103.56 L 622.25 101.62 L 622.25 108.5 L 615.5 108.5 C 614.67 108.5 614 109.17 614 110 L 614 113 C 614 113.83 614.67 114.5 615.5 114.5 L 630.5 114.5 C 631.33 114.5 632 113.83 632 113 L 632 110 C 632 109.17 631.33 108.5 630.5 108.5 Z" fill="#ffffff" stroke="none" pointer-events="all" style="fill: rgb(255, 255, 255);"/><path d="M 628.81 98.04 C 628.15 95.41 625.75 93.5 623 93.5 C 620.25 93.5 617.85 95.41 617.19 98.04 C 614.97 98.32 613.25 100.21 613.25 102.5 C 613.25 104.98 615.27 107 617.75 107 L 619.25 107 L 619.25 105.5 L 617.75 105.5 C 616.09 105.5 614.75 104.16 614.75 102.5 C 614.75 100.86 616.08 99.52 617.71 99.5 L 618.45 99.51 L 618.55 98.86 C 618.87 96.66 620.78 95 623 95 C 625.22 95 627.13 96.66 627.45 98.86 L 627.54 99.52 L 628.2 99.51 L 628.3 99.5 C 629.93 99.52 631.25 100.86 631.25 102.5 C 631.25 104.16 629.91 105.5 628.25 105.5 L 626.75 105.5 L 626.75 107 L 628.25 107 C 630.73 107 632.75 104.98 632.75 102.5 C 632.75 100.21 631.03 98.32 628.81 98.04 Z" fill="#ffffff" stroke="none" pointer-events="all" style="fill: rgb(255, 255, 255);"/></g></g></g><g data-cell-id="7pOWgZdMyRwZphAq9Xxv-13"><g><rect x="0" y="0" width="140" height="210" fill="#ffffff" stroke="none" pointer-events="all" style="fill: rgb(255, 255, 255);"/></g></g><g data-cell-id="7pOWgZdMyRwZphAq9Xxv-14"><g><rect x="710" y="0" width="140" height="210" fill="#ffffff" stroke="none" pointer-events="all" style="fill: rgb(255, 255, 255);"/></g></g></g></g></g></svg>