<?xml version="1.0" encoding="UTF-8"?>
<!-- Do not edit this file with editors other than draw.io -->
<!DOCTYPE svg PUBLIC "-//W3C//DTD SVG 1.1//EN" "http://www.w3.org/Graphics/SVG/1.1/DTD/svg11.dtd">
<svg xmlns="http://www.w3.org/2000/svg" style="background: #ffffff; background-color: #ffffff; color-scheme: light;" xmlns:xlink="http://www.w3.org/1999/xlink" version="1.1" width="570px" height="210px" viewBox="-0.5 -0.5 570 210" content="&lt;mxfile host=&quot;app.diagrams.net&quot; agent=&quot;Mozilla/5.0 (Macintosh; Intel Mac OS X 10_15_7) AppleWebKit/537.36 (KHTML, like Gecko) Chrome/138.0.0.0 Safari/537.36 Edg/138.0.0.0&quot; version=&quot;27.2.0&quot; scale=&quot;1&quot; border=&quot;0&quot;&gt;&#10;  &lt;diagram name=&quot;Page-1&quot; id=&quot;pApR3LaG8udPJI2VZ_sg&quot;&gt;&#10;    &lt;mxGraphModel dx=&quot;1226&quot; dy=&quot;698&quot; grid=&quot;1&quot; gridSize=&quot;10&quot; guides=&quot;1&quot; tooltips=&quot;1&quot; connect=&quot;1&quot; arrows=&quot;1&quot; fold=&quot;1&quot; page=&quot;1&quot; pageScale=&quot;1&quot; pageWidth=&quot;850&quot; pageHeight=&quot;1100&quot; math=&quot;0&quot; shadow=&quot;0&quot;&gt;&#10;      &lt;root&gt;&#10;        &lt;mxCell id=&quot;0&quot; /&gt;&#10;        &lt;mxCell id=&quot;1&quot; parent=&quot;0&quot; /&gt;&#10;        &lt;mxCell id=&quot;7pOWgZdMyRwZphAq9Xxv-1&quot; value=&quot;&quot; style=&quot;rounded=0;whiteSpace=wrap;html=1;fillColor=default;strokeColor=none;&quot; vertex=&quot;1&quot; parent=&quot;1&quot;&gt;&#10;          &lt;mxGeometry x=&quot;140&quot; y=&quot;170&quot; width=&quot;570&quot; height=&quot;210&quot; as=&quot;geometry&quot; /&gt;&#10;        &lt;/mxCell&gt;&#10;        &lt;mxCell id=&quot;7pOWgZdMyRwZphAq9Xxv-2&quot; value=&quot;&quot; style=&quot;endArrow=none;html=1;rounded=0;&quot; edge=&quot;1&quot; parent=&quot;1&quot;&gt;&#10;          &lt;mxGeometry width=&quot;50&quot; height=&quot;50&quot; relative=&quot;1&quot; as=&quot;geometry&quot;&gt;&#10;            &lt;mxPoint x=&quot;221&quot; y=&quot;265.5&quot; as=&quot;sourcePoint&quot; /&gt;&#10;            &lt;mxPoint x=&quot;631&quot; y=&quot;266.5&quot; as=&quot;targetPoint&quot; /&gt;&#10;          &lt;/mxGeometry&gt;&#10;        &lt;/mxCell&gt;&#10;        &lt;mxCell id=&quot;7pOWgZdMyRwZphAq9Xxv-3&quot; value=&quot;Visitor&quot; style=&quot;shape=ellipse;fillColor=#000000;aspect=fixed;resizable=0;labelPosition=center;verticalLabelPosition=bottom;align=center;verticalAlign=top;strokeColor=none;fontSize=14;&quot; vertex=&quot;1&quot; parent=&quot;1&quot;&gt;&#10;          &lt;mxGeometry x=&quot;204&quot; y=&quot;240&quot; width=&quot;48&quot; height=&quot;48&quot; as=&quot;geometry&quot; /&gt;&#10;        &lt;/mxCell&gt;&#10;        &lt;mxCell id=&quot;7pOWgZdMyRwZphAq9Xxv-4&quot; value=&quot;&quot; style=&quot;fillColor=#ffffff;strokeColor=none;dashed=0;outlineConnect=0;html=1;labelPosition=center;verticalLabelPosition=bottom;verticalAlign=top;part=1;movable=0;resizable=0;rotatable=0;shape=mxgraph.ibm_cloud.user&quot; vertex=&quot;1&quot; parent=&quot;7pOWgZdMyRwZphAq9Xxv-3&quot;&gt;&#10;          &lt;mxGeometry width=&quot;24&quot; height=&quot;24&quot; relative=&quot;1&quot; as=&quot;geometry&quot;&gt;&#10;            &lt;mxPoint x=&quot;12&quot; y=&quot;12&quot; as=&quot;offset&quot; /&gt;&#10;          &lt;/mxGeometry&gt;&#10;        &lt;/mxCell&gt;&#10;        &lt;mxCell id=&quot;7pOWgZdMyRwZphAq9Xxv-5&quot; value=&quot;Cloud &amp;#xa;Internet &amp;#xa;Services&quot; style=&quot;shape=rect;fillColor=#1192E8;aspect=fixed;resizable=0;labelPosition=center;verticalLabelPosition=bottom;align=center;verticalAlign=top;strokeColor=none;fontSize=14;&quot; vertex=&quot;1&quot; parent=&quot;1&quot;&gt;&#10;          &lt;mxGeometry x=&quot;402&quot; y=&quot;240&quot; width=&quot;48&quot; height=&quot;48&quot; as=&quot;geometry&quot; /&gt;&#10;        &lt;/mxCell&gt;&#10;        &lt;mxCell id=&quot;7pOWgZdMyRwZphAq9Xxv-6&quot; value=&quot;&quot; style=&quot;fillColor=#ffffff;strokeColor=none;dashed=0;outlineConnect=0;html=1;labelPosition=center;verticalLabelPosition=bottom;verticalAlign=top;part=1;movable=0;resizable=0;rotatable=0;shape=mxgraph.ibm_cloud.ibm-cloud--internet-services&quot; vertex=&quot;1&quot; parent=&quot;7pOWgZdMyRwZphAq9Xxv-5&quot;&gt;&#10;          &lt;mxGeometry width=&quot;24&quot; height=&quot;24&quot; relative=&quot;1&quot; as=&quot;geometry&quot;&gt;&#10;            &lt;mxPoint x=&quot;12&quot; y=&quot;12&quot; as=&quot;offset&quot; /&gt;&#10;          &lt;/mxGeometry&gt;&#10;        &lt;/mxCell&gt;&#10;        &lt;mxCell id=&quot;7pOWgZdMyRwZphAq9Xxv-7&quot; value=&quot;&quot; style=&quot;shape=rect;fillColor=#FA4D56;aspect=fixed;resizable=0;labelPosition=center;verticalLabelPosition=bottom;align=center;verticalAlign=top;strokeColor=none;fontSize=14;&quot; vertex=&quot;1&quot; parent=&quot;1&quot;&gt;&#10;          &lt;mxGeometry x=&quot;304&quot; y=&quot;240&quot; width=&quot;48&quot; height=&quot;48&quot; as=&quot;geometry&quot; /&gt;&#10;        &lt;/mxCell&gt;&#10;        &lt;mxCell id=&quot;7pOWgZdMyRwZphAq9Xxv-8&quot; value=&quot;&quot; style=&quot;fillColor=#ffffff;strokeColor=none;dashed=0;outlineConnect=0;html=1;labelPosition=center;verticalLabelPosition=bottom;verticalAlign=top;part=1;movable=0;resizable=0;rotatable=0;shape=mxgraph.ibm_cloud.vpn--connection&quot; vertex=&quot;1&quot; parent=&quot;7pOWgZdMyRwZphAq9Xxv-7&quot;&gt;&#10;          &lt;mxGeometry width=&quot;24&quot; height=&quot;24&quot; relative=&quot;1&quot; as=&quot;geometry&quot;&gt;&#10;            &lt;mxPoint x=&quot;12&quot; y=&quot;12&quot; as=&quot;offset&quot; /&gt;&#10;          &lt;/mxGeometry&gt;&#10;        &lt;/mxCell&gt;&#10;        &lt;mxCell id=&quot;7pOWgZdMyRwZphAq9Xxv-9&quot; value=&quot;&quot; style=&quot;shape=rect;fillColor=#FA4D56;aspect=fixed;resizable=0;labelPosition=center;verticalLabelPosition=bottom;align=center;verticalAlign=top;strokeColor=none;fontSize=14;&quot; vertex=&quot;1&quot; parent=&quot;1&quot;&gt;&#10;          &lt;mxGeometry x=&quot;500&quot; y=&quot;240&quot; width=&quot;48&quot; height=&quot;48&quot; as=&quot;geometry&quot; /&gt;&#10;        &lt;/mxCell&gt;&#10;        &lt;mxCell id=&quot;7pOWgZdMyRwZphAq9Xxv-10&quot; value=&quot;&quot; style=&quot;fillColor=#ffffff;strokeColor=none;dashed=0;outlineConnect=0;html=1;labelPosition=center;verticalLabelPosition=bottom;verticalAlign=top;part=1;movable=0;resizable=0;rotatable=0;shape=mxgraph.ibm_cloud.vpn--connection&quot; vertex=&quot;1&quot; parent=&quot;7pOWgZdMyRwZphAq9Xxv-9&quot;&gt;&#10;          &lt;mxGeometry width=&quot;24&quot; height=&quot;24&quot; relative=&quot;1&quot; as=&quot;geometry&quot;&gt;&#10;            &lt;mxPoint x=&quot;12&quot; y=&quot;12&quot; as=&quot;offset&quot; /&gt;&#10;          &lt;/mxGeometry&gt;&#10;        &lt;/mxCell&gt;&#10;        &lt;mxCell id=&quot;7pOWgZdMyRwZphAq9Xxv-11&quot; value=&quot;Origin Server&amp;#xa;with TLS mode&quot; style=&quot;shape=rect;fillColor=#198038;aspect=fixed;resizable=0;labelPosition=center;verticalLabelPosition=bottom;align=center;verticalAlign=top;strokeColor=none;fontSize=14;&quot; vertex=&quot;1&quot; parent=&quot;1&quot;&gt;&#10;          &lt;mxGeometry x=&quot;599&quot; y=&quot;240&quot; width=&quot;48&quot; height=&quot;48&quot; as=&quot;geometry&quot; /&gt;&#10;        &lt;/mxCell&gt;&#10;        &lt;mxCell id=&quot;7pOWgZdMyRwZphAq9Xxv-12&quot; value=&quot;&quot; style=&quot;fillColor=#ffffff;strokeColor=none;dashed=0;outlineConnect=0;html=1;labelPosition=center;verticalLabelPosition=bottom;verticalAlign=top;part=1;movable=0;resizable=0;rotatable=0;shape=mxgraph.ibm_cloud.ibm-cloud--virtual-server-classic&quot; vertex=&quot;1&quot; parent=&quot;7pOWgZdMyRwZphAq9Xxv-11&quot;&gt;&#10;          &lt;mxGeometry width=&quot;24&quot; height=&quot;24&quot; relative=&quot;1&quot; as=&quot;geometry&quot;&gt;&#10;            &lt;mxPoint x=&quot;12&quot; y=&quot;12&quot; as=&quot;offset&quot; /&gt;&#10;          &lt;/mxGeometry&gt;&#10;        &lt;/mxCell&gt;&#10;      &lt;/root&gt;&#10;    &lt;/mxGraphModel&gt;&#10;  &lt;/diagram&gt;&#10;&lt;/mxfile&gt;&#10;"><defs/><rect fill="#ffffff" width="100%" height="100%" x="0" y="0" style="fill: rgb(255, 255, 255);"/><g><g data-cell-id="0"><g data-cell-id="1"><g data-cell-id="7pOWgZdMyRwZphAq9Xxv-1"><g><rect x="0" y="0" width="570" height="210" fill="#ffffff" stroke="none" pointer-events="all" style="fill: rgb(255, 255, 255);"/></g></g><g data-cell-id="7pOWgZdMyRwZphAq9Xxv-2"><g><path d="M 81 95.5 L 491 96.5" fill="none" stroke="#000000" stroke-miterlimit="10" pointer-events="stroke" style="stroke: rgb(0, 0, 0);"/></g></g><g data-cell-id="7pOWgZdMyRwZphAq9Xxv-3"><g><ellipse cx="88" cy="94" rx="24" ry="24" fill="#000000" stroke="none" pointer-events="all" style="fill: rgb(0, 0, 0);"/></g><g><g fill="#000000" font-family="Helvetica" text-anchor="middle" font-size="14px" style="fill: rgb(0, 0, 0);"><text x="88" y="138">Visitor</text></g></g><g data-cell-id="7pOWgZdMyRwZphAq9Xxv-4"><g><rect x="76" y="82" width="24" height="24" fill="none" stroke="none" pointer-events="all"/><rect x="76" y="82" width="0" height="0" fill="none" stroke="none" pointer-events="all"/><path d="M 88 85 C 90.07 85 91.75 86.68 91.75 88.75 C 91.75 90.82 90.07 92.5 88 92.5 C 85.93 92.5 84.25 90.82 84.25 88.75 C 84.25 86.68 85.93 85 88 85 M 88 83.5 C 85.1 83.5 82.75 85.85 82.75 88.75 C 82.75 91.65 85.1 94 88 94 C 90.9 94 93.25 91.65 93.25 88.75 C 93.25 85.85 90.9 83.5 88 83.5 Z M 95.5 104.5 L 94 104.5 L 94 100.75 C 94 98.68 92.32 97 90.25 97 L 85.75 97 C 83.68 97 82 98.68 82 100.75 L 82 104.5 L 80.5 104.5 L 80.5 100.75 C 80.5 97.85 82.85 95.5 85.75 95.5 L 90.25 95.5 C 93.15 95.5 95.5 97.85 95.5 100.75 Z" fill="#ffffff" stroke="none" pointer-events="all" style="fill: rgb(255, 255, 255);"/></g></g></g><g data-cell-id="7pOWgZdMyRwZphAq9Xxv-5"><g><rect x="262" y="70" width="48" height="48" fill="#1192e8" stroke="none" pointer-events="all" style="fill: rgb(17, 146, 232);"/></g><g><g fill="#000000" font-family="Helvetica" text-anchor="middle" font-size="14px" style="fill: rgb(0, 0, 0);"><text x="286" y="138">Cloud </text><text x="286" y="155">Internet </text><text x="286" y="172">Services</text></g></g><g data-cell-id="7pOWgZdMyRwZphAq9Xxv-6"><g><rect x="274" y="82" width="24" height="24" fill="none" stroke="none" pointer-events="all"/><rect x="274" y="82" width="0" height="0" fill="none" stroke="none" pointer-events="all"/><path d="M 294.25 98.5 C 293.72 98.5 293.2 98.73 292.83 99.02 L 288.92 96.7 C 288.92 96.55 289 96.4 289 96.25 C 289 96.1 289 95.95 288.92 95.8 L 292.83 93.48 C 293.2 93.77 293.72 94 294.25 94 C 295.53 94 296.5 93.02 296.5 91.75 C 296.5 90.48 295.53 89.5 294.25 89.5 C 292.97 89.5 292 90.48 292 91.75 C 292 91.9 292 92.05 292.08 92.2 L 288.17 94.52 C 287.8 94.23 287.28 94 286.75 94 C 285.47 94 284.5 94.98 284.5 96.25 C 284.5 97.52 285.47 98.5 286.75 98.5 C 287.28 98.5 287.8 98.27 288.17 97.98 L 292.08 100.3 C 292.08 100.45 292 100.6 292 100.75 C 292 102.02 292.97 103 294.25 103 C 295.53 103 296.5 102.02 296.5 100.75 C 296.5 99.48 295.53 98.5 294.25 98.5 Z M 294.25 91 C 294.7 91 295 91.3 295 91.75 C 295 92.2 294.7 92.5 294.25 92.5 C 293.8 92.5 293.5 92.2 293.5 91.75 C 293.5 91.3 293.8 91 294.25 91 Z M 286.75 97 C 286.3 97 286 96.7 286 96.25 C 286 95.8 286.3 95.5 286.75 95.5 C 287.2 95.5 287.5 95.8 287.5 96.25 C 287.5 96.7 287.2 97 286.75 97 Z M 294.25 101.5 C 293.8 101.5 293.5 101.2 293.5 100.75 C 293.5 100.3 293.8 100 294.25 100 C 294.7 100 295 100.3 295 100.75 C 295 101.2 294.7 101.5 294.25 101.5 Z" fill="#ffffff" stroke="none" pointer-events="all" style="fill: rgb(255, 255, 255);"/><path d="M 288.25 100.75 L 280.38 100.75 C 278.13 100.75 276.25 98.88 276.25 96.63 C 276.25 94.6 277.67 92.95 279.63 92.58 L 280.6 92.42 L 280.83 91.45 C 281.42 88.52 283.9 86.5 286.75 86.5 C 287.13 86.5 287.5 86.5 287.88 86.58 C 289.08 86.8 290.13 87.4 291.03 88.23 L 292.08 87.17 C 291.03 86.13 289.67 85.38 288.17 85.15 C 287.72 85.08 287.2 85 286.75 85 C 283.22 85 280.08 87.48 279.4 91.08 C 276.7 91.6 274.75 93.92 274.75 96.63 C 274.75 99.7 277.22 102.25 280.38 102.25 L 288.25 102.25 L 288.25 100.75 Z" fill="#ffffff" stroke="none" pointer-events="all" style="fill: rgb(255, 255, 255);"/></g></g></g><g data-cell-id="7pOWgZdMyRwZphAq9Xxv-7"><g><rect x="164" y="70" width="48" height="48" fill="#fa4d56" stroke="none" pointer-events="all" style="fill: rgb(250, 77, 86);"/></g><g data-cell-id="7pOWgZdMyRwZphAq9Xxv-8"><g><rect x="176" y="82" width="24" height="24" fill="none" stroke="none" pointer-events="all"/><rect x="176" y="82" width="0" height="0" fill="none" stroke="none" pointer-events="all"/><path d="M 197 87.25 C 196.47 87.25 195.97 87.54 195.71 88 L 192.5 88 C 192.5 85.51 190.49 83.5 188 83.5 C 185.51 83.5 183.5 85.51 183.5 88 L 180.29 88 C 179.95 87.41 179.26 87.13 178.6 87.3 C 177.95 87.48 177.49 88.07 177.49 88.75 C 177.49 89.43 177.95 90.02 178.6 90.2 C 179.26 90.37 179.95 90.09 180.29 89.5 L 183.5 89.5 L 183.5 92.5 L 182 92.5 C 181.17 92.5 180.5 93.17 180.5 94 L 180.5 103 C 180.5 103.83 181.17 104.5 182 104.5 L 194 104.5 C 194.83 104.5 195.5 103.83 195.5 103 L 195.5 94 C 195.5 93.17 194.83 92.5 194 92.5 L 192.5 92.5 L 192.5 89.5 L 195.71 89.5 C 196.07 90.13 196.84 90.4 197.52 90.15 C 198.2 89.9 198.61 89.2 198.48 88.48 C 198.35 87.77 197.73 87.25 197 87.25 M 185 88 C 185 86.34 186.34 85 188 85 C 189.66 85 191 86.34 191 88 L 191 92.5 L 185 92.5 L 185 89.5 L 188.75 89.5 L 188.75 88 Z M 194 94 L 194 103 L 182 103 L 182 94 Z" fill="#ffffff" stroke="none" pointer-events="all" style="fill: rgb(255, 255, 255);"/></g></g></g><g data-cell-id="7pOWgZdMyRwZphAq9Xxv-9"><g><rect x="360" y="70" width="48" height="48" fill="#fa4d56" stroke="none" pointer-events="all" style="fill: rgb(250, 77, 86);"/></g><g data-cell-id="7pOWgZdMyRwZphAq9Xxv-10"><g><rect x="372" y="82" width="24" height="24" fill="none" stroke="none" pointer-events="all"/><rect x="372" y="82" width="0" height="0" fill="none" stroke="none" pointer-events="all"/><path d="M 393 87.25 C 392.47 87.25 391.97 87.54 391.71 88 L 388.5 88 C 388.5 85.51 386.49 83.5 384 83.5 C 381.51 83.5 379.5 85.51 379.5 88 L 376.29 88 C 375.95 87.41 375.26 87.13 374.6 87.3 C 373.95 87.48 373.49 88.07 373.49 88.75 C 373.49 89.43 373.95 90.02 374.6 90.2 C 375.26 90.37 375.95 90.09 376.29 89.5 L 379.5 89.5 L 379.5 92.5 L 378 92.5 C 377.17 92.5 376.5 93.17 376.5 94 L 376.5 103 C 376.5 103.83 377.17 104.5 378 104.5 L 390 104.5 C 390.83 104.5 391.5 103.83 391.5 103 L 391.5 94 C 391.5 93.17 390.83 92.5 390 92.5 L 388.5 92.5 L 388.5 89.5 L 391.71 89.5 C 392.07 90.13 392.84 90.4 393.52 90.15 C 394.2 89.9 394.61 89.2 394.48 88.48 C 394.35 87.77 393.73 87.25 393 87.25 M 381 88 C 381 86.34 382.34 85 384 85 C 385.66 85 387 86.34 387 88 L 387 92.5 L 381 92.5 L 381 89.5 L 384.75 89.5 L 384.75 88 Z M 390 94 L 390 103 L 378 103 L 378 94 Z" fill="#ffffff" stroke="none" pointer-events="all" style="fill: rgb(255, 255, 255);"/></g></g></g><g data-cell-id="7pOWgZdMyRwZphAq9Xxv-11"><g><rect x="459" y="70" width="48" height="48" fill="#198038" stroke="none" pointer-events="all" style="fill: rgb(25, 128, 56);"/></g><g><g fill="#000000" font-family="Helvetica" text-anchor="middle" font-size="14px" style="fill: rgb(0, 0, 0);"><text x="483" y="138">Origin Server</text><text x="483" y="155">with TLS mode</text></g></g><g data-cell-id="7pOWgZdMyRwZphAq9Xxv-12"><g><rect x="471" y="82" width="24" height="24" fill="none" stroke="none" pointer-events="all"/><rect x="471" y="82" width="0" height="0" fill="none" stroke="none" pointer-events="all"/><ellipse cx="477.75" cy="101.5" rx="0.75" ry="0.75" fill="#ffffff" stroke="none" pointer-events="all" style="fill: rgb(255, 255, 255);"/><path d="M 490.5 98.5 L 486.75 98.5 L 486.75 100 L 490.5 100 L 490.5 103 L 475.5 103 L 475.5 100 L 482.25 100 C 483.08 100 483.75 99.33 483.75 98.5 L 483.75 91.62 L 485.69 93.57 L 486.75 92.5 L 483 88.75 L 479.25 92.5 L 480.31 93.56 L 482.25 91.62 L 482.25 98.5 L 475.5 98.5 C 474.67 98.5 474 99.17 474 100 L 474 103 C 474 103.83 474.67 104.5 475.5 104.5 L 490.5 104.5 C 491.33 104.5 492 103.83 492 103 L 492 100 C 492 99.17 491.33 98.5 490.5 98.5 Z" fill="#ffffff" stroke="none" pointer-events="all" style="fill: rgb(255, 255, 255);"/><path d="M 488.81 88.04 C 488.15 85.41 485.75 83.5 483 83.5 C 480.25 83.5 477.85 85.41 477.19 88.04 C 474.97 88.32 473.25 90.21 473.25 92.5 C 473.25 94.98 475.27 97 477.75 97 L 479.25 97 L 479.25 95.5 L 477.75 95.5 C 476.09 95.5 474.75 94.16 474.75 92.5 C 474.75 90.86 476.08 89.52 477.71 89.5 L 478.45 89.51 L 478.55 88.86 C 478.87 86.66 480.78 85 483 85 C 485.22 85 487.13 86.66 487.45 88.86 L 487.54 89.52 L 488.2 89.51 L 488.3 89.5 C 489.93 89.52 491.25 90.86 491.25 92.5 C 491.25 94.16 489.91 95.5 488.25 95.5 L 486.75 95.5 L 486.75 97 L 488.25 97 C 490.73 97 492.75 94.98 492.75 92.5 C 492.75 90.21 491.03 88.32 488.81 88.04 Z" fill="#ffffff" stroke="none" pointer-events="all" style="fill: rgb(255, 255, 255);"/></g></g></g></g></g></g></svg>