<?xml version="1.0" encoding="UTF-8"?>
<!-- Do not edit this file with editors other than draw.io -->
<!DOCTYPE svg PUBLIC "-//W3C//DTD SVG 1.1//EN" "http://www.w3.org/Graphics/SVG/1.1/DTD/svg11.dtd">
<svg xmlns="http://www.w3.org/2000/svg" style="background: #ffffff; background-color: #ffffff; color-scheme: light;" xmlns:xlink="http://www.w3.org/1999/xlink" version="1.1" width="461px" height="107px" viewBox="-0.5 -0.5 461 107" content="&lt;mxfile host=&quot;app.diagrams.net&quot; agent=&quot;Mozilla/5.0 (Macintosh; Intel Mac OS X 10_15_7) AppleWebKit/537.36 (KHTML, like Gecko) Chrome/138.0.0.0 Safari/537.36 Edg/138.0.0.0&quot; version=&quot;27.1.6&quot; scale=&quot;1&quot; border=&quot;0&quot;&gt;&#10;  &lt;diagram name=&quot;Page-1&quot; id=&quot;VMQzMJBvYHzRfyUvyS4v&quot;&gt;&#10;    &lt;mxGraphModel dx=&quot;1226&quot; dy=&quot;698&quot; grid=&quot;1&quot; gridSize=&quot;10&quot; guides=&quot;1&quot; tooltips=&quot;1&quot; connect=&quot;1&quot; arrows=&quot;1&quot; fold=&quot;1&quot; page=&quot;1&quot; pageScale=&quot;1&quot; pageWidth=&quot;850&quot; pageHeight=&quot;1100&quot; math=&quot;0&quot; shadow=&quot;0&quot;&gt;&#10;      &lt;root&gt;&#10;        &lt;mxCell id=&quot;0&quot; /&gt;&#10;        &lt;mxCell id=&quot;1&quot; parent=&quot;0&quot; /&gt;&#10;        &lt;mxCell id=&quot;LddF3R96ZCdnI7Bx30d1-22&quot; value=&quot;&quot; style=&quot;endArrow=none;html=1;rounded=0;&quot; edge=&quot;1&quot; parent=&quot;1&quot;&gt;&#10;          &lt;mxGeometry width=&quot;50&quot; height=&quot;50&quot; relative=&quot;1&quot; as=&quot;geometry&quot;&gt;&#10;            &lt;mxPoint x=&quot;237&quot; y=&quot;275.5&quot; as=&quot;sourcePoint&quot; /&gt;&#10;            &lt;mxPoint x=&quot;647&quot; y=&quot;276.5&quot; as=&quot;targetPoint&quot; /&gt;&#10;          &lt;/mxGeometry&gt;&#10;        &lt;/mxCell&gt;&#10;        &lt;mxCell id=&quot;LddF3R96ZCdnI7Bx30d1-23&quot; value=&quot;Visitor&quot; style=&quot;shape=ellipse;fillColor=#000000;aspect=fixed;resizable=0;labelPosition=center;verticalLabelPosition=bottom;align=center;verticalAlign=top;strokeColor=none;fontSize=14;&quot; vertex=&quot;1&quot; parent=&quot;1&quot;&gt;&#10;          &lt;mxGeometry x=&quot;220&quot; y=&quot;250&quot; width=&quot;48&quot; height=&quot;48&quot; as=&quot;geometry&quot; /&gt;&#10;        &lt;/mxCell&gt;&#10;        &lt;mxCell id=&quot;LddF3R96ZCdnI7Bx30d1-24&quot; value=&quot;&quot; style=&quot;fillColor=#ffffff;strokeColor=none;dashed=0;outlineConnect=0;html=1;labelPosition=center;verticalLabelPosition=bottom;verticalAlign=top;part=1;movable=0;resizable=0;rotatable=0;shape=mxgraph.ibm_cloud.user&quot; vertex=&quot;1&quot; parent=&quot;LddF3R96ZCdnI7Bx30d1-23&quot;&gt;&#10;          &lt;mxGeometry width=&quot;24&quot; height=&quot;24&quot; relative=&quot;1&quot; as=&quot;geometry&quot;&gt;&#10;            &lt;mxPoint x=&quot;12&quot; y=&quot;12&quot; as=&quot;offset&quot; /&gt;&#10;          &lt;/mxGeometry&gt;&#10;        &lt;/mxCell&gt;&#10;        &lt;mxCell id=&quot;LddF3R96ZCdnI7Bx30d1-25&quot; value=&quot;Cloud &amp;#xa;Internet &amp;#xa;Services&quot; style=&quot;shape=rect;fillColor=#1192E8;aspect=fixed;resizable=0;labelPosition=center;verticalLabelPosition=bottom;align=center;verticalAlign=top;strokeColor=none;fontSize=14;&quot; vertex=&quot;1&quot; parent=&quot;1&quot;&gt;&#10;          &lt;mxGeometry x=&quot;418&quot; y=&quot;252&quot; width=&quot;48&quot; height=&quot;48&quot; as=&quot;geometry&quot; /&gt;&#10;        &lt;/mxCell&gt;&#10;        &lt;mxCell id=&quot;LddF3R96ZCdnI7Bx30d1-26&quot; value=&quot;&quot; style=&quot;fillColor=#ffffff;strokeColor=none;dashed=0;outlineConnect=0;html=1;labelPosition=center;verticalLabelPosition=bottom;verticalAlign=top;part=1;movable=0;resizable=0;rotatable=0;shape=mxgraph.ibm_cloud.ibm-cloud--internet-services&quot; vertex=&quot;1&quot; parent=&quot;LddF3R96ZCdnI7Bx30d1-25&quot;&gt;&#10;          &lt;mxGeometry width=&quot;24&quot; height=&quot;24&quot; relative=&quot;1&quot; as=&quot;geometry&quot;&gt;&#10;            &lt;mxPoint x=&quot;12&quot; y=&quot;12&quot; as=&quot;offset&quot; /&gt;&#10;          &lt;/mxGeometry&gt;&#10;        &lt;/mxCell&gt;&#10;        &lt;mxCell id=&quot;LddF3R96ZCdnI7Bx30d1-27&quot; value=&quot;&quot; style=&quot;shape=rect;fillColor=#FA4D56;aspect=fixed;resizable=0;labelPosition=center;verticalLabelPosition=bottom;align=center;verticalAlign=top;strokeColor=none;fontSize=14;&quot; vertex=&quot;1&quot; parent=&quot;1&quot;&gt;&#10;          &lt;mxGeometry x=&quot;320&quot; y=&quot;252&quot; width=&quot;48&quot; height=&quot;48&quot; as=&quot;geometry&quot; /&gt;&#10;        &lt;/mxCell&gt;&#10;        &lt;mxCell id=&quot;LddF3R96ZCdnI7Bx30d1-28&quot; value=&quot;&quot; style=&quot;fillColor=#ffffff;strokeColor=none;dashed=0;outlineConnect=0;html=1;labelPosition=center;verticalLabelPosition=bottom;verticalAlign=top;part=1;movable=0;resizable=0;rotatable=0;shape=mxgraph.ibm_cloud.vpn--connection&quot; vertex=&quot;1&quot; parent=&quot;LddF3R96ZCdnI7Bx30d1-27&quot;&gt;&#10;          &lt;mxGeometry width=&quot;24&quot; height=&quot;24&quot; relative=&quot;1&quot; as=&quot;geometry&quot;&gt;&#10;            &lt;mxPoint x=&quot;12&quot; y=&quot;12&quot; as=&quot;offset&quot; /&gt;&#10;          &lt;/mxGeometry&gt;&#10;        &lt;/mxCell&gt;&#10;        &lt;mxCell id=&quot;LddF3R96ZCdnI7Bx30d1-29&quot; value=&quot;&quot; style=&quot;shape=rect;fillColor=#FA4D56;aspect=fixed;resizable=0;labelPosition=center;verticalLabelPosition=bottom;align=center;verticalAlign=top;strokeColor=none;fontSize=14;&quot; vertex=&quot;1&quot; parent=&quot;1&quot;&gt;&#10;          &lt;mxGeometry x=&quot;516&quot; y=&quot;252&quot; width=&quot;48&quot; height=&quot;48&quot; as=&quot;geometry&quot; /&gt;&#10;        &lt;/mxCell&gt;&#10;        &lt;mxCell id=&quot;LddF3R96ZCdnI7Bx30d1-30&quot; value=&quot;&quot; style=&quot;fillColor=#ffffff;strokeColor=none;dashed=0;outlineConnect=0;html=1;labelPosition=center;verticalLabelPosition=bottom;verticalAlign=top;part=1;movable=0;resizable=0;rotatable=0;shape=mxgraph.ibm_cloud.vpn--connection&quot; vertex=&quot;1&quot; parent=&quot;LddF3R96ZCdnI7Bx30d1-29&quot;&gt;&#10;          &lt;mxGeometry width=&quot;24&quot; height=&quot;24&quot; relative=&quot;1&quot; as=&quot;geometry&quot;&gt;&#10;            &lt;mxPoint x=&quot;12&quot; y=&quot;12&quot; as=&quot;offset&quot; /&gt;&#10;          &lt;/mxGeometry&gt;&#10;        &lt;/mxCell&gt;&#10;        &lt;mxCell id=&quot;LddF3R96ZCdnI7Bx30d1-31&quot; value=&quot;Origin Server&amp;#xa;&quot; style=&quot;shape=rect;fillColor=#198038;aspect=fixed;resizable=0;labelPosition=center;verticalLabelPosition=bottom;align=center;verticalAlign=top;strokeColor=none;fontSize=14;&quot; vertex=&quot;1&quot; parent=&quot;1&quot;&gt;&#10;          &lt;mxGeometry x=&quot;615&quot; y=&quot;252&quot; width=&quot;48&quot; height=&quot;48&quot; as=&quot;geometry&quot; /&gt;&#10;        &lt;/mxCell&gt;&#10;        &lt;mxCell id=&quot;LddF3R96ZCdnI7Bx30d1-32&quot; value=&quot;&quot; style=&quot;fillColor=#ffffff;strokeColor=none;dashed=0;outlineConnect=0;html=1;labelPosition=center;verticalLabelPosition=bottom;verticalAlign=top;part=1;movable=0;resizable=0;rotatable=0;shape=mxgraph.ibm_cloud.ibm-cloud--virtual-server-classic&quot; vertex=&quot;1&quot; parent=&quot;LddF3R96ZCdnI7Bx30d1-31&quot;&gt;&#10;          &lt;mxGeometry width=&quot;24&quot; height=&quot;24&quot; relative=&quot;1&quot; as=&quot;geometry&quot;&gt;&#10;            &lt;mxPoint x=&quot;12&quot; y=&quot;12&quot; as=&quot;offset&quot; /&gt;&#10;          &lt;/mxGeometry&gt;&#10;        &lt;/mxCell&gt;&#10;      &lt;/root&gt;&#10;    &lt;/mxGraphModel&gt;&#10;  &lt;/diagram&gt;&#10;&lt;/mxfile&gt;&#10;"><defs/><rect fill="#ffffff" width="100%" height="100%" x="0" y="0" style="fill: rgb(255, 255, 255);"/><g><g data-cell-id="0"><g data-cell-id="1"><g data-cell-id="LddF3R96ZCdnI7Bx30d1-22"><g><path d="M 17 25.5 L 427 26.5" fill="none" stroke="#000000" stroke-miterlimit="10" pointer-events="stroke" style="stroke: rgb(0, 0, 0);"/></g></g><g data-cell-id="LddF3R96ZCdnI7Bx30d1-23"><g><ellipse cx="24" cy="24" rx="24" ry="24" fill="#000000" stroke="none" pointer-events="all" style="fill: rgb(0, 0, 0);"/></g><g><g fill="#000000" font-family="&quot;Helvetica&quot;" text-anchor="middle" font-size="14px" style="fill: rgb(0, 0, 0);"><text x="23.5" y="67.5">Visitor</text></g></g><g data-cell-id="LddF3R96ZCdnI7Bx30d1-24"><g><rect x="12" y="12" width="24" height="24" fill="none" stroke="none" pointer-events="all"/><rect x="12" y="12" width="0" height="0" fill="none" stroke="none" pointer-events="all"/><path d="M 24 15 C 26.07 15 27.75 16.68 27.75 18.75 C 27.75 20.82 26.07 22.5 24 22.5 C 21.93 22.5 20.25 20.82 20.25 18.75 C 20.25 16.68 21.93 15 24 15 M 24 13.5 C 21.1 13.5 18.75 15.85 18.75 18.75 C 18.75 21.65 21.1 24 24 24 C 26.9 24 29.25 21.65 29.25 18.75 C 29.25 15.85 26.9 13.5 24 13.5 Z M 31.5 34.5 L 30 34.5 L 30 30.75 C 30 28.68 28.32 27 26.25 27 L 21.75 27 C 19.68 27 18 28.68 18 30.75 L 18 34.5 L 16.5 34.5 L 16.5 30.75 C 16.5 27.85 18.85 25.5 21.75 25.5 L 26.25 25.5 C 29.15 25.5 31.5 27.85 31.5 30.75 Z" fill="#ffffff" stroke="none" pointer-events="all" style="fill: rgb(255, 255, 255);"/></g></g></g><g data-cell-id="LddF3R96ZCdnI7Bx30d1-25"><g><rect x="198" y="2" width="48" height="48" fill="#1192e8" stroke="none" pointer-events="all" style="fill: rgb(17, 146, 232);"/></g><g><g fill="#000000" font-family="&quot;Helvetica&quot;" text-anchor="middle" font-size="14px" style="fill: rgb(0, 0, 0);"><text x="221.5" y="69.5">Cloud </text><text x="221.5" y="86.5">Internet </text><text x="221.5" y="103.5">Services</text></g></g><g data-cell-id="LddF3R96ZCdnI7Bx30d1-26"><g><rect x="210" y="14" width="24" height="24" fill="none" stroke="none" pointer-events="all"/><rect x="210" y="14" width="0" height="0" fill="none" stroke="none" pointer-events="all"/><path d="M 230.25 30.5 C 229.72 30.5 229.2 30.73 228.83 31.02 L 224.92 28.7 C 224.92 28.55 225 28.4 225 28.25 C 225 28.1 225 27.95 224.92 27.8 L 228.83 25.48 C 229.2 25.77 229.72 26 230.25 26 C 231.53 26 232.5 25.02 232.5 23.75 C 232.5 22.48 231.53 21.5 230.25 21.5 C 228.97 21.5 228 22.48 228 23.75 C 228 23.9 228 24.05 228.08 24.2 L 224.17 26.52 C 223.8 26.23 223.28 26 222.75 26 C 221.47 26 220.5 26.98 220.5 28.25 C 220.5 29.52 221.47 30.5 222.75 30.5 C 223.28 30.5 223.8 30.27 224.17 29.98 L 228.08 32.3 C 228.08 32.45 228 32.6 228 32.75 C 228 34.02 228.97 35 230.25 35 C 231.53 35 232.5 34.02 232.5 32.75 C 232.5 31.48 231.53 30.5 230.25 30.5 Z M 230.25 23 C 230.7 23 231 23.3 231 23.75 C 231 24.2 230.7 24.5 230.25 24.5 C 229.8 24.5 229.5 24.2 229.5 23.75 C 229.5 23.3 229.8 23 230.25 23 Z M 222.75 29 C 222.3 29 222 28.7 222 28.25 C 222 27.8 222.3 27.5 222.75 27.5 C 223.2 27.5 223.5 27.8 223.5 28.25 C 223.5 28.7 223.2 29 222.75 29 Z M 230.25 33.5 C 229.8 33.5 229.5 33.2 229.5 32.75 C 229.5 32.3 229.8 32 230.25 32 C 230.7 32 231 32.3 231 32.75 C 231 33.2 230.7 33.5 230.25 33.5 Z" fill="#ffffff" stroke="none" pointer-events="all" style="fill: rgb(255, 255, 255);"/><path d="M 224.25 32.75 L 216.38 32.75 C 214.13 32.75 212.25 30.88 212.25 28.63 C 212.25 26.6 213.67 24.95 215.63 24.58 L 216.6 24.42 L 216.83 23.45 C 217.42 20.52 219.9 18.5 222.75 18.5 C 223.13 18.5 223.5 18.5 223.88 18.58 C 225.08 18.8 226.13 19.4 227.03 20.23 L 228.08 19.17 C 227.03 18.13 225.67 17.38 224.17 17.15 C 223.72 17.08 223.2 17 222.75 17 C 219.22 17 216.08 19.48 215.4 23.08 C 212.7 23.6 210.75 25.92 210.75 28.63 C 210.75 31.7 213.22 34.25 216.38 34.25 L 224.25 34.25 L 224.25 32.75 Z" fill="#ffffff" stroke="none" pointer-events="all" style="fill: rgb(255, 255, 255);"/></g></g></g><g data-cell-id="LddF3R96ZCdnI7Bx30d1-27"><g><rect x="100" y="2" width="48" height="48" fill="#fa4d56" stroke="none" pointer-events="all" style="fill: rgb(250, 77, 86);"/></g><g data-cell-id="LddF3R96ZCdnI7Bx30d1-28"><g><rect x="112" y="14" width="24" height="24" fill="none" stroke="none" pointer-events="all"/><rect x="112" y="14" width="0" height="0" fill="none" stroke="none" pointer-events="all"/><path d="M 133 19.25 C 132.47 19.25 131.97 19.54 131.71 20 L 128.5 20 C 128.5 17.51 126.49 15.5 124 15.5 C 121.51 15.5 119.5 17.51 119.5 20 L 116.29 20 C 115.95 19.41 115.26 19.13 114.6 19.3 C 113.95 19.48 113.49 20.07 113.49 20.75 C 113.49 21.43 113.95 22.02 114.6 22.2 C 115.26 22.37 115.95 22.09 116.29 21.5 L 119.5 21.5 L 119.5 24.5 L 118 24.5 C 117.17 24.5 116.5 25.17 116.5 26 L 116.5 35 C 116.5 35.83 117.17 36.5 118 36.5 L 130 36.5 C 130.83 36.5 131.5 35.83 131.5 35 L 131.5 26 C 131.5 25.17 130.83 24.5 130 24.5 L 128.5 24.5 L 128.5 21.5 L 131.71 21.5 C 132.07 22.13 132.84 22.4 133.52 22.15 C 134.2 21.9 134.61 21.2 134.48 20.48 C 134.35 19.77 133.73 19.25 133 19.25 M 121 20 C 121 18.34 122.34 17 124 17 C 125.66 17 127 18.34 127 20 L 127 24.5 L 121 24.5 L 121 21.5 L 124.75 21.5 L 124.75 20 Z M 130 26 L 130 35 L 118 35 L 118 26 Z" fill="#ffffff" stroke="none" pointer-events="all" style="fill: rgb(255, 255, 255);"/></g></g></g><g data-cell-id="LddF3R96ZCdnI7Bx30d1-29"><g><rect x="296" y="2" width="48" height="48" fill="#fa4d56" stroke="none" pointer-events="all" style="fill: rgb(250, 77, 86);"/></g><g data-cell-id="LddF3R96ZCdnI7Bx30d1-30"><g><rect x="308" y="14" width="24" height="24" fill="none" stroke="none" pointer-events="all"/><rect x="308" y="14" width="0" height="0" fill="none" stroke="none" pointer-events="all"/><path d="M 329 19.25 C 328.47 19.25 327.97 19.54 327.71 20 L 324.5 20 C 324.5 17.51 322.49 15.5 320 15.5 C 317.51 15.5 315.5 17.51 315.5 20 L 312.29 20 C 311.95 19.41 311.26 19.13 310.6 19.3 C 309.95 19.48 309.49 20.07 309.49 20.75 C 309.49 21.43 309.95 22.02 310.6 22.2 C 311.26 22.37 311.95 22.09 312.29 21.5 L 315.5 21.5 L 315.5 24.5 L 314 24.5 C 313.17 24.5 312.5 25.17 312.5 26 L 312.5 35 C 312.5 35.83 313.17 36.5 314 36.5 L 326 36.5 C 326.83 36.5 327.5 35.83 327.5 35 L 327.5 26 C 327.5 25.17 326.83 24.5 326 24.5 L 324.5 24.5 L 324.5 21.5 L 327.71 21.5 C 328.07 22.13 328.84 22.4 329.52 22.15 C 330.2 21.9 330.61 21.2 330.48 20.48 C 330.35 19.77 329.73 19.25 329 19.25 M 317 20 C 317 18.34 318.34 17 320 17 C 321.66 17 323 18.34 323 20 L 323 24.5 L 317 24.5 L 317 21.5 L 320.75 21.5 L 320.75 20 Z M 326 26 L 326 35 L 314 35 L 314 26 Z" fill="#ffffff" stroke="none" pointer-events="all" style="fill: rgb(255, 255, 255);"/></g></g></g><g data-cell-id="LddF3R96ZCdnI7Bx30d1-31"><g><rect x="395" y="2" width="48" height="48" fill="#198038" stroke="none" pointer-events="all" style="fill: rgb(25, 128, 56);"/></g><g><g fill="#000000" font-family="&quot;Helvetica&quot;" text-anchor="middle" font-size="14px" style="fill: rgb(0, 0, 0);"><text x="418.5" y="69.5">Origin Server</text></g></g><g data-cell-id="LddF3R96ZCdnI7Bx30d1-32"><g><rect x="407" y="14" width="24" height="24" fill="none" stroke="none" pointer-events="all"/><rect x="407" y="14" width="0" height="0" fill="none" stroke="none" pointer-events="all"/><ellipse cx="413.75" cy="33.5" rx="0.75" ry="0.75" fill="#ffffff" stroke="none" pointer-events="all" style="fill: rgb(255, 255, 255);"/><path d="M 426.5 30.5 L 422.75 30.5 L 422.75 32 L 426.5 32 L 426.5 35 L 411.5 35 L 411.5 32 L 418.25 32 C 419.08 32 419.75 31.33 419.75 30.5 L 419.75 23.62 L 421.69 25.57 L 422.75 24.5 L 419 20.75 L 415.25 24.5 L 416.31 25.56 L 418.25 23.62 L 418.25 30.5 L 411.5 30.5 C 410.67 30.5 410 31.17 410 32 L 410 35 C 410 35.83 410.67 36.5 411.5 36.5 L 426.5 36.5 C 427.33 36.5 428 35.83 428 35 L 428 32 C 428 31.17 427.33 30.5 426.5 30.5 Z" fill="#ffffff" stroke="none" pointer-events="all" style="fill: rgb(255, 255, 255);"/><path d="M 424.81 20.04 C 424.15 17.41 421.75 15.5 419 15.5 C 416.25 15.5 413.85 17.41 413.19 20.04 C 410.97 20.32 409.25 22.21 409.25 24.5 C 409.25 26.98 411.27 29 413.75 29 L 415.25 29 L 415.25 27.5 L 413.75 27.5 C 412.09 27.5 410.75 26.16 410.75 24.5 C 410.75 22.86 412.08 21.52 413.71 21.5 L 414.45 21.51 L 414.55 20.86 C 414.87 18.66 416.78 17 419 17 C 421.22 17 423.13 18.66 423.45 20.86 L 423.54 21.52 L 424.2 21.51 L 424.3 21.5 C 425.93 21.52 427.25 22.86 427.25 24.5 C 427.25 26.16 425.91 27.5 424.25 27.5 L 422.75 27.5 L 422.75 29 L 424.25 29 C 426.73 29 428.75 26.98 428.75 24.5 C 428.75 22.21 427.03 20.32 424.81 20.04 Z" fill="#ffffff" stroke="none" pointer-events="all" style="fill: rgb(255, 255, 255);"/></g></g></g></g></g></g></svg>