<?xml version="1.0" encoding="UTF-8"?>
<!-- Do not edit this file with editors other than draw.io -->
<!DOCTYPE svg PUBLIC "-//W3C//DTD SVG 1.1//EN" "http://www.w3.org/Graphics/SVG/1.1/DTD/svg11.dtd">
<svg xmlns="http://www.w3.org/2000/svg" style="background: #ffffff; background-color: #ffffff; color-scheme: light;" xmlns:xlink="http://www.w3.org/1999/xlink" version="1.1" width="850px" height="210px" viewBox="-0.5 -0.5 850 210" content="&lt;mxfile host=&quot;app.diagrams.net&quot; agent=&quot;Mozilla/5.0 (Macintosh; Intel Mac OS X 10_15_7) AppleWebKit/537.36 (KHTML, like Gecko) Chrome/138.0.0.0 Safari/537.36 Edg/138.0.0.0&quot; version=&quot;27.2.0&quot; scale=&quot;1&quot; border=&quot;0&quot;&gt;&#10;  &lt;diagram name=&quot;Page-1&quot; id=&quot;pApR3LaG8udPJI2VZ_sg&quot;&gt;&#10;    &lt;mxGraphModel dx=&quot;1226&quot; dy=&quot;698&quot; grid=&quot;1&quot; gridSize=&quot;10&quot; guides=&quot;1&quot; tooltips=&quot;1&quot; connect=&quot;1&quot; arrows=&quot;1&quot; fold=&quot;1&quot; page=&quot;1&quot; pageScale=&quot;1&quot; pageWidth=&quot;850&quot; pageHeight=&quot;1100&quot; math=&quot;0&quot; shadow=&quot;0&quot;&gt;&#10;      &lt;root&gt;&#10;        &lt;mxCell id=&quot;0&quot; /&gt;&#10;        &lt;mxCell id=&quot;1&quot; parent=&quot;0&quot; /&gt;&#10;        &lt;mxCell id=&quot;7pOWgZdMyRwZphAq9Xxv-1&quot; value=&quot;&quot; style=&quot;rounded=0;whiteSpace=wrap;html=1;fillColor=default;strokeColor=none;&quot; vertex=&quot;1&quot; parent=&quot;1&quot;&gt;&#10;          &lt;mxGeometry x=&quot;140&quot; y=&quot;170&quot; width=&quot;570&quot; height=&quot;210&quot; as=&quot;geometry&quot; /&gt;&#10;        &lt;/mxCell&gt;&#10;        &lt;mxCell id=&quot;7pOWgZdMyRwZphAq9Xxv-2&quot; value=&quot;&quot; style=&quot;endArrow=none;html=1;rounded=0;&quot; edge=&quot;1&quot; parent=&quot;1&quot;&gt;&#10;          &lt;mxGeometry width=&quot;50&quot; height=&quot;50&quot; relative=&quot;1&quot; as=&quot;geometry&quot;&gt;&#10;            &lt;mxPoint x=&quot;221&quot; y=&quot;265.5&quot; as=&quot;sourcePoint&quot; /&gt;&#10;            &lt;mxPoint x=&quot;631&quot; y=&quot;266.5&quot; as=&quot;targetPoint&quot; /&gt;&#10;          &lt;/mxGeometry&gt;&#10;        &lt;/mxCell&gt;&#10;        &lt;mxCell id=&quot;7pOWgZdMyRwZphAq9Xxv-3&quot; value=&quot;Visitor&quot; style=&quot;shape=ellipse;fillColor=#000000;aspect=fixed;resizable=0;labelPosition=center;verticalLabelPosition=bottom;align=center;verticalAlign=top;strokeColor=none;fontSize=14;&quot; vertex=&quot;1&quot; parent=&quot;1&quot;&gt;&#10;          &lt;mxGeometry x=&quot;204&quot; y=&quot;240&quot; width=&quot;48&quot; height=&quot;48&quot; as=&quot;geometry&quot; /&gt;&#10;        &lt;/mxCell&gt;&#10;        &lt;mxCell id=&quot;7pOWgZdMyRwZphAq9Xxv-4&quot; value=&quot;&quot; style=&quot;fillColor=#ffffff;strokeColor=none;dashed=0;outlineConnect=0;html=1;labelPosition=center;verticalLabelPosition=bottom;verticalAlign=top;part=1;movable=0;resizable=0;rotatable=0;shape=mxgraph.ibm_cloud.user&quot; vertex=&quot;1&quot; parent=&quot;7pOWgZdMyRwZphAq9Xxv-3&quot;&gt;&#10;          &lt;mxGeometry width=&quot;24&quot; height=&quot;24&quot; relative=&quot;1&quot; as=&quot;geometry&quot;&gt;&#10;            &lt;mxPoint x=&quot;12&quot; y=&quot;12&quot; as=&quot;offset&quot; /&gt;&#10;          &lt;/mxGeometry&gt;&#10;        &lt;/mxCell&gt;&#10;        &lt;mxCell id=&quot;7pOWgZdMyRwZphAq9Xxv-5&quot; value=&quot;Cloud &amp;#xa;Internet &amp;#xa;Services&quot; style=&quot;shape=rect;fillColor=#1192E8;aspect=fixed;resizable=0;labelPosition=center;verticalLabelPosition=bottom;align=center;verticalAlign=top;strokeColor=none;fontSize=14;&quot; vertex=&quot;1&quot; parent=&quot;1&quot;&gt;&#10;          &lt;mxGeometry x=&quot;402&quot; y=&quot;240&quot; width=&quot;48&quot; height=&quot;48&quot; as=&quot;geometry&quot; /&gt;&#10;        &lt;/mxCell&gt;&#10;        &lt;mxCell id=&quot;7pOWgZdMyRwZphAq9Xxv-6&quot; value=&quot;&quot; style=&quot;fillColor=#ffffff;strokeColor=none;dashed=0;outlineConnect=0;html=1;labelPosition=center;verticalLabelPosition=bottom;verticalAlign=top;part=1;movable=0;resizable=0;rotatable=0;shape=mxgraph.ibm_cloud.ibm-cloud--internet-services&quot; vertex=&quot;1&quot; parent=&quot;7pOWgZdMyRwZphAq9Xxv-5&quot;&gt;&#10;          &lt;mxGeometry width=&quot;24&quot; height=&quot;24&quot; relative=&quot;1&quot; as=&quot;geometry&quot;&gt;&#10;            &lt;mxPoint x=&quot;12&quot; y=&quot;12&quot; as=&quot;offset&quot; /&gt;&#10;          &lt;/mxGeometry&gt;&#10;        &lt;/mxCell&gt;&#10;        &lt;mxCell id=&quot;7pOWgZdMyRwZphAq9Xxv-7&quot; value=&quot;&quot; style=&quot;shape=rect;fillColor=#FA4D56;aspect=fixed;resizable=0;labelPosition=center;verticalLabelPosition=bottom;align=center;verticalAlign=top;strokeColor=none;fontSize=14;&quot; vertex=&quot;1&quot; parent=&quot;1&quot;&gt;&#10;          &lt;mxGeometry x=&quot;304&quot; y=&quot;240&quot; width=&quot;48&quot; height=&quot;48&quot; as=&quot;geometry&quot; /&gt;&#10;        &lt;/mxCell&gt;&#10;        &lt;mxCell id=&quot;7pOWgZdMyRwZphAq9Xxv-8&quot; value=&quot;&quot; style=&quot;fillColor=#ffffff;strokeColor=none;dashed=0;outlineConnect=0;html=1;labelPosition=center;verticalLabelPosition=bottom;verticalAlign=top;part=1;movable=0;resizable=0;rotatable=0;shape=mxgraph.ibm_cloud.vpn--connection&quot; vertex=&quot;1&quot; parent=&quot;7pOWgZdMyRwZphAq9Xxv-7&quot;&gt;&#10;          &lt;mxGeometry width=&quot;24&quot; height=&quot;24&quot; relative=&quot;1&quot; as=&quot;geometry&quot;&gt;&#10;            &lt;mxPoint x=&quot;12&quot; y=&quot;12&quot; as=&quot;offset&quot; /&gt;&#10;          &lt;/mxGeometry&gt;&#10;        &lt;/mxCell&gt;&#10;        &lt;mxCell id=&quot;7pOWgZdMyRwZphAq9Xxv-9&quot; value=&quot;&quot; style=&quot;shape=rect;fillColor=#FA4D56;aspect=fixed;resizable=0;labelPosition=center;verticalLabelPosition=bottom;align=center;verticalAlign=top;strokeColor=none;fontSize=14;&quot; vertex=&quot;1&quot; parent=&quot;1&quot;&gt;&#10;          &lt;mxGeometry x=&quot;500&quot; y=&quot;240&quot; width=&quot;48&quot; height=&quot;48&quot; as=&quot;geometry&quot; /&gt;&#10;        &lt;/mxCell&gt;&#10;        &lt;mxCell id=&quot;7pOWgZdMyRwZphAq9Xxv-10&quot; value=&quot;&quot; style=&quot;fillColor=#ffffff;strokeColor=none;dashed=0;outlineConnect=0;html=1;labelPosition=center;verticalLabelPosition=bottom;verticalAlign=top;part=1;movable=0;resizable=0;rotatable=0;shape=mxgraph.ibm_cloud.vpn--connection&quot; vertex=&quot;1&quot; parent=&quot;7pOWgZdMyRwZphAq9Xxv-9&quot;&gt;&#10;          &lt;mxGeometry width=&quot;24&quot; height=&quot;24&quot; relative=&quot;1&quot; as=&quot;geometry&quot;&gt;&#10;            &lt;mxPoint x=&quot;12&quot; y=&quot;12&quot; as=&quot;offset&quot; /&gt;&#10;          &lt;/mxGeometry&gt;&#10;        &lt;/mxCell&gt;&#10;        &lt;mxCell id=&quot;7pOWgZdMyRwZphAq9Xxv-11&quot; value=&quot;Origin Server&amp;#xa;with TLS mode&quot; style=&quot;shape=rect;fillColor=#198038;aspect=fixed;resizable=0;labelPosition=center;verticalLabelPosition=bottom;align=center;verticalAlign=top;strokeColor=none;fontSize=14;&quot; vertex=&quot;1&quot; parent=&quot;1&quot;&gt;&#10;          &lt;mxGeometry x=&quot;599&quot; y=&quot;240&quot; width=&quot;48&quot; height=&quot;48&quot; as=&quot;geometry&quot; /&gt;&#10;        &lt;/mxCell&gt;&#10;        &lt;mxCell id=&quot;7pOWgZdMyRwZphAq9Xxv-12&quot; value=&quot;&quot; style=&quot;fillColor=#ffffff;strokeColor=none;dashed=0;outlineConnect=0;html=1;labelPosition=center;verticalLabelPosition=bottom;verticalAlign=top;part=1;movable=0;resizable=0;rotatable=0;shape=mxgraph.ibm_cloud.ibm-cloud--virtual-server-classic&quot; vertex=&quot;1&quot; parent=&quot;7pOWgZdMyRwZphAq9Xxv-11&quot;&gt;&#10;          &lt;mxGeometry width=&quot;24&quot; height=&quot;24&quot; relative=&quot;1&quot; as=&quot;geometry&quot;&gt;&#10;            &lt;mxPoint x=&quot;12&quot; y=&quot;12&quot; as=&quot;offset&quot; /&gt;&#10;          &lt;/mxGeometry&gt;&#10;        &lt;/mxCell&gt;&#10;        &lt;mxCell id=&quot;7pOWgZdMyRwZphAq9Xxv-13&quot; value=&quot;&quot; style=&quot;rounded=0;whiteSpace=wrap;html=1;fillColor=default;strokeColor=none;&quot; vertex=&quot;1&quot; parent=&quot;1&quot;&gt;&#10;          &lt;mxGeometry y=&quot;170&quot; width=&quot;140&quot; height=&quot;210&quot; as=&quot;geometry&quot; /&gt;&#10;        &lt;/mxCell&gt;&#10;        &lt;mxCell id=&quot;7pOWgZdMyRwZphAq9Xxv-14&quot; value=&quot;&quot; style=&quot;rounded=0;whiteSpace=wrap;html=1;fillColor=default;strokeColor=none;&quot; vertex=&quot;1&quot; parent=&quot;1&quot;&gt;&#10;          &lt;mxGeometry x=&quot;710&quot; y=&quot;170&quot; width=&quot;140&quot; height=&quot;210&quot; as=&quot;geometry&quot; /&gt;&#10;        &lt;/mxCell&gt;&#10;      &lt;/root&gt;&#10;    &lt;/mxGraphModel&gt;&#10;  &lt;/diagram&gt;&#10;&lt;/mxfile&gt;&#10;"><defs/><rect fill="#ffffff" width="100%" height="100%" x="0" y="0" style="fill: rgb(255, 255, 255);"/><g><g data-cell-id="0"><g data-cell-id="1"><g data-cell-id="7pOWgZdMyRwZphAq9Xxv-1"><g><rect x="140" y="0" width="570" height="210" fill="#ffffff" stroke="none" pointer-events="all" style="fill: rgb(255, 255, 255);"/></g></g><g data-cell-id="7pOWgZdMyRwZphAq9Xxv-2"><g><path d="M 221 95.5 L 631 96.5" fill="none" stroke="#000000" stroke-miterlimit="10" pointer-events="stroke" style="stroke: rgb(0, 0, 0);"/></g></g><g data-cell-id="7pOWgZdMyRwZphAq9Xxv-3"><g><ellipse cx="228" cy="94" rx="24" ry="24" fill="#000000" stroke="none" pointer-events="all" style="fill: rgb(0, 0, 0);"/></g><g><g fill="#000000" font-family="Helvetica" text-anchor="middle" font-size="14px" style="fill: rgb(0, 0, 0);"><text x="228" y="138">Visitor</text></g></g><g data-cell-id="7pOWgZdMyRwZphAq9Xxv-4"><g><rect x="216" y="82" width="24" height="24" fill="none" stroke="none" pointer-events="all"/><rect x="216" y="82" width="0" height="0" fill="none" stroke="none" pointer-events="all"/><path d="M 228 85 C 230.07 85 231.75 86.68 231.75 88.75 C 231.75 90.82 230.07 92.5 228 92.5 C 225.93 92.5 224.25 90.82 224.25 88.75 C 224.25 86.68 225.93 85 228 85 M 228 83.5 C 225.1 83.5 222.75 85.85 222.75 88.75 C 222.75 91.65 225.1 94 228 94 C 230.9 94 233.25 91.65 233.25 88.75 C 233.25 85.85 230.9 83.5 228 83.5 Z M 235.5 104.5 L 234 104.5 L 234 100.75 C 234 98.68 232.32 97 230.25 97 L 225.75 97 C 223.68 97 222 98.68 222 100.75 L 222 104.5 L 220.5 104.5 L 220.5 100.75 C 220.5 97.85 222.85 95.5 225.75 95.5 L 230.25 95.5 C 233.15 95.5 235.5 97.85 235.5 100.75 Z" fill="#ffffff" stroke="none" pointer-events="all" style="fill: rgb(255, 255, 255);"/></g></g></g><g data-cell-id="7pOWgZdMyRwZphAq9Xxv-5"><g><rect x="402" y="70" width="48" height="48" fill="#1192e8" stroke="none" pointer-events="all" style="fill: rgb(17, 146, 232);"/></g><g><g fill="#000000" font-family="Helvetica" text-anchor="middle" font-size="14px" style="fill: rgb(0, 0, 0);"><text x="426" y="138">Cloud </text><text x="426" y="155">Internet </text><text x="426" y="172">Services</text></g></g><g data-cell-id="7pOWgZdMyRwZphAq9Xxv-6"><g><rect x="414" y="82" width="24" height="24" fill="none" stroke="none" pointer-events="all"/><rect x="414" y="82" width="0" height="0" fill="none" stroke="none" pointer-events="all"/><path d="M 434.25 98.5 C 433.72 98.5 433.2 98.73 432.83 99.02 L 428.92 96.7 C 428.92 96.55 429 96.4 429 96.25 C 429 96.1 429 95.95 428.92 95.8 L 432.83 93.48 C 433.2 93.77 433.72 94 434.25 94 C 435.53 94 436.5 93.02 436.5 91.75 C 436.5 90.48 435.53 89.5 434.25 89.5 C 432.97 89.5 432 90.48 432 91.75 C 432 91.9 432 92.05 432.08 92.2 L 428.17 94.52 C 427.8 94.23 427.28 94 426.75 94 C 425.47 94 424.5 94.98 424.5 96.25 C 424.5 97.52 425.47 98.5 426.75 98.5 C 427.28 98.5 427.8 98.27 428.17 97.98 L 432.08 100.3 C 432.08 100.45 432 100.6 432 100.75 C 432 102.02 432.97 103 434.25 103 C 435.53 103 436.5 102.02 436.5 100.75 C 436.5 99.48 435.53 98.5 434.25 98.5 Z M 434.25 91 C 434.7 91 435 91.3 435 91.75 C 435 92.2 434.7 92.5 434.25 92.5 C 433.8 92.5 433.5 92.2 433.5 91.75 C 433.5 91.3 433.8 91 434.25 91 Z M 426.75 97 C 426.3 97 426 96.7 426 96.25 C 426 95.8 426.3 95.5 426.75 95.5 C 427.2 95.5 427.5 95.8 427.5 96.25 C 427.5 96.7 427.2 97 426.75 97 Z M 434.25 101.5 C 433.8 101.5 433.5 101.2 433.5 100.75 C 433.5 100.3 433.8 100 434.25 100 C 434.7 100 435 100.3 435 100.75 C 435 101.2 434.7 101.5 434.25 101.5 Z" fill="#ffffff" stroke="none" pointer-events="all" style="fill: rgb(255, 255, 255);"/><path d="M 428.25 100.75 L 420.38 100.75 C 418.13 100.75 416.25 98.88 416.25 96.63 C 416.25 94.6 417.67 92.95 419.63 92.58 L 420.6 92.42 L 420.83 91.45 C 421.42 88.52 423.9 86.5 426.75 86.5 C 427.13 86.5 427.5 86.5 427.88 86.58 C 429.08 86.8 430.13 87.4 431.03 88.23 L 432.08 87.17 C 431.03 86.13 429.67 85.38 428.17 85.15 C 427.72 85.08 427.2 85 426.75 85 C 423.22 85 420.08 87.48 419.4 91.08 C 416.7 91.6 414.75 93.92 414.75 96.63 C 414.75 99.7 417.22 102.25 420.38 102.25 L 428.25 102.25 L 428.25 100.75 Z" fill="#ffffff" stroke="none" pointer-events="all" style="fill: rgb(255, 255, 255);"/></g></g></g><g data-cell-id="7pOWgZdMyRwZphAq9Xxv-7"><g><rect x="304" y="70" width="48" height="48" fill="#fa4d56" stroke="none" pointer-events="all" style="fill: rgb(250, 77, 86);"/></g><g data-cell-id="7pOWgZdMyRwZphAq9Xxv-8"><g><rect x="316" y="82" width="24" height="24" fill="none" stroke="none" pointer-events="all"/><rect x="316" y="82" width="0" height="0" fill="none" stroke="none" pointer-events="all"/><path d="M 337 87.25 C 336.47 87.25 335.97 87.54 335.71 88 L 332.5 88 C 332.5 85.51 330.49 83.5 328 83.5 C 325.51 83.5 323.5 85.51 323.5 88 L 320.29 88 C 319.95 87.41 319.26 87.13 318.6 87.3 C 317.95 87.48 317.49 88.07 317.49 88.75 C 317.49 89.43 317.95 90.02 318.6 90.2 C 319.26 90.37 319.95 90.09 320.29 89.5 L 323.5 89.5 L 323.5 92.5 L 322 92.5 C 321.17 92.5 320.5 93.17 320.5 94 L 320.5 103 C 320.5 103.83 321.17 104.5 322 104.5 L 334 104.5 C 334.83 104.5 335.5 103.83 335.5 103 L 335.5 94 C 335.5 93.17 334.83 92.5 334 92.5 L 332.5 92.5 L 332.5 89.5 L 335.71 89.5 C 336.07 90.13 336.84 90.4 337.52 90.15 C 338.2 89.9 338.61 89.2 338.48 88.48 C 338.35 87.77 337.73 87.25 337 87.25 M 325 88 C 325 86.34 326.34 85 328 85 C 329.66 85 331 86.34 331 88 L 331 92.5 L 325 92.5 L 325 89.5 L 328.75 89.5 L 328.75 88 Z M 334 94 L 334 103 L 322 103 L 322 94 Z" fill="#ffffff" stroke="none" pointer-events="all" style="fill: rgb(255, 255, 255);"/></g></g></g><g data-cell-id="7pOWgZdMyRwZphAq9Xxv-9"><g><rect x="500" y="70" width="48" height="48" fill="#fa4d56" stroke="none" pointer-events="all" style="fill: rgb(250, 77, 86);"/></g><g data-cell-id="7pOWgZdMyRwZphAq9Xxv-10"><g><rect x="512" y="82" width="24" height="24" fill="none" stroke="none" pointer-events="all"/><rect x="512" y="82" width="0" height="0" fill="none" stroke="none" pointer-events="all"/><path d="M 533 87.25 C 532.47 87.25 531.97 87.54 531.71 88 L 528.5 88 C 528.5 85.51 526.49 83.5 524 83.5 C 521.51 83.5 519.5 85.51 519.5 88 L 516.29 88 C 515.95 87.41 515.26 87.13 514.6 87.3 C 513.95 87.48 513.49 88.07 513.49 88.75 C 513.49 89.43 513.95 90.02 514.6 90.2 C 515.26 90.37 515.95 90.09 516.29 89.5 L 519.5 89.5 L 519.5 92.5 L 518 92.5 C 517.17 92.5 516.5 93.17 516.5 94 L 516.5 103 C 516.5 103.83 517.17 104.5 518 104.5 L 530 104.5 C 530.83 104.5 531.5 103.83 531.5 103 L 531.5 94 C 531.5 93.17 530.83 92.5 530 92.5 L 528.5 92.5 L 528.5 89.5 L 531.71 89.5 C 532.07 90.13 532.84 90.4 533.52 90.15 C 534.2 89.9 534.61 89.2 534.48 88.48 C 534.35 87.77 533.73 87.25 533 87.25 M 521 88 C 521 86.34 522.34 85 524 85 C 525.66 85 527 86.34 527 88 L 527 92.5 L 521 92.5 L 521 89.5 L 524.75 89.5 L 524.75 88 Z M 530 94 L 530 103 L 518 103 L 518 94 Z" fill="#ffffff" stroke="none" pointer-events="all" style="fill: rgb(255, 255, 255);"/></g></g></g><g data-cell-id="7pOWgZdMyRwZphAq9Xxv-11"><g><rect x="599" y="70" width="48" height="48" fill="#198038" stroke="none" pointer-events="all" style="fill: rgb(25, 128, 56);"/></g><g><g fill="#000000" font-family="Helvetica" text-anchor="middle" font-size="14px" style="fill: rgb(0, 0, 0);"><text x="623" y="138">Origin Server</text><text x="623" y="155">with TLS mode</text></g></g><g data-cell-id="7pOWgZdMyRwZphAq9Xxv-12"><g><rect x="611" y="82" width="24" height="24" fill="none" stroke="none" pointer-events="all"/><rect x="611" y="82" width="0" height="0" fill="none" stroke="none" pointer-events="all"/><ellipse cx="617.75" cy="101.5" rx="0.75" ry="0.75" fill="#ffffff" stroke="none" pointer-events="all" style="fill: rgb(255, 255, 255);"/><path d="M 630.5 98.5 L 626.75 98.5 L 626.75 100 L 630.5 100 L 630.5 103 L 615.5 103 L 615.5 100 L 622.25 100 C 623.08 100 623.75 99.33 623.75 98.5 L 623.75 91.62 L 625.69 93.57 L 626.75 92.5 L 623 88.75 L 619.25 92.5 L 620.31 93.56 L 622.25 91.62 L 622.25 98.5 L 615.5 98.5 C 614.67 98.5 614 99.17 614 100 L 614 103 C 614 103.83 614.67 104.5 615.5 104.5 L 630.5 104.5 C 631.33 104.5 632 103.83 632 103 L 632 100 C 632 99.17 631.33 98.5 630.5 98.5 Z" fill="#ffffff" stroke="none" pointer-events="all" style="fill: rgb(255, 255, 255);"/><path d="M 628.81 88.04 C 628.15 85.41 625.75 83.5 623 83.5 C 620.25 83.5 617.85 85.41 617.19 88.04 C 614.97 88.32 613.25 90.21 613.25 92.5 C 613.25 94.98 615.27 97 617.75 97 L 619.25 97 L 619.25 95.5 L 617.75 95.5 C 616.09 95.5 614.75 94.16 614.75 92.5 C 614.75 90.86 616.08 89.52 617.71 89.5 L 618.45 89.51 L 618.55 88.86 C 618.87 86.66 620.78 85 623 85 C 625.22 85 627.13 86.66 627.45 88.86 L 627.54 89.52 L 628.2 89.51 L 628.3 89.5 C 629.93 89.52 631.25 90.86 631.25 92.5 C 631.25 94.16 629.91 95.5 628.25 95.5 L 626.75 95.5 L 626.75 97 L 628.25 97 C 630.73 97 632.75 94.98 632.75 92.5 C 632.75 90.21 631.03 88.32 628.81 88.04 Z" fill="#ffffff" stroke="none" pointer-events="all" style="fill: rgb(255, 255, 255);"/></g></g></g><g data-cell-id="7pOWgZdMyRwZphAq9Xxv-13"><g><rect x="0" y="0" width="140" height="210" fill="#ffffff" stroke="none" pointer-events="all" style="fill: rgb(255, 255, 255);"/></g></g><g data-cell-id="7pOWgZdMyRwZphAq9Xxv-14"><g><rect x="710" y="0" width="140" height="210" fill="#ffffff" stroke="none" pointer-events="all" style="fill: rgb(255, 255, 255);"/></g></g></g></g></g></svg>