<?xml version="1.0" encoding="UTF-8"?>
<!-- Do not edit this file with editors other than draw.io -->
<!DOCTYPE svg PUBLIC "-//W3C//DTD SVG 1.1//EN" "http://www.w3.org/Graphics/SVG/1.1/DTD/svg11.dtd">
<svg xmlns="http://www.w3.org/2000/svg" style="background: #ffffff; background-color: #ffffff; color-scheme: light;" xmlns:xlink="http://www.w3.org/1999/xlink" version="1.1" width="670px" height="291px" viewBox="-0.5 -0.5 670 291" content="&lt;mxfile host=&quot;app.diagrams.net&quot; agent=&quot;Mozilla/5.0 (Macintosh; Intel Mac OS X 10_15_7) AppleWebKit/537.36 (KHTML, like Gecko) Chrome/138.0.0.0 Safari/537.36 Edg/138.0.0.0&quot; version=&quot;27.2.0&quot; scale=&quot;1&quot; border=&quot;0&quot;&gt;&#10;  &lt;diagram name=&quot;Page-1&quot; id=&quot;VMQzMJBvYHzRfyUvyS4v&quot;&gt;&#10;    &lt;mxGraphModel dx=&quot;1226&quot; dy=&quot;698&quot; grid=&quot;1&quot; gridSize=&quot;10&quot; guides=&quot;1&quot; tooltips=&quot;1&quot; connect=&quot;1&quot; arrows=&quot;1&quot; fold=&quot;1&quot; page=&quot;1&quot; pageScale=&quot;1&quot; pageWidth=&quot;850&quot; pageHeight=&quot;1100&quot; math=&quot;0&quot; shadow=&quot;0&quot;&gt;&#10;      &lt;root&gt;&#10;        &lt;mxCell id=&quot;0&quot; /&gt;&#10;        &lt;mxCell id=&quot;1&quot; parent=&quot;0&quot; /&gt;&#10;        &lt;mxCell id=&quot;dlb-fHAUYnm78_AOpvT9-1&quot; value=&quot;&quot; style=&quot;rounded=0;whiteSpace=wrap;html=1;fillColor=default;strokeColor=none;&quot; vertex=&quot;1&quot; parent=&quot;1&quot;&gt;&#10;          &lt;mxGeometry x=&quot;90&quot; y=&quot;149&quot; width=&quot;670&quot; height=&quot;291&quot; as=&quot;geometry&quot; /&gt;&#10;        &lt;/mxCell&gt;&#10;        &lt;mxCell id=&quot;LddF3R96ZCdnI7Bx30d1-34&quot; value=&quot;&quot; style=&quot;endArrow=none;html=1;rounded=0;&quot; parent=&quot;1&quot; edge=&quot;1&quot;&gt;&#10;          &lt;mxGeometry width=&quot;50&quot; height=&quot;50&quot; relative=&quot;1&quot; as=&quot;geometry&quot;&gt;&#10;            &lt;mxPoint x=&quot;221&quot; y=&quot;285.5&quot; as=&quot;sourcePoint&quot; /&gt;&#10;            &lt;mxPoint x=&quot;631&quot; y=&quot;286.5&quot; as=&quot;targetPoint&quot; /&gt;&#10;          &lt;/mxGeometry&gt;&#10;        &lt;/mxCell&gt;&#10;        &lt;mxCell id=&quot;LddF3R96ZCdnI7Bx30d1-35&quot; value=&quot;Visitor&quot; style=&quot;shape=ellipse;fillColor=#000000;aspect=fixed;resizable=0;labelPosition=center;verticalLabelPosition=bottom;align=center;verticalAlign=top;strokeColor=none;fontSize=14;&quot; parent=&quot;1&quot; vertex=&quot;1&quot;&gt;&#10;          &lt;mxGeometry x=&quot;204&quot; y=&quot;260&quot; width=&quot;48&quot; height=&quot;48&quot; as=&quot;geometry&quot; /&gt;&#10;        &lt;/mxCell&gt;&#10;        &lt;mxCell id=&quot;LddF3R96ZCdnI7Bx30d1-36&quot; value=&quot;&quot; style=&quot;fillColor=#ffffff;strokeColor=none;dashed=0;outlineConnect=0;html=1;labelPosition=center;verticalLabelPosition=bottom;verticalAlign=top;part=1;movable=0;resizable=0;rotatable=0;shape=mxgraph.ibm_cloud.user&quot; parent=&quot;LddF3R96ZCdnI7Bx30d1-35&quot; vertex=&quot;1&quot;&gt;&#10;          &lt;mxGeometry width=&quot;24&quot; height=&quot;24&quot; relative=&quot;1&quot; as=&quot;geometry&quot;&gt;&#10;            &lt;mxPoint x=&quot;12&quot; y=&quot;12&quot; as=&quot;offset&quot; /&gt;&#10;          &lt;/mxGeometry&gt;&#10;        &lt;/mxCell&gt;&#10;        &lt;mxCell id=&quot;LddF3R96ZCdnI7Bx30d1-37&quot; value=&quot;Cloud &amp;#xa;Internet &amp;#xa;Services&quot; style=&quot;shape=rect;fillColor=#1192E8;aspect=fixed;resizable=0;labelPosition=center;verticalLabelPosition=bottom;align=center;verticalAlign=top;strokeColor=none;fontSize=14;&quot; parent=&quot;1&quot; vertex=&quot;1&quot;&gt;&#10;          &lt;mxGeometry x=&quot;402&quot; y=&quot;260&quot; width=&quot;48&quot; height=&quot;48&quot; as=&quot;geometry&quot; /&gt;&#10;        &lt;/mxCell&gt;&#10;        &lt;mxCell id=&quot;LddF3R96ZCdnI7Bx30d1-38&quot; value=&quot;&quot; style=&quot;fillColor=#ffffff;strokeColor=none;dashed=0;outlineConnect=0;html=1;labelPosition=center;verticalLabelPosition=bottom;verticalAlign=top;part=1;movable=0;resizable=0;rotatable=0;shape=mxgraph.ibm_cloud.ibm-cloud--internet-services&quot; parent=&quot;LddF3R96ZCdnI7Bx30d1-37&quot; vertex=&quot;1&quot;&gt;&#10;          &lt;mxGeometry width=&quot;24&quot; height=&quot;24&quot; relative=&quot;1&quot; as=&quot;geometry&quot;&gt;&#10;            &lt;mxPoint x=&quot;12&quot; y=&quot;12&quot; as=&quot;offset&quot; /&gt;&#10;          &lt;/mxGeometry&gt;&#10;        &lt;/mxCell&gt;&#10;        &lt;mxCell id=&quot;LddF3R96ZCdnI7Bx30d1-39&quot; value=&quot;&quot; style=&quot;shape=rect;fillColor=#FA4D56;aspect=fixed;resizable=0;labelPosition=center;verticalLabelPosition=bottom;align=center;verticalAlign=top;strokeColor=none;fontSize=14;&quot; parent=&quot;1&quot; vertex=&quot;1&quot;&gt;&#10;          &lt;mxGeometry x=&quot;304&quot; y=&quot;260&quot; width=&quot;48&quot; height=&quot;48&quot; as=&quot;geometry&quot; /&gt;&#10;        &lt;/mxCell&gt;&#10;        &lt;mxCell id=&quot;LddF3R96ZCdnI7Bx30d1-40&quot; value=&quot;&quot; style=&quot;fillColor=#ffffff;strokeColor=none;dashed=0;outlineConnect=0;html=1;labelPosition=center;verticalLabelPosition=bottom;verticalAlign=top;part=1;movable=0;resizable=0;rotatable=0;shape=mxgraph.ibm_cloud.vpn--connection&quot; parent=&quot;LddF3R96ZCdnI7Bx30d1-39&quot; vertex=&quot;1&quot;&gt;&#10;          &lt;mxGeometry width=&quot;24&quot; height=&quot;24&quot; relative=&quot;1&quot; as=&quot;geometry&quot;&gt;&#10;            &lt;mxPoint x=&quot;12&quot; y=&quot;12&quot; as=&quot;offset&quot; /&gt;&#10;          &lt;/mxGeometry&gt;&#10;        &lt;/mxCell&gt;&#10;        &lt;mxCell id=&quot;LddF3R96ZCdnI7Bx30d1-41&quot; value=&quot;&quot; style=&quot;shape=rect;fillColor=#FA4D56;aspect=fixed;resizable=0;labelPosition=center;verticalLabelPosition=bottom;align=center;verticalAlign=top;strokeColor=none;fontSize=14;&quot; parent=&quot;1&quot; vertex=&quot;1&quot;&gt;&#10;          &lt;mxGeometry x=&quot;500&quot; y=&quot;260&quot; width=&quot;48&quot; height=&quot;48&quot; as=&quot;geometry&quot; /&gt;&#10;        &lt;/mxCell&gt;&#10;        &lt;mxCell id=&quot;LddF3R96ZCdnI7Bx30d1-42&quot; value=&quot;&quot; style=&quot;fillColor=#ffffff;strokeColor=none;dashed=0;outlineConnect=0;html=1;labelPosition=center;verticalLabelPosition=bottom;verticalAlign=top;part=1;movable=0;resizable=0;rotatable=0;shape=mxgraph.ibm_cloud.vpn--connection&quot; parent=&quot;LddF3R96ZCdnI7Bx30d1-41&quot; vertex=&quot;1&quot;&gt;&#10;          &lt;mxGeometry width=&quot;24&quot; height=&quot;24&quot; relative=&quot;1&quot; as=&quot;geometry&quot;&gt;&#10;            &lt;mxPoint x=&quot;12&quot; y=&quot;12&quot; as=&quot;offset&quot; /&gt;&#10;          &lt;/mxGeometry&gt;&#10;        &lt;/mxCell&gt;&#10;        &lt;mxCell id=&quot;LddF3R96ZCdnI7Bx30d1-43&quot; value=&quot;Origin Server&amp;#xa;with TLS mode&quot; style=&quot;shape=rect;fillColor=#198038;aspect=fixed;resizable=0;labelPosition=center;verticalLabelPosition=bottom;align=center;verticalAlign=top;strokeColor=none;fontSize=14;&quot; parent=&quot;1&quot; vertex=&quot;1&quot;&gt;&#10;          &lt;mxGeometry x=&quot;599&quot; y=&quot;260&quot; width=&quot;48&quot; height=&quot;48&quot; as=&quot;geometry&quot; /&gt;&#10;        &lt;/mxCell&gt;&#10;        &lt;mxCell id=&quot;LddF3R96ZCdnI7Bx30d1-44&quot; value=&quot;&quot; style=&quot;fillColor=#ffffff;strokeColor=none;dashed=0;outlineConnect=0;html=1;labelPosition=center;verticalLabelPosition=bottom;verticalAlign=top;part=1;movable=0;resizable=0;rotatable=0;shape=mxgraph.ibm_cloud.ibm-cloud--virtual-server-classic&quot; parent=&quot;LddF3R96ZCdnI7Bx30d1-43&quot; vertex=&quot;1&quot;&gt;&#10;          &lt;mxGeometry width=&quot;24&quot; height=&quot;24&quot; relative=&quot;1&quot; as=&quot;geometry&quot;&gt;&#10;            &lt;mxPoint x=&quot;12&quot; y=&quot;12&quot; as=&quot;offset&quot; /&gt;&#10;          &lt;/mxGeometry&gt;&#10;        &lt;/mxCell&gt;&#10;      &lt;/root&gt;&#10;    &lt;/mxGraphModel&gt;&#10;  &lt;/diagram&gt;&#10;&lt;/mxfile&gt;&#10;"><defs/><rect fill="#ffffff" width="100%" height="100%" x="0" y="0" style="fill: rgb(255, 255, 255);"/><g><g data-cell-id="0"><g data-cell-id="1"><g data-cell-id="dlb-fHAUYnm78_AOpvT9-1"><g><rect x="0" y="0" width="670" height="291" fill="#ffffff" stroke="none" pointer-events="all" style="fill: rgb(255, 255, 255);"/></g></g><g data-cell-id="LddF3R96ZCdnI7Bx30d1-34"><g><path d="M 131 136.5 L 541 137.5" fill="none" stroke="#000000" stroke-miterlimit="10" pointer-events="stroke" style="stroke: rgb(0, 0, 0);"/></g></g><g data-cell-id="LddF3R96ZCdnI7Bx30d1-35"><g><ellipse cx="138" cy="135" rx="24" ry="24" fill="#000000" stroke="none" pointer-events="all" style="fill: rgb(0, 0, 0);"/></g><g><g fill="#000000" font-family="Helvetica" text-anchor="middle" font-size="14px" style="fill: rgb(0, 0, 0);"><text x="138" y="179">Visitor</text></g></g><g data-cell-id="LddF3R96ZCdnI7Bx30d1-36"><g><rect x="126" y="123" width="24" height="24" fill="none" stroke="none" pointer-events="all"/><rect x="126" y="123" width="0" height="0" fill="none" stroke="none" pointer-events="all"/><path d="M 138 126 C 140.07 126 141.75 127.68 141.75 129.75 C 141.75 131.82 140.07 133.5 138 133.5 C 135.93 133.5 134.25 131.82 134.25 129.75 C 134.25 127.68 135.93 126 138 126 M 138 124.5 C 135.1 124.5 132.75 126.85 132.75 129.75 C 132.75 132.65 135.1 135 138 135 C 140.9 135 143.25 132.65 143.25 129.75 C 143.25 126.85 140.9 124.5 138 124.5 Z M 145.5 145.5 L 144 145.5 L 144 141.75 C 144 139.68 142.32 138 140.25 138 L 135.75 138 C 133.68 138 132 139.68 132 141.75 L 132 145.5 L 130.5 145.5 L 130.5 141.75 C 130.5 138.85 132.85 136.5 135.75 136.5 L 140.25 136.5 C 143.15 136.5 145.5 138.85 145.5 141.75 Z" fill="#ffffff" stroke="none" pointer-events="all" style="fill: rgb(255, 255, 255);"/></g></g></g><g data-cell-id="LddF3R96ZCdnI7Bx30d1-37"><g><rect x="312" y="111" width="48" height="48" fill="#1192e8" stroke="none" pointer-events="all" style="fill: rgb(17, 146, 232);"/></g><g><g fill="#000000" font-family="Helvetica" text-anchor="middle" font-size="14px" style="fill: rgb(0, 0, 0);"><text x="336" y="179">Cloud </text><text x="336" y="196">Internet </text><text x="336" y="213">Services</text></g></g><g data-cell-id="LddF3R96ZCdnI7Bx30d1-38"><g><rect x="324" y="123" width="24" height="24" fill="none" stroke="none" pointer-events="all"/><rect x="324" y="123" width="0" height="0" fill="none" stroke="none" pointer-events="all"/><path d="M 344.25 139.5 C 343.72 139.5 343.2 139.73 342.83 140.02 L 338.92 137.7 C 338.92 137.55 339 137.4 339 137.25 C 339 137.1 339 136.95 338.92 136.8 L 342.83 134.48 C 343.2 134.77 343.72 135 344.25 135 C 345.53 135 346.5 134.02 346.5 132.75 C 346.5 131.48 345.53 130.5 344.25 130.5 C 342.97 130.5 342 131.48 342 132.75 C 342 132.9 342 133.05 342.08 133.2 L 338.17 135.52 C 337.8 135.23 337.28 135 336.75 135 C 335.47 135 334.5 135.98 334.5 137.25 C 334.5 138.52 335.47 139.5 336.75 139.5 C 337.28 139.5 337.8 139.27 338.17 138.98 L 342.08 141.3 C 342.08 141.45 342 141.6 342 141.75 C 342 143.02 342.97 144 344.25 144 C 345.53 144 346.5 143.02 346.5 141.75 C 346.5 140.48 345.53 139.5 344.25 139.5 Z M 344.25 132 C 344.7 132 345 132.3 345 132.75 C 345 133.2 344.7 133.5 344.25 133.5 C 343.8 133.5 343.5 133.2 343.5 132.75 C 343.5 132.3 343.8 132 344.25 132 Z M 336.75 138 C 336.3 138 336 137.7 336 137.25 C 336 136.8 336.3 136.5 336.75 136.5 C 337.2 136.5 337.5 136.8 337.5 137.25 C 337.5 137.7 337.2 138 336.75 138 Z M 344.25 142.5 C 343.8 142.5 343.5 142.2 343.5 141.75 C 343.5 141.3 343.8 141 344.25 141 C 344.7 141 345 141.3 345 141.75 C 345 142.2 344.7 142.5 344.25 142.5 Z" fill="#ffffff" stroke="none" pointer-events="all" style="fill: rgb(255, 255, 255);"/><path d="M 338.25 141.75 L 330.38 141.75 C 328.13 141.75 326.25 139.88 326.25 137.63 C 326.25 135.6 327.67 133.95 329.63 133.58 L 330.6 133.42 L 330.83 132.45 C 331.42 129.52 333.9 127.5 336.75 127.5 C 337.13 127.5 337.5 127.5 337.88 127.58 C 339.08 127.8 340.13 128.4 341.03 129.23 L 342.08 128.17 C 341.03 127.13 339.67 126.38 338.17 126.15 C 337.72 126.08 337.2 126 336.75 126 C 333.22 126 330.08 128.48 329.4 132.08 C 326.7 132.6 324.75 134.92 324.75 137.63 C 324.75 140.7 327.22 143.25 330.38 143.25 L 338.25 143.25 L 338.25 141.75 Z" fill="#ffffff" stroke="none" pointer-events="all" style="fill: rgb(255, 255, 255);"/></g></g></g><g data-cell-id="LddF3R96ZCdnI7Bx30d1-39"><g><rect x="214" y="111" width="48" height="48" fill="#fa4d56" stroke="none" pointer-events="all" style="fill: rgb(250, 77, 86);"/></g><g data-cell-id="LddF3R96ZCdnI7Bx30d1-40"><g><rect x="226" y="123" width="24" height="24" fill="none" stroke="none" pointer-events="all"/><rect x="226" y="123" width="0" height="0" fill="none" stroke="none" pointer-events="all"/><path d="M 247 128.25 C 246.47 128.25 245.97 128.54 245.71 129 L 242.5 129 C 242.5 126.51 240.49 124.5 238 124.5 C 235.51 124.5 233.5 126.51 233.5 129 L 230.29 129 C 229.95 128.41 229.26 128.13 228.6 128.3 C 227.95 128.48 227.49 129.07 227.49 129.75 C 227.49 130.43 227.95 131.02 228.6 131.2 C 229.26 131.37 229.95 131.09 230.29 130.5 L 233.5 130.5 L 233.5 133.5 L 232 133.5 C 231.17 133.5 230.5 134.17 230.5 135 L 230.5 144 C 230.5 144.83 231.17 145.5 232 145.5 L 244 145.5 C 244.83 145.5 245.5 144.83 245.5 144 L 245.5 135 C 245.5 134.17 244.83 133.5 244 133.5 L 242.5 133.5 L 242.5 130.5 L 245.71 130.5 C 246.07 131.13 246.84 131.4 247.52 131.15 C 248.2 130.9 248.61 130.2 248.48 129.48 C 248.35 128.77 247.73 128.25 247 128.25 M 235 129 C 235 127.34 236.34 126 238 126 C 239.66 126 241 127.34 241 129 L 241 133.5 L 235 133.5 L 235 130.5 L 238.75 130.5 L 238.75 129 Z M 244 135 L 244 144 L 232 144 L 232 135 Z" fill="#ffffff" stroke="none" pointer-events="all" style="fill: rgb(255, 255, 255);"/></g></g></g><g data-cell-id="LddF3R96ZCdnI7Bx30d1-41"><g><rect x="410" y="111" width="48" height="48" fill="#fa4d56" stroke="none" pointer-events="all" style="fill: rgb(250, 77, 86);"/></g><g data-cell-id="LddF3R96ZCdnI7Bx30d1-42"><g><rect x="422" y="123" width="24" height="24" fill="none" stroke="none" pointer-events="all"/><rect x="422" y="123" width="0" height="0" fill="none" stroke="none" pointer-events="all"/><path d="M 443 128.25 C 442.47 128.25 441.97 128.54 441.71 129 L 438.5 129 C 438.5 126.51 436.49 124.5 434 124.5 C 431.51 124.5 429.5 126.51 429.5 129 L 426.29 129 C 425.95 128.41 425.26 128.13 424.6 128.3 C 423.95 128.48 423.49 129.07 423.49 129.75 C 423.49 130.43 423.95 131.02 424.6 131.2 C 425.26 131.37 425.95 131.09 426.29 130.5 L 429.5 130.5 L 429.5 133.5 L 428 133.5 C 427.17 133.5 426.5 134.17 426.5 135 L 426.5 144 C 426.5 144.83 427.17 145.5 428 145.5 L 440 145.5 C 440.83 145.5 441.5 144.83 441.5 144 L 441.5 135 C 441.5 134.17 440.83 133.5 440 133.5 L 438.5 133.5 L 438.5 130.5 L 441.71 130.5 C 442.07 131.13 442.84 131.4 443.52 131.15 C 444.2 130.9 444.61 130.2 444.48 129.48 C 444.35 128.77 443.73 128.25 443 128.25 M 431 129 C 431 127.34 432.34 126 434 126 C 435.66 126 437 127.34 437 129 L 437 133.5 L 431 133.5 L 431 130.5 L 434.75 130.5 L 434.75 129 Z M 440 135 L 440 144 L 428 144 L 428 135 Z" fill="#ffffff" stroke="none" pointer-events="all" style="fill: rgb(255, 255, 255);"/></g></g></g><g data-cell-id="LddF3R96ZCdnI7Bx30d1-43"><g><rect x="509" y="111" width="48" height="48" fill="#198038" stroke="none" pointer-events="all" style="fill: rgb(25, 128, 56);"/></g><g><g fill="#000000" font-family="Helvetica" text-anchor="middle" font-size="14px" style="fill: rgb(0, 0, 0);"><text x="533" y="179">Origin Server</text><text x="533" y="196">with TLS mode</text></g></g><g data-cell-id="LddF3R96ZCdnI7Bx30d1-44"><g><rect x="521" y="123" width="24" height="24" fill="none" stroke="none" pointer-events="all"/><rect x="521" y="123" width="0" height="0" fill="none" stroke="none" pointer-events="all"/><ellipse cx="527.75" cy="142.5" rx="0.75" ry="0.75" fill="#ffffff" stroke="none" pointer-events="all" style="fill: rgb(255, 255, 255);"/><path d="M 540.5 139.5 L 536.75 139.5 L 536.75 141 L 540.5 141 L 540.5 144 L 525.5 144 L 525.5 141 L 532.25 141 C 533.08 141 533.75 140.33 533.75 139.5 L 533.75 132.62 L 535.69 134.57 L 536.75 133.5 L 533 129.75 L 529.25 133.5 L 530.31 134.56 L 532.25 132.62 L 532.25 139.5 L 525.5 139.5 C 524.67 139.5 524 140.17 524 141 L 524 144 C 524 144.83 524.67 145.5 525.5 145.5 L 540.5 145.5 C 541.33 145.5 542 144.83 542 144 L 542 141 C 542 140.17 541.33 139.5 540.5 139.5 Z" fill="#ffffff" stroke="none" pointer-events="all" style="fill: rgb(255, 255, 255);"/><path d="M 538.81 129.04 C 538.15 126.41 535.75 124.5 533 124.5 C 530.25 124.5 527.85 126.41 527.19 129.04 C 524.97 129.32 523.25 131.21 523.25 133.5 C 523.25 135.98 525.27 138 527.75 138 L 529.25 138 L 529.25 136.5 L 527.75 136.5 C 526.09 136.5 524.75 135.16 524.75 133.5 C 524.75 131.86 526.08 130.52 527.71 130.5 L 528.45 130.51 L 528.55 129.86 C 528.87 127.66 530.78 126 533 126 C 535.22 126 537.13 127.66 537.45 129.86 L 537.54 130.52 L 538.2 130.51 L 538.3 130.5 C 539.93 130.52 541.25 131.86 541.25 133.5 C 541.25 135.16 539.91 136.5 538.25 136.5 L 536.75 136.5 L 536.75 138 L 538.25 138 C 540.73 138 542.75 135.98 542.75 133.5 C 542.75 131.21 541.03 129.32 538.81 129.04 Z" fill="#ffffff" stroke="none" pointer-events="all" style="fill: rgb(255, 255, 255);"/></g></g></g></g></g></g></svg>