<?xml version="1.0" encoding="UTF-8"?>
<!-- Do not edit this file with editors other than draw.io -->
<!DOCTYPE svg PUBLIC "-//W3C//DTD SVG 1.1//EN" "http://www.w3.org/Graphics/SVG/1.1/DTD/svg11.dtd">
<svg xmlns="http://www.w3.org/2000/svg" xmlns:xlink="http://www.w3.org/1999/xlink" version="1.1" width="610px" height="280px" viewBox="-0.5 -0.5 610 280" content="&lt;mxfile host=&quot;Electron&quot; agent=&quot;Mozilla/5.0 (Macintosh; Intel Mac OS X 10_15_7) AppleWebKit/537.36 (KHTML, like Gecko) draw.io/25.0.2 Chrome/128.0.6613.186 Electron/32.2.5 Safari/537.36&quot; version=&quot;25.0.2&quot; scale=&quot;1&quot; border=&quot;0&quot;&gt;&#10;  &lt;diagram name=&quot;Page-1&quot; id=&quot;8wTxipBLSAse1nOkmh9F&quot;&gt;&#10;    &lt;mxGraphModel dx=&quot;1578&quot; dy=&quot;1638&quot; grid=&quot;1&quot; gridSize=&quot;10&quot; guides=&quot;1&quot; tooltips=&quot;1&quot; connect=&quot;1&quot; arrows=&quot;1&quot; fold=&quot;1&quot; page=&quot;1&quot; pageScale=&quot;1&quot; pageWidth=&quot;850&quot; pageHeight=&quot;1100&quot; math=&quot;0&quot; shadow=&quot;0&quot;&gt;&#10;      &lt;root&gt;&#10;        &lt;mxCell id=&quot;0&quot; /&gt;&#10;        &lt;mxCell id=&quot;1&quot; parent=&quot;0&quot; /&gt;&#10;        &lt;mxCell id=&quot;p1qStdH1ee6DEX6qfPYa-1&quot; value=&quot;&quot; style=&quot;rounded=0;whiteSpace=wrap;html=1;strokeColor=none;&quot; vertex=&quot;1&quot; parent=&quot;1&quot;&gt;&#10;          &lt;mxGeometry x=&quot;-53&quot; y=&quot;-60&quot; width=&quot;610&quot; height=&quot;280&quot; as=&quot;geometry&quot; /&gt;&#10;        &lt;/mxCell&gt;&#10;        &lt;mxCell id=&quot;hN0CreysbBGn29C-ZNiO-8&quot; value=&quot;&quot; style=&quot;endArrow=none;html=1;rounded=0;&quot; parent=&quot;1&quot; edge=&quot;1&quot;&gt;&#10;          &lt;mxGeometry width=&quot;50&quot; height=&quot;50&quot; relative=&quot;1&quot; as=&quot;geometry&quot;&gt;&#10;            &lt;mxPoint x=&quot;47&quot; y=&quot;53.5&quot; as=&quot;sourcePoint&quot; /&gt;&#10;            &lt;mxPoint x=&quot;457&quot; y=&quot;54.5&quot; as=&quot;targetPoint&quot; /&gt;&#10;          &lt;/mxGeometry&gt;&#10;        &lt;/mxCell&gt;&#10;        &lt;mxCell id=&quot;hN0CreysbBGn29C-ZNiO-1&quot; value=&quot;Visitor&quot; style=&quot;shape=ellipse;fillColor=#000000;aspect=fixed;resizable=0;labelPosition=center;verticalLabelPosition=bottom;align=center;verticalAlign=top;strokeColor=none;fontSize=14;&quot; parent=&quot;1&quot; vertex=&quot;1&quot;&gt;&#10;          &lt;mxGeometry x=&quot;30&quot; y=&quot;28&quot; width=&quot;48&quot; height=&quot;48&quot; as=&quot;geometry&quot; /&gt;&#10;        &lt;/mxCell&gt;&#10;        &lt;mxCell id=&quot;hN0CreysbBGn29C-ZNiO-2&quot; value=&quot;&quot; style=&quot;fillColor=#ffffff;strokeColor=none;dashed=0;outlineConnect=0;html=1;labelPosition=center;verticalLabelPosition=bottom;verticalAlign=top;part=1;movable=0;resizable=0;rotatable=0;shape=mxgraph.ibm_cloud.user&quot; parent=&quot;hN0CreysbBGn29C-ZNiO-1&quot; vertex=&quot;1&quot;&gt;&#10;          &lt;mxGeometry width=&quot;24&quot; height=&quot;24&quot; relative=&quot;1&quot; as=&quot;geometry&quot;&gt;&#10;            &lt;mxPoint x=&quot;12&quot; y=&quot;12&quot; as=&quot;offset&quot; /&gt;&#10;          &lt;/mxGeometry&gt;&#10;        &lt;/mxCell&gt;&#10;        &lt;mxCell id=&quot;hN0CreysbBGn29C-ZNiO-3&quot; value=&quot;Cloud &amp;#xa;Internet &amp;#xa;Services&quot; style=&quot;shape=rect;fillColor=#1192E8;aspect=fixed;resizable=0;labelPosition=center;verticalLabelPosition=bottom;align=center;verticalAlign=top;strokeColor=none;fontSize=14;&quot; parent=&quot;1&quot; vertex=&quot;1&quot;&gt;&#10;          &lt;mxGeometry x=&quot;228&quot; y=&quot;30&quot; width=&quot;48&quot; height=&quot;48&quot; as=&quot;geometry&quot; /&gt;&#10;        &lt;/mxCell&gt;&#10;        &lt;mxCell id=&quot;hN0CreysbBGn29C-ZNiO-4&quot; value=&quot;&quot; style=&quot;fillColor=#ffffff;strokeColor=none;dashed=0;outlineConnect=0;html=1;labelPosition=center;verticalLabelPosition=bottom;verticalAlign=top;part=1;movable=0;resizable=0;rotatable=0;shape=mxgraph.ibm_cloud.ibm-cloud--internet-services&quot; parent=&quot;hN0CreysbBGn29C-ZNiO-3&quot; vertex=&quot;1&quot;&gt;&#10;          &lt;mxGeometry width=&quot;24&quot; height=&quot;24&quot; relative=&quot;1&quot; as=&quot;geometry&quot;&gt;&#10;            &lt;mxPoint x=&quot;12&quot; y=&quot;12&quot; as=&quot;offset&quot; /&gt;&#10;          &lt;/mxGeometry&gt;&#10;        &lt;/mxCell&gt;&#10;        &lt;mxCell id=&quot;hN0CreysbBGn29C-ZNiO-25&quot; value=&quot;&quot; style=&quot;shape=rect;fillColor=#FA4D56;aspect=fixed;resizable=0;labelPosition=center;verticalLabelPosition=bottom;align=center;verticalAlign=top;strokeColor=none;fontSize=14;&quot; parent=&quot;1&quot; vertex=&quot;1&quot;&gt;&#10;          &lt;mxGeometry x=&quot;130&quot; y=&quot;30&quot; width=&quot;48&quot; height=&quot;48&quot; as=&quot;geometry&quot; /&gt;&#10;        &lt;/mxCell&gt;&#10;        &lt;mxCell id=&quot;hN0CreysbBGn29C-ZNiO-26&quot; value=&quot;&quot; style=&quot;fillColor=#ffffff;strokeColor=none;dashed=0;outlineConnect=0;html=1;labelPosition=center;verticalLabelPosition=bottom;verticalAlign=top;part=1;movable=0;resizable=0;rotatable=0;shape=mxgraph.ibm_cloud.vpn--connection&quot; parent=&quot;hN0CreysbBGn29C-ZNiO-25&quot; vertex=&quot;1&quot;&gt;&#10;          &lt;mxGeometry width=&quot;24&quot; height=&quot;24&quot; relative=&quot;1&quot; as=&quot;geometry&quot;&gt;&#10;            &lt;mxPoint x=&quot;12&quot; y=&quot;12&quot; as=&quot;offset&quot; /&gt;&#10;          &lt;/mxGeometry&gt;&#10;        &lt;/mxCell&gt;&#10;        &lt;mxCell id=&quot;hN0CreysbBGn29C-ZNiO-27&quot; value=&quot;&quot; style=&quot;shape=rect;fillColor=#FA4D56;aspect=fixed;resizable=0;labelPosition=center;verticalLabelPosition=bottom;align=center;verticalAlign=top;strokeColor=none;fontSize=14;&quot; parent=&quot;1&quot; vertex=&quot;1&quot;&gt;&#10;          &lt;mxGeometry x=&quot;326&quot; y=&quot;30&quot; width=&quot;48&quot; height=&quot;48&quot; as=&quot;geometry&quot; /&gt;&#10;        &lt;/mxCell&gt;&#10;        &lt;mxCell id=&quot;hN0CreysbBGn29C-ZNiO-28&quot; value=&quot;&quot; style=&quot;fillColor=#ffffff;strokeColor=none;dashed=0;outlineConnect=0;html=1;labelPosition=center;verticalLabelPosition=bottom;verticalAlign=top;part=1;movable=0;resizable=0;rotatable=0;shape=mxgraph.ibm_cloud.vpn--connection&quot; parent=&quot;hN0CreysbBGn29C-ZNiO-27&quot; vertex=&quot;1&quot;&gt;&#10;          &lt;mxGeometry width=&quot;24&quot; height=&quot;24&quot; relative=&quot;1&quot; as=&quot;geometry&quot;&gt;&#10;            &lt;mxPoint x=&quot;12&quot; y=&quot;12&quot; as=&quot;offset&quot; /&gt;&#10;          &lt;/mxGeometry&gt;&#10;        &lt;/mxCell&gt;&#10;        &lt;mxCell id=&quot;hN0CreysbBGn29C-ZNiO-30&quot; value=&quot;Origin Server&amp;#xa;&quot; style=&quot;shape=rect;fillColor=#198038;aspect=fixed;resizable=0;labelPosition=center;verticalLabelPosition=bottom;align=center;verticalAlign=top;strokeColor=none;fontSize=14;&quot; parent=&quot;1&quot; vertex=&quot;1&quot;&gt;&#10;          &lt;mxGeometry x=&quot;425&quot; y=&quot;30&quot; width=&quot;48&quot; height=&quot;48&quot; as=&quot;geometry&quot; /&gt;&#10;        &lt;/mxCell&gt;&#10;        &lt;mxCell id=&quot;hN0CreysbBGn29C-ZNiO-31&quot; value=&quot;&quot; style=&quot;fillColor=#ffffff;strokeColor=none;dashed=0;outlineConnect=0;html=1;labelPosition=center;verticalLabelPosition=bottom;verticalAlign=top;part=1;movable=0;resizable=0;rotatable=0;shape=mxgraph.ibm_cloud.ibm-cloud--virtual-server-classic&quot; parent=&quot;hN0CreysbBGn29C-ZNiO-30&quot; vertex=&quot;1&quot;&gt;&#10;          &lt;mxGeometry width=&quot;24&quot; height=&quot;24&quot; relative=&quot;1&quot; as=&quot;geometry&quot;&gt;&#10;            &lt;mxPoint x=&quot;12&quot; y=&quot;12&quot; as=&quot;offset&quot; /&gt;&#10;          &lt;/mxGeometry&gt;&#10;        &lt;/mxCell&gt;&#10;      &lt;/root&gt;&#10;    &lt;/mxGraphModel&gt;&#10;  &lt;/diagram&gt;&#10;&lt;/mxfile&gt;&#10;" style="background-color: rgb(255, 255, 255);"><defs/><rect fill="#ffffff" width="100%" height="100%" x="0" y="0"/><g><g data-cell-id="0"><g data-cell-id="1"><g data-cell-id="p1qStdH1ee6DEX6qfPYa-1"><g><rect x="0" y="0" width="610" height="280" fill="rgb(255, 255, 255)" stroke="none" pointer-events="all"/></g></g><g data-cell-id="hN0CreysbBGn29C-ZNiO-8"><g><path d="M 100 113.5 L 510 114.5" fill="none" stroke="rgb(0, 0, 0)" stroke-miterlimit="10" pointer-events="stroke"/></g></g><g data-cell-id="hN0CreysbBGn29C-ZNiO-1"><g><ellipse cx="107" cy="112" rx="24" ry="24" fill="#000000" stroke="none" pointer-events="all"/></g><g><g fill="rgb(0, 0, 0)" font-family="&quot;Helvetica&quot;" text-anchor="middle" font-size="14px"><text x="106.5" y="155.5">Visitor</text></g></g><g data-cell-id="hN0CreysbBGn29C-ZNiO-2"><g><rect x="95" y="100" width="24" height="24" fill="none" stroke="none" pointer-events="all"/><rect x="95" y="100" width="0" height="0" fill="none" stroke="none" pointer-events="all"/><path d="M 107 103 C 109.07 103 110.75 104.68 110.75 106.75 C 110.75 108.82 109.07 110.5 107 110.5 C 104.93 110.5 103.25 108.82 103.25 106.75 C 103.25 104.68 104.93 103 107 103 M 107 101.5 C 104.1 101.5 101.75 103.85 101.75 106.75 C 101.75 109.65 104.1 112 107 112 C 109.9 112 112.25 109.65 112.25 106.75 C 112.25 103.85 109.9 101.5 107 101.5 Z M 114.5 122.5 L 113 122.5 L 113 118.75 C 113 116.68 111.32 115 109.25 115 L 104.75 115 C 102.68 115 101 116.68 101 118.75 L 101 122.5 L 99.5 122.5 L 99.5 118.75 C 99.5 115.85 101.85 113.5 104.75 113.5 L 109.25 113.5 C 112.15 113.5 114.5 115.85 114.5 118.75 Z" fill="#ffffff" stroke="none" pointer-events="all"/></g></g></g><g data-cell-id="hN0CreysbBGn29C-ZNiO-3"><g><rect x="281" y="90" width="48" height="48" fill="#1192e8" stroke="none" pointer-events="all"/></g><g><g fill="rgb(0, 0, 0)" font-family="&quot;Helvetica&quot;" text-anchor="middle" font-size="14px"><text x="304.5" y="157.5">Cloud </text><text x="304.5" y="174.5">Internet </text><text x="304.5" y="191.5">Services</text></g></g><g data-cell-id="hN0CreysbBGn29C-ZNiO-4"><g><rect x="293" y="102" width="24" height="24" fill="none" stroke="none" pointer-events="all"/><rect x="293" y="102" width="0" height="0" fill="none" stroke="none" pointer-events="all"/><path d="M 313.25 118.5 C 312.72 118.5 312.2 118.72 311.83 119.03 L 307.92 116.7 C 307.92 116.55 308 116.4 308 116.25 C 308 116.1 308 115.95 307.92 115.8 L 311.83 113.47 C 312.2 113.78 312.72 114 313.25 114 C 314.53 114 315.5 113.03 315.5 111.75 C 315.5 110.47 314.53 109.5 313.25 109.5 C 311.97 109.5 311 110.47 311 111.75 C 311 111.9 311 112.05 311.08 112.2 L 307.17 114.53 C 306.8 114.22 306.28 114 305.75 114 C 304.47 114 303.5 114.97 303.5 116.25 C 303.5 117.53 304.47 118.5 305.75 118.5 C 306.28 118.5 306.8 118.28 307.17 117.97 L 311.08 120.3 C 311.08 120.45 311 120.6 311 120.75 C 311 122.03 311.97 123 313.25 123 C 314.53 123 315.5 122.03 315.5 120.75 C 315.5 119.47 314.53 118.5 313.25 118.5 Z M 313.25 111 C 313.7 111 314 111.3 314 111.75 C 314 112.2 313.7 112.5 313.25 112.5 C 312.8 112.5 312.5 112.2 312.5 111.75 C 312.5 111.3 312.8 111 313.25 111 Z M 305.75 117 C 305.3 117 305 116.7 305 116.25 C 305 115.8 305.3 115.5 305.75 115.5 C 306.2 115.5 306.5 115.8 306.5 116.25 C 306.5 116.7 306.2 117 305.75 117 Z M 313.25 121.5 C 312.8 121.5 312.5 121.2 312.5 120.75 C 312.5 120.3 312.8 120 313.25 120 C 313.7 120 314 120.3 314 120.75 C 314 121.2 313.7 121.5 313.25 121.5 Z" fill="#ffffff" stroke="none" pointer-events="all"/><path d="M 307.25 120.75 L 299.38 120.75 C 297.13 120.75 295.25 118.88 295.25 116.63 C 295.25 114.6 296.67 112.95 298.63 112.58 L 299.6 112.42 L 299.83 111.45 C 300.42 108.53 302.9 106.5 305.75 106.5 C 306.13 106.5 306.5 106.5 306.88 106.58 C 308.08 106.8 309.13 107.4 310.03 108.22 L 311.08 107.17 C 310.03 106.13 308.67 105.38 307.17 105.15 C 306.72 105.08 306.2 105 305.75 105 C 302.22 105 299.08 107.47 298.4 111.08 C 295.7 111.6 293.75 113.92 293.75 116.63 C 293.75 119.7 296.22 122.25 299.38 122.25 L 307.25 122.25 L 307.25 120.75 Z" fill="#ffffff" stroke="none" pointer-events="all"/></g></g></g><g data-cell-id="hN0CreysbBGn29C-ZNiO-25"><g><rect x="183" y="90" width="48" height="48" fill="#fa4d56" stroke="none" pointer-events="all"/></g><g data-cell-id="hN0CreysbBGn29C-ZNiO-26"><g><rect x="195" y="102" width="24" height="24" fill="none" stroke="none" pointer-events="all"/><rect x="195" y="102" width="0" height="0" fill="none" stroke="none" pointer-events="all"/><path d="M 216 107.25 C 215.47 107.25 214.97 107.54 214.71 108 L 211.5 108 C 211.5 105.51 209.49 103.5 207 103.5 C 204.51 103.5 202.5 105.51 202.5 108 L 199.29 108 C 198.95 107.41 198.26 107.13 197.6 107.3 C 196.95 107.48 196.49 108.07 196.49 108.75 C 196.49 109.43 196.95 110.02 197.6 110.2 C 198.26 110.37 198.95 110.09 199.29 109.5 L 202.5 109.5 L 202.5 112.5 L 201 112.5 C 200.17 112.5 199.5 113.17 199.5 114 L 199.5 123 C 199.5 123.83 200.17 124.5 201 124.5 L 213 124.5 C 213.83 124.5 214.5 123.83 214.5 123 L 214.5 114 C 214.5 113.17 213.83 112.5 213 112.5 L 211.5 112.5 L 211.5 109.5 L 214.71 109.5 C 215.07 110.13 215.84 110.4 216.52 110.15 C 217.2 109.9 217.61 109.2 217.48 108.48 C 217.35 107.77 216.73 107.25 216 107.25 M 204 108 C 204 106.34 205.34 105 207 105 C 208.66 105 210 106.34 210 108 L 210 112.5 L 204 112.5 L 204 109.5 L 207.75 109.5 L 207.75 108 Z M 213 114 L 213 123 L 201 123 L 201 114 Z" fill="#ffffff" stroke="none" pointer-events="all"/></g></g></g><g data-cell-id="hN0CreysbBGn29C-ZNiO-27"><g><rect x="379" y="90" width="48" height="48" fill="#fa4d56" stroke="none" pointer-events="all"/></g><g data-cell-id="hN0CreysbBGn29C-ZNiO-28"><g><rect x="391" y="102" width="24" height="24" fill="none" stroke="none" pointer-events="all"/><rect x="391" y="102" width="0" height="0" fill="none" stroke="none" pointer-events="all"/><path d="M 412 107.25 C 411.47 107.25 410.97 107.54 410.71 108 L 407.5 108 C 407.5 105.51 405.49 103.5 403 103.5 C 400.51 103.5 398.5 105.51 398.5 108 L 395.29 108 C 394.95 107.41 394.26 107.13 393.6 107.3 C 392.95 107.48 392.49 108.07 392.49 108.75 C 392.49 109.43 392.95 110.02 393.6 110.2 C 394.26 110.37 394.95 110.09 395.29 109.5 L 398.5 109.5 L 398.5 112.5 L 397 112.5 C 396.17 112.5 395.5 113.17 395.5 114 L 395.5 123 C 395.5 123.83 396.17 124.5 397 124.5 L 409 124.5 C 409.83 124.5 410.5 123.83 410.5 123 L 410.5 114 C 410.5 113.17 409.83 112.5 409 112.5 L 407.5 112.5 L 407.5 109.5 L 410.71 109.5 C 411.07 110.13 411.84 110.4 412.52 110.15 C 413.2 109.9 413.61 109.2 413.48 108.48 C 413.35 107.77 412.73 107.25 412 107.25 M 400 108 C 400 106.34 401.34 105 403 105 C 404.66 105 406 106.34 406 108 L 406 112.5 L 400 112.5 L 400 109.5 L 403.75 109.5 L 403.75 108 Z M 409 114 L 409 123 L 397 123 L 397 114 Z" fill="#ffffff" stroke="none" pointer-events="all"/></g></g></g><g data-cell-id="hN0CreysbBGn29C-ZNiO-30"><g><rect x="478" y="90" width="48" height="48" fill="#198038" stroke="none" pointer-events="all"/></g><g><g fill="rgb(0, 0, 0)" font-family="&quot;Helvetica&quot;" text-anchor="middle" font-size="14px"><text x="501.5" y="157.5">Origin Server</text></g></g><g data-cell-id="hN0CreysbBGn29C-ZNiO-31"><g><rect x="490" y="102" width="24" height="24" fill="none" stroke="none" pointer-events="all"/><rect x="490" y="102" width="0" height="0" fill="none" stroke="none" pointer-events="all"/><ellipse cx="496.75" cy="121.5" rx="0.75" ry="0.75" fill="#ffffff" stroke="none" pointer-events="all"/><path d="M 509.5 118.5 L 505.75 118.5 L 505.75 120 L 509.5 120 L 509.5 123 L 494.5 123 L 494.5 120 L 501.25 120 C 502.08 120 502.75 119.33 502.75 118.5 L 502.75 111.62 L 504.69 113.57 L 505.75 112.5 L 502 108.75 L 498.25 112.5 L 499.31 113.56 L 501.25 111.62 L 501.25 118.5 L 494.5 118.5 C 493.67 118.5 493 119.17 493 120 L 493 123 C 493 123.83 493.67 124.5 494.5 124.5 L 509.5 124.5 C 510.33 124.5 511 123.83 511 123 L 511 120 C 511 119.17 510.33 118.5 509.5 118.5 Z" fill="#ffffff" stroke="none" pointer-events="all"/><path d="M 507.81 108.04 C 507.15 105.41 504.75 103.5 502 103.5 C 499.25 103.5 496.85 105.41 496.19 108.04 C 493.97 108.32 492.25 110.21 492.25 112.5 C 492.25 114.98 494.27 117 496.75 117 L 498.25 117 L 498.25 115.5 L 496.75 115.5 C 495.09 115.5 493.75 114.16 493.75 112.5 C 493.75 110.86 495.08 109.52 496.71 109.5 L 497.45 109.52 L 497.55 108.86 C 497.87 106.66 499.78 105 502 105 C 504.22 105 506.13 106.66 506.45 108.86 L 506.54 109.52 L 507.2 109.51 L 507.3 109.5 C 508.93 109.52 510.25 110.86 510.25 112.5 C 510.25 114.16 508.91 115.5 507.25 115.5 L 505.75 115.5 L 505.75 117 L 507.25 117 C 509.73 117 511.75 114.98 511.75 112.5 C 511.75 110.21 510.03 108.32 507.81 108.04 Z" fill="#ffffff" stroke="none" pointer-events="all"/></g></g></g></g></g></g></svg>