<?xml version="1.0" encoding="UTF-8"?>
<!-- Do not edit this file with editors other than draw.io -->
<!DOCTYPE svg PUBLIC "-//W3C//DTD SVG 1.1//EN" "http://www.w3.org/Graphics/SVG/1.1/DTD/svg11.dtd">
<svg xmlns="http://www.w3.org/2000/svg" xmlns:xlink="http://www.w3.org/1999/xlink" version="1.1" width="610px" height="280px" viewBox="-0.5 -0.5 610 280" content="&lt;mxfile host=&quot;Electron&quot; agent=&quot;Mozilla/5.0 (Macintosh; Intel Mac OS X 10_15_7) AppleWebKit/537.36 (KHTML, like Gecko) draw.io/25.0.2 Chrome/128.0.6613.186 Electron/32.2.5 Safari/537.36&quot; version=&quot;25.0.2&quot; scale=&quot;1&quot; border=&quot;0&quot;&gt;&#10;  &lt;diagram name=&quot;Page-1&quot; id=&quot;8wTxipBLSAse1nOkmh9F&quot;&gt;&#10;    &lt;mxGraphModel dx=&quot;1578&quot; dy=&quot;1638&quot; grid=&quot;1&quot; gridSize=&quot;10&quot; guides=&quot;1&quot; tooltips=&quot;1&quot; connect=&quot;1&quot; arrows=&quot;1&quot; fold=&quot;1&quot; page=&quot;1&quot; pageScale=&quot;1&quot; pageWidth=&quot;850&quot; pageHeight=&quot;1100&quot; math=&quot;0&quot; shadow=&quot;0&quot;&gt;&#10;      &lt;root&gt;&#10;        &lt;mxCell id=&quot;0&quot; /&gt;&#10;        &lt;mxCell id=&quot;1&quot; parent=&quot;0&quot; /&gt;&#10;        &lt;mxCell id=&quot;03ndlW_b03X5DMgfB0me-2&quot; value=&quot;&quot; style=&quot;rounded=0;whiteSpace=wrap;html=1;strokeColor=none;&quot; vertex=&quot;1&quot; parent=&quot;1&quot;&gt;&#10;          &lt;mxGeometry x=&quot;-40&quot; y=&quot;-60&quot; width=&quot;610&quot; height=&quot;280&quot; as=&quot;geometry&quot; /&gt;&#10;        &lt;/mxCell&gt;&#10;        &lt;mxCell id=&quot;hN0CreysbBGn29C-ZNiO-8&quot; value=&quot;&quot; style=&quot;endArrow=none;html=1;rounded=0;&quot; parent=&quot;1&quot; edge=&quot;1&quot;&gt;&#10;          &lt;mxGeometry width=&quot;50&quot; height=&quot;50&quot; relative=&quot;1&quot; as=&quot;geometry&quot;&gt;&#10;            &lt;mxPoint x=&quot;47&quot; y=&quot;53.5&quot; as=&quot;sourcePoint&quot; /&gt;&#10;            &lt;mxPoint x=&quot;457&quot; y=&quot;54.5&quot; as=&quot;targetPoint&quot; /&gt;&#10;          &lt;/mxGeometry&gt;&#10;        &lt;/mxCell&gt;&#10;        &lt;mxCell id=&quot;hN0CreysbBGn29C-ZNiO-1&quot; value=&quot;Visitor&quot; style=&quot;shape=ellipse;fillColor=#000000;aspect=fixed;resizable=0;labelPosition=center;verticalLabelPosition=bottom;align=center;verticalAlign=top;strokeColor=none;fontSize=14;&quot; parent=&quot;1&quot; vertex=&quot;1&quot;&gt;&#10;          &lt;mxGeometry x=&quot;30&quot; y=&quot;28&quot; width=&quot;48&quot; height=&quot;48&quot; as=&quot;geometry&quot; /&gt;&#10;        &lt;/mxCell&gt;&#10;        &lt;mxCell id=&quot;hN0CreysbBGn29C-ZNiO-2&quot; value=&quot;&quot; style=&quot;fillColor=#ffffff;strokeColor=none;dashed=0;outlineConnect=0;html=1;labelPosition=center;verticalLabelPosition=bottom;verticalAlign=top;part=1;movable=0;resizable=0;rotatable=0;shape=mxgraph.ibm_cloud.user&quot; parent=&quot;hN0CreysbBGn29C-ZNiO-1&quot; vertex=&quot;1&quot;&gt;&#10;          &lt;mxGeometry width=&quot;24&quot; height=&quot;24&quot; relative=&quot;1&quot; as=&quot;geometry&quot;&gt;&#10;            &lt;mxPoint x=&quot;12&quot; y=&quot;12&quot; as=&quot;offset&quot; /&gt;&#10;          &lt;/mxGeometry&gt;&#10;        &lt;/mxCell&gt;&#10;        &lt;mxCell id=&quot;hN0CreysbBGn29C-ZNiO-3&quot; value=&quot;Cloud &amp;#xa;Internet &amp;#xa;Services&quot; style=&quot;shape=rect;fillColor=#1192E8;aspect=fixed;resizable=0;labelPosition=center;verticalLabelPosition=bottom;align=center;verticalAlign=top;strokeColor=none;fontSize=14;&quot; parent=&quot;1&quot; vertex=&quot;1&quot;&gt;&#10;          &lt;mxGeometry x=&quot;228&quot; y=&quot;30&quot; width=&quot;48&quot; height=&quot;48&quot; as=&quot;geometry&quot; /&gt;&#10;        &lt;/mxCell&gt;&#10;        &lt;mxCell id=&quot;hN0CreysbBGn29C-ZNiO-4&quot; value=&quot;&quot; style=&quot;fillColor=#ffffff;strokeColor=none;dashed=0;outlineConnect=0;html=1;labelPosition=center;verticalLabelPosition=bottom;verticalAlign=top;part=1;movable=0;resizable=0;rotatable=0;shape=mxgraph.ibm_cloud.ibm-cloud--internet-services&quot; parent=&quot;hN0CreysbBGn29C-ZNiO-3&quot; vertex=&quot;1&quot;&gt;&#10;          &lt;mxGeometry width=&quot;24&quot; height=&quot;24&quot; relative=&quot;1&quot; as=&quot;geometry&quot;&gt;&#10;            &lt;mxPoint x=&quot;12&quot; y=&quot;12&quot; as=&quot;offset&quot; /&gt;&#10;          &lt;/mxGeometry&gt;&#10;        &lt;/mxCell&gt;&#10;        &lt;mxCell id=&quot;hN0CreysbBGn29C-ZNiO-25&quot; value=&quot;&quot; style=&quot;shape=rect;fillColor=#FA4D56;aspect=fixed;resizable=0;labelPosition=center;verticalLabelPosition=bottom;align=center;verticalAlign=top;strokeColor=none;fontSize=14;&quot; parent=&quot;1&quot; vertex=&quot;1&quot;&gt;&#10;          &lt;mxGeometry x=&quot;130&quot; y=&quot;30&quot; width=&quot;48&quot; height=&quot;48&quot; as=&quot;geometry&quot; /&gt;&#10;        &lt;/mxCell&gt;&#10;        &lt;mxCell id=&quot;hN0CreysbBGn29C-ZNiO-26&quot; value=&quot;&quot; style=&quot;fillColor=#ffffff;strokeColor=none;dashed=0;outlineConnect=0;html=1;labelPosition=center;verticalLabelPosition=bottom;verticalAlign=top;part=1;movable=0;resizable=0;rotatable=0;shape=mxgraph.ibm_cloud.vpn--connection&quot; parent=&quot;hN0CreysbBGn29C-ZNiO-25&quot; vertex=&quot;1&quot;&gt;&#10;          &lt;mxGeometry width=&quot;24&quot; height=&quot;24&quot; relative=&quot;1&quot; as=&quot;geometry&quot;&gt;&#10;            &lt;mxPoint x=&quot;12&quot; y=&quot;12&quot; as=&quot;offset&quot; /&gt;&#10;          &lt;/mxGeometry&gt;&#10;        &lt;/mxCell&gt;&#10;        &lt;mxCell id=&quot;hN0CreysbBGn29C-ZNiO-27&quot; value=&quot;&quot; style=&quot;shape=rect;fillColor=#FA4D56;aspect=fixed;resizable=0;labelPosition=center;verticalLabelPosition=bottom;align=center;verticalAlign=top;strokeColor=none;fontSize=14;&quot; parent=&quot;1&quot; vertex=&quot;1&quot;&gt;&#10;          &lt;mxGeometry x=&quot;326&quot; y=&quot;30&quot; width=&quot;48&quot; height=&quot;48&quot; as=&quot;geometry&quot; /&gt;&#10;        &lt;/mxCell&gt;&#10;        &lt;mxCell id=&quot;hN0CreysbBGn29C-ZNiO-28&quot; value=&quot;&quot; style=&quot;fillColor=#ffffff;strokeColor=none;dashed=0;outlineConnect=0;html=1;labelPosition=center;verticalLabelPosition=bottom;verticalAlign=top;part=1;movable=0;resizable=0;rotatable=0;shape=mxgraph.ibm_cloud.vpn--connection&quot; parent=&quot;hN0CreysbBGn29C-ZNiO-27&quot; vertex=&quot;1&quot;&gt;&#10;          &lt;mxGeometry width=&quot;24&quot; height=&quot;24&quot; relative=&quot;1&quot; as=&quot;geometry&quot;&gt;&#10;            &lt;mxPoint x=&quot;12&quot; y=&quot;12&quot; as=&quot;offset&quot; /&gt;&#10;          &lt;/mxGeometry&gt;&#10;        &lt;/mxCell&gt;&#10;        &lt;mxCell id=&quot;hN0CreysbBGn29C-ZNiO-30&quot; value=&quot;Origin Server&amp;#xa;with TLS mode&quot; style=&quot;shape=rect;fillColor=#198038;aspect=fixed;resizable=0;labelPosition=center;verticalLabelPosition=bottom;align=center;verticalAlign=top;strokeColor=none;fontSize=14;&quot; parent=&quot;1&quot; vertex=&quot;1&quot;&gt;&#10;          &lt;mxGeometry x=&quot;425&quot; y=&quot;30&quot; width=&quot;48&quot; height=&quot;48&quot; as=&quot;geometry&quot; /&gt;&#10;        &lt;/mxCell&gt;&#10;        &lt;mxCell id=&quot;hN0CreysbBGn29C-ZNiO-31&quot; value=&quot;&quot; style=&quot;fillColor=#ffffff;strokeColor=none;dashed=0;outlineConnect=0;html=1;labelPosition=center;verticalLabelPosition=bottom;verticalAlign=top;part=1;movable=0;resizable=0;rotatable=0;shape=mxgraph.ibm_cloud.ibm-cloud--virtual-server-classic&quot; parent=&quot;hN0CreysbBGn29C-ZNiO-30&quot; vertex=&quot;1&quot;&gt;&#10;          &lt;mxGeometry width=&quot;24&quot; height=&quot;24&quot; relative=&quot;1&quot; as=&quot;geometry&quot;&gt;&#10;            &lt;mxPoint x=&quot;12&quot; y=&quot;12&quot; as=&quot;offset&quot; /&gt;&#10;          &lt;/mxGeometry&gt;&#10;        &lt;/mxCell&gt;&#10;      &lt;/root&gt;&#10;    &lt;/mxGraphModel&gt;&#10;  &lt;/diagram&gt;&#10;&lt;/mxfile&gt;&#10;" style="background-color: rgb(255, 255, 255);"><defs/><rect fill="#ffffff" width="100%" height="100%" x="0" y="0"/><g><g data-cell-id="0"><g data-cell-id="1"><g data-cell-id="03ndlW_b03X5DMgfB0me-2"><g><rect x="0" y="0" width="610" height="280" fill="rgb(255, 255, 255)" stroke="none" pointer-events="all"/></g></g><g data-cell-id="hN0CreysbBGn29C-ZNiO-8"><g><path d="M 87 113.5 L 497 114.5" fill="none" stroke="rgb(0, 0, 0)" stroke-miterlimit="10" pointer-events="stroke"/></g></g><g data-cell-id="hN0CreysbBGn29C-ZNiO-1"><g><ellipse cx="94" cy="112" rx="24" ry="24" fill="#000000" stroke="none" pointer-events="all"/></g><g><g fill="rgb(0, 0, 0)" font-family="&quot;Helvetica&quot;" text-anchor="middle" font-size="14px"><text x="93.5" y="155.5">Visitor</text></g></g><g data-cell-id="hN0CreysbBGn29C-ZNiO-2"><g><rect x="82" y="100" width="24" height="24" fill="none" stroke="none" pointer-events="all"/><rect x="82" y="100" width="0" height="0" fill="none" stroke="none" pointer-events="all"/><path d="M 94 103 C 96.07 103 97.75 104.68 97.75 106.75 C 97.75 108.82 96.07 110.5 94 110.5 C 91.93 110.5 90.25 108.82 90.25 106.75 C 90.25 104.68 91.93 103 94 103 M 94 101.5 C 91.1 101.5 88.75 103.85 88.75 106.75 C 88.75 109.65 91.1 112 94 112 C 96.9 112 99.25 109.65 99.25 106.75 C 99.25 103.85 96.9 101.5 94 101.5 Z M 101.5 122.5 L 100 122.5 L 100 118.75 C 100 116.68 98.32 115 96.25 115 L 91.75 115 C 89.68 115 88 116.68 88 118.75 L 88 122.5 L 86.5 122.5 L 86.5 118.75 C 86.5 115.85 88.85 113.5 91.75 113.5 L 96.25 113.5 C 99.15 113.5 101.5 115.85 101.5 118.75 Z" fill="#ffffff" stroke="none" pointer-events="all"/></g></g></g><g data-cell-id="hN0CreysbBGn29C-ZNiO-3"><g><rect x="268" y="90" width="48" height="48" fill="#1192e8" stroke="none" pointer-events="all"/></g><g><g fill="rgb(0, 0, 0)" font-family="&quot;Helvetica&quot;" text-anchor="middle" font-size="14px"><text x="291.5" y="157.5">Cloud </text><text x="291.5" y="174.5">Internet </text><text x="291.5" y="191.5">Services</text></g></g><g data-cell-id="hN0CreysbBGn29C-ZNiO-4"><g><rect x="280" y="102" width="24" height="24" fill="none" stroke="none" pointer-events="all"/><rect x="280" y="102" width="0" height="0" fill="none" stroke="none" pointer-events="all"/><path d="M 300.25 118.5 C 299.72 118.5 299.2 118.72 298.83 119.03 L 294.92 116.7 C 294.92 116.55 295 116.4 295 116.25 C 295 116.1 295 115.95 294.92 115.8 L 298.83 113.47 C 299.2 113.78 299.72 114 300.25 114 C 301.53 114 302.5 113.03 302.5 111.75 C 302.5 110.47 301.53 109.5 300.25 109.5 C 298.97 109.5 298 110.47 298 111.75 C 298 111.9 298 112.05 298.08 112.2 L 294.17 114.53 C 293.8 114.22 293.28 114 292.75 114 C 291.47 114 290.5 114.97 290.5 116.25 C 290.5 117.53 291.47 118.5 292.75 118.5 C 293.28 118.5 293.8 118.28 294.17 117.97 L 298.08 120.3 C 298.08 120.45 298 120.6 298 120.75 C 298 122.03 298.97 123 300.25 123 C 301.53 123 302.5 122.03 302.5 120.75 C 302.5 119.47 301.53 118.5 300.25 118.5 Z M 300.25 111 C 300.7 111 301 111.3 301 111.75 C 301 112.2 300.7 112.5 300.25 112.5 C 299.8 112.5 299.5 112.2 299.5 111.75 C 299.5 111.3 299.8 111 300.25 111 Z M 292.75 117 C 292.3 117 292 116.7 292 116.25 C 292 115.8 292.3 115.5 292.75 115.5 C 293.2 115.5 293.5 115.8 293.5 116.25 C 293.5 116.7 293.2 117 292.75 117 Z M 300.25 121.5 C 299.8 121.5 299.5 121.2 299.5 120.75 C 299.5 120.3 299.8 120 300.25 120 C 300.7 120 301 120.3 301 120.75 C 301 121.2 300.7 121.5 300.25 121.5 Z" fill="#ffffff" stroke="none" pointer-events="all"/><path d="M 294.25 120.75 L 286.38 120.75 C 284.13 120.75 282.25 118.88 282.25 116.63 C 282.25 114.6 283.67 112.95 285.63 112.58 L 286.6 112.42 L 286.83 111.45 C 287.42 108.53 289.9 106.5 292.75 106.5 C 293.13 106.5 293.5 106.5 293.88 106.58 C 295.08 106.8 296.13 107.4 297.03 108.22 L 298.08 107.17 C 297.03 106.13 295.67 105.38 294.17 105.15 C 293.72 105.08 293.2 105 292.75 105 C 289.22 105 286.08 107.47 285.4 111.08 C 282.7 111.6 280.75 113.92 280.75 116.63 C 280.75 119.7 283.22 122.25 286.38 122.25 L 294.25 122.25 L 294.25 120.75 Z" fill="#ffffff" stroke="none" pointer-events="all"/></g></g></g><g data-cell-id="hN0CreysbBGn29C-ZNiO-25"><g><rect x="170" y="90" width="48" height="48" fill="#fa4d56" stroke="none" pointer-events="all"/></g><g data-cell-id="hN0CreysbBGn29C-ZNiO-26"><g><rect x="182" y="102" width="24" height="24" fill="none" stroke="none" pointer-events="all"/><rect x="182" y="102" width="0" height="0" fill="none" stroke="none" pointer-events="all"/><path d="M 203 107.25 C 202.47 107.25 201.97 107.54 201.71 108 L 198.5 108 C 198.5 105.51 196.49 103.5 194 103.5 C 191.51 103.5 189.5 105.51 189.5 108 L 186.29 108 C 185.95 107.41 185.26 107.13 184.6 107.3 C 183.95 107.48 183.49 108.07 183.49 108.75 C 183.49 109.43 183.95 110.02 184.6 110.2 C 185.26 110.37 185.95 110.09 186.29 109.5 L 189.5 109.5 L 189.5 112.5 L 188 112.5 C 187.17 112.5 186.5 113.17 186.5 114 L 186.5 123 C 186.5 123.83 187.17 124.5 188 124.5 L 200 124.5 C 200.83 124.5 201.5 123.83 201.5 123 L 201.5 114 C 201.5 113.17 200.83 112.5 200 112.5 L 198.5 112.5 L 198.5 109.5 L 201.71 109.5 C 202.07 110.13 202.84 110.4 203.52 110.15 C 204.2 109.9 204.61 109.2 204.48 108.48 C 204.35 107.77 203.73 107.25 203 107.25 M 191 108 C 191 106.34 192.34 105 194 105 C 195.66 105 197 106.34 197 108 L 197 112.5 L 191 112.5 L 191 109.5 L 194.75 109.5 L 194.75 108 Z M 200 114 L 200 123 L 188 123 L 188 114 Z" fill="#ffffff" stroke="none" pointer-events="all"/></g></g></g><g data-cell-id="hN0CreysbBGn29C-ZNiO-27"><g><rect x="366" y="90" width="48" height="48" fill="#fa4d56" stroke="none" pointer-events="all"/></g><g data-cell-id="hN0CreysbBGn29C-ZNiO-28"><g><rect x="378" y="102" width="24" height="24" fill="none" stroke="none" pointer-events="all"/><rect x="378" y="102" width="0" height="0" fill="none" stroke="none" pointer-events="all"/><path d="M 399 107.25 C 398.47 107.25 397.97 107.54 397.71 108 L 394.5 108 C 394.5 105.51 392.49 103.5 390 103.5 C 387.51 103.5 385.5 105.51 385.5 108 L 382.29 108 C 381.95 107.41 381.26 107.13 380.6 107.3 C 379.95 107.48 379.49 108.07 379.49 108.75 C 379.49 109.43 379.95 110.02 380.6 110.2 C 381.26 110.37 381.95 110.09 382.29 109.5 L 385.5 109.5 L 385.5 112.5 L 384 112.5 C 383.17 112.5 382.5 113.17 382.5 114 L 382.5 123 C 382.5 123.83 383.17 124.5 384 124.5 L 396 124.5 C 396.83 124.5 397.5 123.83 397.5 123 L 397.5 114 C 397.5 113.17 396.83 112.5 396 112.5 L 394.5 112.5 L 394.5 109.5 L 397.71 109.5 C 398.07 110.13 398.84 110.4 399.52 110.15 C 400.2 109.9 400.61 109.2 400.48 108.48 C 400.35 107.77 399.73 107.25 399 107.25 M 387 108 C 387 106.34 388.34 105 390 105 C 391.66 105 393 106.34 393 108 L 393 112.5 L 387 112.5 L 387 109.5 L 390.75 109.5 L 390.75 108 Z M 396 114 L 396 123 L 384 123 L 384 114 Z" fill="#ffffff" stroke="none" pointer-events="all"/></g></g></g><g data-cell-id="hN0CreysbBGn29C-ZNiO-30"><g><rect x="465" y="90" width="48" height="48" fill="#198038" stroke="none" pointer-events="all"/></g><g><g fill="rgb(0, 0, 0)" font-family="&quot;Helvetica&quot;" text-anchor="middle" font-size="14px"><text x="488.5" y="157.5">Origin Server</text><text x="488.5" y="174.5">with TLS mode</text></g></g><g data-cell-id="hN0CreysbBGn29C-ZNiO-31"><g><rect x="477" y="102" width="24" height="24" fill="none" stroke="none" pointer-events="all"/><rect x="477" y="102" width="0" height="0" fill="none" stroke="none" pointer-events="all"/><ellipse cx="483.75" cy="121.5" rx="0.75" ry="0.75" fill="#ffffff" stroke="none" pointer-events="all"/><path d="M 496.5 118.5 L 492.75 118.5 L 492.75 120 L 496.5 120 L 496.5 123 L 481.5 123 L 481.5 120 L 488.25 120 C 489.08 120 489.75 119.33 489.75 118.5 L 489.75 111.62 L 491.69 113.57 L 492.75 112.5 L 489 108.75 L 485.25 112.5 L 486.31 113.56 L 488.25 111.62 L 488.25 118.5 L 481.5 118.5 C 480.67 118.5 480 119.17 480 120 L 480 123 C 480 123.83 480.67 124.5 481.5 124.5 L 496.5 124.5 C 497.33 124.5 498 123.83 498 123 L 498 120 C 498 119.17 497.33 118.5 496.5 118.5 Z" fill="#ffffff" stroke="none" pointer-events="all"/><path d="M 494.81 108.04 C 494.15 105.41 491.75 103.5 489 103.5 C 486.25 103.5 483.85 105.41 483.19 108.04 C 480.97 108.32 479.25 110.21 479.25 112.5 C 479.25 114.98 481.27 117 483.75 117 L 485.25 117 L 485.25 115.5 L 483.75 115.5 C 482.09 115.5 480.75 114.16 480.75 112.5 C 480.75 110.86 482.08 109.52 483.71 109.5 L 484.45 109.52 L 484.55 108.86 C 484.87 106.66 486.78 105 489 105 C 491.22 105 493.13 106.66 493.45 108.86 L 493.54 109.52 L 494.2 109.51 L 494.3 109.5 C 495.93 109.52 497.25 110.86 497.25 112.5 C 497.25 114.16 495.91 115.5 494.25 115.5 L 492.75 115.5 L 492.75 117 L 494.25 117 C 496.73 117 498.75 114.98 498.75 112.5 C 498.75 110.21 497.03 108.32 494.81 108.04 Z" fill="#ffffff" stroke="none" pointer-events="all"/></g></g></g></g></g></g></svg>