<?xml version="1.0" encoding="UTF-8"?>
<!-- Do not edit this file with editors other than draw.io -->
<!DOCTYPE svg PUBLIC "-//W3C//DTD SVG 1.1//EN" "http://www.w3.org/Graphics/SVG/1.1/DTD/svg11.dtd">
<svg xmlns="http://www.w3.org/2000/svg" style="background: transparent; background-color: transparent; color-scheme: light;" xmlns:xlink="http://www.w3.org/1999/xlink" version="1.1" width="466px" height="105px" viewBox="-0.5 -0.5 466 105" content="&lt;mxfile host=&quot;app.diagrams.net&quot; agent=&quot;Mozilla/5.0 (Macintosh; Intel Mac OS X 10_15_7) AppleWebKit/537.36 (KHTML, like Gecko) Chrome/138.0.0.0 Safari/537.36 Edg/138.0.0.0&quot; version=&quot;27.1.6&quot; scale=&quot;1&quot; border=&quot;0&quot;&gt;&#10;  &lt;diagram name=&quot;Page-1&quot; id=&quot;VMQzMJBvYHzRfyUvyS4v&quot;&gt;&#10;    &lt;mxGraphModel dx=&quot;1226&quot; dy=&quot;698&quot; grid=&quot;1&quot; gridSize=&quot;10&quot; guides=&quot;1&quot; tooltips=&quot;1&quot; connect=&quot;1&quot; arrows=&quot;1&quot; fold=&quot;1&quot; page=&quot;1&quot; pageScale=&quot;1&quot; pageWidth=&quot;850&quot; pageHeight=&quot;1100&quot; math=&quot;0&quot; shadow=&quot;0&quot;&gt;&#10;      &lt;root&gt;&#10;        &lt;mxCell id=&quot;0&quot; /&gt;&#10;        &lt;mxCell id=&quot;1&quot; parent=&quot;0&quot; /&gt;&#10;        &lt;mxCell id=&quot;LddF3R96ZCdnI7Bx30d1-34&quot; value=&quot;&quot; style=&quot;endArrow=none;html=1;rounded=0;&quot; edge=&quot;1&quot; parent=&quot;1&quot;&gt;&#10;          &lt;mxGeometry width=&quot;50&quot; height=&quot;50&quot; relative=&quot;1&quot; as=&quot;geometry&quot;&gt;&#10;            &lt;mxPoint x=&quot;221&quot; y=&quot;285.5&quot; as=&quot;sourcePoint&quot; /&gt;&#10;            &lt;mxPoint x=&quot;631&quot; y=&quot;286.5&quot; as=&quot;targetPoint&quot; /&gt;&#10;          &lt;/mxGeometry&gt;&#10;        &lt;/mxCell&gt;&#10;        &lt;mxCell id=&quot;LddF3R96ZCdnI7Bx30d1-35&quot; value=&quot;Visitor&quot; style=&quot;shape=ellipse;fillColor=#000000;aspect=fixed;resizable=0;labelPosition=center;verticalLabelPosition=bottom;align=center;verticalAlign=top;strokeColor=none;fontSize=14;&quot; vertex=&quot;1&quot; parent=&quot;1&quot;&gt;&#10;          &lt;mxGeometry x=&quot;204&quot; y=&quot;260&quot; width=&quot;48&quot; height=&quot;48&quot; as=&quot;geometry&quot; /&gt;&#10;        &lt;/mxCell&gt;&#10;        &lt;mxCell id=&quot;LddF3R96ZCdnI7Bx30d1-36&quot; value=&quot;&quot; style=&quot;fillColor=#ffffff;strokeColor=none;dashed=0;outlineConnect=0;html=1;labelPosition=center;verticalLabelPosition=bottom;verticalAlign=top;part=1;movable=0;resizable=0;rotatable=0;shape=mxgraph.ibm_cloud.user&quot; vertex=&quot;1&quot; parent=&quot;LddF3R96ZCdnI7Bx30d1-35&quot;&gt;&#10;          &lt;mxGeometry width=&quot;24&quot; height=&quot;24&quot; relative=&quot;1&quot; as=&quot;geometry&quot;&gt;&#10;            &lt;mxPoint x=&quot;12&quot; y=&quot;12&quot; as=&quot;offset&quot; /&gt;&#10;          &lt;/mxGeometry&gt;&#10;        &lt;/mxCell&gt;&#10;        &lt;mxCell id=&quot;LddF3R96ZCdnI7Bx30d1-37&quot; value=&quot;Cloud &amp;#xa;Internet &amp;#xa;Services&quot; style=&quot;shape=rect;fillColor=#1192E8;aspect=fixed;resizable=0;labelPosition=center;verticalLabelPosition=bottom;align=center;verticalAlign=top;strokeColor=none;fontSize=14;&quot; vertex=&quot;1&quot; parent=&quot;1&quot;&gt;&#10;          &lt;mxGeometry x=&quot;402&quot; y=&quot;260&quot; width=&quot;48&quot; height=&quot;48&quot; as=&quot;geometry&quot; /&gt;&#10;        &lt;/mxCell&gt;&#10;        &lt;mxCell id=&quot;LddF3R96ZCdnI7Bx30d1-38&quot; value=&quot;&quot; style=&quot;fillColor=#ffffff;strokeColor=none;dashed=0;outlineConnect=0;html=1;labelPosition=center;verticalLabelPosition=bottom;verticalAlign=top;part=1;movable=0;resizable=0;rotatable=0;shape=mxgraph.ibm_cloud.ibm-cloud--internet-services&quot; vertex=&quot;1&quot; parent=&quot;LddF3R96ZCdnI7Bx30d1-37&quot;&gt;&#10;          &lt;mxGeometry width=&quot;24&quot; height=&quot;24&quot; relative=&quot;1&quot; as=&quot;geometry&quot;&gt;&#10;            &lt;mxPoint x=&quot;12&quot; y=&quot;12&quot; as=&quot;offset&quot; /&gt;&#10;          &lt;/mxGeometry&gt;&#10;        &lt;/mxCell&gt;&#10;        &lt;mxCell id=&quot;LddF3R96ZCdnI7Bx30d1-39&quot; value=&quot;&quot; style=&quot;shape=rect;fillColor=#FA4D56;aspect=fixed;resizable=0;labelPosition=center;verticalLabelPosition=bottom;align=center;verticalAlign=top;strokeColor=none;fontSize=14;&quot; vertex=&quot;1&quot; parent=&quot;1&quot;&gt;&#10;          &lt;mxGeometry x=&quot;304&quot; y=&quot;260&quot; width=&quot;48&quot; height=&quot;48&quot; as=&quot;geometry&quot; /&gt;&#10;        &lt;/mxCell&gt;&#10;        &lt;mxCell id=&quot;LddF3R96ZCdnI7Bx30d1-40&quot; value=&quot;&quot; style=&quot;fillColor=#ffffff;strokeColor=none;dashed=0;outlineConnect=0;html=1;labelPosition=center;verticalLabelPosition=bottom;verticalAlign=top;part=1;movable=0;resizable=0;rotatable=0;shape=mxgraph.ibm_cloud.vpn--connection&quot; vertex=&quot;1&quot; parent=&quot;LddF3R96ZCdnI7Bx30d1-39&quot;&gt;&#10;          &lt;mxGeometry width=&quot;24&quot; height=&quot;24&quot; relative=&quot;1&quot; as=&quot;geometry&quot;&gt;&#10;            &lt;mxPoint x=&quot;12&quot; y=&quot;12&quot; as=&quot;offset&quot; /&gt;&#10;          &lt;/mxGeometry&gt;&#10;        &lt;/mxCell&gt;&#10;        &lt;mxCell id=&quot;LddF3R96ZCdnI7Bx30d1-41&quot; value=&quot;&quot; style=&quot;shape=rect;fillColor=#FA4D56;aspect=fixed;resizable=0;labelPosition=center;verticalLabelPosition=bottom;align=center;verticalAlign=top;strokeColor=none;fontSize=14;&quot; vertex=&quot;1&quot; parent=&quot;1&quot;&gt;&#10;          &lt;mxGeometry x=&quot;500&quot; y=&quot;260&quot; width=&quot;48&quot; height=&quot;48&quot; as=&quot;geometry&quot; /&gt;&#10;        &lt;/mxCell&gt;&#10;        &lt;mxCell id=&quot;LddF3R96ZCdnI7Bx30d1-42&quot; value=&quot;&quot; style=&quot;fillColor=#ffffff;strokeColor=none;dashed=0;outlineConnect=0;html=1;labelPosition=center;verticalLabelPosition=bottom;verticalAlign=top;part=1;movable=0;resizable=0;rotatable=0;shape=mxgraph.ibm_cloud.vpn--connection&quot; vertex=&quot;1&quot; parent=&quot;LddF3R96ZCdnI7Bx30d1-41&quot;&gt;&#10;          &lt;mxGeometry width=&quot;24&quot; height=&quot;24&quot; relative=&quot;1&quot; as=&quot;geometry&quot;&gt;&#10;            &lt;mxPoint x=&quot;12&quot; y=&quot;12&quot; as=&quot;offset&quot; /&gt;&#10;          &lt;/mxGeometry&gt;&#10;        &lt;/mxCell&gt;&#10;        &lt;mxCell id=&quot;LddF3R96ZCdnI7Bx30d1-43&quot; value=&quot;Origin Server&amp;#xa;with TLS mode&quot; style=&quot;shape=rect;fillColor=#198038;aspect=fixed;resizable=0;labelPosition=center;verticalLabelPosition=bottom;align=center;verticalAlign=top;strokeColor=none;fontSize=14;&quot; vertex=&quot;1&quot; parent=&quot;1&quot;&gt;&#10;          &lt;mxGeometry x=&quot;599&quot; y=&quot;260&quot; width=&quot;48&quot; height=&quot;48&quot; as=&quot;geometry&quot; /&gt;&#10;        &lt;/mxCell&gt;&#10;        &lt;mxCell id=&quot;LddF3R96ZCdnI7Bx30d1-44&quot; value=&quot;&quot; style=&quot;fillColor=#ffffff;strokeColor=none;dashed=0;outlineConnect=0;html=1;labelPosition=center;verticalLabelPosition=bottom;verticalAlign=top;part=1;movable=0;resizable=0;rotatable=0;shape=mxgraph.ibm_cloud.ibm-cloud--virtual-server-classic&quot; vertex=&quot;1&quot; parent=&quot;LddF3R96ZCdnI7Bx30d1-43&quot;&gt;&#10;          &lt;mxGeometry width=&quot;24&quot; height=&quot;24&quot; relative=&quot;1&quot; as=&quot;geometry&quot;&gt;&#10;            &lt;mxPoint x=&quot;12&quot; y=&quot;12&quot; as=&quot;offset&quot; /&gt;&#10;          &lt;/mxGeometry&gt;&#10;        &lt;/mxCell&gt;&#10;      &lt;/root&gt;&#10;    &lt;/mxGraphModel&gt;&#10;  &lt;/diagram&gt;&#10;&lt;/mxfile&gt;&#10;"><defs/><g><g data-cell-id="0"><g data-cell-id="1"><g data-cell-id="LddF3R96ZCdnI7Bx30d1-34"><g><path d="M 17 25.5 L 427 26.5" fill="none" stroke="#000000" stroke-miterlimit="10" pointer-events="stroke" style="stroke: rgb(0, 0, 0);"/></g></g><g data-cell-id="LddF3R96ZCdnI7Bx30d1-35"><g><ellipse cx="24" cy="24" rx="24" ry="24" fill="#000000" stroke="none" pointer-events="all" style="fill: rgb(0, 0, 0);"/></g><g><g fill="#000000" font-family="&quot;Helvetica&quot;" text-anchor="middle" font-size="14px" style="fill: rgb(0, 0, 0);"><text x="23.5" y="67.5">Visitor</text></g></g><g data-cell-id="LddF3R96ZCdnI7Bx30d1-36"><g><rect x="12" y="12" width="24" height="24" fill="none" stroke="none" pointer-events="all"/><rect x="12" y="12" width="0" height="0" fill="none" stroke="none" pointer-events="all"/><path d="M 24 15 C 26.07 15 27.75 16.68 27.75 18.75 C 27.75 20.82 26.07 22.5 24 22.5 C 21.93 22.5 20.25 20.82 20.25 18.75 C 20.25 16.68 21.93 15 24 15 M 24 13.5 C 21.1 13.5 18.75 15.85 18.75 18.75 C 18.75 21.65 21.1 24 24 24 C 26.9 24 29.25 21.65 29.25 18.75 C 29.25 15.85 26.9 13.5 24 13.5 Z M 31.5 34.5 L 30 34.5 L 30 30.75 C 30 28.68 28.32 27 26.25 27 L 21.75 27 C 19.68 27 18 28.68 18 30.75 L 18 34.5 L 16.5 34.5 L 16.5 30.75 C 16.5 27.85 18.85 25.5 21.75 25.5 L 26.25 25.5 C 29.15 25.5 31.5 27.85 31.5 30.75 Z" fill="#ffffff" stroke="none" pointer-events="all" style="fill: rgb(255, 255, 255);"/></g></g></g><g data-cell-id="LddF3R96ZCdnI7Bx30d1-37"><g><rect x="198" y="0" width="48" height="48" fill="#1192e8" stroke="none" pointer-events="all" style="fill: rgb(17, 146, 232);"/></g><g><g fill="#000000" font-family="&quot;Helvetica&quot;" text-anchor="middle" font-size="14px" style="fill: rgb(0, 0, 0);"><text x="221.5" y="67.5">Cloud </text><text x="221.5" y="84.5">Internet </text><text x="221.5" y="101.5">Services</text></g></g><g data-cell-id="LddF3R96ZCdnI7Bx30d1-38"><g><rect x="210" y="12" width="24" height="24" fill="none" stroke="none" pointer-events="all"/><rect x="210" y="12" width="0" height="0" fill="none" stroke="none" pointer-events="all"/><path d="M 230.25 28.5 C 229.72 28.5 229.2 28.73 228.83 29.02 L 224.92 26.7 C 224.92 26.55 225 26.4 225 26.25 C 225 26.1 225 25.95 224.92 25.8 L 228.83 23.48 C 229.2 23.77 229.72 24 230.25 24 C 231.53 24 232.5 23.02 232.5 21.75 C 232.5 20.48 231.53 19.5 230.25 19.5 C 228.97 19.5 228 20.48 228 21.75 C 228 21.9 228 22.05 228.08 22.2 L 224.17 24.52 C 223.8 24.23 223.28 24 222.75 24 C 221.47 24 220.5 24.98 220.5 26.25 C 220.5 27.52 221.47 28.5 222.75 28.5 C 223.28 28.5 223.8 28.27 224.17 27.98 L 228.08 30.3 C 228.08 30.45 228 30.6 228 30.75 C 228 32.02 228.97 33 230.25 33 C 231.53 33 232.5 32.02 232.5 30.75 C 232.5 29.48 231.53 28.5 230.25 28.5 Z M 230.25 21 C 230.7 21 231 21.3 231 21.75 C 231 22.2 230.7 22.5 230.25 22.5 C 229.8 22.5 229.5 22.2 229.5 21.75 C 229.5 21.3 229.8 21 230.25 21 Z M 222.75 27 C 222.3 27 222 26.7 222 26.25 C 222 25.8 222.3 25.5 222.75 25.5 C 223.2 25.5 223.5 25.8 223.5 26.25 C 223.5 26.7 223.2 27 222.75 27 Z M 230.25 31.5 C 229.8 31.5 229.5 31.2 229.5 30.75 C 229.5 30.3 229.8 30 230.25 30 C 230.7 30 231 30.3 231 30.75 C 231 31.2 230.7 31.5 230.25 31.5 Z" fill="#ffffff" stroke="none" pointer-events="all" style="fill: rgb(255, 255, 255);"/><path d="M 224.25 30.75 L 216.38 30.75 C 214.13 30.75 212.25 28.88 212.25 26.63 C 212.25 24.6 213.67 22.95 215.63 22.58 L 216.6 22.42 L 216.83 21.45 C 217.42 18.52 219.9 16.5 222.75 16.5 C 223.13 16.5 223.5 16.5 223.88 16.58 C 225.08 16.8 226.13 17.4 227.03 18.23 L 228.08 17.17 C 227.03 16.13 225.67 15.38 224.17 15.15 C 223.72 15.08 223.2 15 222.75 15 C 219.22 15 216.08 17.48 215.4 21.08 C 212.7 21.6 210.75 23.92 210.75 26.63 C 210.75 29.7 213.22 32.25 216.38 32.25 L 224.25 32.25 L 224.25 30.75 Z" fill="#ffffff" stroke="none" pointer-events="all" style="fill: rgb(255, 255, 255);"/></g></g></g><g data-cell-id="LddF3R96ZCdnI7Bx30d1-39"><g><rect x="100" y="0" width="48" height="48" fill="#fa4d56" stroke="none" pointer-events="all" style="fill: rgb(250, 77, 86);"/></g><g data-cell-id="LddF3R96ZCdnI7Bx30d1-40"><g><rect x="112" y="12" width="24" height="24" fill="none" stroke="none" pointer-events="all"/><rect x="112" y="12" width="0" height="0" fill="none" stroke="none" pointer-events="all"/><path d="M 133 17.25 C 132.47 17.25 131.97 17.54 131.71 18 L 128.5 18 C 128.5 15.51 126.49 13.5 124 13.5 C 121.51 13.5 119.5 15.51 119.5 18 L 116.29 18 C 115.95 17.41 115.26 17.13 114.6 17.3 C 113.95 17.48 113.49 18.07 113.49 18.75 C 113.49 19.43 113.95 20.02 114.6 20.2 C 115.26 20.37 115.95 20.09 116.29 19.5 L 119.5 19.5 L 119.5 22.5 L 118 22.5 C 117.17 22.5 116.5 23.17 116.5 24 L 116.5 33 C 116.5 33.83 117.17 34.5 118 34.5 L 130 34.5 C 130.83 34.5 131.5 33.83 131.5 33 L 131.5 24 C 131.5 23.17 130.83 22.5 130 22.5 L 128.5 22.5 L 128.5 19.5 L 131.71 19.5 C 132.07 20.13 132.84 20.4 133.52 20.15 C 134.2 19.9 134.61 19.2 134.48 18.48 C 134.35 17.77 133.73 17.25 133 17.25 M 121 18 C 121 16.34 122.34 15 124 15 C 125.66 15 127 16.34 127 18 L 127 22.5 L 121 22.5 L 121 19.5 L 124.75 19.5 L 124.75 18 Z M 130 24 L 130 33 L 118 33 L 118 24 Z" fill="#ffffff" stroke="none" pointer-events="all" style="fill: rgb(255, 255, 255);"/></g></g></g><g data-cell-id="LddF3R96ZCdnI7Bx30d1-41"><g><rect x="296" y="0" width="48" height="48" fill="#fa4d56" stroke="none" pointer-events="all" style="fill: rgb(250, 77, 86);"/></g><g data-cell-id="LddF3R96ZCdnI7Bx30d1-42"><g><rect x="308" y="12" width="24" height="24" fill="none" stroke="none" pointer-events="all"/><rect x="308" y="12" width="0" height="0" fill="none" stroke="none" pointer-events="all"/><path d="M 329 17.25 C 328.47 17.25 327.97 17.54 327.71 18 L 324.5 18 C 324.5 15.51 322.49 13.5 320 13.5 C 317.51 13.5 315.5 15.51 315.5 18 L 312.29 18 C 311.95 17.41 311.26 17.13 310.6 17.3 C 309.95 17.48 309.49 18.07 309.49 18.75 C 309.49 19.43 309.95 20.02 310.6 20.2 C 311.26 20.37 311.95 20.09 312.29 19.5 L 315.5 19.5 L 315.5 22.5 L 314 22.5 C 313.17 22.5 312.5 23.17 312.5 24 L 312.5 33 C 312.5 33.83 313.17 34.5 314 34.5 L 326 34.5 C 326.83 34.5 327.5 33.83 327.5 33 L 327.5 24 C 327.5 23.17 326.83 22.5 326 22.5 L 324.5 22.5 L 324.5 19.5 L 327.71 19.5 C 328.07 20.13 328.84 20.4 329.52 20.15 C 330.2 19.9 330.61 19.2 330.48 18.48 C 330.35 17.77 329.73 17.25 329 17.25 M 317 18 C 317 16.34 318.34 15 320 15 C 321.66 15 323 16.34 323 18 L 323 22.5 L 317 22.5 L 317 19.5 L 320.75 19.5 L 320.75 18 Z M 326 24 L 326 33 L 314 33 L 314 24 Z" fill="#ffffff" stroke="none" pointer-events="all" style="fill: rgb(255, 255, 255);"/></g></g></g><g data-cell-id="LddF3R96ZCdnI7Bx30d1-43"><g><rect x="395" y="0" width="48" height="48" fill="#198038" stroke="none" pointer-events="all" style="fill: rgb(25, 128, 56);"/></g><g><g fill="#000000" font-family="&quot;Helvetica&quot;" text-anchor="middle" font-size="14px" style="fill: rgb(0, 0, 0);"><text x="418.5" y="67.5">Origin Server</text><text x="418.5" y="84.5">with TLS mode</text></g></g><g data-cell-id="LddF3R96ZCdnI7Bx30d1-44"><g><rect x="407" y="12" width="24" height="24" fill="none" stroke="none" pointer-events="all"/><rect x="407" y="12" width="0" height="0" fill="none" stroke="none" pointer-events="all"/><ellipse cx="413.75" cy="31.5" rx="0.75" ry="0.75" fill="#ffffff" stroke="none" pointer-events="all" style="fill: rgb(255, 255, 255);"/><path d="M 426.5 28.5 L 422.75 28.5 L 422.75 30 L 426.5 30 L 426.5 33 L 411.5 33 L 411.5 30 L 418.25 30 C 419.08 30 419.75 29.33 419.75 28.5 L 419.75 21.62 L 421.69 23.57 L 422.75 22.5 L 419 18.75 L 415.25 22.5 L 416.31 23.56 L 418.25 21.62 L 418.25 28.5 L 411.5 28.5 C 410.67 28.5 410 29.17 410 30 L 410 33 C 410 33.83 410.67 34.5 411.5 34.5 L 426.5 34.5 C 427.33 34.5 428 33.83 428 33 L 428 30 C 428 29.17 427.33 28.5 426.5 28.5 Z" fill="#ffffff" stroke="none" pointer-events="all" style="fill: rgb(255, 255, 255);"/><path d="M 424.81 18.04 C 424.15 15.41 421.75 13.5 419 13.5 C 416.25 13.5 413.85 15.41 413.19 18.04 C 410.97 18.32 409.25 20.21 409.25 22.5 C 409.25 24.98 411.27 27 413.75 27 L 415.25 27 L 415.25 25.5 L 413.75 25.5 C 412.09 25.5 410.75 24.16 410.75 22.5 C 410.75 20.86 412.08 19.52 413.71 19.5 L 414.45 19.51 L 414.55 18.86 C 414.87 16.66 416.78 15 419 15 C 421.22 15 423.13 16.66 423.45 18.86 L 423.54 19.52 L 424.2 19.51 L 424.3 19.5 C 425.93 19.52 427.25 20.86 427.25 22.5 C 427.25 24.16 425.91 25.5 424.25 25.5 L 422.75 25.5 L 422.75 27 L 424.25 27 C 426.73 27 428.75 24.98 428.75 22.5 C 428.75 20.21 427.03 18.32 424.81 18.04 Z" fill="#ffffff" stroke="none" pointer-events="all" style="fill: rgb(255, 255, 255);"/></g></g></g></g></g></g></svg>