<?xml version="1.0" encoding="UTF-8"?>
<!-- Do not edit this file with editors other than draw.io -->
<!DOCTYPE svg PUBLIC "-//W3C//DTD SVG 1.1//EN" "http://www.w3.org/Graphics/SVG/1.1/DTD/svg11.dtd">
<svg xmlns="http://www.w3.org/2000/svg" style="background: #ffffff; background-color: #ffffff; color-scheme: light;" xmlns:xlink="http://www.w3.org/1999/xlink" version="1.1" width="670px" height="291px" viewBox="-0.5 -0.5 670 291" content="&lt;mxfile host=&quot;app.diagrams.net&quot; agent=&quot;Mozilla/5.0 (Macintosh; Intel Mac OS X 10_15_7) AppleWebKit/537.36 (KHTML, like Gecko) Chrome/138.0.0.0 Safari/537.36 Edg/138.0.0.0&quot; version=&quot;27.2.0&quot; scale=&quot;1&quot; border=&quot;0&quot;&gt;&#10;  &lt;diagram name=&quot;Page-1&quot; id=&quot;VMQzMJBvYHzRfyUvyS4v&quot;&gt;&#10;    &lt;mxGraphModel dx=&quot;1226&quot; dy=&quot;698&quot; grid=&quot;1&quot; gridSize=&quot;10&quot; guides=&quot;1&quot; tooltips=&quot;1&quot; connect=&quot;1&quot; arrows=&quot;1&quot; fold=&quot;1&quot; page=&quot;1&quot; pageScale=&quot;1&quot; pageWidth=&quot;850&quot; pageHeight=&quot;1100&quot; math=&quot;0&quot; shadow=&quot;0&quot;&gt;&#10;      &lt;root&gt;&#10;        &lt;mxCell id=&quot;0&quot; /&gt;&#10;        &lt;mxCell id=&quot;1&quot; parent=&quot;0&quot; /&gt;&#10;        &lt;mxCell id=&quot;dlb-fHAUYnm78_AOpvT9-1&quot; value=&quot;&quot; style=&quot;rounded=0;whiteSpace=wrap;html=1;fillColor=default;strokeColor=none;&quot; vertex=&quot;1&quot; parent=&quot;1&quot;&gt;&#10;          &lt;mxGeometry x=&quot;90&quot; y=&quot;149&quot; width=&quot;670&quot; height=&quot;291&quot; as=&quot;geometry&quot; /&gt;&#10;        &lt;/mxCell&gt;&#10;        &lt;mxCell id=&quot;dlb-fHAUYnm78_AOpvT9-11&quot; value=&quot;&quot; style=&quot;endArrow=none;html=1;rounded=0;&quot; edge=&quot;1&quot; parent=&quot;1&quot;&gt;&#10;          &lt;mxGeometry width=&quot;50&quot; height=&quot;50&quot; relative=&quot;1&quot; as=&quot;geometry&quot;&gt;&#10;            &lt;mxPoint x=&quot;221&quot; y=&quot;295&quot; as=&quot;sourcePoint&quot; /&gt;&#10;            &lt;mxPoint x=&quot;631&quot; y=&quot;296&quot; as=&quot;targetPoint&quot; /&gt;&#10;          &lt;/mxGeometry&gt;&#10;        &lt;/mxCell&gt;&#10;        &lt;mxCell id=&quot;dlb-fHAUYnm78_AOpvT9-12&quot; value=&quot;Visitor&quot; style=&quot;shape=ellipse;fillColor=#000000;aspect=fixed;resizable=0;labelPosition=center;verticalLabelPosition=bottom;align=center;verticalAlign=top;strokeColor=none;fontSize=14;&quot; vertex=&quot;1&quot; parent=&quot;1&quot;&gt;&#10;          &lt;mxGeometry x=&quot;204&quot; y=&quot;269.5&quot; width=&quot;48&quot; height=&quot;48&quot; as=&quot;geometry&quot; /&gt;&#10;        &lt;/mxCell&gt;&#10;        &lt;mxCell id=&quot;dlb-fHAUYnm78_AOpvT9-13&quot; value=&quot;&quot; style=&quot;fillColor=#ffffff;strokeColor=none;dashed=0;outlineConnect=0;html=1;labelPosition=center;verticalLabelPosition=bottom;verticalAlign=top;part=1;movable=0;resizable=0;rotatable=0;shape=mxgraph.ibm_cloud.user&quot; vertex=&quot;1&quot; parent=&quot;dlb-fHAUYnm78_AOpvT9-12&quot;&gt;&#10;          &lt;mxGeometry width=&quot;24&quot; height=&quot;24&quot; relative=&quot;1&quot; as=&quot;geometry&quot;&gt;&#10;            &lt;mxPoint x=&quot;12&quot; y=&quot;12&quot; as=&quot;offset&quot; /&gt;&#10;          &lt;/mxGeometry&gt;&#10;        &lt;/mxCell&gt;&#10;        &lt;mxCell id=&quot;dlb-fHAUYnm78_AOpvT9-14&quot; value=&quot;Cloud &amp;#xa;Internet &amp;#xa;Services&quot; style=&quot;shape=rect;fillColor=#1192E8;aspect=fixed;resizable=0;labelPosition=center;verticalLabelPosition=bottom;align=center;verticalAlign=top;strokeColor=none;fontSize=14;&quot; vertex=&quot;1&quot; parent=&quot;1&quot;&gt;&#10;          &lt;mxGeometry x=&quot;402&quot; y=&quot;271.5&quot; width=&quot;48&quot; height=&quot;48&quot; as=&quot;geometry&quot; /&gt;&#10;        &lt;/mxCell&gt;&#10;        &lt;mxCell id=&quot;dlb-fHAUYnm78_AOpvT9-15&quot; value=&quot;&quot; style=&quot;fillColor=#ffffff;strokeColor=none;dashed=0;outlineConnect=0;html=1;labelPosition=center;verticalLabelPosition=bottom;verticalAlign=top;part=1;movable=0;resizable=0;rotatable=0;shape=mxgraph.ibm_cloud.ibm-cloud--internet-services&quot; vertex=&quot;1&quot; parent=&quot;dlb-fHAUYnm78_AOpvT9-14&quot;&gt;&#10;          &lt;mxGeometry width=&quot;24&quot; height=&quot;24&quot; relative=&quot;1&quot; as=&quot;geometry&quot;&gt;&#10;            &lt;mxPoint x=&quot;12&quot; y=&quot;12&quot; as=&quot;offset&quot; /&gt;&#10;          &lt;/mxGeometry&gt;&#10;        &lt;/mxCell&gt;&#10;        &lt;mxCell id=&quot;dlb-fHAUYnm78_AOpvT9-16&quot; value=&quot;&quot; style=&quot;shape=rect;fillColor=#FA4D56;aspect=fixed;resizable=0;labelPosition=center;verticalLabelPosition=bottom;align=center;verticalAlign=top;strokeColor=none;fontSize=14;&quot; vertex=&quot;1&quot; parent=&quot;1&quot;&gt;&#10;          &lt;mxGeometry x=&quot;304&quot; y=&quot;271.5&quot; width=&quot;48&quot; height=&quot;48&quot; as=&quot;geometry&quot; /&gt;&#10;        &lt;/mxCell&gt;&#10;        &lt;mxCell id=&quot;dlb-fHAUYnm78_AOpvT9-17&quot; value=&quot;&quot; style=&quot;fillColor=#ffffff;strokeColor=none;dashed=0;outlineConnect=0;html=1;labelPosition=center;verticalLabelPosition=bottom;verticalAlign=top;part=1;movable=0;resizable=0;rotatable=0;shape=mxgraph.ibm_cloud.vpn--connection&quot; vertex=&quot;1&quot; parent=&quot;dlb-fHAUYnm78_AOpvT9-16&quot;&gt;&#10;          &lt;mxGeometry width=&quot;24&quot; height=&quot;24&quot; relative=&quot;1&quot; as=&quot;geometry&quot;&gt;&#10;            &lt;mxPoint x=&quot;12&quot; y=&quot;12&quot; as=&quot;offset&quot; /&gt;&#10;          &lt;/mxGeometry&gt;&#10;        &lt;/mxCell&gt;&#10;        &lt;mxCell id=&quot;dlb-fHAUYnm78_AOpvT9-18&quot; value=&quot;&quot; style=&quot;shape=rect;fillColor=#FA4D56;aspect=fixed;resizable=0;labelPosition=center;verticalLabelPosition=bottom;align=center;verticalAlign=top;strokeColor=none;fontSize=14;&quot; vertex=&quot;1&quot; parent=&quot;1&quot;&gt;&#10;          &lt;mxGeometry x=&quot;500&quot; y=&quot;271.5&quot; width=&quot;48&quot; height=&quot;48&quot; as=&quot;geometry&quot; /&gt;&#10;        &lt;/mxCell&gt;&#10;        &lt;mxCell id=&quot;dlb-fHAUYnm78_AOpvT9-19&quot; value=&quot;&quot; style=&quot;fillColor=#ffffff;strokeColor=none;dashed=0;outlineConnect=0;html=1;labelPosition=center;verticalLabelPosition=bottom;verticalAlign=top;part=1;movable=0;resizable=0;rotatable=0;shape=mxgraph.ibm_cloud.vpn--connection&quot; vertex=&quot;1&quot; parent=&quot;dlb-fHAUYnm78_AOpvT9-18&quot;&gt;&#10;          &lt;mxGeometry width=&quot;24&quot; height=&quot;24&quot; relative=&quot;1&quot; as=&quot;geometry&quot;&gt;&#10;            &lt;mxPoint x=&quot;12&quot; y=&quot;12&quot; as=&quot;offset&quot; /&gt;&#10;          &lt;/mxGeometry&gt;&#10;        &lt;/mxCell&gt;&#10;        &lt;mxCell id=&quot;dlb-fHAUYnm78_AOpvT9-20&quot; value=&quot;Origin Server&amp;#xa;&quot; style=&quot;shape=rect;fillColor=#198038;aspect=fixed;resizable=0;labelPosition=center;verticalLabelPosition=bottom;align=center;verticalAlign=top;strokeColor=none;fontSize=14;&quot; vertex=&quot;1&quot; parent=&quot;1&quot;&gt;&#10;          &lt;mxGeometry x=&quot;599&quot; y=&quot;271.5&quot; width=&quot;48&quot; height=&quot;48&quot; as=&quot;geometry&quot; /&gt;&#10;        &lt;/mxCell&gt;&#10;        &lt;mxCell id=&quot;dlb-fHAUYnm78_AOpvT9-21&quot; value=&quot;&quot; style=&quot;fillColor=#ffffff;strokeColor=none;dashed=0;outlineConnect=0;html=1;labelPosition=center;verticalLabelPosition=bottom;verticalAlign=top;part=1;movable=0;resizable=0;rotatable=0;shape=mxgraph.ibm_cloud.ibm-cloud--virtual-server-classic&quot; vertex=&quot;1&quot; parent=&quot;dlb-fHAUYnm78_AOpvT9-20&quot;&gt;&#10;          &lt;mxGeometry width=&quot;24&quot; height=&quot;24&quot; relative=&quot;1&quot; as=&quot;geometry&quot;&gt;&#10;            &lt;mxPoint x=&quot;12&quot; y=&quot;12&quot; as=&quot;offset&quot; /&gt;&#10;          &lt;/mxGeometry&gt;&#10;        &lt;/mxCell&gt;&#10;      &lt;/root&gt;&#10;    &lt;/mxGraphModel&gt;&#10;  &lt;/diagram&gt;&#10;&lt;/mxfile&gt;&#10;"><defs/><rect fill="#ffffff" width="100%" height="100%" x="0" y="0" style="fill: rgb(255, 255, 255);"/><g><g data-cell-id="0"><g data-cell-id="1"><g data-cell-id="dlb-fHAUYnm78_AOpvT9-1"><g><rect x="0" y="0" width="670" height="291" fill="#ffffff" stroke="none" pointer-events="all" style="fill: rgb(255, 255, 255);"/></g></g><g data-cell-id="dlb-fHAUYnm78_AOpvT9-11"><g><path d="M 131 146 L 541 147" fill="none" stroke="#000000" stroke-miterlimit="10" pointer-events="stroke" style="stroke: rgb(0, 0, 0);"/></g></g><g data-cell-id="dlb-fHAUYnm78_AOpvT9-12"><g><ellipse cx="138" cy="144.5" rx="24" ry="24" fill="#000000" stroke="none" pointer-events="all" style="fill: rgb(0, 0, 0);"/></g><g><g fill="#000000" font-family="Helvetica" text-anchor="middle" font-size="14px" style="fill: rgb(0, 0, 0);"><text x="138" y="188.5">Visitor</text></g></g><g data-cell-id="dlb-fHAUYnm78_AOpvT9-13"><g><rect x="126" y="132.5" width="24" height="24" fill="none" stroke="none" pointer-events="all"/><rect x="126" y="132.5" width="0" height="0" fill="none" stroke="none" pointer-events="all"/><path d="M 138 135.5 C 140.07 135.5 141.75 137.18 141.75 139.25 C 141.75 141.32 140.07 143 138 143 C 135.93 143 134.25 141.32 134.25 139.25 C 134.25 137.18 135.93 135.5 138 135.5 M 138 134 C 135.1 134 132.75 136.35 132.75 139.25 C 132.75 142.15 135.1 144.5 138 144.5 C 140.9 144.5 143.25 142.15 143.25 139.25 C 143.25 136.35 140.9 134 138 134 Z M 145.5 155 L 144 155 L 144 151.25 C 144 149.18 142.32 147.5 140.25 147.5 L 135.75 147.5 C 133.68 147.5 132 149.18 132 151.25 L 132 155 L 130.5 155 L 130.5 151.25 C 130.5 148.35 132.85 146 135.75 146 L 140.25 146 C 143.15 146 145.5 148.35 145.5 151.25 Z" fill="#ffffff" stroke="none" pointer-events="all" style="fill: rgb(255, 255, 255);"/></g></g></g><g data-cell-id="dlb-fHAUYnm78_AOpvT9-14"><g><rect x="312" y="122.5" width="48" height="48" fill="#1192e8" stroke="none" pointer-events="all" style="fill: rgb(17, 146, 232);"/></g><g><g fill="#000000" font-family="Helvetica" text-anchor="middle" font-size="14px" style="fill: rgb(0, 0, 0);"><text x="336" y="190.5">Cloud </text><text x="336" y="207.5">Internet </text><text x="336" y="224.5">Services</text></g></g><g data-cell-id="dlb-fHAUYnm78_AOpvT9-15"><g><rect x="324" y="134.5" width="24" height="24" fill="none" stroke="none" pointer-events="all"/><rect x="324" y="134.5" width="0" height="0" fill="none" stroke="none" pointer-events="all"/><path d="M 344.25 151 C 343.72 151 343.2 151.23 342.83 151.52 L 338.92 149.2 C 338.92 149.05 339 148.9 339 148.75 C 339 148.6 339 148.45 338.92 148.3 L 342.83 145.98 C 343.2 146.27 343.72 146.5 344.25 146.5 C 345.53 146.5 346.5 145.52 346.5 144.25 C 346.5 142.98 345.53 142 344.25 142 C 342.97 142 342 142.98 342 144.25 C 342 144.4 342 144.55 342.08 144.7 L 338.17 147.02 C 337.8 146.73 337.28 146.5 336.75 146.5 C 335.47 146.5 334.5 147.48 334.5 148.75 C 334.5 150.02 335.47 151 336.75 151 C 337.28 151 337.8 150.77 338.17 150.48 L 342.08 152.8 C 342.08 152.95 342 153.1 342 153.25 C 342 154.52 342.97 155.5 344.25 155.5 C 345.53 155.5 346.5 154.52 346.5 153.25 C 346.5 151.98 345.53 151 344.25 151 Z M 344.25 143.5 C 344.7 143.5 345 143.8 345 144.25 C 345 144.7 344.7 145 344.25 145 C 343.8 145 343.5 144.7 343.5 144.25 C 343.5 143.8 343.8 143.5 344.25 143.5 Z M 336.75 149.5 C 336.3 149.5 336 149.2 336 148.75 C 336 148.3 336.3 148 336.75 148 C 337.2 148 337.5 148.3 337.5 148.75 C 337.5 149.2 337.2 149.5 336.75 149.5 Z M 344.25 154 C 343.8 154 343.5 153.7 343.5 153.25 C 343.5 152.8 343.8 152.5 344.25 152.5 C 344.7 152.5 345 152.8 345 153.25 C 345 153.7 344.7 154 344.25 154 Z" fill="#ffffff" stroke="none" pointer-events="all" style="fill: rgb(255, 255, 255);"/><path d="M 338.25 153.25 L 330.38 153.25 C 328.13 153.25 326.25 151.38 326.25 149.13 C 326.25 147.1 327.67 145.45 329.63 145.08 L 330.6 144.92 L 330.83 143.95 C 331.42 141.02 333.9 139 336.75 139 C 337.13 139 337.5 139 337.88 139.08 C 339.08 139.3 340.13 139.9 341.03 140.73 L 342.08 139.67 C 341.03 138.63 339.67 137.88 338.17 137.65 C 337.72 137.58 337.2 137.5 336.75 137.5 C 333.22 137.5 330.08 139.98 329.4 143.58 C 326.7 144.1 324.75 146.42 324.75 149.13 C 324.75 152.2 327.22 154.75 330.38 154.75 L 338.25 154.75 L 338.25 153.25 Z" fill="#ffffff" stroke="none" pointer-events="all" style="fill: rgb(255, 255, 255);"/></g></g></g><g data-cell-id="dlb-fHAUYnm78_AOpvT9-16"><g><rect x="214" y="122.5" width="48" height="48" fill="#fa4d56" stroke="none" pointer-events="all" style="fill: rgb(250, 77, 86);"/></g><g data-cell-id="dlb-fHAUYnm78_AOpvT9-17"><g><rect x="226" y="134.5" width="24" height="24" fill="none" stroke="none" pointer-events="all"/><rect x="226" y="134.5" width="0" height="0" fill="none" stroke="none" pointer-events="all"/><path d="M 247 139.75 C 246.47 139.75 245.97 140.04 245.71 140.5 L 242.5 140.5 C 242.5 138.01 240.49 136 238 136 C 235.51 136 233.5 138.01 233.5 140.5 L 230.29 140.5 C 229.95 139.91 229.26 139.63 228.6 139.8 C 227.95 139.98 227.49 140.57 227.49 141.25 C 227.49 141.93 227.95 142.52 228.6 142.7 C 229.26 142.87 229.95 142.59 230.29 142 L 233.5 142 L 233.5 145 L 232 145 C 231.17 145 230.5 145.67 230.5 146.5 L 230.5 155.5 C 230.5 156.33 231.17 157 232 157 L 244 157 C 244.83 157 245.5 156.33 245.5 155.5 L 245.5 146.5 C 245.5 145.67 244.83 145 244 145 L 242.5 145 L 242.5 142 L 245.71 142 C 246.07 142.63 246.84 142.9 247.52 142.65 C 248.2 142.4 248.61 141.7 248.48 140.98 C 248.35 140.27 247.73 139.75 247 139.75 M 235 140.5 C 235 138.84 236.34 137.5 238 137.5 C 239.66 137.5 241 138.84 241 140.5 L 241 145 L 235 145 L 235 142 L 238.75 142 L 238.75 140.5 Z M 244 146.5 L 244 155.5 L 232 155.5 L 232 146.5 Z" fill="#ffffff" stroke="none" pointer-events="all" style="fill: rgb(255, 255, 255);"/></g></g></g><g data-cell-id="dlb-fHAUYnm78_AOpvT9-18"><g><rect x="410" y="122.5" width="48" height="48" fill="#fa4d56" stroke="none" pointer-events="all" style="fill: rgb(250, 77, 86);"/></g><g data-cell-id="dlb-fHAUYnm78_AOpvT9-19"><g><rect x="422" y="134.5" width="24" height="24" fill="none" stroke="none" pointer-events="all"/><rect x="422" y="134.5" width="0" height="0" fill="none" stroke="none" pointer-events="all"/><path d="M 443 139.75 C 442.47 139.75 441.97 140.04 441.71 140.5 L 438.5 140.5 C 438.5 138.01 436.49 136 434 136 C 431.51 136 429.5 138.01 429.5 140.5 L 426.29 140.5 C 425.95 139.91 425.26 139.63 424.6 139.8 C 423.95 139.98 423.49 140.57 423.49 141.25 C 423.49 141.93 423.95 142.52 424.6 142.7 C 425.26 142.87 425.95 142.59 426.29 142 L 429.5 142 L 429.5 145 L 428 145 C 427.17 145 426.5 145.67 426.5 146.5 L 426.5 155.5 C 426.5 156.33 427.17 157 428 157 L 440 157 C 440.83 157 441.5 156.33 441.5 155.5 L 441.5 146.5 C 441.5 145.67 440.83 145 440 145 L 438.5 145 L 438.5 142 L 441.71 142 C 442.07 142.63 442.84 142.9 443.52 142.65 C 444.2 142.4 444.61 141.7 444.48 140.98 C 444.35 140.27 443.73 139.75 443 139.75 M 431 140.5 C 431 138.84 432.34 137.5 434 137.5 C 435.66 137.5 437 138.84 437 140.5 L 437 145 L 431 145 L 431 142 L 434.75 142 L 434.75 140.5 Z M 440 146.5 L 440 155.5 L 428 155.5 L 428 146.5 Z" fill="#ffffff" stroke="none" pointer-events="all" style="fill: rgb(255, 255, 255);"/></g></g></g><g data-cell-id="dlb-fHAUYnm78_AOpvT9-20"><g><rect x="509" y="122.5" width="48" height="48" fill="#198038" stroke="none" pointer-events="all" style="fill: rgb(25, 128, 56);"/></g><g><g fill="#000000" font-family="Helvetica" text-anchor="middle" font-size="14px" style="fill: rgb(0, 0, 0);"><text x="533" y="190.5">Origin Server</text></g></g><g data-cell-id="dlb-fHAUYnm78_AOpvT9-21"><g><rect x="521" y="134.5" width="24" height="24" fill="none" stroke="none" pointer-events="all"/><rect x="521" y="134.5" width="0" height="0" fill="none" stroke="none" pointer-events="all"/><ellipse cx="527.75" cy="154" rx="0.75" ry="0.75" fill="#ffffff" stroke="none" pointer-events="all" style="fill: rgb(255, 255, 255);"/><path d="M 540.5 151 L 536.75 151 L 536.75 152.5 L 540.5 152.5 L 540.5 155.5 L 525.5 155.5 L 525.5 152.5 L 532.25 152.5 C 533.08 152.5 533.75 151.83 533.75 151 L 533.75 144.12 L 535.69 146.07 L 536.75 145 L 533 141.25 L 529.25 145 L 530.31 146.06 L 532.25 144.12 L 532.25 151 L 525.5 151 C 524.67 151 524 151.67 524 152.5 L 524 155.5 C 524 156.33 524.67 157 525.5 157 L 540.5 157 C 541.33 157 542 156.33 542 155.5 L 542 152.5 C 542 151.67 541.33 151 540.5 151 Z" fill="#ffffff" stroke="none" pointer-events="all" style="fill: rgb(255, 255, 255);"/><path d="M 538.81 140.54 C 538.15 137.91 535.75 136 533 136 C 530.25 136 527.85 137.91 527.19 140.54 C 524.97 140.82 523.25 142.71 523.25 145 C 523.25 147.48 525.27 149.5 527.75 149.5 L 529.25 149.5 L 529.25 148 L 527.75 148 C 526.09 148 524.75 146.66 524.75 145 C 524.75 143.36 526.08 142.02 527.71 142 L 528.45 142.01 L 528.55 141.36 C 528.87 139.16 530.78 137.5 533 137.5 C 535.22 137.5 537.13 139.16 537.45 141.36 L 537.54 142.02 L 538.2 142.01 L 538.3 142 C 539.93 142.02 541.25 143.36 541.25 145 C 541.25 146.66 539.91 148 538.25 148 L 536.75 148 L 536.75 149.5 L 538.25 149.5 C 540.73 149.5 542.75 147.48 542.75 145 C 542.75 142.71 541.03 140.82 538.81 140.54 Z" fill="#ffffff" stroke="none" pointer-events="all" style="fill: rgb(255, 255, 255);"/></g></g></g></g></g></g></svg>