<?xml version="1.0" encoding="UTF-8"?>
<!-- Do not edit this file with editors other than draw.io -->
<!DOCTYPE svg PUBLIC "-//W3C//DTD SVG 1.1//EN" "http://www.w3.org/Graphics/SVG/1.1/DTD/svg11.dtd">
<svg xmlns="http://www.w3.org/2000/svg" style="background: #ffffff; background-color: #ffffff; color-scheme: light;" xmlns:xlink="http://www.w3.org/1999/xlink" version="1.1" width="850px" height="225px" viewBox="-0.5 -0.5 850 225" content="&lt;mxfile host=&quot;app.diagrams.net&quot; agent=&quot;Mozilla/5.0 (Macintosh; Intel Mac OS X 10_15_7) AppleWebKit/537.36 (KHTML, like Gecko) Chrome/138.0.0.0 Safari/537.36 Edg/138.0.0.0&quot; version=&quot;27.2.0&quot; scale=&quot;1&quot; border=&quot;0&quot;&gt;&#10;  &lt;diagram name=&quot;Page-1&quot; id=&quot;t2ISW02FXIW0Eo_bIoR7&quot;&gt;&#10;    &lt;mxGraphModel dx=&quot;1226&quot; dy=&quot;698&quot; grid=&quot;1&quot; gridSize=&quot;10&quot; guides=&quot;1&quot; tooltips=&quot;1&quot; connect=&quot;1&quot; arrows=&quot;1&quot; fold=&quot;1&quot; page=&quot;1&quot; pageScale=&quot;1&quot; pageWidth=&quot;850&quot; pageHeight=&quot;1100&quot; math=&quot;0&quot; shadow=&quot;0&quot;&gt;&#10;      &lt;root&gt;&#10;        &lt;mxCell id=&quot;0&quot; /&gt;&#10;        &lt;mxCell id=&quot;1&quot; parent=&quot;0&quot; /&gt;&#10;        &lt;mxCell id=&quot;56ggsOPZfVLVSNzoqqUM-1&quot; value=&quot;&quot; style=&quot;rounded=0;whiteSpace=wrap;html=1;fillColor=default;strokeColor=none;&quot; vertex=&quot;1&quot; parent=&quot;1&quot;&gt;&#10;          &lt;mxGeometry x=&quot;151&quot; y=&quot;185.5&quot; width=&quot;550&quot; height=&quot;220&quot; as=&quot;geometry&quot; /&gt;&#10;        &lt;/mxCell&gt;&#10;        &lt;mxCell id=&quot;56ggsOPZfVLVSNzoqqUM-2&quot; value=&quot;&quot; style=&quot;endArrow=none;html=1;rounded=0;&quot; edge=&quot;1&quot; parent=&quot;1&quot;&gt;&#10;          &lt;mxGeometry width=&quot;50&quot; height=&quot;50&quot; relative=&quot;1&quot; as=&quot;geometry&quot;&gt;&#10;            &lt;mxPoint x=&quot;221&quot; y=&quot;295&quot; as=&quot;sourcePoint&quot; /&gt;&#10;            &lt;mxPoint x=&quot;631&quot; y=&quot;296&quot; as=&quot;targetPoint&quot; /&gt;&#10;          &lt;/mxGeometry&gt;&#10;        &lt;/mxCell&gt;&#10;        &lt;mxCell id=&quot;56ggsOPZfVLVSNzoqqUM-3&quot; value=&quot;Visitor&quot; style=&quot;shape=ellipse;fillColor=#000000;aspect=fixed;resizable=0;labelPosition=center;verticalLabelPosition=bottom;align=center;verticalAlign=top;strokeColor=none;fontSize=14;&quot; vertex=&quot;1&quot; parent=&quot;1&quot;&gt;&#10;          &lt;mxGeometry x=&quot;204&quot; y=&quot;269.5&quot; width=&quot;48&quot; height=&quot;48&quot; as=&quot;geometry&quot; /&gt;&#10;        &lt;/mxCell&gt;&#10;        &lt;mxCell id=&quot;56ggsOPZfVLVSNzoqqUM-4&quot; value=&quot;&quot; style=&quot;fillColor=#ffffff;strokeColor=none;dashed=0;outlineConnect=0;html=1;labelPosition=center;verticalLabelPosition=bottom;verticalAlign=top;part=1;movable=0;resizable=0;rotatable=0;shape=mxgraph.ibm_cloud.user&quot; vertex=&quot;1&quot; parent=&quot;56ggsOPZfVLVSNzoqqUM-3&quot;&gt;&#10;          &lt;mxGeometry width=&quot;24&quot; height=&quot;24&quot; relative=&quot;1&quot; as=&quot;geometry&quot;&gt;&#10;            &lt;mxPoint x=&quot;12&quot; y=&quot;12&quot; as=&quot;offset&quot; /&gt;&#10;          &lt;/mxGeometry&gt;&#10;        &lt;/mxCell&gt;&#10;        &lt;mxCell id=&quot;56ggsOPZfVLVSNzoqqUM-5&quot; value=&quot;Cloud &amp;#xa;Internet &amp;#xa;Services&quot; style=&quot;shape=rect;fillColor=#1192E8;aspect=fixed;resizable=0;labelPosition=center;verticalLabelPosition=bottom;align=center;verticalAlign=top;strokeColor=none;fontSize=14;&quot; vertex=&quot;1&quot; parent=&quot;1&quot;&gt;&#10;          &lt;mxGeometry x=&quot;402&quot; y=&quot;271.5&quot; width=&quot;48&quot; height=&quot;48&quot; as=&quot;geometry&quot; /&gt;&#10;        &lt;/mxCell&gt;&#10;        &lt;mxCell id=&quot;56ggsOPZfVLVSNzoqqUM-6&quot; value=&quot;&quot; style=&quot;fillColor=#ffffff;strokeColor=none;dashed=0;outlineConnect=0;html=1;labelPosition=center;verticalLabelPosition=bottom;verticalAlign=top;part=1;movable=0;resizable=0;rotatable=0;shape=mxgraph.ibm_cloud.ibm-cloud--internet-services&quot; vertex=&quot;1&quot; parent=&quot;56ggsOPZfVLVSNzoqqUM-5&quot;&gt;&#10;          &lt;mxGeometry width=&quot;24&quot; height=&quot;24&quot; relative=&quot;1&quot; as=&quot;geometry&quot;&gt;&#10;            &lt;mxPoint x=&quot;12&quot; y=&quot;12&quot; as=&quot;offset&quot; /&gt;&#10;          &lt;/mxGeometry&gt;&#10;        &lt;/mxCell&gt;&#10;        &lt;mxCell id=&quot;56ggsOPZfVLVSNzoqqUM-7&quot; value=&quot;&quot; style=&quot;shape=rect;fillColor=#FA4D56;aspect=fixed;resizable=0;labelPosition=center;verticalLabelPosition=bottom;align=center;verticalAlign=top;strokeColor=none;fontSize=14;&quot; vertex=&quot;1&quot; parent=&quot;1&quot;&gt;&#10;          &lt;mxGeometry x=&quot;304&quot; y=&quot;271.5&quot; width=&quot;48&quot; height=&quot;48&quot; as=&quot;geometry&quot; /&gt;&#10;        &lt;/mxCell&gt;&#10;        &lt;mxCell id=&quot;56ggsOPZfVLVSNzoqqUM-8&quot; value=&quot;&quot; style=&quot;fillColor=#ffffff;strokeColor=none;dashed=0;outlineConnect=0;html=1;labelPosition=center;verticalLabelPosition=bottom;verticalAlign=top;part=1;movable=0;resizable=0;rotatable=0;shape=mxgraph.ibm_cloud.vpn--connection&quot; vertex=&quot;1&quot; parent=&quot;56ggsOPZfVLVSNzoqqUM-7&quot;&gt;&#10;          &lt;mxGeometry width=&quot;24&quot; height=&quot;24&quot; relative=&quot;1&quot; as=&quot;geometry&quot;&gt;&#10;            &lt;mxPoint x=&quot;12&quot; y=&quot;12&quot; as=&quot;offset&quot; /&gt;&#10;          &lt;/mxGeometry&gt;&#10;        &lt;/mxCell&gt;&#10;        &lt;mxCell id=&quot;56ggsOPZfVLVSNzoqqUM-9&quot; value=&quot;&quot; style=&quot;shape=rect;fillColor=#FA4D56;aspect=fixed;resizable=0;labelPosition=center;verticalLabelPosition=bottom;align=center;verticalAlign=top;strokeColor=none;fontSize=14;&quot; vertex=&quot;1&quot; parent=&quot;1&quot;&gt;&#10;          &lt;mxGeometry x=&quot;500&quot; y=&quot;271.5&quot; width=&quot;48&quot; height=&quot;48&quot; as=&quot;geometry&quot; /&gt;&#10;        &lt;/mxCell&gt;&#10;        &lt;mxCell id=&quot;56ggsOPZfVLVSNzoqqUM-10&quot; value=&quot;&quot; style=&quot;fillColor=#ffffff;strokeColor=none;dashed=0;outlineConnect=0;html=1;labelPosition=center;verticalLabelPosition=bottom;verticalAlign=top;part=1;movable=0;resizable=0;rotatable=0;shape=mxgraph.ibm_cloud.vpn--connection&quot; vertex=&quot;1&quot; parent=&quot;56ggsOPZfVLVSNzoqqUM-9&quot;&gt;&#10;          &lt;mxGeometry width=&quot;24&quot; height=&quot;24&quot; relative=&quot;1&quot; as=&quot;geometry&quot;&gt;&#10;            &lt;mxPoint x=&quot;12&quot; y=&quot;12&quot; as=&quot;offset&quot; /&gt;&#10;          &lt;/mxGeometry&gt;&#10;        &lt;/mxCell&gt;&#10;        &lt;mxCell id=&quot;56ggsOPZfVLVSNzoqqUM-11&quot; value=&quot;Origin Server&amp;#xa;&quot; style=&quot;shape=rect;fillColor=#198038;aspect=fixed;resizable=0;labelPosition=center;verticalLabelPosition=bottom;align=center;verticalAlign=top;strokeColor=none;fontSize=14;&quot; vertex=&quot;1&quot; parent=&quot;1&quot;&gt;&#10;          &lt;mxGeometry x=&quot;599&quot; y=&quot;271.5&quot; width=&quot;48&quot; height=&quot;48&quot; as=&quot;geometry&quot; /&gt;&#10;        &lt;/mxCell&gt;&#10;        &lt;mxCell id=&quot;56ggsOPZfVLVSNzoqqUM-12&quot; value=&quot;&quot; style=&quot;fillColor=#ffffff;strokeColor=none;dashed=0;outlineConnect=0;html=1;labelPosition=center;verticalLabelPosition=bottom;verticalAlign=top;part=1;movable=0;resizable=0;rotatable=0;shape=mxgraph.ibm_cloud.ibm-cloud--virtual-server-classic&quot; vertex=&quot;1&quot; parent=&quot;56ggsOPZfVLVSNzoqqUM-11&quot;&gt;&#10;          &lt;mxGeometry width=&quot;24&quot; height=&quot;24&quot; relative=&quot;1&quot; as=&quot;geometry&quot;&gt;&#10;            &lt;mxPoint x=&quot;12&quot; y=&quot;12&quot; as=&quot;offset&quot; /&gt;&#10;          &lt;/mxGeometry&gt;&#10;        &lt;/mxCell&gt;&#10;        &lt;mxCell id=&quot;56ggsOPZfVLVSNzoqqUM-13&quot; value=&quot;&quot; style=&quot;rounded=0;whiteSpace=wrap;html=1;fillColor=default;strokeColor=none;&quot; vertex=&quot;1&quot; parent=&quot;1&quot;&gt;&#10;          &lt;mxGeometry y=&quot;185.5&quot; width=&quot;150&quot; height=&quot;224.5&quot; as=&quot;geometry&quot; /&gt;&#10;        &lt;/mxCell&gt;&#10;        &lt;mxCell id=&quot;56ggsOPZfVLVSNzoqqUM-14&quot; value=&quot;&quot; style=&quot;rounded=0;whiteSpace=wrap;html=1;fillColor=default;strokeColor=none;&quot; vertex=&quot;1&quot; parent=&quot;1&quot;&gt;&#10;          &lt;mxGeometry x=&quot;701&quot; y=&quot;185.5&quot; width=&quot;149&quot; height=&quot;224.5&quot; as=&quot;geometry&quot; /&gt;&#10;        &lt;/mxCell&gt;&#10;      &lt;/root&gt;&#10;    &lt;/mxGraphModel&gt;&#10;  &lt;/diagram&gt;&#10;&lt;/mxfile&gt;&#10;"><defs/><rect fill="#ffffff" width="100%" height="100%" x="0" y="0" style="fill: rgb(255, 255, 255);"/><g><g data-cell-id="0"><g data-cell-id="1"><g data-cell-id="56ggsOPZfVLVSNzoqqUM-1"><g><rect x="151" y="-0.5" width="550" height="220" fill="#ffffff" stroke="none" pointer-events="all" style="fill: rgb(255, 255, 255);"/></g></g><g data-cell-id="56ggsOPZfVLVSNzoqqUM-2"><g><path d="M 221 109 L 631 110" fill="none" stroke="#000000" stroke-miterlimit="10" pointer-events="stroke" style="stroke: rgb(0, 0, 0);"/></g></g><g data-cell-id="56ggsOPZfVLVSNzoqqUM-3"><g><ellipse cx="228" cy="107.5" rx="24" ry="24" fill="#000000" stroke="none" pointer-events="all" style="fill: rgb(0, 0, 0);"/></g><g><g fill="#000000" font-family="Helvetica" text-anchor="middle" font-size="14px" style="fill: rgb(0, 0, 0);"><text x="228" y="151.5">Visitor</text></g></g><g data-cell-id="56ggsOPZfVLVSNzoqqUM-4"><g><rect x="216" y="95.5" width="24" height="24" fill="none" stroke="none" pointer-events="all"/><rect x="216" y="95.5" width="0" height="0" fill="none" stroke="none" pointer-events="all"/><path d="M 228 98.5 C 230.07 98.5 231.75 100.18 231.75 102.25 C 231.75 104.32 230.07 106 228 106 C 225.93 106 224.25 104.32 224.25 102.25 C 224.25 100.18 225.93 98.5 228 98.5 M 228 97 C 225.1 97 222.75 99.35 222.75 102.25 C 222.75 105.15 225.1 107.5 228 107.5 C 230.9 107.5 233.25 105.15 233.25 102.25 C 233.25 99.35 230.9 97 228 97 Z M 235.5 118 L 234 118 L 234 114.25 C 234 112.18 232.32 110.5 230.25 110.5 L 225.75 110.5 C 223.68 110.5 222 112.18 222 114.25 L 222 118 L 220.5 118 L 220.5 114.25 C 220.5 111.35 222.85 109 225.75 109 L 230.25 109 C 233.15 109 235.5 111.35 235.5 114.25 Z" fill="#ffffff" stroke="none" pointer-events="all" style="fill: rgb(255, 255, 255);"/></g></g></g><g data-cell-id="56ggsOPZfVLVSNzoqqUM-5"><g><rect x="402" y="85.5" width="48" height="48" fill="#1192e8" stroke="none" pointer-events="all" style="fill: rgb(17, 146, 232);"/></g><g><g fill="#000000" font-family="Helvetica" text-anchor="middle" font-size="14px" style="fill: rgb(0, 0, 0);"><text x="426" y="153.5">Cloud </text><text x="426" y="170.5">Internet </text><text x="426" y="187.5">Services</text></g></g><g data-cell-id="56ggsOPZfVLVSNzoqqUM-6"><g><rect x="414" y="97.5" width="24" height="24" fill="none" stroke="none" pointer-events="all"/><rect x="414" y="97.5" width="0" height="0" fill="none" stroke="none" pointer-events="all"/><path d="M 434.25 114 C 433.72 114 433.2 114.23 432.83 114.52 L 428.92 112.2 C 428.92 112.05 429 111.9 429 111.75 C 429 111.6 429 111.45 428.92 111.3 L 432.83 108.98 C 433.2 109.27 433.72 109.5 434.25 109.5 C 435.53 109.5 436.5 108.52 436.5 107.25 C 436.5 105.98 435.53 105 434.25 105 C 432.97 105 432 105.98 432 107.25 C 432 107.4 432 107.55 432.08 107.7 L 428.17 110.02 C 427.8 109.73 427.28 109.5 426.75 109.5 C 425.47 109.5 424.5 110.48 424.5 111.75 C 424.5 113.02 425.47 114 426.75 114 C 427.28 114 427.8 113.77 428.17 113.48 L 432.08 115.8 C 432.08 115.95 432 116.1 432 116.25 C 432 117.52 432.97 118.5 434.25 118.5 C 435.53 118.5 436.5 117.52 436.5 116.25 C 436.5 114.98 435.53 114 434.25 114 Z M 434.25 106.5 C 434.7 106.5 435 106.8 435 107.25 C 435 107.7 434.7 108 434.25 108 C 433.8 108 433.5 107.7 433.5 107.25 C 433.5 106.8 433.8 106.5 434.25 106.5 Z M 426.75 112.5 C 426.3 112.5 426 112.2 426 111.75 C 426 111.3 426.3 111 426.75 111 C 427.2 111 427.5 111.3 427.5 111.75 C 427.5 112.2 427.2 112.5 426.75 112.5 Z M 434.25 117 C 433.8 117 433.5 116.7 433.5 116.25 C 433.5 115.8 433.8 115.5 434.25 115.5 C 434.7 115.5 435 115.8 435 116.25 C 435 116.7 434.7 117 434.25 117 Z" fill="#ffffff" stroke="none" pointer-events="all" style="fill: rgb(255, 255, 255);"/><path d="M 428.25 116.25 L 420.38 116.25 C 418.13 116.25 416.25 114.38 416.25 112.13 C 416.25 110.1 417.67 108.45 419.63 108.08 L 420.6 107.92 L 420.83 106.95 C 421.42 104.02 423.9 102 426.75 102 C 427.13 102 427.5 102 427.88 102.08 C 429.08 102.3 430.13 102.9 431.03 103.73 L 432.08 102.67 C 431.03 101.63 429.67 100.88 428.17 100.65 C 427.72 100.58 427.2 100.5 426.75 100.5 C 423.22 100.5 420.08 102.98 419.4 106.58 C 416.7 107.1 414.75 109.42 414.75 112.13 C 414.75 115.2 417.22 117.75 420.38 117.75 L 428.25 117.75 L 428.25 116.25 Z" fill="#ffffff" stroke="none" pointer-events="all" style="fill: rgb(255, 255, 255);"/></g></g></g><g data-cell-id="56ggsOPZfVLVSNzoqqUM-7"><g><rect x="304" y="85.5" width="48" height="48" fill="#fa4d56" stroke="none" pointer-events="all" style="fill: rgb(250, 77, 86);"/></g><g data-cell-id="56ggsOPZfVLVSNzoqqUM-8"><g><rect x="316" y="97.5" width="24" height="24" fill="none" stroke="none" pointer-events="all"/><rect x="316" y="97.5" width="0" height="0" fill="none" stroke="none" pointer-events="all"/><path d="M 337 102.75 C 336.47 102.75 335.97 103.04 335.71 103.5 L 332.5 103.5 C 332.5 101.01 330.49 99 328 99 C 325.51 99 323.5 101.01 323.5 103.5 L 320.29 103.5 C 319.95 102.91 319.26 102.63 318.6 102.8 C 317.95 102.98 317.49 103.57 317.49 104.25 C 317.49 104.93 317.95 105.52 318.6 105.7 C 319.26 105.87 319.95 105.59 320.29 105 L 323.5 105 L 323.5 108 L 322 108 C 321.17 108 320.5 108.67 320.5 109.5 L 320.5 118.5 C 320.5 119.33 321.17 120 322 120 L 334 120 C 334.83 120 335.5 119.33 335.5 118.5 L 335.5 109.5 C 335.5 108.67 334.83 108 334 108 L 332.5 108 L 332.5 105 L 335.71 105 C 336.07 105.63 336.84 105.9 337.52 105.65 C 338.2 105.4 338.61 104.7 338.48 103.98 C 338.35 103.27 337.73 102.75 337 102.75 M 325 103.5 C 325 101.84 326.34 100.5 328 100.5 C 329.66 100.5 331 101.84 331 103.5 L 331 108 L 325 108 L 325 105 L 328.75 105 L 328.75 103.5 Z M 334 109.5 L 334 118.5 L 322 118.5 L 322 109.5 Z" fill="#ffffff" stroke="none" pointer-events="all" style="fill: rgb(255, 255, 255);"/></g></g></g><g data-cell-id="56ggsOPZfVLVSNzoqqUM-9"><g><rect x="500" y="85.5" width="48" height="48" fill="#fa4d56" stroke="none" pointer-events="all" style="fill: rgb(250, 77, 86);"/></g><g data-cell-id="56ggsOPZfVLVSNzoqqUM-10"><g><rect x="512" y="97.5" width="24" height="24" fill="none" stroke="none" pointer-events="all"/><rect x="512" y="97.5" width="0" height="0" fill="none" stroke="none" pointer-events="all"/><path d="M 533 102.75 C 532.47 102.75 531.97 103.04 531.71 103.5 L 528.5 103.5 C 528.5 101.01 526.49 99 524 99 C 521.51 99 519.5 101.01 519.5 103.5 L 516.29 103.5 C 515.95 102.91 515.26 102.63 514.6 102.8 C 513.95 102.98 513.49 103.57 513.49 104.25 C 513.49 104.93 513.95 105.52 514.6 105.7 C 515.26 105.87 515.95 105.59 516.29 105 L 519.5 105 L 519.5 108 L 518 108 C 517.17 108 516.5 108.67 516.5 109.5 L 516.5 118.5 C 516.5 119.33 517.17 120 518 120 L 530 120 C 530.83 120 531.5 119.33 531.5 118.5 L 531.5 109.5 C 531.5 108.67 530.83 108 530 108 L 528.5 108 L 528.5 105 L 531.71 105 C 532.07 105.63 532.84 105.9 533.52 105.65 C 534.2 105.4 534.61 104.7 534.48 103.98 C 534.35 103.27 533.73 102.75 533 102.75 M 521 103.5 C 521 101.84 522.34 100.5 524 100.5 C 525.66 100.5 527 101.84 527 103.5 L 527 108 L 521 108 L 521 105 L 524.75 105 L 524.75 103.5 Z M 530 109.5 L 530 118.5 L 518 118.5 L 518 109.5 Z" fill="#ffffff" stroke="none" pointer-events="all" style="fill: rgb(255, 255, 255);"/></g></g></g><g data-cell-id="56ggsOPZfVLVSNzoqqUM-11"><g><rect x="599" y="85.5" width="48" height="48" fill="#198038" stroke="none" pointer-events="all" style="fill: rgb(25, 128, 56);"/></g><g><g fill="#000000" font-family="Helvetica" text-anchor="middle" font-size="14px" style="fill: rgb(0, 0, 0);"><text x="623" y="153.5">Origin Server</text></g></g><g data-cell-id="56ggsOPZfVLVSNzoqqUM-12"><g><rect x="611" y="97.5" width="24" height="24" fill="none" stroke="none" pointer-events="all"/><rect x="611" y="97.5" width="0" height="0" fill="none" stroke="none" pointer-events="all"/><ellipse cx="617.75" cy="117" rx="0.75" ry="0.75" fill="#ffffff" stroke="none" pointer-events="all" style="fill: rgb(255, 255, 255);"/><path d="M 630.5 114 L 626.75 114 L 626.75 115.5 L 630.5 115.5 L 630.5 118.5 L 615.5 118.5 L 615.5 115.5 L 622.25 115.5 C 623.08 115.5 623.75 114.83 623.75 114 L 623.75 107.12 L 625.69 109.07 L 626.75 108 L 623 104.25 L 619.25 108 L 620.31 109.06 L 622.25 107.12 L 622.25 114 L 615.5 114 C 614.67 114 614 114.67 614 115.5 L 614 118.5 C 614 119.33 614.67 120 615.5 120 L 630.5 120 C 631.33 120 632 119.33 632 118.5 L 632 115.5 C 632 114.67 631.33 114 630.5 114 Z" fill="#ffffff" stroke="none" pointer-events="all" style="fill: rgb(255, 255, 255);"/><path d="M 628.81 103.54 C 628.15 100.91 625.75 99 623 99 C 620.25 99 617.85 100.91 617.19 103.54 C 614.97 103.82 613.25 105.71 613.25 108 C 613.25 110.48 615.27 112.5 617.75 112.5 L 619.25 112.5 L 619.25 111 L 617.75 111 C 616.09 111 614.75 109.66 614.75 108 C 614.75 106.36 616.08 105.02 617.71 105 L 618.45 105.01 L 618.55 104.36 C 618.87 102.16 620.78 100.5 623 100.5 C 625.22 100.5 627.13 102.16 627.45 104.36 L 627.54 105.02 L 628.2 105.01 L 628.3 105 C 629.93 105.02 631.25 106.36 631.25 108 C 631.25 109.66 629.91 111 628.25 111 L 626.75 111 L 626.75 112.5 L 628.25 112.5 C 630.73 112.5 632.75 110.48 632.75 108 C 632.75 105.71 631.03 103.82 628.81 103.54 Z" fill="#ffffff" stroke="none" pointer-events="all" style="fill: rgb(255, 255, 255);"/></g></g></g><g data-cell-id="56ggsOPZfVLVSNzoqqUM-13"><g><rect x="0" y="-0.5" width="150" height="224.5" fill="#ffffff" stroke="none" pointer-events="all" style="fill: rgb(255, 255, 255);"/></g></g><g data-cell-id="56ggsOPZfVLVSNzoqqUM-14"><g><rect x="701" y="-0.5" width="149" height="224.5" fill="#ffffff" stroke="none" pointer-events="all" style="fill: rgb(255, 255, 255);"/></g></g></g></g></g></svg>