<?xml version="1.0" encoding="UTF-8"?>
<!-- Do not edit this file with editors other than draw.io -->
<!DOCTYPE svg PUBLIC "-//W3C//DTD SVG 1.1//EN" "http://www.w3.org/Graphics/SVG/1.1/DTD/svg11.dtd">
<svg xmlns="http://www.w3.org/2000/svg" style="background: #ffffff; background-color: #ffffff; color-scheme: light;" xmlns:xlink="http://www.w3.org/1999/xlink" version="1.1" width="620px" height="230px" viewBox="-0.5 -0.5 620 230" content="&lt;mxfile host=&quot;app.diagrams.net&quot; agent=&quot;Mozilla/5.0 (Macintosh; Intel Mac OS X 10_15_7) AppleWebKit/537.36 (KHTML, like Gecko) Chrome/138.0.0.0 Safari/537.36 Edg/138.0.0.0&quot; version=&quot;27.2.0&quot; scale=&quot;1&quot; border=&quot;0&quot;&gt;&#10;  &lt;diagram name=&quot;Page-1&quot; id=&quot;VMQzMJBvYHzRfyUvyS4v&quot;&gt;&#10;    &lt;mxGraphModel dx=&quot;1226&quot; dy=&quot;698&quot; grid=&quot;1&quot; gridSize=&quot;10&quot; guides=&quot;1&quot; tooltips=&quot;1&quot; connect=&quot;1&quot; arrows=&quot;1&quot; fold=&quot;1&quot; page=&quot;1&quot; pageScale=&quot;1&quot; pageWidth=&quot;850&quot; pageHeight=&quot;1100&quot; math=&quot;0&quot; shadow=&quot;0&quot;&gt;&#10;      &lt;root&gt;&#10;        &lt;mxCell id=&quot;0&quot; /&gt;&#10;        &lt;mxCell id=&quot;1&quot; parent=&quot;0&quot; /&gt;&#10;        &lt;mxCell id=&quot;dlb-fHAUYnm78_AOpvT9-1&quot; value=&quot;&quot; style=&quot;rounded=0;whiteSpace=wrap;html=1;fillColor=default;strokeColor=none;&quot; vertex=&quot;1&quot; parent=&quot;1&quot;&gt;&#10;          &lt;mxGeometry x=&quot;120&quot; y=&quot;179.5&quot; width=&quot;620&quot; height=&quot;230&quot; as=&quot;geometry&quot; /&gt;&#10;        &lt;/mxCell&gt;&#10;        &lt;mxCell id=&quot;dlb-fHAUYnm78_AOpvT9-22&quot; value=&quot;&quot; style=&quot;endArrow=none;html=1;rounded=0;entryX=0;entryY=0.5;entryDx=0;entryDy=0;exitX=1;exitY=0.5;exitDx=0;exitDy=0;&quot; edge=&quot;1&quot; parent=&quot;1&quot; source=&quot;dlb-fHAUYnm78_AOpvT9-23&quot; target=&quot;dlb-fHAUYnm78_AOpvT9-25&quot;&gt;&#10;          &lt;mxGeometry width=&quot;50&quot; height=&quot;50&quot; relative=&quot;1&quot; as=&quot;geometry&quot;&gt;&#10;            &lt;mxPoint x=&quot;221&quot; y=&quot;294&quot; as=&quot;sourcePoint&quot; /&gt;&#10;            &lt;mxPoint x=&quot;401&quot; y=&quot;295.5&quot; as=&quot;targetPoint&quot; /&gt;&#10;          &lt;/mxGeometry&gt;&#10;        &lt;/mxCell&gt;&#10;        &lt;mxCell id=&quot;dlb-fHAUYnm78_AOpvT9-23&quot; value=&quot;Visitor&quot; style=&quot;shape=ellipse;fillColor=#000000;aspect=fixed;resizable=0;labelPosition=center;verticalLabelPosition=bottom;align=center;verticalAlign=top;strokeColor=none;fontSize=14;&quot; vertex=&quot;1&quot; parent=&quot;1&quot;&gt;&#10;          &lt;mxGeometry x=&quot;171&quot; y=&quot;270.5&quot; width=&quot;48&quot; height=&quot;48&quot; as=&quot;geometry&quot; /&gt;&#10;        &lt;/mxCell&gt;&#10;        &lt;mxCell id=&quot;dlb-fHAUYnm78_AOpvT9-24&quot; value=&quot;&quot; style=&quot;fillColor=#ffffff;strokeColor=none;dashed=0;outlineConnect=0;html=1;labelPosition=center;verticalLabelPosition=bottom;verticalAlign=top;part=1;movable=0;resizable=0;rotatable=0;shape=mxgraph.ibm_cloud.user&quot; vertex=&quot;1&quot; parent=&quot;dlb-fHAUYnm78_AOpvT9-23&quot;&gt;&#10;          &lt;mxGeometry width=&quot;24&quot; height=&quot;24&quot; relative=&quot;1&quot; as=&quot;geometry&quot;&gt;&#10;            &lt;mxPoint x=&quot;12&quot; y=&quot;12&quot; as=&quot;offset&quot; /&gt;&#10;          &lt;/mxGeometry&gt;&#10;        &lt;/mxCell&gt;&#10;        &lt;mxCell id=&quot;dlb-fHAUYnm78_AOpvT9-25&quot; value=&quot;Cloud &amp;#xa;Internet &amp;#xa;Services&quot; style=&quot;shape=rect;fillColor=#1192E8;aspect=fixed;resizable=0;labelPosition=center;verticalLabelPosition=bottom;align=center;verticalAlign=top;strokeColor=none;fontSize=14;&quot; vertex=&quot;1&quot; parent=&quot;1&quot;&gt;&#10;          &lt;mxGeometry x=&quot;406&quot; y=&quot;270.5&quot; width=&quot;48&quot; height=&quot;48&quot; as=&quot;geometry&quot; /&gt;&#10;        &lt;/mxCell&gt;&#10;        &lt;mxCell id=&quot;dlb-fHAUYnm78_AOpvT9-26&quot; value=&quot;&quot; style=&quot;fillColor=#ffffff;strokeColor=none;dashed=0;outlineConnect=0;html=1;labelPosition=center;verticalLabelPosition=bottom;verticalAlign=top;part=1;movable=0;resizable=0;rotatable=0;shape=mxgraph.ibm_cloud.ibm-cloud--internet-services&quot; vertex=&quot;1&quot; parent=&quot;dlb-fHAUYnm78_AOpvT9-25&quot;&gt;&#10;          &lt;mxGeometry width=&quot;24&quot; height=&quot;24&quot; relative=&quot;1&quot; as=&quot;geometry&quot;&gt;&#10;            &lt;mxPoint x=&quot;12&quot; y=&quot;12&quot; as=&quot;offset&quot; /&gt;&#10;          &lt;/mxGeometry&gt;&#10;        &lt;/mxCell&gt;&#10;        &lt;mxCell id=&quot;dlb-fHAUYnm78_AOpvT9-27&quot; value=&quot;Origin Server&amp;#xa;&quot; style=&quot;shape=rect;fillColor=#198038;aspect=fixed;resizable=0;labelPosition=center;verticalLabelPosition=bottom;align=center;verticalAlign=top;strokeColor=none;fontSize=14;&quot; vertex=&quot;1&quot; parent=&quot;1&quot;&gt;&#10;          &lt;mxGeometry x=&quot;631&quot; y=&quot;270.5&quot; width=&quot;48&quot; height=&quot;48&quot; as=&quot;geometry&quot; /&gt;&#10;        &lt;/mxCell&gt;&#10;        &lt;mxCell id=&quot;dlb-fHAUYnm78_AOpvT9-28&quot; value=&quot;&quot; style=&quot;fillColor=#ffffff;strokeColor=none;dashed=0;outlineConnect=0;html=1;labelPosition=center;verticalLabelPosition=bottom;verticalAlign=top;part=1;movable=0;resizable=0;rotatable=0;shape=mxgraph.ibm_cloud.ibm-cloud--virtual-server-classic&quot; vertex=&quot;1&quot; parent=&quot;dlb-fHAUYnm78_AOpvT9-27&quot;&gt;&#10;          &lt;mxGeometry width=&quot;24&quot; height=&quot;24&quot; relative=&quot;1&quot; as=&quot;geometry&quot;&gt;&#10;            &lt;mxPoint x=&quot;12&quot; y=&quot;12&quot; as=&quot;offset&quot; /&gt;&#10;          &lt;/mxGeometry&gt;&#10;        &lt;/mxCell&gt;&#10;        &lt;mxCell id=&quot;dlb-fHAUYnm78_AOpvT9-29&quot; value=&quot;&quot; style=&quot;endArrow=none;html=1;rounded=0;exitX=1;exitY=0.5;exitDx=0;exitDy=0;&quot; edge=&quot;1&quot; parent=&quot;1&quot;&gt;&#10;          &lt;mxGeometry width=&quot;50&quot; height=&quot;50&quot; relative=&quot;1&quot; as=&quot;geometry&quot;&gt;&#10;            &lt;mxPoint x=&quot;454&quot; y=&quot;294.28&quot; as=&quot;sourcePoint&quot; /&gt;&#10;            &lt;mxPoint x=&quot;631&quot; y=&quot;294.5&quot; as=&quot;targetPoint&quot; /&gt;&#10;          &lt;/mxGeometry&gt;&#10;        &lt;/mxCell&gt;&#10;      &lt;/root&gt;&#10;    &lt;/mxGraphModel&gt;&#10;  &lt;/diagram&gt;&#10;&lt;/mxfile&gt;&#10;"><defs/><rect fill="#ffffff" width="100%" height="100%" x="0" y="0" style="fill: rgb(255, 255, 255);"/><g><g data-cell-id="0"><g data-cell-id="1"><g data-cell-id="dlb-fHAUYnm78_AOpvT9-1"><g><rect x="0" y="-0.5" width="620" height="230" fill="#ffffff" stroke="none" pointer-events="all" style="fill: rgb(255, 255, 255);"/></g></g><g data-cell-id="dlb-fHAUYnm78_AOpvT9-22"><g><path d="M 99 114.5 L 286 114.5" fill="none" stroke="#000000" stroke-miterlimit="10" pointer-events="stroke" style="stroke: rgb(0, 0, 0);"/></g></g><g data-cell-id="dlb-fHAUYnm78_AOpvT9-23"><g><ellipse cx="75" cy="114.5" rx="24" ry="24" fill="#000000" stroke="none" pointer-events="all" style="fill: rgb(0, 0, 0);"/></g><g><g fill="#000000" font-family="Helvetica" text-anchor="middle" font-size="14px" style="fill: rgb(0, 0, 0);"><text x="75" y="158.5">Visitor</text></g></g><g data-cell-id="dlb-fHAUYnm78_AOpvT9-24"><g><rect x="63" y="102.5" width="24" height="24" fill="none" stroke="none" pointer-events="all"/><rect x="63" y="102.5" width="0" height="0" fill="none" stroke="none" pointer-events="all"/><path d="M 75 105.5 C 77.07 105.5 78.75 107.18 78.75 109.25 C 78.75 111.32 77.07 113 75 113 C 72.93 113 71.25 111.32 71.25 109.25 C 71.25 107.18 72.93 105.5 75 105.5 M 75 104 C 72.1 104 69.75 106.35 69.75 109.25 C 69.75 112.15 72.1 114.5 75 114.5 C 77.9 114.5 80.25 112.15 80.25 109.25 C 80.25 106.35 77.9 104 75 104 Z M 82.5 125 L 81 125 L 81 121.25 C 81 119.18 79.32 117.5 77.25 117.5 L 72.75 117.5 C 70.68 117.5 69 119.18 69 121.25 L 69 125 L 67.5 125 L 67.5 121.25 C 67.5 118.35 69.85 116 72.75 116 L 77.25 116 C 80.15 116 82.5 118.35 82.5 121.25 Z" fill="#ffffff" stroke="none" pointer-events="all" style="fill: rgb(255, 255, 255);"/></g></g></g><g data-cell-id="dlb-fHAUYnm78_AOpvT9-25"><g><rect x="286" y="90.5" width="48" height="48" fill="#1192e8" stroke="none" pointer-events="all" style="fill: rgb(17, 146, 232);"/></g><g><g fill="#000000" font-family="Helvetica" text-anchor="middle" font-size="14px" style="fill: rgb(0, 0, 0);"><text x="310" y="158.5">Cloud </text><text x="310" y="175.5">Internet </text><text x="310" y="192.5">Services</text></g></g><g data-cell-id="dlb-fHAUYnm78_AOpvT9-26"><g><rect x="298" y="102.5" width="24" height="24" fill="none" stroke="none" pointer-events="all"/><rect x="298" y="102.5" width="0" height="0" fill="none" stroke="none" pointer-events="all"/><path d="M 318.25 119 C 317.72 119 317.2 119.23 316.83 119.52 L 312.92 117.2 C 312.92 117.05 313 116.9 313 116.75 C 313 116.6 313 116.45 312.92 116.3 L 316.83 113.98 C 317.2 114.27 317.72 114.5 318.25 114.5 C 319.53 114.5 320.5 113.52 320.5 112.25 C 320.5 110.98 319.53 110 318.25 110 C 316.97 110 316 110.98 316 112.25 C 316 112.4 316 112.55 316.08 112.7 L 312.17 115.02 C 311.8 114.73 311.28 114.5 310.75 114.5 C 309.47 114.5 308.5 115.48 308.5 116.75 C 308.5 118.02 309.47 119 310.75 119 C 311.28 119 311.8 118.77 312.17 118.48 L 316.08 120.8 C 316.08 120.95 316 121.1 316 121.25 C 316 122.52 316.97 123.5 318.25 123.5 C 319.53 123.5 320.5 122.52 320.5 121.25 C 320.5 119.98 319.53 119 318.25 119 Z M 318.25 111.5 C 318.7 111.5 319 111.8 319 112.25 C 319 112.7 318.7 113 318.25 113 C 317.8 113 317.5 112.7 317.5 112.25 C 317.5 111.8 317.8 111.5 318.25 111.5 Z M 310.75 117.5 C 310.3 117.5 310 117.2 310 116.75 C 310 116.3 310.3 116 310.75 116 C 311.2 116 311.5 116.3 311.5 116.75 C 311.5 117.2 311.2 117.5 310.75 117.5 Z M 318.25 122 C 317.8 122 317.5 121.7 317.5 121.25 C 317.5 120.8 317.8 120.5 318.25 120.5 C 318.7 120.5 319 120.8 319 121.25 C 319 121.7 318.7 122 318.25 122 Z" fill="#ffffff" stroke="none" pointer-events="all" style="fill: rgb(255, 255, 255);"/><path d="M 312.25 121.25 L 304.38 121.25 C 302.13 121.25 300.25 119.38 300.25 117.13 C 300.25 115.1 301.67 113.45 303.63 113.08 L 304.6 112.92 L 304.83 111.95 C 305.42 109.02 307.9 107 310.75 107 C 311.13 107 311.5 107 311.88 107.08 C 313.08 107.3 314.13 107.9 315.03 108.73 L 316.08 107.67 C 315.03 106.63 313.67 105.88 312.17 105.65 C 311.72 105.58 311.2 105.5 310.75 105.5 C 307.22 105.5 304.08 107.98 303.4 111.58 C 300.7 112.1 298.75 114.42 298.75 117.13 C 298.75 120.2 301.22 122.75 304.38 122.75 L 312.25 122.75 L 312.25 121.25 Z" fill="#ffffff" stroke="none" pointer-events="all" style="fill: rgb(255, 255, 255);"/></g></g></g><g data-cell-id="dlb-fHAUYnm78_AOpvT9-27"><g><rect x="511" y="90.5" width="48" height="48" fill="#198038" stroke="none" pointer-events="all" style="fill: rgb(25, 128, 56);"/></g><g><g fill="#000000" font-family="Helvetica" text-anchor="middle" font-size="14px" style="fill: rgb(0, 0, 0);"><text x="535" y="158.5">Origin Server</text></g></g><g data-cell-id="dlb-fHAUYnm78_AOpvT9-28"><g><rect x="523" y="102.5" width="24" height="24" fill="none" stroke="none" pointer-events="all"/><rect x="523" y="102.5" width="0" height="0" fill="none" stroke="none" pointer-events="all"/><ellipse cx="529.75" cy="122" rx="0.75" ry="0.75" fill="#ffffff" stroke="none" pointer-events="all" style="fill: rgb(255, 255, 255);"/><path d="M 542.5 119 L 538.75 119 L 538.75 120.5 L 542.5 120.5 L 542.5 123.5 L 527.5 123.5 L 527.5 120.5 L 534.25 120.5 C 535.08 120.5 535.75 119.83 535.75 119 L 535.75 112.12 L 537.69 114.07 L 538.75 113 L 535 109.25 L 531.25 113 L 532.31 114.06 L 534.25 112.12 L 534.25 119 L 527.5 119 C 526.67 119 526 119.67 526 120.5 L 526 123.5 C 526 124.33 526.67 125 527.5 125 L 542.5 125 C 543.33 125 544 124.33 544 123.5 L 544 120.5 C 544 119.67 543.33 119 542.5 119 Z" fill="#ffffff" stroke="none" pointer-events="all" style="fill: rgb(255, 255, 255);"/><path d="M 540.81 108.54 C 540.15 105.91 537.75 104 535 104 C 532.25 104 529.85 105.91 529.19 108.54 C 526.97 108.82 525.25 110.71 525.25 113 C 525.25 115.48 527.27 117.5 529.75 117.5 L 531.25 117.5 L 531.25 116 L 529.75 116 C 528.09 116 526.75 114.66 526.75 113 C 526.75 111.36 528.08 110.02 529.71 110 L 530.45 110.01 L 530.55 109.36 C 530.87 107.16 532.78 105.5 535 105.5 C 537.22 105.5 539.13 107.16 539.45 109.36 L 539.54 110.02 L 540.2 110.01 L 540.3 110 C 541.93 110.02 543.25 111.36 543.25 113 C 543.25 114.66 541.91 116 540.25 116 L 538.75 116 L 538.75 117.5 L 540.25 117.5 C 542.73 117.5 544.75 115.48 544.75 113 C 544.75 110.71 543.03 108.82 540.81 108.54 Z" fill="#ffffff" stroke="none" pointer-events="all" style="fill: rgb(255, 255, 255);"/></g></g></g><g data-cell-id="dlb-fHAUYnm78_AOpvT9-29"><g><path d="M 334 114.28 L 511 114.5" fill="none" stroke="#000000" stroke-miterlimit="10" pointer-events="stroke" style="stroke: rgb(0, 0, 0);"/></g></g></g></g></g></svg>