<?xml version="1.0" encoding="UTF-8"?>
<!-- Do not edit this file with editors other than draw.io -->
<!DOCTYPE svg PUBLIC "-//W3C//DTD SVG 1.1//EN" "http://www.w3.org/Graphics/SVG/1.1/DTD/svg11.dtd">
<svg xmlns="http://www.w3.org/2000/svg" xmlns:xlink="http://www.w3.org/1999/xlink" version="1.1" width="690px" height="280px" viewBox="-0.5 -0.5 690 280" content="&lt;mxfile host=&quot;Electron&quot; agent=&quot;Mozilla/5.0 (Macintosh; Intel Mac OS X 10_15_7) AppleWebKit/537.36 (KHTML, like Gecko) draw.io/25.0.2 Chrome/128.0.6613.186 Electron/32.2.5 Safari/537.36&quot; version=&quot;25.0.2&quot; scale=&quot;1&quot; border=&quot;0&quot;&gt;&#10;  &lt;diagram name=&quot;Page-1&quot; id=&quot;8wTxipBLSAse1nOkmh9F&quot;&gt;&#10;    &lt;mxGraphModel dx=&quot;1578&quot; dy=&quot;1795&quot; grid=&quot;1&quot; gridSize=&quot;10&quot; guides=&quot;1&quot; tooltips=&quot;1&quot; connect=&quot;1&quot; arrows=&quot;1&quot; fold=&quot;1&quot; page=&quot;1&quot; pageScale=&quot;1&quot; pageWidth=&quot;850&quot; pageHeight=&quot;1100&quot; math=&quot;0&quot; shadow=&quot;0&quot;&gt;&#10;      &lt;root&gt;&#10;        &lt;mxCell id=&quot;0&quot; /&gt;&#10;        &lt;mxCell id=&quot;1&quot; parent=&quot;0&quot; /&gt;&#10;        &lt;mxCell id=&quot;QcOJfTC1yNpDE1mu7pPE-1&quot; value=&quot;&quot; style=&quot;rounded=0;whiteSpace=wrap;html=1;strokeColor=none;&quot; vertex=&quot;1&quot; parent=&quot;1&quot;&gt;&#10;          &lt;mxGeometry x=&quot;-140&quot; y=&quot;-50&quot; width=&quot;690&quot; height=&quot;280&quot; as=&quot;geometry&quot; /&gt;&#10;        &lt;/mxCell&gt;&#10;        &lt;mxCell id=&quot;hN0CreysbBGn29C-ZNiO-8&quot; value=&quot;&quot; style=&quot;endArrow=none;html=1;rounded=0;&quot; parent=&quot;1&quot; edge=&quot;1&quot;&gt;&#10;          &lt;mxGeometry width=&quot;50&quot; height=&quot;50&quot; relative=&quot;1&quot; as=&quot;geometry&quot;&gt;&#10;            &lt;mxPoint x=&quot;47&quot; y=&quot;53.5&quot; as=&quot;sourcePoint&quot; /&gt;&#10;            &lt;mxPoint x=&quot;457&quot; y=&quot;54.5&quot; as=&quot;targetPoint&quot; /&gt;&#10;          &lt;/mxGeometry&gt;&#10;        &lt;/mxCell&gt;&#10;        &lt;mxCell id=&quot;hN0CreysbBGn29C-ZNiO-1&quot; value=&quot;Visitor&quot; style=&quot;shape=ellipse;fillColor=#000000;aspect=fixed;resizable=0;labelPosition=center;verticalLabelPosition=bottom;align=center;verticalAlign=top;strokeColor=none;fontSize=14;&quot; parent=&quot;1&quot; vertex=&quot;1&quot;&gt;&#10;          &lt;mxGeometry x=&quot;30&quot; y=&quot;28&quot; width=&quot;48&quot; height=&quot;48&quot; as=&quot;geometry&quot; /&gt;&#10;        &lt;/mxCell&gt;&#10;        &lt;mxCell id=&quot;hN0CreysbBGn29C-ZNiO-2&quot; value=&quot;&quot; style=&quot;fillColor=#ffffff;strokeColor=none;dashed=0;outlineConnect=0;html=1;labelPosition=center;verticalLabelPosition=bottom;verticalAlign=top;part=1;movable=0;resizable=0;rotatable=0;shape=mxgraph.ibm_cloud.user&quot; parent=&quot;hN0CreysbBGn29C-ZNiO-1&quot; vertex=&quot;1&quot;&gt;&#10;          &lt;mxGeometry width=&quot;24&quot; height=&quot;24&quot; relative=&quot;1&quot; as=&quot;geometry&quot;&gt;&#10;            &lt;mxPoint x=&quot;12&quot; y=&quot;12&quot; as=&quot;offset&quot; /&gt;&#10;          &lt;/mxGeometry&gt;&#10;        &lt;/mxCell&gt;&#10;        &lt;mxCell id=&quot;hN0CreysbBGn29C-ZNiO-3&quot; value=&quot;Cloud &amp;#xa;Internet &amp;#xa;Services&quot; style=&quot;shape=rect;fillColor=#1192E8;aspect=fixed;resizable=0;labelPosition=center;verticalLabelPosition=bottom;align=center;verticalAlign=top;strokeColor=none;fontSize=14;&quot; parent=&quot;1&quot; vertex=&quot;1&quot;&gt;&#10;          &lt;mxGeometry x=&quot;228&quot; y=&quot;30&quot; width=&quot;48&quot; height=&quot;48&quot; as=&quot;geometry&quot; /&gt;&#10;        &lt;/mxCell&gt;&#10;        &lt;mxCell id=&quot;hN0CreysbBGn29C-ZNiO-4&quot; value=&quot;&quot; style=&quot;fillColor=#ffffff;strokeColor=none;dashed=0;outlineConnect=0;html=1;labelPosition=center;verticalLabelPosition=bottom;verticalAlign=top;part=1;movable=0;resizable=0;rotatable=0;shape=mxgraph.ibm_cloud.ibm-cloud--internet-services&quot; parent=&quot;hN0CreysbBGn29C-ZNiO-3&quot; vertex=&quot;1&quot;&gt;&#10;          &lt;mxGeometry width=&quot;24&quot; height=&quot;24&quot; relative=&quot;1&quot; as=&quot;geometry&quot;&gt;&#10;            &lt;mxPoint x=&quot;12&quot; y=&quot;12&quot; as=&quot;offset&quot; /&gt;&#10;          &lt;/mxGeometry&gt;&#10;        &lt;/mxCell&gt;&#10;        &lt;mxCell id=&quot;hN0CreysbBGn29C-ZNiO-30&quot; value=&quot;Origin Server&amp;#xa;&quot; style=&quot;shape=rect;fillColor=#198038;aspect=fixed;resizable=0;labelPosition=center;verticalLabelPosition=bottom;align=center;verticalAlign=top;strokeColor=none;fontSize=14;&quot; parent=&quot;1&quot; vertex=&quot;1&quot;&gt;&#10;          &lt;mxGeometry x=&quot;425&quot; y=&quot;30&quot; width=&quot;48&quot; height=&quot;48&quot; as=&quot;geometry&quot; /&gt;&#10;        &lt;/mxCell&gt;&#10;        &lt;mxCell id=&quot;hN0CreysbBGn29C-ZNiO-31&quot; value=&quot;&quot; style=&quot;fillColor=#ffffff;strokeColor=none;dashed=0;outlineConnect=0;html=1;labelPosition=center;verticalLabelPosition=bottom;verticalAlign=top;part=1;movable=0;resizable=0;rotatable=0;shape=mxgraph.ibm_cloud.ibm-cloud--virtual-server-classic&quot; parent=&quot;hN0CreysbBGn29C-ZNiO-30&quot; vertex=&quot;1&quot;&gt;&#10;          &lt;mxGeometry width=&quot;24&quot; height=&quot;24&quot; relative=&quot;1&quot; as=&quot;geometry&quot;&gt;&#10;            &lt;mxPoint x=&quot;12&quot; y=&quot;12&quot; as=&quot;offset&quot; /&gt;&#10;          &lt;/mxGeometry&gt;&#10;        &lt;/mxCell&gt;&#10;      &lt;/root&gt;&#10;    &lt;/mxGraphModel&gt;&#10;  &lt;/diagram&gt;&#10;&lt;/mxfile&gt;&#10;" style="background-color: rgb(255, 255, 255);"><defs/><rect fill="#ffffff" width="100%" height="100%" x="0" y="0"/><g><g data-cell-id="0"><g data-cell-id="1"><g data-cell-id="QcOJfTC1yNpDE1mu7pPE-1"><g><rect x="0" y="0" width="690" height="280" fill="rgb(255, 255, 255)" stroke="none" pointer-events="all"/></g></g><g data-cell-id="hN0CreysbBGn29C-ZNiO-8"><g><path d="M 187 103.5 L 597 104.5" fill="none" stroke="rgb(0, 0, 0)" stroke-miterlimit="10" pointer-events="stroke"/></g></g><g data-cell-id="hN0CreysbBGn29C-ZNiO-1"><g><ellipse cx="194" cy="102" rx="24" ry="24" fill="#000000" stroke="none" pointer-events="all"/></g><g><g fill="rgb(0, 0, 0)" font-family="&quot;Helvetica&quot;" text-anchor="middle" font-size="14px"><text x="193.5" y="145.5">Visitor</text></g></g><g data-cell-id="hN0CreysbBGn29C-ZNiO-2"><g><rect x="182" y="90" width="24" height="24" fill="none" stroke="none" pointer-events="all"/><rect x="182" y="90" width="0" height="0" fill="none" stroke="none" pointer-events="all"/><path d="M 194 93 C 196.07 93 197.75 94.68 197.75 96.75 C 197.75 98.82 196.07 100.5 194 100.5 C 191.93 100.5 190.25 98.82 190.25 96.75 C 190.25 94.68 191.93 93 194 93 M 194 91.5 C 191.1 91.5 188.75 93.85 188.75 96.75 C 188.75 99.65 191.1 102 194 102 C 196.9 102 199.25 99.65 199.25 96.75 C 199.25 93.85 196.9 91.5 194 91.5 Z M 201.5 112.5 L 200 112.5 L 200 108.75 C 200 106.68 198.32 105 196.25 105 L 191.75 105 C 189.68 105 188 106.68 188 108.75 L 188 112.5 L 186.5 112.5 L 186.5 108.75 C 186.5 105.85 188.85 103.5 191.75 103.5 L 196.25 103.5 C 199.15 103.5 201.5 105.85 201.5 108.75 Z" fill="#ffffff" stroke="none" pointer-events="all"/></g></g></g><g data-cell-id="hN0CreysbBGn29C-ZNiO-3"><g><rect x="368" y="80" width="48" height="48" fill="#1192e8" stroke="none" pointer-events="all"/></g><g><g fill="rgb(0, 0, 0)" font-family="&quot;Helvetica&quot;" text-anchor="middle" font-size="14px"><text x="391.5" y="147.5">Cloud </text><text x="391.5" y="164.5">Internet </text><text x="391.5" y="181.5">Services</text></g></g><g data-cell-id="hN0CreysbBGn29C-ZNiO-4"><g><rect x="380" y="92" width="24" height="24" fill="none" stroke="none" pointer-events="all"/><rect x="380" y="92" width="0" height="0" fill="none" stroke="none" pointer-events="all"/><path d="M 400.25 108.5 C 399.72 108.5 399.2 108.72 398.83 109.03 L 394.92 106.7 C 394.92 106.55 395 106.4 395 106.25 C 395 106.1 395 105.95 394.92 105.8 L 398.83 103.47 C 399.2 103.78 399.72 104 400.25 104 C 401.53 104 402.5 103.03 402.5 101.75 C 402.5 100.47 401.53 99.5 400.25 99.5 C 398.97 99.5 398 100.47 398 101.75 C 398 101.9 398 102.05 398.08 102.2 L 394.17 104.53 C 393.8 104.22 393.28 104 392.75 104 C 391.47 104 390.5 104.97 390.5 106.25 C 390.5 107.53 391.47 108.5 392.75 108.5 C 393.28 108.5 393.8 108.28 394.17 107.97 L 398.08 110.3 C 398.08 110.45 398 110.6 398 110.75 C 398 112.03 398.97 113 400.25 113 C 401.53 113 402.5 112.03 402.5 110.75 C 402.5 109.47 401.53 108.5 400.25 108.5 Z M 400.25 101 C 400.7 101 401 101.3 401 101.75 C 401 102.2 400.7 102.5 400.25 102.5 C 399.8 102.5 399.5 102.2 399.5 101.75 C 399.5 101.3 399.8 101 400.25 101 Z M 392.75 107 C 392.3 107 392 106.7 392 106.25 C 392 105.8 392.3 105.5 392.75 105.5 C 393.2 105.5 393.5 105.8 393.5 106.25 C 393.5 106.7 393.2 107 392.75 107 Z M 400.25 111.5 C 399.8 111.5 399.5 111.2 399.5 110.75 C 399.5 110.3 399.8 110 400.25 110 C 400.7 110 401 110.3 401 110.75 C 401 111.2 400.7 111.5 400.25 111.5 Z" fill="#ffffff" stroke="none" pointer-events="all"/><path d="M 394.25 110.75 L 386.38 110.75 C 384.13 110.75 382.25 108.88 382.25 106.63 C 382.25 104.6 383.67 102.95 385.63 102.58 L 386.6 102.42 L 386.83 101.45 C 387.42 98.53 389.9 96.5 392.75 96.5 C 393.13 96.5 393.5 96.5 393.88 96.58 C 395.08 96.8 396.13 97.4 397.03 98.22 L 398.08 97.17 C 397.03 96.13 395.67 95.38 394.17 95.15 C 393.72 95.08 393.2 95 392.75 95 C 389.22 95 386.08 97.47 385.4 101.08 C 382.7 101.6 380.75 103.92 380.75 106.63 C 380.75 109.7 383.22 112.25 386.38 112.25 L 394.25 112.25 L 394.25 110.75 Z" fill="#ffffff" stroke="none" pointer-events="all"/></g></g></g><g data-cell-id="hN0CreysbBGn29C-ZNiO-30"><g><rect x="565" y="80" width="48" height="48" fill="#198038" stroke="none" pointer-events="all"/></g><g><g fill="rgb(0, 0, 0)" font-family="&quot;Helvetica&quot;" text-anchor="middle" font-size="14px"><text x="588.5" y="147.5">Origin Server</text></g></g><g data-cell-id="hN0CreysbBGn29C-ZNiO-31"><g><rect x="577" y="92" width="24" height="24" fill="none" stroke="none" pointer-events="all"/><rect x="577" y="92" width="0" height="0" fill="none" stroke="none" pointer-events="all"/><ellipse cx="583.75" cy="111.5" rx="0.75" ry="0.75" fill="#ffffff" stroke="none" pointer-events="all"/><path d="M 596.5 108.5 L 592.75 108.5 L 592.75 110 L 596.5 110 L 596.5 113 L 581.5 113 L 581.5 110 L 588.25 110 C 589.08 110 589.75 109.33 589.75 108.5 L 589.75 101.62 L 591.69 103.57 L 592.75 102.5 L 589 98.75 L 585.25 102.5 L 586.31 103.56 L 588.25 101.62 L 588.25 108.5 L 581.5 108.5 C 580.67 108.5 580 109.17 580 110 L 580 113 C 580 113.83 580.67 114.5 581.5 114.5 L 596.5 114.5 C 597.33 114.5 598 113.83 598 113 L 598 110 C 598 109.17 597.33 108.5 596.5 108.5 Z" fill="#ffffff" stroke="none" pointer-events="all"/><path d="M 594.81 98.04 C 594.15 95.41 591.75 93.5 589 93.5 C 586.25 93.5 583.85 95.41 583.19 98.04 C 580.97 98.32 579.25 100.21 579.25 102.5 C 579.25 104.98 581.27 107 583.75 107 L 585.25 107 L 585.25 105.5 L 583.75 105.5 C 582.09 105.5 580.75 104.16 580.75 102.5 C 580.75 100.86 582.08 99.52 583.71 99.5 L 584.45 99.52 L 584.55 98.86 C 584.87 96.66 586.78 95 589 95 C 591.22 95 593.13 96.66 593.45 98.86 L 593.54 99.52 L 594.2 99.51 L 594.3 99.5 C 595.93 99.52 597.25 100.86 597.25 102.5 C 597.25 104.16 595.91 105.5 594.25 105.5 L 592.75 105.5 L 592.75 107 L 594.25 107 C 596.73 107 598.75 104.98 598.75 102.5 C 598.75 100.21 597.03 98.32 594.81 98.04 Z" fill="#ffffff" stroke="none" pointer-events="all"/></g></g></g></g></g></g></svg>