<?xml version="1.0" encoding="UTF-8"?>
<!-- Do not edit this file with editors other than draw.io -->
<!DOCTYPE svg PUBLIC "-//W3C//DTD SVG 1.1//EN" "http://www.w3.org/Graphics/SVG/1.1/DTD/svg11.dtd">
<svg xmlns="http://www.w3.org/2000/svg" style="background: #ffffff; background-color: #ffffff; color-scheme: light;" xmlns:xlink="http://www.w3.org/1999/xlink" version="1.1" width="670px" height="291px" viewBox="-0.5 -0.5 670 291" content="&lt;mxfile host=&quot;app.diagrams.net&quot; agent=&quot;Mozilla/5.0 (Macintosh; Intel Mac OS X 10_15_7) AppleWebKit/537.36 (KHTML, like Gecko) Chrome/138.0.0.0 Safari/537.36 Edg/138.0.0.0&quot; version=&quot;27.2.0&quot; scale=&quot;1&quot; border=&quot;0&quot;&gt;&#10;  &lt;diagram name=&quot;Page-1&quot; id=&quot;VMQzMJBvYHzRfyUvyS4v&quot;&gt;&#10;    &lt;mxGraphModel dx=&quot;1226&quot; dy=&quot;698&quot; grid=&quot;1&quot; gridSize=&quot;10&quot; guides=&quot;1&quot; tooltips=&quot;1&quot; connect=&quot;1&quot; arrows=&quot;1&quot; fold=&quot;1&quot; page=&quot;1&quot; pageScale=&quot;1&quot; pageWidth=&quot;850&quot; pageHeight=&quot;1100&quot; math=&quot;0&quot; shadow=&quot;0&quot;&gt;&#10;      &lt;root&gt;&#10;        &lt;mxCell id=&quot;0&quot; /&gt;&#10;        &lt;mxCell id=&quot;1&quot; parent=&quot;0&quot; /&gt;&#10;        &lt;mxCell id=&quot;dlb-fHAUYnm78_AOpvT9-1&quot; value=&quot;&quot; style=&quot;rounded=0;whiteSpace=wrap;html=1;fillColor=default;strokeColor=none;&quot; vertex=&quot;1&quot; parent=&quot;1&quot;&gt;&#10;          &lt;mxGeometry x=&quot;90&quot; y=&quot;149&quot; width=&quot;670&quot; height=&quot;291&quot; as=&quot;geometry&quot; /&gt;&#10;        &lt;/mxCell&gt;&#10;        &lt;mxCell id=&quot;dlb-fHAUYnm78_AOpvT9-22&quot; value=&quot;&quot; style=&quot;endArrow=none;html=1;rounded=0;entryX=0;entryY=0.5;entryDx=0;entryDy=0;exitX=1;exitY=0.5;exitDx=0;exitDy=0;&quot; edge=&quot;1&quot; parent=&quot;1&quot; source=&quot;dlb-fHAUYnm78_AOpvT9-23&quot; target=&quot;dlb-fHAUYnm78_AOpvT9-25&quot;&gt;&#10;          &lt;mxGeometry width=&quot;50&quot; height=&quot;50&quot; relative=&quot;1&quot; as=&quot;geometry&quot;&gt;&#10;            &lt;mxPoint x=&quot;221&quot; y=&quot;294&quot; as=&quot;sourcePoint&quot; /&gt;&#10;            &lt;mxPoint x=&quot;401&quot; y=&quot;295.5&quot; as=&quot;targetPoint&quot; /&gt;&#10;          &lt;/mxGeometry&gt;&#10;        &lt;/mxCell&gt;&#10;        &lt;mxCell id=&quot;dlb-fHAUYnm78_AOpvT9-23&quot; value=&quot;Visitor&quot; style=&quot;shape=ellipse;fillColor=#000000;aspect=fixed;resizable=0;labelPosition=center;verticalLabelPosition=bottom;align=center;verticalAlign=top;strokeColor=none;fontSize=14;&quot; vertex=&quot;1&quot; parent=&quot;1&quot;&gt;&#10;          &lt;mxGeometry x=&quot;171&quot; y=&quot;270.5&quot; width=&quot;48&quot; height=&quot;48&quot; as=&quot;geometry&quot; /&gt;&#10;        &lt;/mxCell&gt;&#10;        &lt;mxCell id=&quot;dlb-fHAUYnm78_AOpvT9-24&quot; value=&quot;&quot; style=&quot;fillColor=#ffffff;strokeColor=none;dashed=0;outlineConnect=0;html=1;labelPosition=center;verticalLabelPosition=bottom;verticalAlign=top;part=1;movable=0;resizable=0;rotatable=0;shape=mxgraph.ibm_cloud.user&quot; vertex=&quot;1&quot; parent=&quot;dlb-fHAUYnm78_AOpvT9-23&quot;&gt;&#10;          &lt;mxGeometry width=&quot;24&quot; height=&quot;24&quot; relative=&quot;1&quot; as=&quot;geometry&quot;&gt;&#10;            &lt;mxPoint x=&quot;12&quot; y=&quot;12&quot; as=&quot;offset&quot; /&gt;&#10;          &lt;/mxGeometry&gt;&#10;        &lt;/mxCell&gt;&#10;        &lt;mxCell id=&quot;dlb-fHAUYnm78_AOpvT9-25&quot; value=&quot;Cloud &amp;#xa;Internet &amp;#xa;Services&quot; style=&quot;shape=rect;fillColor=#1192E8;aspect=fixed;resizable=0;labelPosition=center;verticalLabelPosition=bottom;align=center;verticalAlign=top;strokeColor=none;fontSize=14;&quot; vertex=&quot;1&quot; parent=&quot;1&quot;&gt;&#10;          &lt;mxGeometry x=&quot;406&quot; y=&quot;270.5&quot; width=&quot;48&quot; height=&quot;48&quot; as=&quot;geometry&quot; /&gt;&#10;        &lt;/mxCell&gt;&#10;        &lt;mxCell id=&quot;dlb-fHAUYnm78_AOpvT9-26&quot; value=&quot;&quot; style=&quot;fillColor=#ffffff;strokeColor=none;dashed=0;outlineConnect=0;html=1;labelPosition=center;verticalLabelPosition=bottom;verticalAlign=top;part=1;movable=0;resizable=0;rotatable=0;shape=mxgraph.ibm_cloud.ibm-cloud--internet-services&quot; vertex=&quot;1&quot; parent=&quot;dlb-fHAUYnm78_AOpvT9-25&quot;&gt;&#10;          &lt;mxGeometry width=&quot;24&quot; height=&quot;24&quot; relative=&quot;1&quot; as=&quot;geometry&quot;&gt;&#10;            &lt;mxPoint x=&quot;12&quot; y=&quot;12&quot; as=&quot;offset&quot; /&gt;&#10;          &lt;/mxGeometry&gt;&#10;        &lt;/mxCell&gt;&#10;        &lt;mxCell id=&quot;dlb-fHAUYnm78_AOpvT9-27&quot; value=&quot;Origin Server&amp;#xa;&quot; style=&quot;shape=rect;fillColor=#198038;aspect=fixed;resizable=0;labelPosition=center;verticalLabelPosition=bottom;align=center;verticalAlign=top;strokeColor=none;fontSize=14;&quot; vertex=&quot;1&quot; parent=&quot;1&quot;&gt;&#10;          &lt;mxGeometry x=&quot;631&quot; y=&quot;270.5&quot; width=&quot;48&quot; height=&quot;48&quot; as=&quot;geometry&quot; /&gt;&#10;        &lt;/mxCell&gt;&#10;        &lt;mxCell id=&quot;dlb-fHAUYnm78_AOpvT9-28&quot; value=&quot;&quot; style=&quot;fillColor=#ffffff;strokeColor=none;dashed=0;outlineConnect=0;html=1;labelPosition=center;verticalLabelPosition=bottom;verticalAlign=top;part=1;movable=0;resizable=0;rotatable=0;shape=mxgraph.ibm_cloud.ibm-cloud--virtual-server-classic&quot; vertex=&quot;1&quot; parent=&quot;dlb-fHAUYnm78_AOpvT9-27&quot;&gt;&#10;          &lt;mxGeometry width=&quot;24&quot; height=&quot;24&quot; relative=&quot;1&quot; as=&quot;geometry&quot;&gt;&#10;            &lt;mxPoint x=&quot;12&quot; y=&quot;12&quot; as=&quot;offset&quot; /&gt;&#10;          &lt;/mxGeometry&gt;&#10;        &lt;/mxCell&gt;&#10;        &lt;mxCell id=&quot;dlb-fHAUYnm78_AOpvT9-29&quot; value=&quot;&quot; style=&quot;endArrow=none;html=1;rounded=0;exitX=1;exitY=0.5;exitDx=0;exitDy=0;&quot; edge=&quot;1&quot; parent=&quot;1&quot;&gt;&#10;          &lt;mxGeometry width=&quot;50&quot; height=&quot;50&quot; relative=&quot;1&quot; as=&quot;geometry&quot;&gt;&#10;            &lt;mxPoint x=&quot;454&quot; y=&quot;294.28&quot; as=&quot;sourcePoint&quot; /&gt;&#10;            &lt;mxPoint x=&quot;631&quot; y=&quot;294.5&quot; as=&quot;targetPoint&quot; /&gt;&#10;          &lt;/mxGeometry&gt;&#10;        &lt;/mxCell&gt;&#10;      &lt;/root&gt;&#10;    &lt;/mxGraphModel&gt;&#10;  &lt;/diagram&gt;&#10;&lt;/mxfile&gt;&#10;"><defs/><rect fill="#ffffff" width="100%" height="100%" x="0" y="0" style="fill: rgb(255, 255, 255);"/><g><g data-cell-id="0"><g data-cell-id="1"><g data-cell-id="dlb-fHAUYnm78_AOpvT9-1"><g><rect x="0" y="0" width="670" height="291" fill="#ffffff" stroke="none" pointer-events="all" style="fill: rgb(255, 255, 255);"/></g></g><g data-cell-id="dlb-fHAUYnm78_AOpvT9-22"><g><path d="M 129 145.5 L 316 145.5" fill="none" stroke="#000000" stroke-miterlimit="10" pointer-events="stroke" style="stroke: rgb(0, 0, 0);"/></g></g><g data-cell-id="dlb-fHAUYnm78_AOpvT9-23"><g><ellipse cx="105" cy="145.5" rx="24" ry="24" fill="#000000" stroke="none" pointer-events="all" style="fill: rgb(0, 0, 0);"/></g><g><g fill="#000000" font-family="Helvetica" text-anchor="middle" font-size="14px" style="fill: rgb(0, 0, 0);"><text x="105" y="189.5">Visitor</text></g></g><g data-cell-id="dlb-fHAUYnm78_AOpvT9-24"><g><rect x="93" y="133.5" width="24" height="24" fill="none" stroke="none" pointer-events="all"/><rect x="93" y="133.5" width="0" height="0" fill="none" stroke="none" pointer-events="all"/><path d="M 105 136.5 C 107.07 136.5 108.75 138.18 108.75 140.25 C 108.75 142.32 107.07 144 105 144 C 102.93 144 101.25 142.32 101.25 140.25 C 101.25 138.18 102.93 136.5 105 136.5 M 105 135 C 102.1 135 99.75 137.35 99.75 140.25 C 99.75 143.15 102.1 145.5 105 145.5 C 107.9 145.5 110.25 143.15 110.25 140.25 C 110.25 137.35 107.9 135 105 135 Z M 112.5 156 L 111 156 L 111 152.25 C 111 150.18 109.32 148.5 107.25 148.5 L 102.75 148.5 C 100.68 148.5 99 150.18 99 152.25 L 99 156 L 97.5 156 L 97.5 152.25 C 97.5 149.35 99.85 147 102.75 147 L 107.25 147 C 110.15 147 112.5 149.35 112.5 152.25 Z" fill="#ffffff" stroke="none" pointer-events="all" style="fill: rgb(255, 255, 255);"/></g></g></g><g data-cell-id="dlb-fHAUYnm78_AOpvT9-25"><g><rect x="316" y="121.5" width="48" height="48" fill="#1192e8" stroke="none" pointer-events="all" style="fill: rgb(17, 146, 232);"/></g><g><g fill="#000000" font-family="Helvetica" text-anchor="middle" font-size="14px" style="fill: rgb(0, 0, 0);"><text x="340" y="189.5">Cloud </text><text x="340" y="206.5">Internet </text><text x="340" y="223.5">Services</text></g></g><g data-cell-id="dlb-fHAUYnm78_AOpvT9-26"><g><rect x="328" y="133.5" width="24" height="24" fill="none" stroke="none" pointer-events="all"/><rect x="328" y="133.5" width="0" height="0" fill="none" stroke="none" pointer-events="all"/><path d="M 348.25 150 C 347.72 150 347.2 150.23 346.83 150.52 L 342.92 148.2 C 342.92 148.05 343 147.9 343 147.75 C 343 147.6 343 147.45 342.92 147.3 L 346.83 144.98 C 347.2 145.27 347.72 145.5 348.25 145.5 C 349.53 145.5 350.5 144.52 350.5 143.25 C 350.5 141.98 349.53 141 348.25 141 C 346.97 141 346 141.98 346 143.25 C 346 143.4 346 143.55 346.08 143.7 L 342.17 146.02 C 341.8 145.73 341.28 145.5 340.75 145.5 C 339.47 145.5 338.5 146.48 338.5 147.75 C 338.5 149.02 339.47 150 340.75 150 C 341.28 150 341.8 149.77 342.17 149.48 L 346.08 151.8 C 346.08 151.95 346 152.1 346 152.25 C 346 153.52 346.97 154.5 348.25 154.5 C 349.53 154.5 350.5 153.52 350.5 152.25 C 350.5 150.98 349.53 150 348.25 150 Z M 348.25 142.5 C 348.7 142.5 349 142.8 349 143.25 C 349 143.7 348.7 144 348.25 144 C 347.8 144 347.5 143.7 347.5 143.25 C 347.5 142.8 347.8 142.5 348.25 142.5 Z M 340.75 148.5 C 340.3 148.5 340 148.2 340 147.75 C 340 147.3 340.3 147 340.75 147 C 341.2 147 341.5 147.3 341.5 147.75 C 341.5 148.2 341.2 148.5 340.75 148.5 Z M 348.25 153 C 347.8 153 347.5 152.7 347.5 152.25 C 347.5 151.8 347.8 151.5 348.25 151.5 C 348.7 151.5 349 151.8 349 152.25 C 349 152.7 348.7 153 348.25 153 Z" fill="#ffffff" stroke="none" pointer-events="all" style="fill: rgb(255, 255, 255);"/><path d="M 342.25 152.25 L 334.38 152.25 C 332.13 152.25 330.25 150.38 330.25 148.13 C 330.25 146.1 331.67 144.45 333.63 144.08 L 334.6 143.92 L 334.83 142.95 C 335.42 140.02 337.9 138 340.75 138 C 341.13 138 341.5 138 341.88 138.08 C 343.08 138.3 344.13 138.9 345.03 139.73 L 346.08 138.67 C 345.03 137.63 343.67 136.88 342.17 136.65 C 341.72 136.58 341.2 136.5 340.75 136.5 C 337.22 136.5 334.08 138.98 333.4 142.58 C 330.7 143.1 328.75 145.42 328.75 148.13 C 328.75 151.2 331.22 153.75 334.38 153.75 L 342.25 153.75 L 342.25 152.25 Z" fill="#ffffff" stroke="none" pointer-events="all" style="fill: rgb(255, 255, 255);"/></g></g></g><g data-cell-id="dlb-fHAUYnm78_AOpvT9-27"><g><rect x="541" y="121.5" width="48" height="48" fill="#198038" stroke="none" pointer-events="all" style="fill: rgb(25, 128, 56);"/></g><g><g fill="#000000" font-family="Helvetica" text-anchor="middle" font-size="14px" style="fill: rgb(0, 0, 0);"><text x="565" y="189.5">Origin Server</text></g></g><g data-cell-id="dlb-fHAUYnm78_AOpvT9-28"><g><rect x="553" y="133.5" width="24" height="24" fill="none" stroke="none" pointer-events="all"/><rect x="553" y="133.5" width="0" height="0" fill="none" stroke="none" pointer-events="all"/><ellipse cx="559.75" cy="153" rx="0.75" ry="0.75" fill="#ffffff" stroke="none" pointer-events="all" style="fill: rgb(255, 255, 255);"/><path d="M 572.5 150 L 568.75 150 L 568.75 151.5 L 572.5 151.5 L 572.5 154.5 L 557.5 154.5 L 557.5 151.5 L 564.25 151.5 C 565.08 151.5 565.75 150.83 565.75 150 L 565.75 143.12 L 567.69 145.07 L 568.75 144 L 565 140.25 L 561.25 144 L 562.31 145.06 L 564.25 143.12 L 564.25 150 L 557.5 150 C 556.67 150 556 150.67 556 151.5 L 556 154.5 C 556 155.33 556.67 156 557.5 156 L 572.5 156 C 573.33 156 574 155.33 574 154.5 L 574 151.5 C 574 150.67 573.33 150 572.5 150 Z" fill="#ffffff" stroke="none" pointer-events="all" style="fill: rgb(255, 255, 255);"/><path d="M 570.81 139.54 C 570.15 136.91 567.75 135 565 135 C 562.25 135 559.85 136.91 559.19 139.54 C 556.97 139.82 555.25 141.71 555.25 144 C 555.25 146.48 557.27 148.5 559.75 148.5 L 561.25 148.5 L 561.25 147 L 559.75 147 C 558.09 147 556.75 145.66 556.75 144 C 556.75 142.36 558.08 141.02 559.71 141 L 560.45 141.01 L 560.55 140.36 C 560.87 138.16 562.78 136.5 565 136.5 C 567.22 136.5 569.13 138.16 569.45 140.36 L 569.54 141.02 L 570.2 141.01 L 570.3 141 C 571.93 141.02 573.25 142.36 573.25 144 C 573.25 145.66 571.91 147 570.25 147 L 568.75 147 L 568.75 148.5 L 570.25 148.5 C 572.73 148.5 574.75 146.48 574.75 144 C 574.75 141.71 573.03 139.82 570.81 139.54 Z" fill="#ffffff" stroke="none" pointer-events="all" style="fill: rgb(255, 255, 255);"/></g></g></g><g data-cell-id="dlb-fHAUYnm78_AOpvT9-29"><g><path d="M 364 145.28 L 541 145.5" fill="none" stroke="#000000" stroke-miterlimit="10" pointer-events="stroke" style="stroke: rgb(0, 0, 0);"/></g></g></g></g></g></svg>