<?xml version="1.0" encoding="UTF-8"?>
<!-- Do not edit this file with editors other than draw.io -->
<!DOCTYPE svg PUBLIC "-//W3C//DTD SVG 1.1//EN" "http://www.w3.org/Graphics/SVG/1.1/DTD/svg11.dtd">
<svg xmlns="http://www.w3.org/2000/svg" xmlns:xlink="http://www.w3.org/1999/xlink" version="1.1" width="1180px" height="430px" viewBox="-0.5 -0.5 1180 430" content="&lt;mxfile host=&quot;Electron&quot; agent=&quot;Mozilla/5.0 (Macintosh; Intel Mac OS X 10_15_7) AppleWebKit/537.36 (KHTML, like Gecko) draw.io/25.0.2 Chrome/128.0.6613.186 Electron/32.2.5 Safari/537.36&quot; version=&quot;25.0.2&quot; scale=&quot;1&quot; border=&quot;0&quot;&gt;&#10;  &lt;diagram name=&quot;Page-1&quot; id=&quot;8wTxipBLSAse1nOkmh9F&quot;&gt;&#10;    &lt;mxGraphModel dx=&quot;1821&quot; dy=&quot;2027&quot; grid=&quot;1&quot; gridSize=&quot;10&quot; guides=&quot;1&quot; tooltips=&quot;1&quot; connect=&quot;1&quot; arrows=&quot;1&quot; fold=&quot;1&quot; page=&quot;1&quot; pageScale=&quot;1&quot; pageWidth=&quot;850&quot; pageHeight=&quot;1100&quot; math=&quot;0&quot; shadow=&quot;0&quot;&gt;&#10;      &lt;root&gt;&#10;        &lt;mxCell id=&quot;0&quot; /&gt;&#10;        &lt;mxCell id=&quot;1&quot; parent=&quot;0&quot; /&gt;&#10;        &lt;mxCell id=&quot;o5gOb5EpJ8vd6yiIu7Q0-1&quot; value=&quot;&quot; style=&quot;rounded=0;whiteSpace=wrap;html=1;strokeColor=none;&quot; vertex=&quot;1&quot; parent=&quot;1&quot;&gt;&#10;          &lt;mxGeometry x=&quot;-330&quot; y=&quot;-130&quot; width=&quot;1180&quot; height=&quot;430&quot; as=&quot;geometry&quot; /&gt;&#10;        &lt;/mxCell&gt;&#10;        &lt;mxCell id=&quot;hN0CreysbBGn29C-ZNiO-8&quot; value=&quot;&quot; style=&quot;endArrow=none;html=1;rounded=0;&quot; parent=&quot;1&quot; edge=&quot;1&quot;&gt;&#10;          &lt;mxGeometry width=&quot;50&quot; height=&quot;50&quot; relative=&quot;1&quot; as=&quot;geometry&quot;&gt;&#10;            &lt;mxPoint x=&quot;47&quot; y=&quot;53.5&quot; as=&quot;sourcePoint&quot; /&gt;&#10;            &lt;mxPoint x=&quot;457&quot; y=&quot;54.5&quot; as=&quot;targetPoint&quot; /&gt;&#10;          &lt;/mxGeometry&gt;&#10;        &lt;/mxCell&gt;&#10;        &lt;mxCell id=&quot;hN0CreysbBGn29C-ZNiO-1&quot; value=&quot;Visitor&quot; style=&quot;shape=ellipse;fillColor=#000000;aspect=fixed;resizable=0;labelPosition=center;verticalLabelPosition=bottom;align=center;verticalAlign=top;strokeColor=none;fontSize=14;&quot; parent=&quot;1&quot; vertex=&quot;1&quot;&gt;&#10;          &lt;mxGeometry x=&quot;30&quot; y=&quot;28&quot; width=&quot;48&quot; height=&quot;48&quot; as=&quot;geometry&quot; /&gt;&#10;        &lt;/mxCell&gt;&#10;        &lt;mxCell id=&quot;hN0CreysbBGn29C-ZNiO-2&quot; value=&quot;&quot; style=&quot;fillColor=#ffffff;strokeColor=none;dashed=0;outlineConnect=0;html=1;labelPosition=center;verticalLabelPosition=bottom;verticalAlign=top;part=1;movable=0;resizable=0;rotatable=0;shape=mxgraph.ibm_cloud.user&quot; parent=&quot;hN0CreysbBGn29C-ZNiO-1&quot; vertex=&quot;1&quot;&gt;&#10;          &lt;mxGeometry width=&quot;24&quot; height=&quot;24&quot; relative=&quot;1&quot; as=&quot;geometry&quot;&gt;&#10;            &lt;mxPoint x=&quot;12&quot; y=&quot;12&quot; as=&quot;offset&quot; /&gt;&#10;          &lt;/mxGeometry&gt;&#10;        &lt;/mxCell&gt;&#10;        &lt;mxCell id=&quot;hN0CreysbBGn29C-ZNiO-3&quot; value=&quot;Cloud &amp;#xa;Internet &amp;#xa;Services&quot; style=&quot;shape=rect;fillColor=#1192E8;aspect=fixed;resizable=0;labelPosition=center;verticalLabelPosition=bottom;align=center;verticalAlign=top;strokeColor=none;fontSize=14;&quot; parent=&quot;1&quot; vertex=&quot;1&quot;&gt;&#10;          &lt;mxGeometry x=&quot;228&quot; y=&quot;30&quot; width=&quot;48&quot; height=&quot;48&quot; as=&quot;geometry&quot; /&gt;&#10;        &lt;/mxCell&gt;&#10;        &lt;mxCell id=&quot;hN0CreysbBGn29C-ZNiO-4&quot; value=&quot;&quot; style=&quot;fillColor=#ffffff;strokeColor=none;dashed=0;outlineConnect=0;html=1;labelPosition=center;verticalLabelPosition=bottom;verticalAlign=top;part=1;movable=0;resizable=0;rotatable=0;shape=mxgraph.ibm_cloud.ibm-cloud--internet-services&quot; parent=&quot;hN0CreysbBGn29C-ZNiO-3&quot; vertex=&quot;1&quot;&gt;&#10;          &lt;mxGeometry width=&quot;24&quot; height=&quot;24&quot; relative=&quot;1&quot; as=&quot;geometry&quot;&gt;&#10;            &lt;mxPoint x=&quot;12&quot; y=&quot;12&quot; as=&quot;offset&quot; /&gt;&#10;          &lt;/mxGeometry&gt;&#10;        &lt;/mxCell&gt;&#10;        &lt;mxCell id=&quot;hN0CreysbBGn29C-ZNiO-30&quot; value=&quot;Origin Server&amp;#xa;&quot; style=&quot;shape=rect;fillColor=#198038;aspect=fixed;resizable=0;labelPosition=center;verticalLabelPosition=bottom;align=center;verticalAlign=top;strokeColor=none;fontSize=14;&quot; parent=&quot;1&quot; vertex=&quot;1&quot;&gt;&#10;          &lt;mxGeometry x=&quot;425&quot; y=&quot;30&quot; width=&quot;48&quot; height=&quot;48&quot; as=&quot;geometry&quot; /&gt;&#10;        &lt;/mxCell&gt;&#10;        &lt;mxCell id=&quot;hN0CreysbBGn29C-ZNiO-31&quot; value=&quot;&quot; style=&quot;fillColor=#ffffff;strokeColor=none;dashed=0;outlineConnect=0;html=1;labelPosition=center;verticalLabelPosition=bottom;verticalAlign=top;part=1;movable=0;resizable=0;rotatable=0;shape=mxgraph.ibm_cloud.ibm-cloud--virtual-server-classic&quot; parent=&quot;hN0CreysbBGn29C-ZNiO-30&quot; vertex=&quot;1&quot;&gt;&#10;          &lt;mxGeometry width=&quot;24&quot; height=&quot;24&quot; relative=&quot;1&quot; as=&quot;geometry&quot;&gt;&#10;            &lt;mxPoint x=&quot;12&quot; y=&quot;12&quot; as=&quot;offset&quot; /&gt;&#10;          &lt;/mxGeometry&gt;&#10;        &lt;/mxCell&gt;&#10;      &lt;/root&gt;&#10;    &lt;/mxGraphModel&gt;&#10;  &lt;/diagram&gt;&#10;&lt;/mxfile&gt;&#10;" style="background-color: rgb(255, 255, 255);"><defs/><rect fill="#ffffff" width="100%" height="100%" x="0" y="0"/><g><g data-cell-id="0"><g data-cell-id="1"><g data-cell-id="o5gOb5EpJ8vd6yiIu7Q0-1"><g><rect x="0" y="0" width="1180" height="430" fill="rgb(255, 255, 255)" stroke="none" pointer-events="all"/></g></g><g data-cell-id="hN0CreysbBGn29C-ZNiO-8"><g><path d="M 377 183.5 L 787 184.5" fill="none" stroke="rgb(0, 0, 0)" stroke-miterlimit="10" pointer-events="stroke"/></g></g><g data-cell-id="hN0CreysbBGn29C-ZNiO-1"><g><ellipse cx="384" cy="182" rx="24" ry="24" fill="#000000" stroke="none" pointer-events="all"/></g><g><g fill="rgb(0, 0, 0)" font-family="&quot;Helvetica&quot;" text-anchor="middle" font-size="14px"><text x="383.5" y="225.5">Visitor</text></g></g><g data-cell-id="hN0CreysbBGn29C-ZNiO-2"><g><rect x="372" y="170" width="24" height="24" fill="none" stroke="none" pointer-events="all"/><rect x="372" y="170" width="0" height="0" fill="none" stroke="none" pointer-events="all"/><path d="M 384 173 C 386.07 173 387.75 174.68 387.75 176.75 C 387.75 178.82 386.07 180.5 384 180.5 C 381.93 180.5 380.25 178.82 380.25 176.75 C 380.25 174.68 381.93 173 384 173 M 384 171.5 C 381.1 171.5 378.75 173.85 378.75 176.75 C 378.75 179.65 381.1 182 384 182 C 386.9 182 389.25 179.65 389.25 176.75 C 389.25 173.85 386.9 171.5 384 171.5 Z M 391.5 192.5 L 390 192.5 L 390 188.75 C 390 186.68 388.32 185 386.25 185 L 381.75 185 C 379.68 185 378 186.68 378 188.75 L 378 192.5 L 376.5 192.5 L 376.5 188.75 C 376.5 185.85 378.85 183.5 381.75 183.5 L 386.25 183.5 C 389.15 183.5 391.5 185.85 391.5 188.75 Z" fill="#ffffff" stroke="none" pointer-events="all"/></g></g></g><g data-cell-id="hN0CreysbBGn29C-ZNiO-3"><g><rect x="558" y="160" width="48" height="48" fill="#1192e8" stroke="none" pointer-events="all"/></g><g><g fill="rgb(0, 0, 0)" font-family="&quot;Helvetica&quot;" text-anchor="middle" font-size="14px"><text x="581.5" y="227.5">Cloud </text><text x="581.5" y="244.5">Internet </text><text x="581.5" y="261.5">Services</text></g></g><g data-cell-id="hN0CreysbBGn29C-ZNiO-4"><g><rect x="570" y="172" width="24" height="24" fill="none" stroke="none" pointer-events="all"/><rect x="570" y="172" width="0" height="0" fill="none" stroke="none" pointer-events="all"/><path d="M 590.25 188.5 C 589.72 188.5 589.2 188.72 588.82 189.03 L 584.93 186.7 C 584.93 186.55 585 186.4 585 186.25 C 585 186.1 585 185.95 584.93 185.8 L 588.82 183.47 C 589.2 183.78 589.72 184 590.25 184 C 591.53 184 592.5 183.03 592.5 181.75 C 592.5 180.47 591.53 179.5 590.25 179.5 C 588.97 179.5 588 180.47 588 181.75 C 588 181.9 588 182.05 588.07 182.2 L 584.18 184.53 C 583.8 184.22 583.28 184 582.75 184 C 581.47 184 580.5 184.97 580.5 186.25 C 580.5 187.53 581.47 188.5 582.75 188.5 C 583.28 188.5 583.8 188.28 584.18 187.97 L 588.07 190.3 C 588.07 190.45 588 190.6 588 190.75 C 588 192.03 588.97 193 590.25 193 C 591.53 193 592.5 192.03 592.5 190.75 C 592.5 189.47 591.53 188.5 590.25 188.5 Z M 590.25 181 C 590.7 181 591 181.3 591 181.75 C 591 182.2 590.7 182.5 590.25 182.5 C 589.8 182.5 589.5 182.2 589.5 181.75 C 589.5 181.3 589.8 181 590.25 181 Z M 582.75 187 C 582.3 187 582 186.7 582 186.25 C 582 185.8 582.3 185.5 582.75 185.5 C 583.2 185.5 583.5 185.8 583.5 186.25 C 583.5 186.7 583.2 187 582.75 187 Z M 590.25 191.5 C 589.8 191.5 589.5 191.2 589.5 190.75 C 589.5 190.3 589.8 190 590.25 190 C 590.7 190 591 190.3 591 190.75 C 591 191.2 590.7 191.5 590.25 191.5 Z" fill="#ffffff" stroke="none" pointer-events="all"/><path d="M 584.25 190.75 L 576.38 190.75 C 574.13 190.75 572.25 188.88 572.25 186.63 C 572.25 184.6 573.68 182.95 575.63 182.57 L 576.6 182.43 L 576.82 181.45 C 577.43 178.53 579.9 176.5 582.75 176.5 C 583.13 176.5 583.5 176.5 583.88 176.57 C 585.07 176.8 586.13 177.4 587.03 178.22 L 588.07 177.18 C 587.03 176.13 585.68 175.38 584.18 175.15 C 583.72 175.07 583.2 175 582.75 175 C 579.22 175 576.07 177.47 575.4 181.07 C 572.7 181.6 570.75 183.93 570.75 186.63 C 570.75 189.7 573.22 192.25 576.38 192.25 L 584.25 192.25 L 584.25 190.75 Z" fill="#ffffff" stroke="none" pointer-events="all"/></g></g></g><g data-cell-id="hN0CreysbBGn29C-ZNiO-30"><g><rect x="755" y="160" width="48" height="48" fill="#198038" stroke="none" pointer-events="all"/></g><g><g fill="rgb(0, 0, 0)" font-family="&quot;Helvetica&quot;" text-anchor="middle" font-size="14px"><text x="778.5" y="227.5">Origin Server</text></g></g><g data-cell-id="hN0CreysbBGn29C-ZNiO-31"><g><rect x="767" y="172" width="24" height="24" fill="none" stroke="none" pointer-events="all"/><rect x="767" y="172" width="0" height="0" fill="none" stroke="none" pointer-events="all"/><ellipse cx="773.75" cy="191.5" rx="0.75" ry="0.75" fill="#ffffff" stroke="none" pointer-events="all"/><path d="M 786.5 188.5 L 782.75 188.5 L 782.75 190 L 786.5 190 L 786.5 193 L 771.5 193 L 771.5 190 L 778.25 190 C 779.07 190 779.75 189.32 779.75 188.5 L 779.75 181.62 L 781.69 183.57 L 782.75 182.5 L 779 178.75 L 775.25 182.5 L 776.31 183.56 L 778.25 181.62 L 778.25 188.5 L 771.5 188.5 C 770.68 188.5 770 189.18 770 190 L 770 193 C 770 193.82 770.68 194.5 771.5 194.5 L 786.5 194.5 C 787.32 194.5 788 193.82 788 193 L 788 190 C 788 189.18 787.32 188.5 786.5 188.5 Z" fill="#ffffff" stroke="none" pointer-events="all"/><path d="M 784.81 178.04 C 784.15 175.41 781.75 173.5 779 173.5 C 776.25 173.5 773.85 175.41 773.19 178.04 C 770.97 178.32 769.25 180.21 769.25 182.5 C 769.25 184.98 771.27 187 773.75 187 L 775.25 187 L 775.25 185.5 L 773.75 185.5 C 772.09 185.5 770.75 184.16 770.75 182.5 C 770.75 180.86 772.08 179.52 773.71 179.5 L 774.45 179.51 L 774.55 178.86 C 774.87 176.66 776.78 175 779 175 C 781.22 175 783.13 176.66 783.45 178.86 L 783.54 179.52 L 784.2 179.51 L 784.3 179.5 C 785.93 179.52 787.25 180.86 787.25 182.5 C 787.25 184.16 785.91 185.5 784.25 185.5 L 782.75 185.5 L 782.75 187 L 784.25 187 C 786.73 187 788.75 184.98 788.75 182.5 C 788.75 180.21 787.03 178.32 784.81 178.04 Z" fill="#ffffff" stroke="none" pointer-events="all"/></g></g></g></g></g></g></svg>