<?xml version="1.0" encoding="UTF-8"?>
<!-- Do not edit this file with editors other than draw.io -->
<!DOCTYPE svg PUBLIC "-//W3C//DTD SVG 1.1//EN" "http://www.w3.org/Graphics/SVG/1.1/DTD/svg11.dtd">
<svg xmlns="http://www.w3.org/2000/svg" style="background: #ffffff; background-color: #ffffff; color-scheme: light;" xmlns:xlink="http://www.w3.org/1999/xlink" version="1.1" width="850px" height="231px" viewBox="-0.5 -0.5 850 231" content="&lt;mxfile host=&quot;app.diagrams.net&quot; agent=&quot;Mozilla/5.0 (Macintosh; Intel Mac OS X 10_15_7) AppleWebKit/537.36 (KHTML, like Gecko) Chrome/138.0.0.0 Safari/537.36 Edg/138.0.0.0&quot; version=&quot;27.2.0&quot; scale=&quot;1&quot; border=&quot;0&quot;&gt;&#10;  &lt;diagram name=&quot;Page-1&quot; id=&quot;VMQzMJBvYHzRfyUvyS4v&quot;&gt;&#10;    &lt;mxGraphModel dx=&quot;1226&quot; dy=&quot;698&quot; grid=&quot;1&quot; gridSize=&quot;10&quot; guides=&quot;1&quot; tooltips=&quot;1&quot; connect=&quot;1&quot; arrows=&quot;1&quot; fold=&quot;1&quot; page=&quot;1&quot; pageScale=&quot;1&quot; pageWidth=&quot;850&quot; pageHeight=&quot;1100&quot; math=&quot;0&quot; shadow=&quot;0&quot;&gt;&#10;      &lt;root&gt;&#10;        &lt;mxCell id=&quot;0&quot; /&gt;&#10;        &lt;mxCell id=&quot;1&quot; parent=&quot;0&quot; /&gt;&#10;        &lt;mxCell id=&quot;dlb-fHAUYnm78_AOpvT9-1&quot; value=&quot;&quot; style=&quot;rounded=0;whiteSpace=wrap;html=1;fillColor=default;strokeColor=none;&quot; vertex=&quot;1&quot; parent=&quot;1&quot;&gt;&#10;          &lt;mxGeometry x=&quot;110&quot; y=&quot;111&quot; width=&quot;630&quot; height=&quot;230&quot; as=&quot;geometry&quot; /&gt;&#10;        &lt;/mxCell&gt;&#10;        &lt;mxCell id=&quot;dlb-fHAUYnm78_AOpvT9-22&quot; value=&quot;&quot; style=&quot;endArrow=none;html=1;rounded=0;entryX=0;entryY=0.5;entryDx=0;entryDy=0;exitX=1;exitY=0.5;exitDx=0;exitDy=0;&quot; edge=&quot;1&quot; parent=&quot;1&quot; source=&quot;dlb-fHAUYnm78_AOpvT9-23&quot; target=&quot;dlb-fHAUYnm78_AOpvT9-25&quot;&gt;&#10;          &lt;mxGeometry width=&quot;50&quot; height=&quot;50&quot; relative=&quot;1&quot; as=&quot;geometry&quot;&gt;&#10;            &lt;mxPoint x=&quot;221&quot; y=&quot;226&quot; as=&quot;sourcePoint&quot; /&gt;&#10;            &lt;mxPoint x=&quot;401&quot; y=&quot;227.5&quot; as=&quot;targetPoint&quot; /&gt;&#10;          &lt;/mxGeometry&gt;&#10;        &lt;/mxCell&gt;&#10;        &lt;mxCell id=&quot;dlb-fHAUYnm78_AOpvT9-23&quot; value=&quot;Visitor&quot; style=&quot;shape=ellipse;fillColor=#000000;aspect=fixed;resizable=0;labelPosition=center;verticalLabelPosition=bottom;align=center;verticalAlign=top;strokeColor=none;fontSize=14;&quot; vertex=&quot;1&quot; parent=&quot;1&quot;&gt;&#10;          &lt;mxGeometry x=&quot;171&quot; y=&quot;202.5&quot; width=&quot;48&quot; height=&quot;48&quot; as=&quot;geometry&quot; /&gt;&#10;        &lt;/mxCell&gt;&#10;        &lt;mxCell id=&quot;dlb-fHAUYnm78_AOpvT9-24&quot; value=&quot;&quot; style=&quot;fillColor=#ffffff;strokeColor=none;dashed=0;outlineConnect=0;html=1;labelPosition=center;verticalLabelPosition=bottom;verticalAlign=top;part=1;movable=0;resizable=0;rotatable=0;shape=mxgraph.ibm_cloud.user&quot; vertex=&quot;1&quot; parent=&quot;dlb-fHAUYnm78_AOpvT9-23&quot;&gt;&#10;          &lt;mxGeometry width=&quot;24&quot; height=&quot;24&quot; relative=&quot;1&quot; as=&quot;geometry&quot;&gt;&#10;            &lt;mxPoint x=&quot;12&quot; y=&quot;12&quot; as=&quot;offset&quot; /&gt;&#10;          &lt;/mxGeometry&gt;&#10;        &lt;/mxCell&gt;&#10;        &lt;mxCell id=&quot;dlb-fHAUYnm78_AOpvT9-25&quot; value=&quot;Cloud &amp;#xa;Internet &amp;#xa;Services&quot; style=&quot;shape=rect;fillColor=#1192E8;aspect=fixed;resizable=0;labelPosition=center;verticalLabelPosition=bottom;align=center;verticalAlign=top;strokeColor=none;fontSize=14;&quot; vertex=&quot;1&quot; parent=&quot;1&quot;&gt;&#10;          &lt;mxGeometry x=&quot;406&quot; y=&quot;202.5&quot; width=&quot;48&quot; height=&quot;48&quot; as=&quot;geometry&quot; /&gt;&#10;        &lt;/mxCell&gt;&#10;        &lt;mxCell id=&quot;dlb-fHAUYnm78_AOpvT9-26&quot; value=&quot;&quot; style=&quot;fillColor=#ffffff;strokeColor=none;dashed=0;outlineConnect=0;html=1;labelPosition=center;verticalLabelPosition=bottom;verticalAlign=top;part=1;movable=0;resizable=0;rotatable=0;shape=mxgraph.ibm_cloud.ibm-cloud--internet-services&quot; vertex=&quot;1&quot; parent=&quot;dlb-fHAUYnm78_AOpvT9-25&quot;&gt;&#10;          &lt;mxGeometry width=&quot;24&quot; height=&quot;24&quot; relative=&quot;1&quot; as=&quot;geometry&quot;&gt;&#10;            &lt;mxPoint x=&quot;12&quot; y=&quot;12&quot; as=&quot;offset&quot; /&gt;&#10;          &lt;/mxGeometry&gt;&#10;        &lt;/mxCell&gt;&#10;        &lt;mxCell id=&quot;dlb-fHAUYnm78_AOpvT9-27&quot; value=&quot;Origin Server&amp;#xa;&quot; style=&quot;shape=rect;fillColor=#198038;aspect=fixed;resizable=0;labelPosition=center;verticalLabelPosition=bottom;align=center;verticalAlign=top;strokeColor=none;fontSize=14;&quot; vertex=&quot;1&quot; parent=&quot;1&quot;&gt;&#10;          &lt;mxGeometry x=&quot;631&quot; y=&quot;202.5&quot; width=&quot;48&quot; height=&quot;48&quot; as=&quot;geometry&quot; /&gt;&#10;        &lt;/mxCell&gt;&#10;        &lt;mxCell id=&quot;dlb-fHAUYnm78_AOpvT9-28&quot; value=&quot;&quot; style=&quot;fillColor=#ffffff;strokeColor=none;dashed=0;outlineConnect=0;html=1;labelPosition=center;verticalLabelPosition=bottom;verticalAlign=top;part=1;movable=0;resizable=0;rotatable=0;shape=mxgraph.ibm_cloud.ibm-cloud--virtual-server-classic&quot; vertex=&quot;1&quot; parent=&quot;dlb-fHAUYnm78_AOpvT9-27&quot;&gt;&#10;          &lt;mxGeometry width=&quot;24&quot; height=&quot;24&quot; relative=&quot;1&quot; as=&quot;geometry&quot;&gt;&#10;            &lt;mxPoint x=&quot;12&quot; y=&quot;12&quot; as=&quot;offset&quot; /&gt;&#10;          &lt;/mxGeometry&gt;&#10;        &lt;/mxCell&gt;&#10;        &lt;mxCell id=&quot;dlb-fHAUYnm78_AOpvT9-29&quot; value=&quot;&quot; style=&quot;endArrow=none;html=1;rounded=0;exitX=1;exitY=0.5;exitDx=0;exitDy=0;&quot; edge=&quot;1&quot; parent=&quot;1&quot;&gt;&#10;          &lt;mxGeometry width=&quot;50&quot; height=&quot;50&quot; relative=&quot;1&quot; as=&quot;geometry&quot;&gt;&#10;            &lt;mxPoint x=&quot;454&quot; y=&quot;226.27999999999997&quot; as=&quot;sourcePoint&quot; /&gt;&#10;            &lt;mxPoint x=&quot;631&quot; y=&quot;226.5&quot; as=&quot;targetPoint&quot; /&gt;&#10;          &lt;/mxGeometry&gt;&#10;        &lt;/mxCell&gt;&#10;        &lt;mxCell id=&quot;dlb-fHAUYnm78_AOpvT9-30&quot; value=&quot;&quot; style=&quot;rounded=0;whiteSpace=wrap;html=1;fillColor=default;strokeColor=none;&quot; vertex=&quot;1&quot; parent=&quot;1&quot;&gt;&#10;          &lt;mxGeometry y=&quot;111.5&quot; width=&quot;110&quot; height=&quot;230&quot; as=&quot;geometry&quot; /&gt;&#10;        &lt;/mxCell&gt;&#10;        &lt;mxCell id=&quot;dlb-fHAUYnm78_AOpvT9-32&quot; value=&quot;&quot; style=&quot;rounded=0;whiteSpace=wrap;html=1;fillColor=default;strokeColor=none;&quot; vertex=&quot;1&quot; parent=&quot;1&quot;&gt;&#10;          &lt;mxGeometry x=&quot;740&quot; y=&quot;111&quot; width=&quot;110&quot; height=&quot;230&quot; as=&quot;geometry&quot; /&gt;&#10;        &lt;/mxCell&gt;&#10;      &lt;/root&gt;&#10;    &lt;/mxGraphModel&gt;&#10;  &lt;/diagram&gt;&#10;&lt;/mxfile&gt;&#10;"><defs/><rect fill="#ffffff" width="100%" height="100%" x="0" y="0" style="fill: rgb(255, 255, 255);"/><g><g data-cell-id="0"><g data-cell-id="1"><g data-cell-id="dlb-fHAUYnm78_AOpvT9-1"><g><rect x="110" y="0" width="630" height="230" fill="#ffffff" stroke="none" pointer-events="all" style="fill: rgb(255, 255, 255);"/></g></g><g data-cell-id="dlb-fHAUYnm78_AOpvT9-22"><g><path d="M 219 115.5 L 406 115.5" fill="none" stroke="#000000" stroke-miterlimit="10" pointer-events="stroke" style="stroke: rgb(0, 0, 0);"/></g></g><g data-cell-id="dlb-fHAUYnm78_AOpvT9-23"><g><ellipse cx="195" cy="115.5" rx="24" ry="24" fill="#000000" stroke="none" pointer-events="all" style="fill: rgb(0, 0, 0);"/></g><g><g fill="#000000" font-family="Helvetica" text-anchor="middle" font-size="14px" style="fill: rgb(0, 0, 0);"><text x="195" y="159.5">Visitor</text></g></g><g data-cell-id="dlb-fHAUYnm78_AOpvT9-24"><g><rect x="183" y="103.5" width="24" height="24" fill="none" stroke="none" pointer-events="all"/><rect x="183" y="103.5" width="0" height="0" fill="none" stroke="none" pointer-events="all"/><path d="M 195 106.5 C 197.07 106.5 198.75 108.18 198.75 110.25 C 198.75 112.32 197.07 114 195 114 C 192.93 114 191.25 112.32 191.25 110.25 C 191.25 108.18 192.93 106.5 195 106.5 M 195 105 C 192.1 105 189.75 107.35 189.75 110.25 C 189.75 113.15 192.1 115.5 195 115.5 C 197.9 115.5 200.25 113.15 200.25 110.25 C 200.25 107.35 197.9 105 195 105 Z M 202.5 126 L 201 126 L 201 122.25 C 201 120.18 199.32 118.5 197.25 118.5 L 192.75 118.5 C 190.68 118.5 189 120.18 189 122.25 L 189 126 L 187.5 126 L 187.5 122.25 C 187.5 119.35 189.85 117 192.75 117 L 197.25 117 C 200.15 117 202.5 119.35 202.5 122.25 Z" fill="#ffffff" stroke="none" pointer-events="all" style="fill: rgb(255, 255, 255);"/></g></g></g><g data-cell-id="dlb-fHAUYnm78_AOpvT9-25"><g><rect x="406" y="91.5" width="48" height="48" fill="#1192e8" stroke="none" pointer-events="all" style="fill: rgb(17, 146, 232);"/></g><g><g fill="#000000" font-family="Helvetica" text-anchor="middle" font-size="14px" style="fill: rgb(0, 0, 0);"><text x="430" y="159.5">Cloud </text><text x="430" y="176.5">Internet </text><text x="430" y="193.5">Services</text></g></g><g data-cell-id="dlb-fHAUYnm78_AOpvT9-26"><g><rect x="418" y="103.5" width="24" height="24" fill="none" stroke="none" pointer-events="all"/><rect x="418" y="103.5" width="0" height="0" fill="none" stroke="none" pointer-events="all"/><path d="M 438.25 120 C 437.72 120 437.2 120.23 436.83 120.52 L 432.92 118.2 C 432.92 118.05 433 117.9 433 117.75 C 433 117.6 433 117.45 432.92 117.3 L 436.83 114.98 C 437.2 115.27 437.72 115.5 438.25 115.5 C 439.53 115.5 440.5 114.52 440.5 113.25 C 440.5 111.98 439.53 111 438.25 111 C 436.97 111 436 111.98 436 113.25 C 436 113.4 436 113.55 436.08 113.7 L 432.17 116.02 C 431.8 115.73 431.28 115.5 430.75 115.5 C 429.47 115.5 428.5 116.48 428.5 117.75 C 428.5 119.02 429.47 120 430.75 120 C 431.28 120 431.8 119.77 432.17 119.48 L 436.08 121.8 C 436.08 121.95 436 122.1 436 122.25 C 436 123.52 436.97 124.5 438.25 124.5 C 439.53 124.5 440.5 123.52 440.5 122.25 C 440.5 120.98 439.53 120 438.25 120 Z M 438.25 112.5 C 438.7 112.5 439 112.8 439 113.25 C 439 113.7 438.7 114 438.25 114 C 437.8 114 437.5 113.7 437.5 113.25 C 437.5 112.8 437.8 112.5 438.25 112.5 Z M 430.75 118.5 C 430.3 118.5 430 118.2 430 117.75 C 430 117.3 430.3 117 430.75 117 C 431.2 117 431.5 117.3 431.5 117.75 C 431.5 118.2 431.2 118.5 430.75 118.5 Z M 438.25 123 C 437.8 123 437.5 122.7 437.5 122.25 C 437.5 121.8 437.8 121.5 438.25 121.5 C 438.7 121.5 439 121.8 439 122.25 C 439 122.7 438.7 123 438.25 123 Z" fill="#ffffff" stroke="none" pointer-events="all" style="fill: rgb(255, 255, 255);"/><path d="M 432.25 122.25 L 424.38 122.25 C 422.13 122.25 420.25 120.38 420.25 118.13 C 420.25 116.1 421.67 114.45 423.63 114.08 L 424.6 113.92 L 424.83 112.95 C 425.42 110.02 427.9 108 430.75 108 C 431.13 108 431.5 108 431.88 108.08 C 433.08 108.3 434.13 108.9 435.03 109.73 L 436.08 108.67 C 435.03 107.63 433.67 106.88 432.17 106.65 C 431.72 106.58 431.2 106.5 430.75 106.5 C 427.22 106.5 424.08 108.98 423.4 112.58 C 420.7 113.1 418.75 115.42 418.75 118.13 C 418.75 121.2 421.22 123.75 424.38 123.75 L 432.25 123.75 L 432.25 122.25 Z" fill="#ffffff" stroke="none" pointer-events="all" style="fill: rgb(255, 255, 255);"/></g></g></g><g data-cell-id="dlb-fHAUYnm78_AOpvT9-27"><g><rect x="631" y="91.5" width="48" height="48" fill="#198038" stroke="none" pointer-events="all" style="fill: rgb(25, 128, 56);"/></g><g><g fill="#000000" font-family="Helvetica" text-anchor="middle" font-size="14px" style="fill: rgb(0, 0, 0);"><text x="655" y="159.5">Origin Server</text></g></g><g data-cell-id="dlb-fHAUYnm78_AOpvT9-28"><g><rect x="643" y="103.5" width="24" height="24" fill="none" stroke="none" pointer-events="all"/><rect x="643" y="103.5" width="0" height="0" fill="none" stroke="none" pointer-events="all"/><ellipse cx="649.75" cy="123" rx="0.75" ry="0.75" fill="#ffffff" stroke="none" pointer-events="all" style="fill: rgb(255, 255, 255);"/><path d="M 662.5 120 L 658.75 120 L 658.75 121.5 L 662.5 121.5 L 662.5 124.5 L 647.5 124.5 L 647.5 121.5 L 654.25 121.5 C 655.08 121.5 655.75 120.83 655.75 120 L 655.75 113.12 L 657.69 115.07 L 658.75 114 L 655 110.25 L 651.25 114 L 652.31 115.06 L 654.25 113.12 L 654.25 120 L 647.5 120 C 646.67 120 646 120.67 646 121.5 L 646 124.5 C 646 125.33 646.67 126 647.5 126 L 662.5 126 C 663.33 126 664 125.33 664 124.5 L 664 121.5 C 664 120.67 663.33 120 662.5 120 Z" fill="#ffffff" stroke="none" pointer-events="all" style="fill: rgb(255, 255, 255);"/><path d="M 660.81 109.54 C 660.15 106.91 657.75 105 655 105 C 652.25 105 649.85 106.91 649.19 109.54 C 646.97 109.82 645.25 111.71 645.25 114 C 645.25 116.48 647.27 118.5 649.75 118.5 L 651.25 118.5 L 651.25 117 L 649.75 117 C 648.09 117 646.75 115.66 646.75 114 C 646.75 112.36 648.08 111.02 649.71 111 L 650.45 111.01 L 650.55 110.36 C 650.87 108.16 652.78 106.5 655 106.5 C 657.22 106.5 659.13 108.16 659.45 110.36 L 659.54 111.02 L 660.2 111.01 L 660.3 111 C 661.93 111.02 663.25 112.36 663.25 114 C 663.25 115.66 661.91 117 660.25 117 L 658.75 117 L 658.75 118.5 L 660.25 118.5 C 662.73 118.5 664.75 116.48 664.75 114 C 664.75 111.71 663.03 109.82 660.81 109.54 Z" fill="#ffffff" stroke="none" pointer-events="all" style="fill: rgb(255, 255, 255);"/></g></g></g><g data-cell-id="dlb-fHAUYnm78_AOpvT9-29"><g><path d="M 454 115.28 L 631 115.5" fill="none" stroke="#000000" stroke-miterlimit="10" pointer-events="stroke" style="stroke: rgb(0, 0, 0);"/></g></g><g data-cell-id="dlb-fHAUYnm78_AOpvT9-30"><g><rect x="0" y="0.5" width="110" height="230" fill="#ffffff" stroke="none" pointer-events="all" style="fill: rgb(255, 255, 255);"/></g></g><g data-cell-id="dlb-fHAUYnm78_AOpvT9-32"><g><rect x="740" y="0" width="110" height="230" fill="#ffffff" stroke="none" pointer-events="all" style="fill: rgb(255, 255, 255);"/></g></g></g></g></g></svg>