<?xml version="1.0" encoding="UTF-8"?>
<!-- Do not edit this file with editors other than draw.io -->
<!DOCTYPE svg PUBLIC "-//W3C//DTD SVG 1.1//EN" "http://www.w3.org/Graphics/SVG/1.1/DTD/svg11.dtd">
<svg xmlns="http://www.w3.org/2000/svg" style="background: transparent; background-color: transparent; color-scheme: light;" xmlns:xlink="http://www.w3.org/1999/xlink" version="1.1" width="526px" height="105px" viewBox="-0.5 -0.5 526 105" content="&lt;mxfile host=&quot;app.diagrams.net&quot; agent=&quot;Mozilla/5.0 (Macintosh; Intel Mac OS X 10_15_7) AppleWebKit/537.36 (KHTML, like Gecko) Chrome/138.0.0.0 Safari/537.36 Edg/138.0.0.0&quot; version=&quot;27.1.6&quot; scale=&quot;1&quot; border=&quot;0&quot;&gt;&#10;  &lt;diagram name=&quot;Page-1&quot; id=&quot;VMQzMJBvYHzRfyUvyS4v&quot;&gt;&#10;    &lt;mxGraphModel dx=&quot;1226&quot; dy=&quot;698&quot; grid=&quot;1&quot; gridSize=&quot;10&quot; guides=&quot;1&quot; tooltips=&quot;1&quot; connect=&quot;1&quot; arrows=&quot;1&quot; fold=&quot;1&quot; page=&quot;1&quot; pageScale=&quot;1&quot; pageWidth=&quot;850&quot; pageHeight=&quot;1100&quot; math=&quot;0&quot; shadow=&quot;0&quot;&gt;&#10;      &lt;root&gt;&#10;        &lt;mxCell id=&quot;0&quot; /&gt;&#10;        &lt;mxCell id=&quot;1&quot; parent=&quot;0&quot; /&gt;&#10;        &lt;mxCell id=&quot;LddF3R96ZCdnI7Bx30d1-2&quot; value=&quot;&quot; style=&quot;endArrow=none;html=1;rounded=0;entryX=0;entryY=0.5;entryDx=0;entryDy=0;exitX=1;exitY=0.5;exitDx=0;exitDy=0;&quot; edge=&quot;1&quot; parent=&quot;1&quot; source=&quot;LddF3R96ZCdnI7Bx30d1-3&quot; target=&quot;LddF3R96ZCdnI7Bx30d1-5&quot;&gt;&#10;          &lt;mxGeometry width=&quot;50&quot; height=&quot;50&quot; relative=&quot;1&quot; as=&quot;geometry&quot;&gt;&#10;            &lt;mxPoint x=&quot;210&quot; y=&quot;172.5&quot; as=&quot;sourcePoint&quot; /&gt;&#10;            &lt;mxPoint x=&quot;390&quot; y=&quot;174&quot; as=&quot;targetPoint&quot; /&gt;&#10;          &lt;/mxGeometry&gt;&#10;        &lt;/mxCell&gt;&#10;        &lt;mxCell id=&quot;LddF3R96ZCdnI7Bx30d1-3&quot; value=&quot;Visitor&quot; style=&quot;shape=ellipse;fillColor=#000000;aspect=fixed;resizable=0;labelPosition=center;verticalLabelPosition=bottom;align=center;verticalAlign=top;strokeColor=none;fontSize=14;&quot; vertex=&quot;1&quot; parent=&quot;1&quot;&gt;&#10;          &lt;mxGeometry x=&quot;160&quot; y=&quot;149&quot; width=&quot;48&quot; height=&quot;48&quot; as=&quot;geometry&quot; /&gt;&#10;        &lt;/mxCell&gt;&#10;        &lt;mxCell id=&quot;LddF3R96ZCdnI7Bx30d1-4&quot; value=&quot;&quot; style=&quot;fillColor=#ffffff;strokeColor=none;dashed=0;outlineConnect=0;html=1;labelPosition=center;verticalLabelPosition=bottom;verticalAlign=top;part=1;movable=0;resizable=0;rotatable=0;shape=mxgraph.ibm_cloud.user&quot; vertex=&quot;1&quot; parent=&quot;LddF3R96ZCdnI7Bx30d1-3&quot;&gt;&#10;          &lt;mxGeometry width=&quot;24&quot; height=&quot;24&quot; relative=&quot;1&quot; as=&quot;geometry&quot;&gt;&#10;            &lt;mxPoint x=&quot;12&quot; y=&quot;12&quot; as=&quot;offset&quot; /&gt;&#10;          &lt;/mxGeometry&gt;&#10;        &lt;/mxCell&gt;&#10;        &lt;mxCell id=&quot;LddF3R96ZCdnI7Bx30d1-5&quot; value=&quot;Cloud &amp;#xa;Internet &amp;#xa;Services&quot; style=&quot;shape=rect;fillColor=#1192E8;aspect=fixed;resizable=0;labelPosition=center;verticalLabelPosition=bottom;align=center;verticalAlign=top;strokeColor=none;fontSize=14;&quot; vertex=&quot;1&quot; parent=&quot;1&quot;&gt;&#10;          &lt;mxGeometry x=&quot;395&quot; y=&quot;149&quot; width=&quot;48&quot; height=&quot;48&quot; as=&quot;geometry&quot; /&gt;&#10;        &lt;/mxCell&gt;&#10;        &lt;mxCell id=&quot;LddF3R96ZCdnI7Bx30d1-6&quot; value=&quot;&quot; style=&quot;fillColor=#ffffff;strokeColor=none;dashed=0;outlineConnect=0;html=1;labelPosition=center;verticalLabelPosition=bottom;verticalAlign=top;part=1;movable=0;resizable=0;rotatable=0;shape=mxgraph.ibm_cloud.ibm-cloud--internet-services&quot; vertex=&quot;1&quot; parent=&quot;LddF3R96ZCdnI7Bx30d1-5&quot;&gt;&#10;          &lt;mxGeometry width=&quot;24&quot; height=&quot;24&quot; relative=&quot;1&quot; as=&quot;geometry&quot;&gt;&#10;            &lt;mxPoint x=&quot;12&quot; y=&quot;12&quot; as=&quot;offset&quot; /&gt;&#10;          &lt;/mxGeometry&gt;&#10;        &lt;/mxCell&gt;&#10;        &lt;mxCell id=&quot;LddF3R96ZCdnI7Bx30d1-7&quot; value=&quot;Origin Server&amp;#xa;&quot; style=&quot;shape=rect;fillColor=#198038;aspect=fixed;resizable=0;labelPosition=center;verticalLabelPosition=bottom;align=center;verticalAlign=top;strokeColor=none;fontSize=14;&quot; vertex=&quot;1&quot; parent=&quot;1&quot;&gt;&#10;          &lt;mxGeometry x=&quot;620&quot; y=&quot;149&quot; width=&quot;48&quot; height=&quot;48&quot; as=&quot;geometry&quot; /&gt;&#10;        &lt;/mxCell&gt;&#10;        &lt;mxCell id=&quot;LddF3R96ZCdnI7Bx30d1-8&quot; value=&quot;&quot; style=&quot;fillColor=#ffffff;strokeColor=none;dashed=0;outlineConnect=0;html=1;labelPosition=center;verticalLabelPosition=bottom;verticalAlign=top;part=1;movable=0;resizable=0;rotatable=0;shape=mxgraph.ibm_cloud.ibm-cloud--virtual-server-classic&quot; vertex=&quot;1&quot; parent=&quot;LddF3R96ZCdnI7Bx30d1-7&quot;&gt;&#10;          &lt;mxGeometry width=&quot;24&quot; height=&quot;24&quot; relative=&quot;1&quot; as=&quot;geometry&quot;&gt;&#10;            &lt;mxPoint x=&quot;12&quot; y=&quot;12&quot; as=&quot;offset&quot; /&gt;&#10;          &lt;/mxGeometry&gt;&#10;        &lt;/mxCell&gt;&#10;        &lt;mxCell id=&quot;LddF3R96ZCdnI7Bx30d1-10&quot; value=&quot;&quot; style=&quot;endArrow=none;html=1;rounded=0;exitX=1;exitY=0.5;exitDx=0;exitDy=0;&quot; edge=&quot;1&quot; parent=&quot;1&quot;&gt;&#10;          &lt;mxGeometry width=&quot;50&quot; height=&quot;50&quot; relative=&quot;1&quot; as=&quot;geometry&quot;&gt;&#10;            &lt;mxPoint x=&quot;443&quot; y=&quot;172.78&quot; as=&quot;sourcePoint&quot; /&gt;&#10;            &lt;mxPoint x=&quot;620&quot; y=&quot;173&quot; as=&quot;targetPoint&quot; /&gt;&#10;          &lt;/mxGeometry&gt;&#10;        &lt;/mxCell&gt;&#10;      &lt;/root&gt;&#10;    &lt;/mxGraphModel&gt;&#10;  &lt;/diagram&gt;&#10;&lt;/mxfile&gt;&#10;"><defs/><g><g data-cell-id="0"><g data-cell-id="1"><g data-cell-id="LddF3R96ZCdnI7Bx30d1-2"><g><path d="M 48 24 L 235 24" fill="none" stroke="#000000" stroke-miterlimit="10" pointer-events="stroke" style="stroke: rgb(0, 0, 0);"/></g></g><g data-cell-id="LddF3R96ZCdnI7Bx30d1-3"><g><ellipse cx="24" cy="24" rx="24" ry="24" fill="#000000" stroke="none" pointer-events="all" style="fill: rgb(0, 0, 0);"/></g><g><g fill="#000000" font-family="&quot;Helvetica&quot;" text-anchor="middle" font-size="14px" style="fill: rgb(0, 0, 0);"><text x="23.5" y="67.5">Visitor</text></g></g><g data-cell-id="LddF3R96ZCdnI7Bx30d1-4"><g><rect x="12" y="12" width="24" height="24" fill="none" stroke="none" pointer-events="all"/><rect x="12" y="12" width="0" height="0" fill="none" stroke="none" pointer-events="all"/><path d="M 24 15 C 26.07 15 27.75 16.68 27.75 18.75 C 27.75 20.82 26.07 22.5 24 22.5 C 21.93 22.5 20.25 20.82 20.25 18.75 C 20.25 16.68 21.93 15 24 15 M 24 13.5 C 21.1 13.5 18.75 15.85 18.75 18.75 C 18.75 21.65 21.1 24 24 24 C 26.9 24 29.25 21.65 29.25 18.75 C 29.25 15.85 26.9 13.5 24 13.5 Z M 31.5 34.5 L 30 34.5 L 30 30.75 C 30 28.68 28.32 27 26.25 27 L 21.75 27 C 19.68 27 18 28.68 18 30.75 L 18 34.5 L 16.5 34.5 L 16.5 30.75 C 16.5 27.85 18.85 25.5 21.75 25.5 L 26.25 25.5 C 29.15 25.5 31.5 27.85 31.5 30.75 Z" fill="#ffffff" stroke="none" pointer-events="all" style="fill: rgb(255, 255, 255);"/></g></g></g><g data-cell-id="LddF3R96ZCdnI7Bx30d1-5"><g><rect x="235" y="0" width="48" height="48" fill="#1192e8" stroke="none" pointer-events="all" style="fill: rgb(17, 146, 232);"/></g><g><g fill="#000000" font-family="&quot;Helvetica&quot;" text-anchor="middle" font-size="14px" style="fill: rgb(0, 0, 0);"><text x="258.5" y="67.5">Cloud </text><text x="258.5" y="84.5">Internet </text><text x="258.5" y="101.5">Services</text></g></g><g data-cell-id="LddF3R96ZCdnI7Bx30d1-6"><g><rect x="247" y="12" width="24" height="24" fill="none" stroke="none" pointer-events="all"/><rect x="247" y="12" width="0" height="0" fill="none" stroke="none" pointer-events="all"/><path d="M 267.25 28.5 C 266.72 28.5 266.2 28.73 265.83 29.02 L 261.92 26.7 C 261.92 26.55 262 26.4 262 26.25 C 262 26.1 262 25.95 261.92 25.8 L 265.83 23.48 C 266.2 23.77 266.72 24 267.25 24 C 268.53 24 269.5 23.02 269.5 21.75 C 269.5 20.48 268.53 19.5 267.25 19.5 C 265.97 19.5 265 20.48 265 21.75 C 265 21.9 265 22.05 265.08 22.2 L 261.17 24.52 C 260.8 24.23 260.28 24 259.75 24 C 258.47 24 257.5 24.98 257.5 26.25 C 257.5 27.52 258.47 28.5 259.75 28.5 C 260.28 28.5 260.8 28.27 261.17 27.98 L 265.08 30.3 C 265.08 30.45 265 30.6 265 30.75 C 265 32.02 265.97 33 267.25 33 C 268.53 33 269.5 32.02 269.5 30.75 C 269.5 29.48 268.53 28.5 267.25 28.5 Z M 267.25 21 C 267.7 21 268 21.3 268 21.75 C 268 22.2 267.7 22.5 267.25 22.5 C 266.8 22.5 266.5 22.2 266.5 21.75 C 266.5 21.3 266.8 21 267.25 21 Z M 259.75 27 C 259.3 27 259 26.7 259 26.25 C 259 25.8 259.3 25.5 259.75 25.5 C 260.2 25.5 260.5 25.8 260.5 26.25 C 260.5 26.7 260.2 27 259.75 27 Z M 267.25 31.5 C 266.8 31.5 266.5 31.2 266.5 30.75 C 266.5 30.3 266.8 30 267.25 30 C 267.7 30 268 30.3 268 30.75 C 268 31.2 267.7 31.5 267.25 31.5 Z" fill="#ffffff" stroke="none" pointer-events="all" style="fill: rgb(255, 255, 255);"/><path d="M 261.25 30.75 L 253.38 30.75 C 251.13 30.75 249.25 28.88 249.25 26.63 C 249.25 24.6 250.67 22.95 252.63 22.58 L 253.6 22.42 L 253.83 21.45 C 254.42 18.52 256.9 16.5 259.75 16.5 C 260.13 16.5 260.5 16.5 260.88 16.58 C 262.08 16.8 263.13 17.4 264.03 18.23 L 265.08 17.17 C 264.03 16.13 262.67 15.38 261.17 15.15 C 260.72 15.08 260.2 15 259.75 15 C 256.22 15 253.08 17.48 252.4 21.08 C 249.7 21.6 247.75 23.92 247.75 26.63 C 247.75 29.7 250.22 32.25 253.38 32.25 L 261.25 32.25 L 261.25 30.75 Z" fill="#ffffff" stroke="none" pointer-events="all" style="fill: rgb(255, 255, 255);"/></g></g></g><g data-cell-id="LddF3R96ZCdnI7Bx30d1-7"><g><rect x="460" y="0" width="48" height="48" fill="#198038" stroke="none" pointer-events="all" style="fill: rgb(25, 128, 56);"/></g><g><g fill="#000000" font-family="&quot;Helvetica&quot;" text-anchor="middle" font-size="14px" style="fill: rgb(0, 0, 0);"><text x="483.5" y="67.5">Origin Server</text></g></g><g data-cell-id="LddF3R96ZCdnI7Bx30d1-8"><g><rect x="472" y="12" width="24" height="24" fill="none" stroke="none" pointer-events="all"/><rect x="472" y="12" width="0" height="0" fill="none" stroke="none" pointer-events="all"/><ellipse cx="478.75" cy="31.5" rx="0.75" ry="0.75" fill="#ffffff" stroke="none" pointer-events="all" style="fill: rgb(255, 255, 255);"/><path d="M 491.5 28.5 L 487.75 28.5 L 487.75 30 L 491.5 30 L 491.5 33 L 476.5 33 L 476.5 30 L 483.25 30 C 484.08 30 484.75 29.33 484.75 28.5 L 484.75 21.62 L 486.69 23.57 L 487.75 22.5 L 484 18.75 L 480.25 22.5 L 481.31 23.56 L 483.25 21.62 L 483.25 28.5 L 476.5 28.5 C 475.67 28.5 475 29.17 475 30 L 475 33 C 475 33.83 475.67 34.5 476.5 34.5 L 491.5 34.5 C 492.33 34.5 493 33.83 493 33 L 493 30 C 493 29.17 492.33 28.5 491.5 28.5 Z" fill="#ffffff" stroke="none" pointer-events="all" style="fill: rgb(255, 255, 255);"/><path d="M 489.81 18.04 C 489.15 15.41 486.75 13.5 484 13.5 C 481.25 13.5 478.85 15.41 478.19 18.04 C 475.97 18.32 474.25 20.21 474.25 22.5 C 474.25 24.98 476.27 27 478.75 27 L 480.25 27 L 480.25 25.5 L 478.75 25.5 C 477.09 25.5 475.75 24.16 475.75 22.5 C 475.75 20.86 477.08 19.52 478.71 19.5 L 479.45 19.51 L 479.55 18.86 C 479.87 16.66 481.78 15 484 15 C 486.22 15 488.13 16.66 488.45 18.86 L 488.54 19.52 L 489.2 19.51 L 489.3 19.5 C 490.93 19.52 492.25 20.86 492.25 22.5 C 492.25 24.16 490.91 25.5 489.25 25.5 L 487.75 25.5 L 487.75 27 L 489.25 27 C 491.73 27 493.75 24.98 493.75 22.5 C 493.75 20.21 492.03 18.32 489.81 18.04 Z" fill="#ffffff" stroke="none" pointer-events="all" style="fill: rgb(255, 255, 255);"/></g></g></g><g data-cell-id="LddF3R96ZCdnI7Bx30d1-10"><g><path d="M 283 23.78 L 460 24" fill="none" stroke="#000000" stroke-miterlimit="10" pointer-events="stroke" style="stroke: rgb(0, 0, 0);"/></g></g></g></g></g></svg>