<?xml version="1.0" encoding="UTF-8"?>
<!-- Do not edit this file with editors other than draw.io -->
<!DOCTYPE svg PUBLIC "-//W3C//DTD SVG 1.1//EN" "http://www.w3.org/Graphics/SVG/1.1/DTD/svg11.dtd">
<svg xmlns="http://www.w3.org/2000/svg" xmlns:xlink="http://www.w3.org/1999/xlink" version="1.1" width="720px" height="220px" viewBox="-0.5 -0.5 720 220" content="&lt;mxfile host=&quot;Electron&quot; agent=&quot;Mozilla/5.0 (Macintosh; Intel Mac OS X 10_15_7) AppleWebKit/537.36 (KHTML, like Gecko) draw.io/25.0.2 Chrome/128.0.6613.186 Electron/32.2.5 Safari/537.36&quot; version=&quot;25.0.2&quot; scale=&quot;1&quot; border=&quot;0&quot;&gt;&#10;  &lt;diagram name=&quot;Page-1&quot; id=&quot;8wTxipBLSAse1nOkmh9F&quot;&gt;&#10;    &lt;mxGraphModel dx=&quot;1578&quot; dy=&quot;1638&quot; grid=&quot;1&quot; gridSize=&quot;10&quot; guides=&quot;1&quot; tooltips=&quot;1&quot; connect=&quot;1&quot; arrows=&quot;1&quot; fold=&quot;1&quot; page=&quot;1&quot; pageScale=&quot;1&quot; pageWidth=&quot;850&quot; pageHeight=&quot;1100&quot; math=&quot;0&quot; shadow=&quot;0&quot;&gt;&#10;      &lt;root&gt;&#10;        &lt;mxCell id=&quot;0&quot; /&gt;&#10;        &lt;mxCell id=&quot;1&quot; parent=&quot;0&quot; /&gt;&#10;        &lt;mxCell id=&quot;o5gOb5EpJ8vd6yiIu7Q0-1&quot; value=&quot;&quot; style=&quot;rounded=0;whiteSpace=wrap;html=1;strokeColor=none;&quot; vertex=&quot;1&quot; parent=&quot;1&quot;&gt;&#10;          &lt;mxGeometry x=&quot;-100&quot; y=&quot;-40&quot; width=&quot;720&quot; height=&quot;220&quot; as=&quot;geometry&quot; /&gt;&#10;        &lt;/mxCell&gt;&#10;        &lt;mxCell id=&quot;hN0CreysbBGn29C-ZNiO-8&quot; value=&quot;&quot; style=&quot;endArrow=none;html=1;rounded=0;&quot; parent=&quot;1&quot; edge=&quot;1&quot;&gt;&#10;          &lt;mxGeometry width=&quot;50&quot; height=&quot;50&quot; relative=&quot;1&quot; as=&quot;geometry&quot;&gt;&#10;            &lt;mxPoint x=&quot;47&quot; y=&quot;53.5&quot; as=&quot;sourcePoint&quot; /&gt;&#10;            &lt;mxPoint x=&quot;457&quot; y=&quot;54.5&quot; as=&quot;targetPoint&quot; /&gt;&#10;          &lt;/mxGeometry&gt;&#10;        &lt;/mxCell&gt;&#10;        &lt;mxCell id=&quot;hN0CreysbBGn29C-ZNiO-1&quot; value=&quot;Visitor&quot; style=&quot;shape=ellipse;fillColor=#000000;aspect=fixed;resizable=0;labelPosition=center;verticalLabelPosition=bottom;align=center;verticalAlign=top;strokeColor=none;fontSize=14;&quot; parent=&quot;1&quot; vertex=&quot;1&quot;&gt;&#10;          &lt;mxGeometry x=&quot;30&quot; y=&quot;28&quot; width=&quot;48&quot; height=&quot;48&quot; as=&quot;geometry&quot; /&gt;&#10;        &lt;/mxCell&gt;&#10;        &lt;mxCell id=&quot;hN0CreysbBGn29C-ZNiO-2&quot; value=&quot;&quot; style=&quot;fillColor=#ffffff;strokeColor=none;dashed=0;outlineConnect=0;html=1;labelPosition=center;verticalLabelPosition=bottom;verticalAlign=top;part=1;movable=0;resizable=0;rotatable=0;shape=mxgraph.ibm_cloud.user&quot; parent=&quot;hN0CreysbBGn29C-ZNiO-1&quot; vertex=&quot;1&quot;&gt;&#10;          &lt;mxGeometry width=&quot;24&quot; height=&quot;24&quot; relative=&quot;1&quot; as=&quot;geometry&quot;&gt;&#10;            &lt;mxPoint x=&quot;12&quot; y=&quot;12&quot; as=&quot;offset&quot; /&gt;&#10;          &lt;/mxGeometry&gt;&#10;        &lt;/mxCell&gt;&#10;        &lt;mxCell id=&quot;hN0CreysbBGn29C-ZNiO-3&quot; value=&quot;Cloud &amp;#xa;Internet &amp;#xa;Services&quot; style=&quot;shape=rect;fillColor=#1192E8;aspect=fixed;resizable=0;labelPosition=center;verticalLabelPosition=bottom;align=center;verticalAlign=top;strokeColor=none;fontSize=14;&quot; parent=&quot;1&quot; vertex=&quot;1&quot;&gt;&#10;          &lt;mxGeometry x=&quot;228&quot; y=&quot;30&quot; width=&quot;48&quot; height=&quot;48&quot; as=&quot;geometry&quot; /&gt;&#10;        &lt;/mxCell&gt;&#10;        &lt;mxCell id=&quot;hN0CreysbBGn29C-ZNiO-4&quot; value=&quot;&quot; style=&quot;fillColor=#ffffff;strokeColor=none;dashed=0;outlineConnect=0;html=1;labelPosition=center;verticalLabelPosition=bottom;verticalAlign=top;part=1;movable=0;resizable=0;rotatable=0;shape=mxgraph.ibm_cloud.ibm-cloud--internet-services&quot; parent=&quot;hN0CreysbBGn29C-ZNiO-3&quot; vertex=&quot;1&quot;&gt;&#10;          &lt;mxGeometry width=&quot;24&quot; height=&quot;24&quot; relative=&quot;1&quot; as=&quot;geometry&quot;&gt;&#10;            &lt;mxPoint x=&quot;12&quot; y=&quot;12&quot; as=&quot;offset&quot; /&gt;&#10;          &lt;/mxGeometry&gt;&#10;        &lt;/mxCell&gt;&#10;        &lt;mxCell id=&quot;hN0CreysbBGn29C-ZNiO-30&quot; value=&quot;Origin Server&amp;#xa;&quot; style=&quot;shape=rect;fillColor=#198038;aspect=fixed;resizable=0;labelPosition=center;verticalLabelPosition=bottom;align=center;verticalAlign=top;strokeColor=none;fontSize=14;&quot; parent=&quot;1&quot; vertex=&quot;1&quot;&gt;&#10;          &lt;mxGeometry x=&quot;425&quot; y=&quot;30&quot; width=&quot;48&quot; height=&quot;48&quot; as=&quot;geometry&quot; /&gt;&#10;        &lt;/mxCell&gt;&#10;        &lt;mxCell id=&quot;hN0CreysbBGn29C-ZNiO-31&quot; value=&quot;&quot; style=&quot;fillColor=#ffffff;strokeColor=none;dashed=0;outlineConnect=0;html=1;labelPosition=center;verticalLabelPosition=bottom;verticalAlign=top;part=1;movable=0;resizable=0;rotatable=0;shape=mxgraph.ibm_cloud.ibm-cloud--virtual-server-classic&quot; parent=&quot;hN0CreysbBGn29C-ZNiO-30&quot; vertex=&quot;1&quot;&gt;&#10;          &lt;mxGeometry width=&quot;24&quot; height=&quot;24&quot; relative=&quot;1&quot; as=&quot;geometry&quot;&gt;&#10;            &lt;mxPoint x=&quot;12&quot; y=&quot;12&quot; as=&quot;offset&quot; /&gt;&#10;          &lt;/mxGeometry&gt;&#10;        &lt;/mxCell&gt;&#10;      &lt;/root&gt;&#10;    &lt;/mxGraphModel&gt;&#10;  &lt;/diagram&gt;&#10;&lt;/mxfile&gt;&#10;" style="background-color: rgb(255, 255, 255);"><defs/><rect fill="#ffffff" width="100%" height="100%" x="0" y="0"/><g><g data-cell-id="0"><g data-cell-id="1"><g data-cell-id="o5gOb5EpJ8vd6yiIu7Q0-1"><g><rect x="0" y="0" width="720" height="220" fill="rgb(255, 255, 255)" stroke="none" pointer-events="all"/></g></g><g data-cell-id="hN0CreysbBGn29C-ZNiO-8"><g><path d="M 147 93.5 L 557 94.5" fill="none" stroke="rgb(0, 0, 0)" stroke-miterlimit="10" pointer-events="stroke"/></g></g><g data-cell-id="hN0CreysbBGn29C-ZNiO-1"><g><ellipse cx="154" cy="92" rx="24" ry="24" fill="#000000" stroke="none" pointer-events="all"/></g><g><g fill="rgb(0, 0, 0)" font-family="&quot;Helvetica&quot;" text-anchor="middle" font-size="14px"><text x="153.5" y="135.5">Visitor</text></g></g><g data-cell-id="hN0CreysbBGn29C-ZNiO-2"><g><rect x="142" y="80" width="24" height="24" fill="none" stroke="none" pointer-events="all"/><rect x="142" y="80" width="0" height="0" fill="none" stroke="none" pointer-events="all"/><path d="M 154 83 C 156.07 83 157.75 84.68 157.75 86.75 C 157.75 88.82 156.07 90.5 154 90.5 C 151.93 90.5 150.25 88.82 150.25 86.75 C 150.25 84.68 151.93 83 154 83 M 154 81.5 C 151.1 81.5 148.75 83.85 148.75 86.75 C 148.75 89.65 151.1 92 154 92 C 156.9 92 159.25 89.65 159.25 86.75 C 159.25 83.85 156.9 81.5 154 81.5 Z M 161.5 102.5 L 160 102.5 L 160 98.75 C 160 96.68 158.32 95 156.25 95 L 151.75 95 C 149.68 95 148 96.68 148 98.75 L 148 102.5 L 146.5 102.5 L 146.5 98.75 C 146.5 95.85 148.85 93.5 151.75 93.5 L 156.25 93.5 C 159.15 93.5 161.5 95.85 161.5 98.75 Z" fill="#ffffff" stroke="none" pointer-events="all"/></g></g></g><g data-cell-id="hN0CreysbBGn29C-ZNiO-3"><g><rect x="328" y="70" width="48" height="48" fill="#1192e8" stroke="none" pointer-events="all"/></g><g><g fill="rgb(0, 0, 0)" font-family="&quot;Helvetica&quot;" text-anchor="middle" font-size="14px"><text x="351.5" y="137.5">Cloud </text><text x="351.5" y="154.5">Internet </text><text x="351.5" y="171.5">Services</text></g></g><g data-cell-id="hN0CreysbBGn29C-ZNiO-4"><g><rect x="340" y="82" width="24" height="24" fill="none" stroke="none" pointer-events="all"/><rect x="340" y="82" width="0" height="0" fill="none" stroke="none" pointer-events="all"/><path d="M 360.25 98.5 C 359.72 98.5 359.2 98.72 358.83 99.03 L 354.92 96.7 C 354.92 96.55 355 96.4 355 96.25 C 355 96.1 355 95.95 354.92 95.8 L 358.83 93.47 C 359.2 93.78 359.72 94 360.25 94 C 361.53 94 362.5 93.03 362.5 91.75 C 362.5 90.47 361.53 89.5 360.25 89.5 C 358.97 89.5 358 90.47 358 91.75 C 358 91.9 358 92.05 358.08 92.2 L 354.17 94.53 C 353.8 94.22 353.28 94 352.75 94 C 351.47 94 350.5 94.97 350.5 96.25 C 350.5 97.53 351.47 98.5 352.75 98.5 C 353.28 98.5 353.8 98.28 354.17 97.97 L 358.08 100.3 C 358.08 100.45 358 100.6 358 100.75 C 358 102.03 358.97 103 360.25 103 C 361.53 103 362.5 102.03 362.5 100.75 C 362.5 99.47 361.53 98.5 360.25 98.5 Z M 360.25 91 C 360.7 91 361 91.3 361 91.75 C 361 92.2 360.7 92.5 360.25 92.5 C 359.8 92.5 359.5 92.2 359.5 91.75 C 359.5 91.3 359.8 91 360.25 91 Z M 352.75 97 C 352.3 97 352 96.7 352 96.25 C 352 95.8 352.3 95.5 352.75 95.5 C 353.2 95.5 353.5 95.8 353.5 96.25 C 353.5 96.7 353.2 97 352.75 97 Z M 360.25 101.5 C 359.8 101.5 359.5 101.2 359.5 100.75 C 359.5 100.3 359.8 100 360.25 100 C 360.7 100 361 100.3 361 100.75 C 361 101.2 360.7 101.5 360.25 101.5 Z" fill="#ffffff" stroke="none" pointer-events="all"/><path d="M 354.25 100.75 L 346.38 100.75 C 344.13 100.75 342.25 98.88 342.25 96.63 C 342.25 94.6 343.67 92.95 345.63 92.58 L 346.6 92.42 L 346.83 91.45 C 347.42 88.53 349.9 86.5 352.75 86.5 C 353.13 86.5 353.5 86.5 353.88 86.58 C 355.08 86.8 356.13 87.4 357.03 88.22 L 358.08 87.17 C 357.03 86.13 355.67 85.38 354.17 85.15 C 353.72 85.08 353.2 85 352.75 85 C 349.22 85 346.08 87.47 345.4 91.08 C 342.7 91.6 340.75 93.92 340.75 96.63 C 340.75 99.7 343.22 102.25 346.38 102.25 L 354.25 102.25 L 354.25 100.75 Z" fill="#ffffff" stroke="none" pointer-events="all"/></g></g></g><g data-cell-id="hN0CreysbBGn29C-ZNiO-30"><g><rect x="525" y="70" width="48" height="48" fill="#198038" stroke="none" pointer-events="all"/></g><g><g fill="rgb(0, 0, 0)" font-family="&quot;Helvetica&quot;" text-anchor="middle" font-size="14px"><text x="548.5" y="137.5">Origin Server</text></g></g><g data-cell-id="hN0CreysbBGn29C-ZNiO-31"><g><rect x="537" y="82" width="24" height="24" fill="none" stroke="none" pointer-events="all"/><rect x="537" y="82" width="0" height="0" fill="none" stroke="none" pointer-events="all"/><ellipse cx="543.75" cy="101.5" rx="0.75" ry="0.75" fill="#ffffff" stroke="none" pointer-events="all"/><path d="M 556.5 98.5 L 552.75 98.5 L 552.75 100 L 556.5 100 L 556.5 103 L 541.5 103 L 541.5 100 L 548.25 100 C 549.08 100 549.75 99.33 549.75 98.5 L 549.75 91.62 L 551.69 93.57 L 552.75 92.5 L 549 88.75 L 545.25 92.5 L 546.31 93.56 L 548.25 91.62 L 548.25 98.5 L 541.5 98.5 C 540.67 98.5 540 99.17 540 100 L 540 103 C 540 103.83 540.67 104.5 541.5 104.5 L 556.5 104.5 C 557.33 104.5 558 103.83 558 103 L 558 100 C 558 99.17 557.33 98.5 556.5 98.5 Z" fill="#ffffff" stroke="none" pointer-events="all"/><path d="M 554.81 88.04 C 554.15 85.41 551.75 83.5 549 83.5 C 546.25 83.5 543.85 85.41 543.19 88.04 C 540.97 88.32 539.25 90.21 539.25 92.5 C 539.25 94.98 541.27 97 543.75 97 L 545.25 97 L 545.25 95.5 L 543.75 95.5 C 542.09 95.5 540.75 94.16 540.75 92.5 C 540.75 90.86 542.08 89.52 543.71 89.5 L 544.45 89.52 L 544.55 88.86 C 544.87 86.66 546.78 85 549 85 C 551.22 85 553.13 86.66 553.45 88.86 L 553.54 89.52 L 554.2 89.51 L 554.3 89.5 C 555.93 89.52 557.25 90.86 557.25 92.5 C 557.25 94.16 555.91 95.5 554.25 95.5 L 552.75 95.5 L 552.75 97 L 554.25 97 C 556.73 97 558.75 94.98 558.75 92.5 C 558.75 90.21 557.03 88.32 554.81 88.04 Z" fill="#ffffff" stroke="none" pointer-events="all"/></g></g></g></g></g></g></svg>